<?plantuml 1.2026.1?><svg xmlns="http://www.w3.org/2000/svg" xmlns:xlink="http://www.w3.org/1999/xlink" contentStyleType="text/css" data-diagram-type="CLASS" height="131px" preserveAspectRatio="none" style="width:401px;height:131px;background:#FFFFFF;" version="1.1" viewBox="0 0 401 131" width="401px" zoomAndPan="magnify"><defs/><g><!--class io.github.ai4ci.config.refdata.UKCensus.FullTime--><g class="entity" data-qualified-name="io.github.ai4ci.config.refdata.UKCensus.FullTime" data-source-line="14" id="ent0002"><a href="UKCensus.FullTime.html" target="_top" title="UKCensus.FullTime.html" xlink:actuate="onRequest" xlink:href="UKCensus.FullTime.html" xlink:show="new" xlink:title="UKCensus.FullTime.html" xlink:type="simple"><rect fill="#F1F1F1" height="78.5313" rx="2.5" ry="2.5" style="stroke:#181818;stroke-width:0.5;" width="176.1357" x="218" y="19.5"/><ellipse cx="233" cy="38.4688" fill="#EB937F" rx="11" ry="11" style="stroke:#181818;stroke-width:1;"/><path d="M237.1094,44.4688 L229.3906,44.4688 L229.3906,32.0781 L237.1094,32.0781 L237.1094,34.2344 L231.8438,34.2344 L231.8438,36.9063 L236.6094,36.9063 L236.6094,39.0625 L231.8438,39.0625 L231.8438,42.3125 L237.1094,42.3125 L237.1094,44.4688 Z " fill="#000000"/><text fill="#000000" font-family="sans-serif" font-size="14" lengthAdjust="spacing" textLength="133.998" x="252.0688" y="37.4951">UKCensus.FullTime</text><text fill="#000000" font-family="sans-serif" font-size="10" lengthAdjust="spacing" textLength="144.1357" x="247" y="50.0791">io.github.ai4ci.config.refdata</text><line style="stroke:#181818;stroke-width:0.5;" x1="219" x2="393.1357" y1="57.4375" y2="57.4375"/></a><g data-visibility-modifier="PUBLIC_FIELD"><a href="UKCensus.FullTime.html" target="_top" title="UKCensus.FullTime.html" xlink:actuate="onRequest" xlink:href="UKCensus.FullTime.html" xlink:show="new" xlink:title="UKCensus.FullTime.html" xlink:type="simple"><ellipse cx="229" cy="71.0859" fill="none" rx="3" ry="3" style="stroke:#038048;stroke-width:1;"/></a></g><a href="UKCensus.FullTime.html" target="_top" title="UKCensus.FullTime.html" xlink:actuate="onRequest" xlink:href="UKCensus.FullTime.html" xlink:show="new" xlink:title="UKCensus.FullTime.html" xlink:type="simple"><text fill="#000000" font-family="sans-serif" font-size="14" lengthAdjust="spacing" text-decoration="underline" textLength="33.8994" x="238" y="74.4326">FULL</text></a><g data-visibility-modifier="PUBLIC_FIELD"><a href="UKCensus.FullTime.html" target="_top" title="UKCensus.FullTime.html" xlink:actuate="onRequest" xlink:href="UKCensus.FullTime.html" xlink:show="new" xlink:title="UKCensus.FullTime.html" xlink:type="simple"><ellipse cx="229" cy="87.3828" fill="none" rx="3" ry="3" style="stroke:#038048;stroke-width:1;"/></a></g><a href="UKCensus.FullTime.html" target="_top" title="UKCensus.FullTime.html" xlink:actuate="onRequest" xlink:href="UKCensus.FullTime.html" xlink:show="new" xlink:title="UKCensus.FullTime.html" xlink:type="simple"><text fill="#000000" font-family="sans-serif" font-size="14" lengthAdjust="spacing" text-decoration="underline" textLength="36.2988" x="238" y="90.7295">PART</text></a></g><!--class io.github.ai4ci.util.Factor--><g class="entity" data-qualified-name="io.github.ai4ci.util.Factor" data-source-line="19" id="ent0003"><a href="../../util/Factor.html" target="_top" title="../../util/Factor.html" xlink:actuate="onRequest" xlink:href="../../util/Factor.html" xlink:show="new" xlink:title="../../util/Factor.html" xlink:type="simple"><rect fill="#F1F1F1" height="37.9375" rx="2.5" ry="2.5" style="stroke:#181818;stroke-width:0.5;" width="121.8633" x="33" y="12"/><ellipse cx="48" cy="30.9688" fill="#B4A7E5" rx="11" ry="11" style="stroke:#181818;stroke-width:1;"/><path d="M43.9219,26.7344 L43.9219,24.5781 L51.3125,24.5781 L51.3125,26.7344 L48.8438,26.7344 L48.8438,34.8125 L51.3125,34.8125 L51.3125,36.9688 L43.9219,36.9688 L43.9219,34.8125 L46.3906,34.8125 L46.3906,26.7344 L43.9219,26.7344 Z " fill="#000000"/><text fill="#000000" font-family="sans-serif" font-size="14" font-style="italic" lengthAdjust="spacing" textLength="44.1396" x="84.8618" y="29.9951">Factor</text><text fill="#000000" font-family="sans-serif" font-size="10" font-style="italic" lengthAdjust="spacing" textLength="89.8633" x="62" y="42.5791">io.github.ai4ci.util</text></a></g><!--class io.github.ai4ci.config.refdata.UKCensus--><g class="entity" data-qualified-name="io.github.ai4ci.config.refdata.UKCensus" data-source-line="20" id="ent0004"><a href="UKCensus.html" target="_top" title="UKCensus.html" xlink:actuate="onRequest" xlink:href="UKCensus.html" xlink:show="new" xlink:title="UKCensus.html" xlink:type="simple"><rect fill="#F1F1F1" height="37.9375" rx="2.5" ry="2.5" style="stroke:#181818;stroke-width:0.5;" width="176.1357" x="6" y="68"/><ellipse cx="21" cy="86.9688" fill="#ADD1B2" rx="11" ry="11" style="stroke:#181818;stroke-width:1;"/><path d="M23.9688,92.6094 Q23.3906,92.9063 22.75,93.0469 Q22.1094,93.2031 21.4063,93.2031 Q18.9063,93.2031 17.5781,91.5625 Q16.2656,89.9063 16.2656,86.7813 Q16.2656,83.6563 17.5781,82 Q18.9063,80.3438 21.4063,80.3438 Q22.1094,80.3438 22.75,80.5 Q23.4063,80.6563 23.9688,80.9531 L23.9688,83.6719 Q23.3438,83.0938 22.75,82.8281 Q22.1563,82.5469 21.5313,82.5469 Q20.1875,82.5469 19.5,83.625 Q18.8125,84.6875 18.8125,86.7813 Q18.8125,88.875 19.5,89.9531 Q20.1875,91.0156 21.5313,91.0156 Q22.1563,91.0156 22.75,90.75 Q23.3438,90.4688 23.9688,89.8906 L23.9688,92.6094 Z " fill="#000000"/><text fill="#000000" font-family="sans-serif" font-size="14" lengthAdjust="spacing" textLength="70.1504" x="71.9927" y="85.9951">UKCensus</text><text fill="#000000" font-family="sans-serif" font-size="10" lengthAdjust="spacing" textLength="144.1357" x="35" y="98.5791">io.github.ai4ci.config.refdata</text></a></g><g class="link" data-entity-1="ent0003" data-entity-2="ent0002" data-link-type="extension" id="lnk5"><polygon fill="none" points="155.1776,39.0237,172.2267,47.35,173.8127,35.4553,155.1776,39.0237" style="stroke:#181818;stroke-width:1;"/><path d="M173.0197,41.4026 C192.5329,44.0044 196.7466,44.5662 217.8165,47.3755" fill="none" style="stroke:#181818;stroke-width:1;stroke-dasharray:7,7;"/></g><g class="link" data-entity-1="ent0004" data-entity-2="ent0002" data-link-type="nested" id="lnk6"><ellipse cx="190.1643" cy="74.3114" fill="#FFFFFF" rx="8" ry="8" style="stroke:#181818;stroke-width:1;"/><line style="stroke:#181818;stroke-width:1;" x1="198.0942" x2="182.2345" y1="73.2541" y2="75.3687"/><line style="stroke:#181818;stroke-width:1;" x1="191.2217" x2="189.107" y1="82.2412" y2="66.3816"/><path d="M198.0942,73.2541 C209.8139,71.6915 205.9781,72.2029 217.699,70.6401" fill="none" style="stroke:#181818;stroke-width:1;"/></g><g class="footer" data-source-line="31"><text fill="#888888" font-family="sans-serif" font-size="10" lengthAdjust="spacing" textLength="3.1787" x="194.9106" y="109.2822">&#160;</text><a href="https://github.com/talsma-ict/umldoclet" target="_top" title="https://github.com/talsma-ict/umldoclet" xlink:actuate="onRequest" xlink:href="https://github.com/talsma-ict/umldoclet" xlink:show="new" xlink:title="https://github.com/talsma-ict/umldoclet" xlink:type="simple"><text fill="#888888" font-family="sans-serif" font-size="10" lengthAdjust="spacing" textLength="140.4639" x="126.2681" y="120.9229">UMLDoclet 2.2.5-SNAPSHOT</text></a></g><?plantuml-src jLJTJzim47_dhxYn1pP1d3G31XL2ghenjdKRekdB2W-7Sqai73kp7QQEyR_F-LZNZOB4mo9BKUxi-tsSSm00Mp3MrSA8l73WDBX2M9XzcW2g579IPD1H2gB4d2nSaTGgjzr60gnTeGtehFtYsXYobLQfK3bym1i4gsl3oRAD3MYXaj_LlwDTgNwrQ89lD9VauCNuvGgbE1hi1t4KxqE2qfO8xyS9wwlzEHEpcEq5qy-Zi-dfbmGyY1ISbFMrQvMIQVcDAkJ-DUaoEt13nWgj_E6eBzXevbev5Cf2XSRPHjkPHEKQqWFM4643U36QJluc6Hss97TWP1JMAPphR_LIzxFAOEwfIrpese4joQ72DYKfQstlwgJ247UUKtVEUcKAI-yfSfgI9uJEswsqeZPVY9I0oiej81CaK_jlr0CLseVREAcwXCqZAtxGSB1xFFiuzZRKbftKKYQYf0lLvw9ZeLakN55VCHIxN33lIIPoPYXBqU4c-EOzleNTgmxp-RqOArmfBo_XjkNNFBVMeHFy3hPFPfF9cl3Pw3nfmtUTAA4ScSpRiwBi1BctwH4vjHDohOWcmRhZdYzZeLzDBEnYFTyMc4kqTesT_yN5LVDw3ftwH_WV_MJioLrQM_KXKjj1y7I05k78keMausL_Cwrz6rVkGVESBYeo4w6knrfwFSyFrcTdpVyjXI8_M_Yr8j-LQBdpheCBL_1wh0irdnVELNOOXhq2hilGjKCc4Do5TIdJRheyD6Vwgx05xvQJh1a2GHG7WpY93eQxqN0lOdkl3lqwV7tmTVxMyN2MZ2z_0G00?></g></svg>