<?plantuml 1.2026.1?><svg xmlns="http://www.w3.org/2000/svg" xmlns:xlink="http://www.w3.org/1999/xlink" contentStyleType="text/css" data-diagram-type="CLASS" height="355px" preserveAspectRatio="none" style="width:854px;height:355px;background:#FFFFFF;" version="1.1" viewBox="0 0 854 355" width="854px" zoomAndPan="magnify"><defs/><g><!--class io.github.ai4ci.util.Repository--><g class="entity" data-qualified-name="io.github.ai4ci.util.Repository" data-source-line="14" id="ent0002"><a href="Repository.html" target="_top" title="Repository.html" xlink:actuate="onRequest" xlink:href="Repository.html" xlink:show="new" xlink:title="Repository.html" xlink:type="simple"><rect fill="#F1F1F1" height="160.0156" rx="2.5" ry="2.5" style="stroke:#181818;stroke-width:0.5;" width="491.3838" x="6" y="91"/><ellipse cx="202.5103" cy="109.9688" fill="#ADD1B2" rx="11" ry="11" style="stroke:#181818;stroke-width:1;"/><path d="M205.479,115.6094 Q204.9009,115.9063 204.2603,116.0469 Q203.6196,116.2031 202.9165,116.2031 Q200.4165,116.2031 199.0884,114.5625 Q197.7759,112.9063 197.7759,109.7813 Q197.7759,106.6563 199.0884,105 Q200.4165,103.3438 202.9165,103.3438 Q203.6196,103.3438 204.2603,103.5 Q204.9165,103.6563 205.479,103.9531 L205.479,106.6719 Q204.854,106.0938 204.2603,105.8281 Q203.6665,105.5469 203.0415,105.5469 Q201.6978,105.5469 201.0103,106.625 Q200.3228,107.6875 200.3228,109.7813 Q200.3228,111.875 201.0103,112.9531 Q201.6978,114.0156 203.0415,114.0156 Q203.6665,114.0156 204.2603,113.75 Q204.854,113.4688 205.479,112.8906 L205.479,115.6094 Z " fill="#000000"/><text fill="#000000" font-family="sans-serif" font-size="14" lengthAdjust="spacing" textLength="75.0723" x="230.4058" y="108.9951">Repository</text><text fill="#000000" font-family="sans-serif" font-size="10" lengthAdjust="spacing" textLength="89.8633" x="223.0103" y="121.5791">io.github.ai4ci.util</text><line style="stroke:#181818;stroke-width:0.5;" x1="7" x2="496.3838" y1="128.9375" y2="128.9375"/></a><g data-visibility-modifier="PUBLIC_METHOD"><a href="Repository.html" target="_top" title="Repository.html" xlink:actuate="onRequest" xlink:href="Repository.html" xlink:show="new" xlink:title="Repository.html" xlink:type="simple"><ellipse cx="17" cy="142.5859" fill="#84BE84" rx="3" ry="3" style="stroke:#038048;stroke-width:1;"/></a></g><a href="Repository.html" target="_top" title="Repository.html" xlink:actuate="onRequest" xlink:href="Repository.html" xlink:show="new" xlink:title="Repository.html" xlink:type="simple"><text fill="#000000" font-family="sans-serif" font-size="14" lengthAdjust="spacing" textLength="117.3799" x="26" y="145.9326">Repository(Path)</text></a><g data-visibility-modifier="PUBLIC_METHOD"><a href="Repository.html" target="_top" title="Repository.html" xlink:actuate="onRequest" xlink:href="Repository.html" xlink:show="new" xlink:title="Repository.html" xlink:type="simple"><ellipse cx="17" cy="158.8828" fill="#84BE84" rx="3" ry="3" style="stroke:#038048;stroke-width:1;"/></a></g><a href="Repository.html" target="_top" title="Repository.html" xlink:actuate="onRequest" xlink:href="Repository.html" xlink:show="new" xlink:title="Repository.html" xlink:type="simple"><text fill="#000000" font-family="sans-serif" font-size="14" lengthAdjust="spacing" text-decoration="underline" textLength="263.7988" x="26" y="162.2295">loadAll(Path, Class&lt;?&gt;...): Repository</text></a><g data-visibility-modifier="PUBLIC_METHOD"><a href="Repository.html" target="_top" title="Repository.html" xlink:actuate="onRequest" xlink:href="Repository.html" xlink:show="new" xlink:title="Repository.html" xlink:type="simple"><ellipse cx="17" cy="175.1797" fill="#84BE84" rx="3" ry="3" style="stroke:#038048;stroke-width:1;"/></a></g><a href="Repository.html" target="_top" title="Repository.html" xlink:actuate="onRequest" xlink:href="Repository.html" xlink:show="new" xlink:title="Repository.html" xlink:type="simple"><text fill="#000000" font-family="sans-serif" font-size="14" lengthAdjust="spacing" textLength="372.6406" x="26" y="178.5264">findOne(Y, Class&lt;X&gt;, SerializableFunction&lt;X, Y&gt;): X</text></a><g data-visibility-modifier="PUBLIC_METHOD"><a href="Repository.html" target="_top" title="Repository.html" xlink:actuate="onRequest" xlink:href="Repository.html" xlink:show="new" xlink:title="Repository.html" xlink:type="simple"><ellipse cx="17" cy="191.4766" fill="#84BE84" rx="3" ry="3" style="stroke:#038048;stroke-width:1;"/></a></g><a href="Repository.html" target="_top" title="Repository.html" xlink:actuate="onRequest" xlink:href="Repository.html" xlink:show="new" xlink:title="Repository.html" xlink:type="simple"><text fill="#000000" font-family="sans-serif" font-size="14" lengthAdjust="spacing" textLength="465.3838" x="26" y="194.8232">findValues(Y, Class&lt;X&gt;, SerializableFunction&lt;X, Y&gt;): Stream&lt;X&gt;</text></a><g data-visibility-modifier="PUBLIC_METHOD"><a href="Repository.html" target="_top" title="Repository.html" xlink:actuate="onRequest" xlink:href="Repository.html" xlink:show="new" xlink:title="Repository.html" xlink:type="simple"><ellipse cx="17" cy="207.7734" fill="#84BE84" rx="3" ry="3" style="stroke:#038048;stroke-width:1;"/></a></g><a href="Repository.html" target="_top" title="Repository.html" xlink:actuate="onRequest" xlink:href="Repository.html" xlink:show="new" xlink:title="Repository.html" xlink:type="simple"><text fill="#000000" font-family="sans-serif" font-size="14" lengthAdjust="spacing" textLength="212.7686" x="26" y="211.1201">getValue(Class&lt;X&gt;, String): X</text></a><g data-visibility-modifier="PUBLIC_METHOD"><a href="Repository.html" target="_top" title="Repository.html" xlink:actuate="onRequest" xlink:href="Repository.html" xlink:show="new" xlink:title="Repository.html" xlink:type="simple"><ellipse cx="17" cy="224.0703" fill="#84BE84" rx="3" ry="3" style="stroke:#038048;stroke-width:1;"/></a></g><a href="Repository.html" target="_top" title="Repository.html" xlink:actuate="onRequest" xlink:href="Repository.html" xlink:show="new" xlink:title="Repository.html" xlink:type="simple"><text fill="#000000" font-family="sans-serif" font-size="14" lengthAdjust="spacing" textLength="202.8701" x="26" y="227.417">hasType(Class&lt;?&gt;): boolean</text></a><g data-visibility-modifier="PUBLIC_METHOD"><a href="Repository.html" target="_top" title="Repository.html" xlink:actuate="onRequest" xlink:href="Repository.html" xlink:show="new" xlink:title="Repository.html" xlink:type="simple"><ellipse cx="17" cy="240.3672" fill="#84BE84" rx="3" ry="3" style="stroke:#038048;stroke-width:1;"/></a></g><a href="Repository.html" target="_top" title="Repository.html" xlink:actuate="onRequest" xlink:href="Repository.html" xlink:show="new" xlink:title="Repository.html" xlink:type="simple"><text fill="#000000" font-family="sans-serif" font-size="14" lengthAdjust="spacing" textLength="270.1836" x="26" y="243.7139">streamValues(Class&lt;X&gt;): Stream&lt;X&gt;</text></a></g><!--class io.github.ai4ci.util.Repository.CSVReader--><g class="entity" data-qualified-name="io.github.ai4ci.util.Repository.CSVReader" data-source-line="23" id="ent0003"><a href="Repository.CSVReader.html" target="_top" title="Repository.CSVReader.html" xlink:actuate="onRequest" xlink:href="Repository.CSVReader.html" xlink:show="new" xlink:title="Repository.CSVReader.html" xlink:type="simple"><rect fill="#F1F1F1" height="37.9375" rx="2.5" ry="2.5" style="stroke:#181818;stroke-width:0.5;" width="202.1582" x="587.5" y="12"/><ellipse cx="602.5" cy="30.9688" fill="#ADD1B2" rx="11" ry="11" style="stroke:#181818;stroke-width:1;"/><path d="M605.4688,36.6094 Q604.8906,36.9063 604.25,37.0469 Q603.6094,37.2031 602.9063,37.2031 Q600.4063,37.2031 599.0781,35.5625 Q597.7656,33.9063 597.7656,30.7813 Q597.7656,27.6563 599.0781,26 Q600.4063,24.3438 602.9063,24.3438 Q603.6094,24.3438 604.25,24.5 Q604.9063,24.6563 605.4688,24.9531 L605.4688,27.6719 Q604.8438,27.0938 604.25,26.8281 Q603.6563,26.5469 603.0313,26.5469 Q601.6875,26.5469 601,27.625 Q600.3125,28.6875 600.3125,30.7813 Q600.3125,32.875 601,33.9531 Q601.6875,35.0156 603.0313,35.0156 Q603.6563,35.0156 604.25,34.75 Q604.8438,34.4688 605.4688,33.8906 L605.4688,36.6094 Z " fill="#000000"/><text fill="#000000" font-family="sans-serif" font-size="14" lengthAdjust="spacing" textLength="157.9375" x="616.5" y="29.9951">Repository.CSVReader</text><text fill="#000000" font-family="sans-serif" font-size="10" lengthAdjust="spacing" textLength="89.8633" x="650.5371" y="42.5791">io.github.ai4ci.util</text><rect fill="#FFFFFF" height="15.9688" style="stroke:#181818;stroke-width:1;stroke-dasharray:2,2;" width="10.2207" x="782.4375" y="9"/><text fill="#000000" font-family="sans-serif" font-size="12" font-style="italic" lengthAdjust="spacing" textLength="8.2207" x="783.4375" y="21.1387">X</text></a></g><!--class io.github.ai4ci.util.Repository.FunctionKey--><g class="entity" data-qualified-name="io.github.ai4ci.util.Repository.FunctionKey" data-source-line="24" id="ent0004"><a href="Repository.FunctionKey.html" target="_top" title="Repository.FunctionKey.html" xlink:actuate="onRequest" xlink:href="Repository.FunctionKey.html" xlink:show="new" xlink:title="Repository.FunctionKey.html" xlink:type="simple"><rect fill="#F1F1F1" height="37.9375" rx="2.5" ry="2.5" style="stroke:#181818;stroke-width:0.5;" width="225.0947" x="576" y="68"/><ellipse cx="591" cy="86.9688" fill="#ADD1B2" rx="11" ry="11" style="stroke:#181818;stroke-width:1;"/><path d="M593.9688,92.6094 Q593.3906,92.9063 592.75,93.0469 Q592.1094,93.2031 591.4063,93.2031 Q588.9063,93.2031 587.5781,91.5625 Q586.2656,89.9063 586.2656,86.7813 Q586.2656,83.6563 587.5781,82 Q588.9063,80.3438 591.4063,80.3438 Q592.1094,80.3438 592.75,80.5 Q593.4063,80.6563 593.9688,80.9531 L593.9688,83.6719 Q593.3438,83.0938 592.75,82.8281 Q592.1563,82.5469 591.5313,82.5469 Q590.1875,82.5469 589.5,83.625 Q588.8125,84.6875 588.8125,86.7813 Q588.8125,88.875 589.5,89.9531 Q590.1875,91.0156 591.5313,91.0156 Q592.1563,91.0156 592.75,90.75 Q593.3438,90.4688 593.9688,89.8906 L593.9688,92.6094 Z " fill="#000000"/><text fill="#000000" font-family="sans-serif" font-size="14" lengthAdjust="spacing" textLength="165.915" x="605" y="85.9951">Repository.FunctionKey</text><text fill="#000000" font-family="sans-serif" font-size="10" lengthAdjust="spacing" textLength="89.8633" x="643.0259" y="98.5791">io.github.ai4ci.util</text><rect fill="#FFFFFF" height="15.9688" style="stroke:#181818;stroke-width:1;stroke-dasharray:2,2;" width="25.1797" x="778.915" y="65"/><text fill="#000000" font-family="sans-serif" font-size="12" font-style="italic" lengthAdjust="spacing" textLength="23.1797" x="779.915" y="77.1387">X, Y</text></a></g><!--class io.github.ai4ci.util.Repository.Indexed--><g class="entity" data-qualified-name="io.github.ai4ci.util.Repository.Indexed" data-source-line="25" id="ent0005"><a href="Repository.Indexed.html" target="_top" title="Repository.Indexed.html" xlink:actuate="onRequest" xlink:href="Repository.Indexed.html" xlink:show="new" xlink:title="Repository.Indexed.html" xlink:type="simple"><rect fill="#F1F1F1" height="37.9375" rx="2.5" ry="2.5" style="stroke:#181818;stroke-width:0.5;" width="310.501" x="533" y="124"/><ellipse cx="548" cy="142.9688" fill="#B4A7E5" rx="11" ry="11" style="stroke:#181818;stroke-width:1;"/><path d="M543.9219,138.7344 L543.9219,136.5781 L551.3125,136.5781 L551.3125,138.7344 L548.8438,138.7344 L548.8438,146.8125 L551.3125,146.8125 L551.3125,148.9688 L543.9219,148.9688 L543.9219,146.8125 L546.3906,146.8125 L546.3906,138.7344 L543.9219,138.7344 Z " fill="#000000"/><text fill="#000000" font-family="sans-serif" font-size="14" font-style="italic" lengthAdjust="spacing" textLength="135.8096" x="562" y="141.9951">Repository.Indexed</text><text fill="#000000" font-family="sans-serif" font-size="10" font-style="italic" lengthAdjust="spacing" textLength="89.8633" x="584.9731" y="154.5791">io.github.ai4ci.util</text><rect fill="#FFFFFF" height="15.9688" style="stroke:#181818;stroke-width:1;stroke-dasharray:2,2;" width="140.6914" x="705.8096" y="121"/><text fill="#000000" font-family="sans-serif" font-size="12" font-style="italic" lengthAdjust="spacing" textLength="138.6914" x="706.8096" y="133.1387">Y extends Indexed&lt;Y&gt;</text></a></g><!--class io.github.ai4ci.util.Repository.RepositoryIndex--><g class="entity" data-qualified-name="io.github.ai4ci.util.Repository.RepositoryIndex" data-source-line="26" id="ent0006"><a href="Repository.RepositoryIndex.html" target="_top" title="Repository.RepositoryIndex.html" xlink:actuate="onRequest" xlink:href="Repository.RepositoryIndex.html" xlink:show="new" xlink:title="Repository.RepositoryIndex.html" xlink:type="simple"><rect fill="#F1F1F1" height="37.9375" rx="2.5" ry="2.5" style="stroke:#181818;stroke-width:0.5;" width="225.3818" x="576" y="180"/><ellipse cx="591" cy="198.9688" fill="#ADD1B2" rx="11" ry="11" style="stroke:#181818;stroke-width:1;"/><path d="M593.9688,204.6094 Q593.3906,204.9063 592.75,205.0469 Q592.1094,205.2031 591.4063,205.2031 Q588.9063,205.2031 587.5781,203.5625 Q586.2656,201.9063 586.2656,198.7813 Q586.2656,195.6563 587.5781,194 Q588.9063,192.3438 591.4063,192.3438 Q592.1094,192.3438 592.75,192.5 Q593.4063,192.6563 593.9688,192.9531 L593.9688,195.6719 Q593.3438,195.0938 592.75,194.8281 Q592.1563,194.5469 591.5313,194.5469 Q590.1875,194.5469 589.5,195.625 Q588.8125,196.6875 588.8125,198.7813 Q588.8125,200.875 589.5,201.9531 Q590.1875,203.0156 591.5313,203.0156 Q592.1563,203.0156 592.75,202.75 Q593.3438,202.4688 593.9688,201.8906 L593.9688,204.6094 Z " fill="#000000"/><text fill="#000000" font-family="sans-serif" font-size="14" lengthAdjust="spacing" textLength="193.3818" x="605" y="197.9951">Repository.RepositoryIndex</text><text fill="#000000" font-family="sans-serif" font-size="10" lengthAdjust="spacing" textLength="89.8633" x="656.7593" y="210.5791">io.github.ai4ci.util</text></a></g><!--class io.github.ai4ci.util.Repository.SerializableFunction--><g class="entity" data-qualified-name="io.github.ai4ci.util.Repository.SerializableFunction" data-source-line="27" id="ent0007"><a href="Repository.SerializableFunction.html" target="_top" title="Repository.SerializableFunction.html" xlink:actuate="onRequest" xlink:href="Repository.SerializableFunction.html" xlink:show="new" xlink:title="Repository.SerializableFunction.html" xlink:type="simple"><rect fill="#F1F1F1" height="37.9375" rx="2.5" ry="2.5" style="stroke:#181818;stroke-width:0.5;" width="279.8369" x="548.5" y="236"/><ellipse cx="563.5" cy="254.9688" fill="#B4A7E5" rx="11" ry="11" style="stroke:#181818;stroke-width:1;"/><path d="M559.4219,250.7344 L559.4219,248.5781 L566.8125,248.5781 L566.8125,250.7344 L564.3438,250.7344 L564.3438,258.8125 L566.8125,258.8125 L566.8125,260.9688 L559.4219,260.9688 L559.4219,258.8125 L561.8906,258.8125 L561.8906,250.7344 L559.4219,250.7344 Z " fill="#000000"/><text fill="#000000" font-family="sans-serif" font-size="14" font-style="italic" lengthAdjust="spacing" textLength="220.6572" x="577.5" y="253.9951">Repository.SerializableFunction</text><text fill="#000000" font-family="sans-serif" font-size="10" font-style="italic" lengthAdjust="spacing" textLength="89.8633" x="642.897" y="266.5791">io.github.ai4ci.util</text><rect fill="#FFFFFF" height="15.9688" style="stroke:#181818;stroke-width:1;stroke-dasharray:2,2;" width="25.1797" x="806.1572" y="233"/><text fill="#000000" font-family="sans-serif" font-size="12" font-style="italic" lengthAdjust="spacing" textLength="23.1797" x="807.1572" y="245.1387">X, Y</text></a></g><!--class io.github.ai4ci.util.Repository.ValueIndex--><g class="entity" data-qualified-name="io.github.ai4ci.util.Repository.ValueIndex" data-source-line="28" id="ent0008"><a href="Repository.ValueIndex.html" target="_top" title="Repository.ValueIndex.html" xlink:actuate="onRequest" xlink:href="Repository.ValueIndex.html" xlink:show="new" xlink:title="Repository.ValueIndex.html" xlink:type="simple"><rect fill="#F1F1F1" height="37.9375" rx="2.5" ry="2.5" style="stroke:#181818;stroke-width:0.5;" width="201.1719" x="588" y="292"/><ellipse cx="603" cy="310.9688" fill="#ADD1B2" rx="11" ry="11" style="stroke:#181818;stroke-width:1;"/><path d="M605.9688,316.6094 Q605.3906,316.9063 604.75,317.0469 Q604.1094,317.2031 603.4063,317.2031 Q600.9063,317.2031 599.5781,315.5625 Q598.2656,313.9063 598.2656,310.7813 Q598.2656,307.6563 599.5781,306 Q600.9063,304.3438 603.4063,304.3438 Q604.1094,304.3438 604.75,304.5 Q605.4063,304.6563 605.9688,304.9531 L605.9688,307.6719 Q605.3438,307.0938 604.75,306.8281 Q604.1563,306.5469 603.5313,306.5469 Q602.1875,306.5469 601.5,307.625 Q600.8125,308.6875 600.8125,310.7813 Q600.8125,312.875 601.5,313.9531 Q602.1875,315.0156 603.5313,315.0156 Q604.1563,315.0156 604.75,314.75 Q605.3438,314.4688 605.9688,313.8906 L605.9688,316.6094 Z " fill="#000000"/><text fill="#000000" font-family="sans-serif" font-size="14" lengthAdjust="spacing" textLength="157.8418" x="617" y="309.9951">Repository.ValueIndex</text><text fill="#000000" font-family="sans-serif" font-size="10" lengthAdjust="spacing" textLength="89.8633" x="650.9893" y="322.5791">io.github.ai4ci.util</text><rect fill="#FFFFFF" height="15.9688" style="stroke:#181818;stroke-width:1;stroke-dasharray:2,2;" width="9.3301" x="782.8418" y="289"/><text fill="#000000" font-family="sans-serif" font-size="12" font-style="italic" lengthAdjust="spacing" textLength="7.3301" x="783.8418" y="301.1387">Y</text></a></g><g class="link" data-entity-1="ent0002" data-entity-2="ent0003" data-link-type="nested" id="lnk9"><ellipse cx="445.2635" cy="88.166" fill="#FFFFFF" rx="8" ry="8" style="stroke:#181818;stroke-width:1;"/><line style="stroke:#181818;stroke-width:1;" x1="452.7513" x2="437.7757" y1="85.3494" y2="90.9826"/><line style="stroke:#181818;stroke-width:1;" x1="448.0801" x2="442.4469" y1="95.6537" y2="80.6782"/><path d="M452.7513,85.3494 C484.1624,73.5337 501.7519,67.9716 533,59 C550.2929,54.0351 568.9383,49.7691 587.0895,46.1717" fill="none" style="stroke:#181818;stroke-width:1;"/></g><g class="link" data-entity-1="ent0002" data-entity-2="ent0004" data-link-type="nested" id="lnk10"><ellipse cx="505.0737" cy="120.3549" fill="#FFFFFF" rx="8" ry="8" style="stroke:#181818;stroke-width:1;"/><line style="stroke:#181818;stroke-width:1;" x1="512.9275" x2="497.2199" y1="118.8326" y2="121.8772"/><line style="stroke:#181818;stroke-width:1;" x1="506.596" x2="503.5514" y1="128.2088" y2="112.5011"/><path d="M512.9275,118.8326 C525.022,116.4884 521.2922,117.2294 533,115 C548.5316,112.0425 564.9561,108.9878 581.0715,106.0318" fill="none" style="stroke:#181818;stroke-width:1;"/></g><g class="link" data-entity-1="ent0002" data-entity-2="ent0005" data-link-type="nested" id="lnk11"><ellipse cx="505.0026" cy="154.747" fill="#FFFFFF" rx="8" ry="8" style="stroke:#181818;stroke-width:1;"/><line style="stroke:#181818;stroke-width:1;" x1="512.9861" x2="497.0191" y1="154.2331" y2="155.2608"/><line style="stroke:#181818;stroke-width:1;" x1="505.5165" x2="504.4887" y1="162.7304" y2="146.7635"/><path d="M512.9861,154.2331 C525.0754,153.4549 521.0846,153.7118 532.7952,152.958" fill="none" style="stroke:#181818;stroke-width:1;"/></g><g class="link" data-entity-1="ent0002" data-entity-2="ent0006" data-link-type="nested" id="lnk12"><ellipse cx="505.0026" cy="187.253" fill="#FFFFFF" rx="8" ry="8" style="stroke:#181818;stroke-width:1;"/><line style="stroke:#181818;stroke-width:1;" x1="512.9861" x2="497.0191" y1="187.7669" y2="186.7392"/><line style="stroke:#181818;stroke-width:1;" x1="504.4887" x2="505.5165" y1="195.2365" y2="179.2696"/><path d="M512.9861,187.7669 C540.453,189.5349 551.3691,190.2376 575.8795,191.8152" fill="none" style="stroke:#181818;stroke-width:1;"/></g><g class="link" data-entity-1="ent0002" data-entity-2="ent0007" data-link-type="nested" id="lnk13"><ellipse cx="505.0737" cy="221.6451" fill="#FFFFFF" rx="8" ry="8" style="stroke:#181818;stroke-width:1;"/><line style="stroke:#181818;stroke-width:1;" x1="512.9275" x2="497.2199" y1="223.1674" y2="220.1228"/><line style="stroke:#181818;stroke-width:1;" x1="503.5514" x2="506.596" y1="229.4989" y2="213.7912"/><path d="M512.9275,223.1674 C525.022,225.5116 521.2922,224.7706 533,227 C548.5316,229.9575 564.9561,233.0122 581.0715,235.9682" fill="none" style="stroke:#181818;stroke-width:1;"/></g><g class="link" data-entity-1="ent0002" data-entity-2="ent0008" data-link-type="nested" id="lnk14"><ellipse cx="445.2635" cy="253.834" fill="#FFFFFF" rx="8" ry="8" style="stroke:#181818;stroke-width:1;"/><line style="stroke:#181818;stroke-width:1;" x1="452.7513" x2="437.7757" y1="256.6506" y2="251.0174"/><line style="stroke:#181818;stroke-width:1;" x1="442.4469" x2="448.0801" y1="261.3218" y2="246.3463"/><path d="M452.7513,256.6506 C484.1624,268.4663 501.7519,274.0284 533,283 C550.5549,288.0401 569.5036,292.36 587.9142,295.9914" fill="none" style="stroke:#181818;stroke-width:1;"/></g><g class="footer" data-source-line="43"><text fill="#888888" font-family="sans-serif" font-size="10" lengthAdjust="spacing" textLength="3.1787" x="419.9106" y="333.2822">&#160;</text><a href="https://github.com/talsma-ict/umldoclet" target="_top" title="https://github.com/talsma-ict/umldoclet" xlink:actuate="onRequest" xlink:href="https://github.com/talsma-ict/umldoclet" xlink:show="new" xlink:title="https://github.com/talsma-ict/umldoclet" xlink:type="simple"><text fill="#888888" font-family="sans-serif" font-size="10" lengthAdjust="spacing" textLength="140.4639" x="351.2681" y="344.9229">UMLDoclet 2.2.5-SNAPSHOT</text></a></g><?plantuml-src hLPPRzf047xlhvYs3o4A670E4OIe43sIDcsZGAAa90-3FU1LrxlkxZeDgVhVkpx0Xb8bbUmNy1pVV3k7Tm00Tc0eeuLYyy20aM02fk7oyncWy65EWXGQye65E2SDK-9Ip7LcI82n2QG2EKlVFAaKwKWAduavVCHx12rZvP5sNho0DDHuYVuJTGbzkaY4RwN7oK1jk5kYvBRQHmstvHx16BaE4Kw7OoT7AtnSntKE6wClW_FHoTSns22SUIIqnOw5JohbDuZGipzdcQOEzwGqay8wjtB0vCoU50QPq12XCZevspb7OHBIRISXuhIXDXYThPDi7QSawp1G0cCVBkIFU7Nkbv72kQNESI5Z0peaWm9J5QTPclOCnsUAF6CvPNxQdanWQ7EA7et84a9Zqosae5GVC9-0miWiOCQ8-tfJQWC5qefJkSTHQtZLq-oHkks3_WL5KZCBkBWLkR3LPzAPCnF4KmVPWSUSs33-2conjYcS0W8ca-B52Kp8x-xWLnetUVOAPUqSJR2xqlpI1WtpViCUb-WFE4_rTHWcR7jl-exZx7QXS2yWPqpuNmNLRfR6r_qwZ4WnvEmHfvpUno9DPk-w3ZTzYtAzxdo5tDReF_n7HX66rgx0cPD9OMeb2ADi_w-72r2F5z7Iwaq2DfMI4uh2HgVeEQabt5zHVpzHIsSukheWj3rVGLKBC1j-lSGhJLxifsWja_c9gcYtCbnMddLs9NMP7nE6rCmEqtQEf_PJyK1-5VnogDuDq8CXuMjOIVeRN7F5C_DO_4tzgk2w0RdERaFv7zdSDafLqFttYAuptsRtp2IdGrXPVWkqtYR7GhLabcNsYO_jNgFn_D6j3B4qL9LXvirV6Tv6krQ6kwsPAWClkY0hVq-R1QVYbfb9QIUjT9qcpuczJzGP4z-7ajkbu7Ldk_OoMNyu4sHNB--x8DlohPLbTfdqcgLuUQnRCPa4naIwsspct3qPDaswWpMOPvfnoFri-VhN6fRFsGvyM2rwoOxKQBcDzlwuVTGzx7JRXywns-dikmUTzhV9E-CrByV3kpy0?></g></svg>