<?plantuml 1.2026.1?><svg xmlns="http://www.w3.org/2000/svg" xmlns:xlink="http://www.w3.org/1999/xlink" contentStyleType="text/css" data-diagram-type="CLASS" height="132px" preserveAspectRatio="none" style="width:593px;height:132px;background:#FFFFFF;" version="1.1" viewBox="0 0 593 132" width="593px" zoomAndPan="magnify"><defs/><g><!--class io.github.ai4ci.util.SparseDecomposition.SparseMatrixBuilder--><g class="entity" data-qualified-name="io.github.ai4ci.util.SparseDecomposition.SparseMatrixBuilder" data-source-line="14" id="ent0002"><a href="SparseDecomposition.SparseMatrixBuilder.html" target="_top" title="SparseDecomposition.SparseMatrixBuilder.html" xlink:actuate="onRequest" xlink:href="SparseDecomposition.SparseMatrixBuilder.html" xlink:show="new" xlink:title="SparseDecomposition.SparseMatrixBuilder.html" xlink:type="simple"><rect fill="#F1F1F1" height="94.8281" rx="2.5" ry="2.5" style="stroke:#181818;stroke-width:0.5;" width="359.6553" x="227" y="12"/><ellipse cx="254.9762" cy="30.9688" fill="#ADD1B2" rx="11" ry="11" style="stroke:#181818;stroke-width:1;"/><path d="M257.9449,36.6094 Q257.3668,36.9063 256.7262,37.0469 Q256.0855,37.2031 255.3824,37.2031 Q252.8824,37.2031 251.5543,35.5625 Q250.2418,33.9063 250.2418,30.7813 Q250.2418,27.6563 251.5543,26 Q252.8824,24.3438 255.3824,24.3438 Q256.0855,24.3438 256.7262,24.5 Q257.3824,24.6563 257.9449,24.9531 L257.9449,27.6719 Q257.3199,27.0938 256.7262,26.8281 Q256.1324,26.5469 255.5074,26.5469 Q254.1637,26.5469 253.4762,27.625 Q252.7887,28.6875 252.7887,30.7813 Q252.7887,32.875 253.4762,33.9531 Q254.1637,35.0156 255.5074,35.0156 Q256.1324,35.0156 256.7262,34.75 Q257.3199,34.4688 257.9449,33.8906 L257.9449,36.6094 Z " fill="#000000"/><text fill="#000000" font-family="sans-serif" font-size="14" lengthAdjust="spacing" textLength="298.8193" x="271.8598" y="29.9951">SparseDecomposition.SparseMatrixBuilder</text><text fill="#000000" font-family="sans-serif" font-size="10" lengthAdjust="spacing" textLength="89.8633" x="376.3378" y="42.5791">io.github.ai4ci.util</text><line style="stroke:#181818;stroke-width:0.5;" x1="228" x2="585.6553" y1="49.9375" y2="49.9375"/></a><g data-visibility-modifier="PUBLIC_METHOD"><a href="SparseDecomposition.SparseMatrixBuilder.html" target="_top" title="SparseDecomposition.SparseMatrixBuilder.html" xlink:actuate="onRequest" xlink:href="SparseDecomposition.SparseMatrixBuilder.html" xlink:show="new" xlink:title="SparseDecomposition.SparseMatrixBuilder.html" xlink:type="simple"><ellipse cx="238" cy="63.5859" fill="#84BE84" rx="3" ry="3" style="stroke:#038048;stroke-width:1;"/></a></g><a href="SparseDecomposition.SparseMatrixBuilder.html" target="_top" title="SparseDecomposition.SparseMatrixBuilder.html" xlink:actuate="onRequest" xlink:href="SparseDecomposition.SparseMatrixBuilder.html" xlink:show="new" xlink:title="SparseDecomposition.SparseMatrixBuilder.html" xlink:type="simple"><text fill="#000000" font-family="sans-serif" font-size="14" lengthAdjust="spacing" textLength="146.6104" x="247" y="66.9326">build(): SparseMatrix</text></a><g data-visibility-modifier="PUBLIC_METHOD"><a href="SparseDecomposition.SparseMatrixBuilder.html" target="_top" title="SparseDecomposition.SparseMatrixBuilder.html" xlink:actuate="onRequest" xlink:href="SparseDecomposition.SparseMatrixBuilder.html" xlink:show="new" xlink:title="SparseDecomposition.SparseMatrixBuilder.html" xlink:type="simple"><ellipse cx="238" cy="79.8828" fill="#84BE84" rx="3" ry="3" style="stroke:#038048;stroke-width:1;"/></a></g><a href="SparseDecomposition.SparseMatrixBuilder.html" target="_top" title="SparseDecomposition.SparseMatrixBuilder.html" xlink:actuate="onRequest" xlink:href="SparseDecomposition.SparseMatrixBuilder.html" xlink:show="new" xlink:title="SparseDecomposition.SparseMatrixBuilder.html" xlink:type="simple"><text fill="#000000" font-family="sans-serif" font-size="14" lengthAdjust="spacing" textLength="257.7627" x="247" y="83.2295">insert(Integer, Integer, Double): void</text></a><g data-visibility-modifier="PUBLIC_METHOD"><a href="SparseDecomposition.SparseMatrixBuilder.html" target="_top" title="SparseDecomposition.SparseMatrixBuilder.html" xlink:actuate="onRequest" xlink:href="SparseDecomposition.SparseMatrixBuilder.html" xlink:show="new" xlink:title="SparseDecomposition.SparseMatrixBuilder.html" xlink:type="simple"><ellipse cx="238" cy="96.1797" fill="#84BE84" rx="3" ry="3" style="stroke:#038048;stroke-width:1;"/></a></g><a href="SparseDecomposition.SparseMatrixBuilder.html" target="_top" title="SparseDecomposition.SparseMatrixBuilder.html" xlink:actuate="onRequest" xlink:href="SparseDecomposition.SparseMatrixBuilder.html" xlink:show="new" xlink:title="SparseDecomposition.SparseMatrixBuilder.html" xlink:type="simple"><text fill="#000000" font-family="sans-serif" font-size="14" lengthAdjust="spacing" textLength="333.6553" x="247" y="99.5264">insertSymmetric(Integer, Integer, Double): void</text></a></g><!--class io.github.ai4ci.util.SparseDecomposition--><g class="entity" data-qualified-name="io.github.ai4ci.util.SparseDecomposition" data-source-line="20" id="ent0003"><a href="SparseDecomposition.html" target="_top" title="SparseDecomposition.html" xlink:actuate="onRequest" xlink:href="SparseDecomposition.html" xlink:show="new" xlink:title="SparseDecomposition.html" xlink:type="simple"><rect fill="#F1F1F1" height="37.9375" rx="2.5" ry="2.5" style="stroke:#181818;stroke-width:0.5;" width="184.7627" x="6" y="40.5"/><ellipse cx="21" cy="59.4688" fill="#ADD1B2" rx="11" ry="11" style="stroke:#181818;stroke-width:1;"/><path d="M23.9688,65.1094 Q23.3906,65.4063 22.75,65.5469 Q22.1094,65.7031 21.4063,65.7031 Q18.9063,65.7031 17.5781,64.0625 Q16.2656,62.4063 16.2656,59.2813 Q16.2656,56.1563 17.5781,54.5 Q18.9063,52.8438 21.4063,52.8438 Q22.1094,52.8438 22.75,53 Q23.4063,53.1563 23.9688,53.4531 L23.9688,56.1719 Q23.3438,55.5938 22.75,55.3281 Q22.1563,55.0469 21.5313,55.0469 Q20.1875,55.0469 19.5,56.125 Q18.8125,57.1875 18.8125,59.2813 Q18.8125,61.375 19.5,62.4531 Q20.1875,63.5156 21.5313,63.5156 Q22.1563,63.5156 22.75,63.25 Q23.3438,62.9688 23.9688,62.3906 L23.9688,65.1094 Z " fill="#000000"/><text fill="#000000" font-family="sans-serif" font-size="14" lengthAdjust="spacing" textLength="152.7627" x="35" y="58.4951">SparseDecomposition</text><text fill="#000000" font-family="sans-serif" font-size="10" lengthAdjust="spacing" textLength="89.8633" x="66.4497" y="71.0791">io.github.ai4ci.util</text></a></g><g class="link" data-entity-1="ent0003" data-entity-2="ent0002" data-link-type="nested" id="lnk4"><ellipse cx="199.0449" cy="59.5" fill="#FFFFFF" rx="8" ry="8" style="stroke:#181818;stroke-width:1;"/><line style="stroke:#181818;stroke-width:1;" x1="207.0449" x2="191.0449" y1="59.5" y2="59.5"/><line style="stroke:#181818;stroke-width:1;" x1="199.0449" x2="199.0449" y1="67.5" y2="51.5"/><path d="M207.0449,59.5 C218.5107,59.5 214.5297,59.5 226.7767,59.5" fill="none" style="stroke:#181818;stroke-width:1;"/></g><g class="footer" data-source-line="30"><text fill="#888888" font-family="sans-serif" font-size="10" lengthAdjust="spacing" textLength="3.1787" x="291.4106" y="110.2822">&#160;</text><a href="https://github.com/talsma-ict/umldoclet" target="_top" title="https://github.com/talsma-ict/umldoclet" xlink:actuate="onRequest" xlink:href="https://github.com/talsma-ict/umldoclet" xlink:show="new" xlink:title="https://github.com/talsma-ict/umldoclet" xlink:type="simple"><text fill="#888888" font-family="sans-serif" font-size="10" lengthAdjust="spacing" textLength="140.4639" x="222.7681" y="121.9229">UMLDoclet 2.2.5-SNAPSHOT</text></a></g><?plantuml-src hLJVJzim47xdhxYnXnL1t2IZ7QqGKbUcmLGsj9QN5HvSvvfOE7QmBspPnFy-9-bAXq2gjFaboVtuxhlluWC0U0DZKrHMfXa16Q1CEhYwc03N2QIeqNB216JEKtImG6Lqwjf015vIPYoOPVCbZBNe2gCJgLFunEyvE5DQWOxjx41JQlO7_Jjt6-YBgZQU6g6Ge3FUsw0KXr4_YCEu3pEkNCxXV3nZAxJ7d9Z5h1TCFuykfsTVPk2BA2bGEuzTwWHjmszKSE4VazPp0FTedJJQ9uShmBfdOJHngHqKt9AhUxjKN5DDEc8r4HP1PpIT_4qo73Ga3s1aDIyJ-6hkodNVhmhBKqzTySgK12v7ufetBeNBHlOM9v4M1NbERPxpdMcUUqsvm2bwGfoytDfeRFoPJ10mBwY2fKILkATMNoWptjpOXUBEmUwnapzn61sUJ3sUmrCK9Y-CatLPrjekE5dvutqfbPVkMgyomXDfM2efAnUCoqCXMKbIxOAVv7CEjYK-pETRHhACSdLp0x-QTkgplwWzdRqXR8O_klqOqLBdN1EcQ0zW_N9goeL2dtTlPF8qVbhbNZWhnLQ93rkh-p-LV46rLg6MqTPG-q7mJnDionqxgXIUhCLS6aD-ke_3gizPLQ2TI7qxDih_oQ-FdlTUrNTMIOr-NuXRZLxPS1tvq9RhRjHRrRhMytb6LBXXjxlgnbFlKhCu0YceM-OgQJV6Ixl3gzVkWe_hxLHVx22CW-ZjBEeFUqV3gCVwWxZV6xmx77oRVo3HlPgDRtu3?></g></svg>