<?plantuml 1.2026.1?><svg xmlns="http://www.w3.org/2000/svg" xmlns:xlink="http://www.w3.org/1999/xlink" contentStyleType="text/css" data-diagram-type="CLASS" height="131px" preserveAspectRatio="none" style="width:502px;height:131px;background:#FFFFFF;" version="1.1" viewBox="0 0 502 131" width="502px" zoomAndPan="magnify"><defs/><g><!--class io.github.ai4ci.util.ThreadSafeArray.ReadOnlyException--><g class="entity" data-qualified-name="io.github.ai4ci.util.ThreadSafeArray.ReadOnlyException" data-source-line="14" id="ent0002"><a href="ThreadSafeArray.ReadOnlyException.html" target="_top" title="ThreadSafeArray.ReadOnlyException.html" xlink:actuate="onRequest" xlink:href="ThreadSafeArray.ReadOnlyException.html" xlink:show="new" xlink:title="ThreadSafeArray.ReadOnlyException.html" xlink:type="simple"><rect fill="#F1F1F1" height="37.9375" rx="2.5" ry="2.5" style="stroke:#181818;stroke-width:0.5;" width="291.6904" x="204" y="40"/><ellipse cx="219" cy="58.9688" fill="#ADD1B2" rx="11" ry="11" style="stroke:#181818;stroke-width:1;"/><path d="M221.9688,64.6094 Q221.3906,64.9063 220.75,65.0469 Q220.1094,65.2031 219.4063,65.2031 Q216.9063,65.2031 215.5781,63.5625 Q214.2656,61.9063 214.2656,58.7813 Q214.2656,55.6563 215.5781,54 Q216.9063,52.3438 219.4063,52.3438 Q220.1094,52.3438 220.75,52.5 Q221.4063,52.6563 221.9688,52.9531 L221.9688,55.6719 Q221.3438,55.0938 220.75,54.8281 Q220.1563,54.5469 219.5313,54.5469 Q218.1875,54.5469 217.5,55.625 Q216.8125,56.6875 216.8125,58.7813 Q216.8125,60.875 217.5,61.9531 Q218.1875,63.0156 219.5313,63.0156 Q220.1563,63.0156 220.75,62.75 Q221.3438,62.4688 221.9688,61.8906 L221.9688,64.6094 Z " fill="#000000"/><text fill="#000000" font-family="sans-serif" font-size="14" lengthAdjust="spacing" textLength="259.6904" x="233" y="57.9951">ThreadSafeArray.ReadOnlyException</text><text fill="#000000" font-family="sans-serif" font-size="10" lengthAdjust="spacing" textLength="89.8633" x="317.9136" y="70.5791">io.github.ai4ci.util</text></a></g><!--class java.lang.RuntimeException--><g class="entity" data-qualified-name="java.lang.RuntimeException" data-source-line="16" id="ent0003"><a href="https://docs.oracle.com/en/java/javase/11/docs/api/java.base/java/lang/RuntimeException.html?is-external=true" target="_top" title="https://docs.oracle.com/en/java/javase/11/docs/api/java.base/java/lang/RuntimeException.html?is-external=true" xlink:actuate="onRequest" xlink:href="https://docs.oracle.com/en/java/javase/11/docs/api/java.base/java/lang/RuntimeException.html?is-external=true" xlink:show="new" xlink:title="https://docs.oracle.com/en/java/javase/11/docs/api/java.base/java/lang/RuntimeException.html?is-external=true" xlink:type="simple"><rect fill="#F1F1F1" height="37.9375" rx="2.5" ry="2.5" style="stroke:#181818;stroke-width:0.5;" width="160.249" x="7" y="12"/><ellipse cx="22" cy="30.9688" fill="#ADD1B2" rx="11" ry="11" style="stroke:#181818;stroke-width:1;"/><path d="M24.9688,36.6094 Q24.3906,36.9063 23.75,37.0469 Q23.1094,37.2031 22.4063,37.2031 Q19.9063,37.2031 18.5781,35.5625 Q17.2656,33.9063 17.2656,30.7813 Q17.2656,27.6563 18.5781,26 Q19.9063,24.3438 22.4063,24.3438 Q23.1094,24.3438 23.75,24.5 Q24.4063,24.6563 24.9688,24.9531 L24.9688,27.6719 Q24.3438,27.0938 23.75,26.8281 Q23.1563,26.5469 22.5313,26.5469 Q21.1875,26.5469 20.5,27.625 Q19.8125,28.6875 19.8125,30.7813 Q19.8125,32.875 20.5,33.9531 Q21.1875,35.0156 22.5313,35.0156 Q23.1563,35.0156 23.75,34.75 Q24.3438,34.4688 24.9688,33.8906 L24.9688,36.6094 Z " fill="#000000"/><text fill="#000000" font-family="sans-serif" font-size="14" lengthAdjust="spacing" textLength="128.249" x="36" y="29.9951">RuntimeException</text><text fill="#000000" font-family="sans-serif" font-size="10" lengthAdjust="spacing" textLength="45.7227" x="77.2632" y="42.5791">java.lang</text></a></g><!--class io.github.ai4ci.util.ThreadSafeArray--><g class="entity" data-qualified-name="io.github.ai4ci.util.ThreadSafeArray" data-source-line="17" id="ent0004"><a href="ThreadSafeArray.html" target="_top" title="ThreadSafeArray.html" xlink:actuate="onRequest" xlink:href="ThreadSafeArray.html" xlink:show="new" xlink:title="ThreadSafeArray.html" xlink:type="simple"><rect fill="#F1F1F1" height="37.9375" rx="2.5" ry="2.5" style="stroke:#181818;stroke-width:0.5;" width="162.4414" x="6" y="68"/><ellipse cx="21" cy="86.9688" fill="#ADD1B2" rx="11" ry="11" style="stroke:#181818;stroke-width:1;"/><path d="M23.9688,92.6094 Q23.3906,92.9063 22.75,93.0469 Q22.1094,93.2031 21.4063,93.2031 Q18.9063,93.2031 17.5781,91.5625 Q16.2656,89.9063 16.2656,86.7813 Q16.2656,83.6563 17.5781,82 Q18.9063,80.3438 21.4063,80.3438 Q22.1094,80.3438 22.75,80.5 Q23.4063,80.6563 23.9688,80.9531 L23.9688,83.6719 Q23.3438,83.0938 22.75,82.8281 Q22.1563,82.5469 21.5313,82.5469 Q20.1875,82.5469 19.5,83.625 Q18.8125,84.6875 18.8125,86.7813 Q18.8125,88.875 19.5,89.9531 Q20.1875,91.0156 21.5313,91.0156 Q22.1563,91.0156 22.75,90.75 Q23.3438,90.4688 23.9688,89.8906 L23.9688,92.6094 Z " fill="#000000"/><text fill="#000000" font-family="sans-serif" font-size="14" lengthAdjust="spacing" textLength="118.2207" x="35" y="85.9951">ThreadSafeArray</text><text fill="#000000" font-family="sans-serif" font-size="10" lengthAdjust="spacing" textLength="89.8633" x="49.1787" y="98.5791">io.github.ai4ci.util</text><rect fill="#FFFFFF" height="15.9688" style="stroke:#181818;stroke-width:1;stroke-dasharray:2,2;" width="10.2207" x="161.2207" y="65"/><text fill="#000000" font-family="sans-serif" font-size="12" font-style="italic" lengthAdjust="spacing" textLength="8.2207" x="162.2207" y="77.1387">X</text></a></g><g class="link" data-entity-1="ent0003" data-entity-2="ent0002" data-link-type="extension" id="lnk5"><polygon fill="none" points="167.0169,39.4769,184.2742,47.3627,185.5542,35.4312,167.0169,39.4769" style="stroke:#181818;stroke-width:1;"/><path d="M184.9142,41.3969 C196.6171,42.6524 191.0805,42.0584 203.6271,43.4044" fill="none" style="stroke:#181818;stroke-width:1;"/></g><g class="link" data-entity-1="ent0004" data-entity-2="ent0002" data-link-type="nested" id="lnk6"><ellipse cx="176.0367" cy="77.5554" fill="#FFFFFF" rx="8" ry="8" style="stroke:#181818;stroke-width:1;"/><line style="stroke:#181818;stroke-width:1;" x1="183.9911" x2="168.0823" y1="76.7021" y2="78.4088"/><line style="stroke:#181818;stroke-width:1;" x1="176.89" x2="175.1834" y1="85.5098" y2="69.6011"/><path d="M183.9911,76.7021 C195.3795,75.4804 191.4646,75.9004 203.633,74.5949" fill="none" style="stroke:#181818;stroke-width:1;"/></g><g class="footer" data-source-line="28"><text fill="#888888" font-family="sans-serif" font-size="10" lengthAdjust="spacing" textLength="3.1787" x="245.9106" y="109.2822">&#160;</text><a href="https://github.com/talsma-ict/umldoclet" target="_top" title="https://github.com/talsma-ict/umldoclet" xlink:actuate="onRequest" xlink:href="https://github.com/talsma-ict/umldoclet" xlink:show="new" xlink:title="https://github.com/talsma-ict/umldoclet" xlink:type="simple"><text fill="#888888" font-family="sans-serif" font-size="10" lengthAdjust="spacing" textLength="140.4639" x="177.2681" y="120.9229">UMLDoclet 2.2.5-SNAPSHOT</text></a></g><?plantuml-src hLHRJzim57xdLvon1pQDE4sW2AgkKzMXiQaRY0Pf6l3WEgU9XsDdjiF8BlzzjjkL3dK3eVaXYS_bEz-vv000RC58rQtcHMd1Ah0bDt3sVWnKvb2WH4qjvi0hMg21AGeb2pCtHA2DBPK6DGitfhH6KokPSrd0EtfDmQX6CpHaOmD2gEmt-bTgLj2dhHU-LaoWXMUZvokKqawo5wMTT0yoAan5uUqe8mkqMv-KfAGRJJuCJoP7nncu888pbCPXDp977VWDQyhSQppNRCCrQiELTCwT1Q3FcIbfAPS6QggjyRcT22gj9vqGJuGay6mu6Vz9idCGI6x3K4lQv72glZJBl9_KcXQEkg2jQYoO2YsLDAW4paBPvpWvryYiupJtCoupIIjNKyfmWeuGjQxSKaaC-fBd25ZLjeKPHv6Rkr8Ng5HE7EHCK6DWis_uD-mbkuEir4Zp2PtXK6lQabDtEvQYFRnXM7iI5t9XsnbmHGfkosPAADzbd3IMYqrmFLod8FSYm_dvlJQaj9Mul5pF_RIHbbUuZkfdDtV4TQm8_9OtSjV5SIYjhKqlZdF5356Qkb4YJ5KnojZxXOV1E4c2HKnh7aHawgN1mYF7Tv43yrVSH7XZqOs3U6brWowL1tJXVzMy_t6mfiYh9Vr7PVe_ekYHdGtG3t655u-F4OBqZMq53iAtFpEbNBNX-rBWpr5RenvpUJLImlqvJ_VNQy_yZX1SejjFx4gYwr1dQVbp7YvUYRU8TI5lPsYHXnyV6nPLn9cDcqhaymtrjrsr68ijUBFSXdwHH9qqIdQoPA_NtUybNRA_Sx2Rf3lTvDFveMNnMJQw_0K0?></g></svg>