<?plantuml 1.2026.1?><svg xmlns="http://www.w3.org/2000/svg" xmlns:xlink="http://www.w3.org/1999/xlink" contentStyleType="text/css" data-diagram-type="CLASS" height="368px" preserveAspectRatio="none" style="width:1136px;height:368px;background:#FFFFFF;" version="1.1" viewBox="0 0 1136 368" width="1136px" zoomAndPan="magnify"><defs/><g><!--cluster io.github.ai4ci.abm.policy--><g class="cluster" data-qualified-name="io.github.ai4ci.abm.policy" data-source-line="11" id="ent0002"><path d="M284.5,4 L490.4619,4 A3.75,3.75 0 0 1 492.9619,6.5 L499.9619,26.2969 L1126.5,26.2969 A2.5,2.5 0 0 1 1129,28.7969 L1129,332.5 A2.5,2.5 0 0 1 1126.5,335 L284.5,335 A2.5,2.5 0 0 1 282,332.5 L282,6.5 A2.5,2.5 0 0 1 284.5,4" fill="none" style="stroke:#000000;stroke-width:1.5;"/><line style="stroke:#000000;stroke-width:1.5;" x1="282" x2="499.9619" y1="26.2969" y2="26.2969"/><text fill="#000000" font-family="sans-serif" font-size="14" font-weight="bold" lengthAdjust="spacing" textLength="204.9619" x="286" y="18.9951">io.github.ai4ci.abm.policy</text></g><!--cluster io.github.ai4ci.flow.mechanics--><g class="cluster" data-qualified-name="io.github.ai4ci.flow.mechanics" data-source-line="39" id="ent0008"><path d="M8.5,182 L250.3779,182 A3.75,3.75 0 0 1 252.8779,184.5 L259.8779,204.2969 L259.5,204.2969 A2.5,2.5 0 0 1 262,206.7969 L262,278.5 A2.5,2.5 0 0 1 259.5,281 L8.5,281 A2.5,2.5 0 0 1 6,278.5 L6,184.5 A2.5,2.5 0 0 1 8.5,182" fill="none" style="stroke:#000000;stroke-width:1.5;"/><line style="stroke:#000000;stroke-width:1.5;" x1="6" x2="259.8779" y1="204.2969" y2="204.2969"/><text fill="#000000" font-family="sans-serif" font-size="14" font-weight="bold" lengthAdjust="spacing" textLength="240.8779" x="10" y="196.9951">io.github.ai4ci.flow.mechanics</text></g><!--class Trigger--><g class="entity" data-qualified-name="io.github.ai4ci.abm.policy..Trigger" data-source-line="13" id="ent0003"><a href="Trigger.html" target="_top" title="Trigger.html" xlink:actuate="onRequest" xlink:href="Trigger.html" xlink:show="new" xlink:title="Trigger.html" xlink:type="simple"><rect fill="#F1F1F1" height="64.2969" rx="2.5" ry="2.5" style="stroke:#181818;stroke-width:0.5;" width="250.998" x="445.5" y="56"/><ellipse cx="541.5791" cy="72" fill="#B4A7E5" rx="11" ry="11" style="stroke:#181818;stroke-width:1;"/><path d="M537.501,67.7656 L537.501,65.6094 L544.8916,65.6094 L544.8916,67.7656 L542.4229,67.7656 L542.4229,75.8438 L544.8916,75.8438 L544.8916,78 L537.501,78 L537.501,75.8438 L539.9697,75.8438 L539.9697,67.7656 L537.501,67.7656 Z " fill="#000000"/><text fill="#000000" font-family="sans-serif" font-size="14" font-style="italic" lengthAdjust="spacing" textLength="50.3398" x="562.0791" y="76.8467">Trigger</text><line style="stroke:#181818;stroke-width:0.5;" x1="446.5" x2="695.498" y1="88" y2="88"/><line style="stroke:#181818;stroke-width:0.5;" x1="446.5" x2="695.498" y1="96" y2="96"/></a><g data-visibility-modifier="PUBLIC_METHOD"><a href="Trigger.html" target="_top" title="Trigger.html" xlink:actuate="onRequest" xlink:href="Trigger.html" xlink:show="new" xlink:title="Trigger.html" xlink:type="simple"><ellipse cx="456.5" cy="109.6484" fill="#84BE84" rx="3" ry="3" style="stroke:#038048;stroke-width:1;"/></a></g><a href="Trigger.html" target="_top" title="Trigger.html" xlink:actuate="onRequest" xlink:href="Trigger.html" xlink:show="new" xlink:title="Trigger.html" xlink:type="simple"><text fill="#000000" font-family="sans-serif" font-size="14" font-style="italic" lengthAdjust="spacing" textLength="224.998" x="465.5" y="112.9951">select(OutbreakState): Binomial</text></a></g><!--class Trigger.Value--><g class="entity" data-qualified-name="io.github.ai4ci.abm.policy..Trigger.Value" data-source-line="17" id="ent0004"><a href="Trigger.Value.html" target="_top" title="Trigger.Value.html" xlink:actuate="onRequest" xlink:href="Trigger.Value.html" xlink:show="new" xlink:title="Trigger.Value.html" xlink:type="simple"><rect fill="#F1F1F1" height="113.1875" rx="2.5" ry="2.5" style="stroke:#181818;stroke-width:0.5;" width="232.8076" x="888" y="31.5"/><ellipse cx="952.9927" cy="47.5" fill="#EB937F" rx="11" ry="11" style="stroke:#181818;stroke-width:1;"/><path d="M957.1021,53.5 L949.3833,53.5 L949.3833,41.1094 L957.1021,41.1094 L957.1021,43.2656 L951.8364,43.2656 L951.8364,45.9375 L956.6021,45.9375 L956.6021,48.0938 L951.8364,48.0938 L951.8364,51.3438 L957.1021,51.3438 L957.1021,53.5 Z " fill="#000000"/><text fill="#000000" font-family="sans-serif" font-size="14" lengthAdjust="spacing" textLength="94.3223" x="973.4927" y="52.3467">Trigger.Value</text><line style="stroke:#181818;stroke-width:0.5;" x1="889" x2="1119.8076" y1="63.5" y2="63.5"/></a><g data-visibility-modifier="PUBLIC_FIELD"><a href="Trigger.Value.html" target="_top" title="Trigger.Value.html" xlink:actuate="onRequest" xlink:href="Trigger.Value.html" xlink:show="new" xlink:title="Trigger.Value.html" xlink:type="simple"><ellipse cx="899" cy="77.1484" fill="none" rx="3" ry="3" style="stroke:#038048;stroke-width:1;"/></a></g><a href="Trigger.Value.html" target="_top" title="Trigger.Value.html" xlink:actuate="onRequest" xlink:href="Trigger.Value.html" xlink:show="new" xlink:title="Trigger.Value.html" xlink:type="simple"><text fill="#000000" font-family="sans-serif" font-size="14" lengthAdjust="spacing" text-decoration="underline" textLength="117.8037" x="908" y="80.4951">TEST_POSITIVITY</text></a><g data-visibility-modifier="PUBLIC_FIELD"><a href="Trigger.Value.html" target="_top" title="Trigger.Value.html" xlink:actuate="onRequest" xlink:href="Trigger.Value.html" xlink:show="new" xlink:title="Trigger.Value.html" xlink:type="simple"><ellipse cx="899" cy="93.4453" fill="none" rx="3" ry="3" style="stroke:#038048;stroke-width:1;"/></a></g><a href="Trigger.Value.html" target="_top" title="Trigger.Value.html" xlink:actuate="onRequest" xlink:href="Trigger.Value.html" xlink:show="new" xlink:title="Trigger.Value.html" xlink:type="simple"><text fill="#000000" font-family="sans-serif" font-size="14" lengthAdjust="spacing" text-decoration="underline" textLength="206.8076" x="908" y="96.792">SCREENING_TEST_POSITIVITY</text></a><g data-visibility-modifier="PUBLIC_FIELD"><a href="Trigger.Value.html" target="_top" title="Trigger.Value.html" xlink:actuate="onRequest" xlink:href="Trigger.Value.html" xlink:show="new" xlink:title="Trigger.Value.html" xlink:type="simple"><ellipse cx="899" cy="109.7422" fill="none" rx="3" ry="3" style="stroke:#038048;stroke-width:1;"/></a></g><a href="Trigger.Value.html" target="_top" title="Trigger.Value.html" xlink:actuate="onRequest" xlink:href="Trigger.Value.html" xlink:show="new" xlink:title="Trigger.Value.html" xlink:type="simple"><text fill="#000000" font-family="sans-serif" font-size="14" lengthAdjust="spacing" text-decoration="underline" textLength="91.9023" x="908" y="113.0889">TEST_COUNT</text></a><g data-visibility-modifier="PUBLIC_FIELD"><a href="Trigger.Value.html" target="_top" title="Trigger.Value.html" xlink:actuate="onRequest" xlink:href="Trigger.Value.html" xlink:show="new" xlink:title="Trigger.Value.html" xlink:type="simple"><ellipse cx="899" cy="126.0391" fill="none" rx="3" ry="3" style="stroke:#038048;stroke-width:1;"/></a></g><a href="Trigger.Value.html" target="_top" title="Trigger.Value.html" xlink:actuate="onRequest" xlink:href="Trigger.Value.html" xlink:show="new" xlink:title="Trigger.Value.html" xlink:type="simple"><text fill="#000000" font-family="sans-serif" font-size="14" lengthAdjust="spacing" text-decoration="underline" textLength="135.6113" x="908" y="129.3857">HOSPITAL_BURDEN</text><line style="stroke:#181818;stroke-width:0.5;" x1="889" x2="1119.8076" y1="136.6875" y2="136.6875"/></a></g><!--class ReactiveLockdown--><g class="entity" data-qualified-name="io.github.ai4ci.abm.policy..ReactiveLockdown" data-source-line="24" id="ent0005"><a href="ReactiveLockdown.html" target="_top" title="ReactiveLockdown.html" xlink:actuate="onRequest" xlink:href="ReactiveLockdown.html" xlink:show="new" xlink:title="ReactiveLockdown.html" xlink:type="simple"><rect fill="#F1F1F1" height="80.5938" rx="2.5" ry="2.5" style="stroke:#181818;stroke-width:0.5;" width="162.8398" x="923" y="245.5"/><ellipse cx="938" cy="261.5" fill="#EB937F" rx="11" ry="11" style="stroke:#181818;stroke-width:1;"/><path d="M942.1094,267.5 L934.3906,267.5 L934.3906,255.1094 L942.1094,255.1094 L942.1094,257.2656 L936.8438,257.2656 L936.8438,259.9375 L941.6094,259.9375 L941.6094,262.0938 L936.8438,262.0938 L936.8438,265.3438 L942.1094,265.3438 L942.1094,267.5 Z " fill="#000000"/><text fill="#000000" font-family="sans-serif" font-size="14" lengthAdjust="spacing" textLength="130.8398" x="952" y="266.3467">ReactiveLockdown</text><line style="stroke:#181818;stroke-width:0.5;" x1="924" x2="1084.8398" y1="277.5" y2="277.5"/></a><g data-visibility-modifier="PUBLIC_FIELD"><a href="ReactiveLockdown.html" target="_top" title="ReactiveLockdown.html" xlink:actuate="onRequest" xlink:href="ReactiveLockdown.html" xlink:show="new" xlink:title="ReactiveLockdown.html" xlink:type="simple"><ellipse cx="934" cy="291.1484" fill="none" rx="3" ry="3" style="stroke:#038048;stroke-width:1;"/></a></g><a href="ReactiveLockdown.html" target="_top" title="ReactiveLockdown.html" xlink:actuate="onRequest" xlink:href="ReactiveLockdown.html" xlink:show="new" xlink:title="ReactiveLockdown.html" xlink:type="simple"><text fill="#000000" font-family="sans-serif" font-size="14" lengthAdjust="spacing" text-decoration="underline" textLength="66.999" x="943" y="294.4951">MONITOR</text></a><g data-visibility-modifier="PUBLIC_FIELD"><a href="ReactiveLockdown.html" target="_top" title="ReactiveLockdown.html" xlink:actuate="onRequest" xlink:href="ReactiveLockdown.html" xlink:show="new" xlink:title="ReactiveLockdown.html" xlink:type="simple"><ellipse cx="934" cy="307.4453" fill="none" rx="3" ry="3" style="stroke:#038048;stroke-width:1;"/></a></g><a href="ReactiveLockdown.html" target="_top" title="ReactiveLockdown.html" xlink:actuate="onRequest" xlink:href="ReactiveLockdown.html" xlink:show="new" xlink:title="ReactiveLockdown.html" xlink:type="simple"><text fill="#000000" font-family="sans-serif" font-size="14" lengthAdjust="spacing" text-decoration="underline" textLength="83.8906" x="943" y="310.792">LOCKDOWN</text><line style="stroke:#181818;stroke-width:0.5;" x1="924" x2="1084.8398" y1="318.0938" y2="318.0938"/></a></g><!--class PolicyModel--><g class="entity" data-qualified-name="io.github.ai4ci.abm.policy..PolicyModel" data-source-line="29" id="ent0006"><a href="PolicyModel.html" target="_top" title="PolicyModel.html" xlink:actuate="onRequest" xlink:href="PolicyModel.html" xlink:show="new" xlink:title="PolicyModel.html" xlink:type="simple"><rect fill="#F1F1F1" height="64.2969" rx="2.5" ry="2.5" style="stroke:#181818;stroke-width:0.5;" width="562.4502" x="290" y="209"/><ellipse cx="525.5732" cy="225" fill="#B4A7E5" rx="11" ry="11" style="stroke:#181818;stroke-width:1;"/><path d="M521.4951,220.7656 L521.4951,218.6094 L528.8857,218.6094 L528.8857,220.7656 L526.417,220.7656 L526.417,228.8438 L528.8857,228.8438 L528.8857,231 L521.4951,231 L521.4951,228.8438 L523.9639,228.8438 L523.9639,220.7656 L521.4951,220.7656 Z " fill="#000000"/><text fill="#000000" font-family="sans-serif" font-size="14" font-style="italic" lengthAdjust="spacing" textLength="82.8037" x="546.0732" y="229.8467">PolicyModel</text><line style="stroke:#181818;stroke-width:0.5;" x1="291" x2="851.4502" y1="241" y2="241"/><line style="stroke:#181818;stroke-width:0.5;" x1="291" x2="851.4502" y1="249" y2="249"/></a><g data-visibility-modifier="PUBLIC_METHOD"><a href="PolicyModel.html" target="_top" title="PolicyModel.html" xlink:actuate="onRequest" xlink:href="PolicyModel.html" xlink:show="new" xlink:title="PolicyModel.html" xlink:type="simple"><ellipse cx="301" cy="262.6484" fill="#84BE84" rx="3" ry="3" style="stroke:#038048;stroke-width:1;"/></a></g><a href="PolicyModel.html" target="_top" title="PolicyModel.html" xlink:actuate="onRequest" xlink:href="PolicyModel.html" xlink:show="new" xlink:title="PolicyModel.html" xlink:type="simple"><text fill="#000000" font-family="sans-serif" font-size="14" lengthAdjust="spacing" textLength="536.4502" x="310" y="265.9951">updateHistory(Builder, OutbreakState, StateMachineContext, Sampler): void</text></a></g><!--class NoControl--><g class="entity" data-qualified-name="io.github.ai4ci.abm.policy..NoControl" data-source-line="33" id="ent0007"><a href="NoControl.html" target="_top" title="NoControl.html" xlink:actuate="onRequest" xlink:href="NoControl.html" xlink:show="new" xlink:title="NoControl.html" xlink:type="simple"><rect fill="#F1F1F1" height="64.2969" rx="2.5" ry="2.5" style="stroke:#181818;stroke-width:0.5;" width="101.9521" x="953.5" y="163"/><ellipse cx="968.5" cy="179" fill="#EB937F" rx="11" ry="11" style="stroke:#181818;stroke-width:1;"/><path d="M972.6094,185 L964.8906,185 L964.8906,172.6094 L972.6094,172.6094 L972.6094,174.7656 L967.3438,174.7656 L967.3438,177.4375 L972.1094,177.4375 L972.1094,179.5938 L967.3438,179.5938 L967.3438,182.8438 L972.6094,182.8438 L972.6094,185 Z " fill="#000000"/><text fill="#000000" font-family="sans-serif" font-size="14" lengthAdjust="spacing" textLength="69.9521" x="982.5" y="183.8467">NoControl</text><line style="stroke:#181818;stroke-width:0.5;" x1="954.5" x2="1054.4521" y1="195" y2="195"/></a><g data-visibility-modifier="PUBLIC_FIELD"><a href="NoControl.html" target="_top" title="NoControl.html" xlink:actuate="onRequest" xlink:href="NoControl.html" xlink:show="new" xlink:title="NoControl.html" xlink:type="simple"><ellipse cx="964.5" cy="208.6484" fill="none" rx="3" ry="3" style="stroke:#038048;stroke-width:1;"/></a></g><a href="NoControl.html" target="_top" title="NoControl.html" xlink:actuate="onRequest" xlink:href="NoControl.html" xlink:show="new" xlink:title="NoControl.html" xlink:type="simple"><text fill="#000000" font-family="sans-serif" font-size="14" lengthAdjust="spacing" text-decoration="underline" textLength="63.8545" x="973.5" y="211.9951">DEFAULT</text><line style="stroke:#181818;stroke-width:0.5;" x1="954.5" x2="1054.4521" y1="219.2969" y2="219.2969"/></a></g><!--class State.PolicyState--><g class="entity" data-qualified-name="io.github.ai4ci.flow.mechanics..State.PolicyState" data-source-line="40" id="ent0009"><a href="../../flow/mechanics/State.PolicyState.html" target="_top" title="../../flow/mechanics/State.PolicyState.html" xlink:actuate="onRequest" xlink:href="../../flow/mechanics/State.PolicyState.html" xlink:show="new" xlink:title="../../flow/mechanics/State.PolicyState.html" xlink:type="simple"><rect fill="#F1F1F1" height="64.2969" rx="2.5" ry="2.5" style="stroke:#181818;stroke-width:0.5;" width="151.335" x="58" y="209"/><ellipse cx="73" cy="225" fill="#B4A7E5" rx="11" ry="11" style="stroke:#181818;stroke-width:1;"/><path d="M68.9219,220.7656 L68.9219,218.6094 L76.3125,218.6094 L76.3125,220.7656 L73.8438,220.7656 L73.8438,228.8438 L76.3125,228.8438 L76.3125,231 L68.9219,231 L68.9219,228.8438 L71.3906,228.8438 L71.3906,220.7656 L68.9219,220.7656 Z " fill="#000000"/><text fill="#000000" font-family="sans-serif" font-size="14" font-style="italic" lengthAdjust="spacing" textLength="119.335" x="87" y="229.8467">State.PolicyState</text><line style="stroke:#181818;stroke-width:0.5;" x1="59" x2="208.335" y1="241" y2="241"/><line style="stroke:#181818;stroke-width:0.5;" x1="59" x2="208.335" y1="249" y2="249"/></a><g data-visibility-modifier="PUBLIC_METHOD"><a href="../../flow/mechanics/State.PolicyState.html" target="_top" title="../../flow/mechanics/State.PolicyState.html" xlink:actuate="onRequest" xlink:href="../../flow/mechanics/State.PolicyState.html" xlink:show="new" xlink:title="../../flow/mechanics/State.PolicyState.html" xlink:type="simple"><ellipse cx="69" cy="262.6484" fill="#84BE84" rx="3" ry="3" style="stroke:#038048;stroke-width:1;"/></a></g><a href="../../flow/mechanics/State.PolicyState.html" target="_top" title="../../flow/mechanics/State.PolicyState.html" xlink:actuate="onRequest" xlink:href="../../flow/mechanics/State.PolicyState.html" xlink:show="new" xlink:title="../../flow/mechanics/State.PolicyState.html" xlink:type="simple"><text fill="#000000" font-family="sans-serif" font-size="14" lengthAdjust="spacing" textLength="101.5752" x="78" y="265.9951">name(): String</text></a></g><g class="link" data-entity-1="ent0003" data-entity-2="ent0004" data-link-type="extension" id="lnk10"><polygon fill="none" points="696.5181,94.1822,714.4373,100.4194,714.5958,88.4205,696.5181,94.1822" style="stroke:#181818;stroke-width:1;"/><path d="M714.5166,94.4199 C774.7595,95.2158 828.6366,94.9373 887.6897,94.0601" fill="none" style="stroke:#181818;stroke-width:1;stroke-dasharray:7,7;"/></g><g class="link" data-entity-1="ent0003" data-entity-2="ent0004" data-link-type="nested" id="lnk11"><ellipse cx="704.5174" cy="81.7122" fill="#FFFFFF" rx="8" ry="8" style="stroke:#181818;stroke-width:1;"/><line style="stroke:#181818;stroke-width:1;" x1="712.5167" x2="696.5181" y1="81.6065" y2="81.8178"/><line style="stroke:#181818;stroke-width:1;" x1="704.6231" x2="704.4118" y1="89.7115" y2="73.7129"/><path d="M712.5167,81.6065 C772.7597,80.8107 828.6366,81.0627 887.6897,81.9399" fill="none" style="stroke:#181818;stroke-width:1;"/></g><g class="link" data-entity-1="ent0006" data-entity-2="ent0005" data-link-type="extension" id="lnk12"><polygon fill="none" points="852.2792,270.2296,869.5597,278.0643,870.8044,266.129,852.2792,270.2296" style="stroke:#181818;stroke-width:1;"/><path d="M870.1821,272.0966 C895.4956,274.7365 901.601,275.3732 922.7243,277.5761" fill="none" style="stroke:#181818;stroke-width:1;stroke-dasharray:7,7;"/></g><g class="link" data-entity-1="ent0009" data-entity-2="ent0006" data-link-type="extension" id="lnk13"><polygon fill="none" points="209.3651,241,227.3651,247,227.3651,235,209.3651,241" style="stroke:#181818;stroke-width:1;"/><path d="M227.3651,241 C250.955,241 260.5507,241 289.7875,241" fill="none" style="stroke:#181818;stroke-width:1;"/></g><g class="link" data-entity-1="ent0006" data-entity-2="ent0007" data-link-type="extension" id="lnk14"><polygon fill="none" points="852.2792,211.1209,870.8138,215.179,869.5417,203.2466,852.2792,211.1209" style="stroke:#181818;stroke-width:1;"/><path d="M870.1778,209.2128 C908.7124,205.1048 926.3236,203.2274 953.236,200.3584" fill="none" style="stroke:#181818;stroke-width:1;stroke-dasharray:7,7;"/></g><g class="footer" data-source-line="57"><text fill="#888888" font-family="sans-serif" font-size="10" lengthAdjust="spacing" textLength="3.1787" x="562.4106" y="346.2822">&#160;</text><a href="https://github.com/talsma-ict/umldoclet" target="_top" title="https://github.com/talsma-ict/umldoclet" xlink:actuate="onRequest" xlink:href="https://github.com/talsma-ict/umldoclet" xlink:show="new" xlink:title="https://github.com/talsma-ict/umldoclet" xlink:type="simple"><text fill="#888888" font-family="sans-serif" font-size="10" lengthAdjust="spacing" textLength="140.4639" x="493.7681" y="357.9229">UMLDoclet 2.2.5-SNAPSHOT</text></a></g><?plantuml-src hLLjRzf84FxUNp6dVZYgXBLnsbvhHISHmZMq12DiMjrnA5hi1LQiTztTTLBKvh_Vs2R4eV4b7sfPyhxCFFFCcmS0u7VegMoh-MfjmIgmQsvWUZa4AXDOCSaqjIm1dj8LCx1WGicLgGGPqDokbGQrB7UnqfgPJCc4onLyfDSKZCfrp0nvyG9AKz4T-WqrDVJ5jZWyLx5W5bgzLpLAdjjvs_PSxor4L9YKmg0NaHtQlOv7FFAc7Owwu_0YY02D21upQH0xbmdJ9RzkHcFy3AkROxXcsd0bKTdT0HO-nqfQogM1Z6fh2j_6WafRaEwGWWZfGAiR3X-ITD-N98-XgoND4vYeh_dUxzyoJLT8NT2joYsOb5agQNabsB8CUuMJSCrYYvpAEuEE6OOqgCKW-tu5XaviC1V05LbnkyuNXFBNCITqaP9CeTjR-5v95W-NbkabZHb4Q6A5aPZDTYkojgcOpr4QQiztkZ1MqzZUmf5X0kcqWjmkDAERq6AoNlbmngLAEHLxlTjxUqpcwPqfyfcAdDKCbli6imR1UOn6etuONOs3S10DFW-YlnkamjwatnyDHX-kdYTVIlM2wIXg4BW8ml4WwWwlpgQJy_weqRS9mzZmQpPKyIPHDnBTEpnwoiFBO3I8Wad3xJ3eVJeFlZpAu3wRupBJbofX0XdKTeyRFygp19DtmGsMqhPrbdE1NN4C3r9x3ENd4hk4IzR3Fc3VB1xID1DCO-Al5KyQ0pDIXOPM1P_z-gbGdFV_waw7qI7exV-N-bAe6vAoU4qbZqqD_3u-fIUaYakvHbQ4EFWMoivUsVb9i260agQiXJ48hSQ_MurmZMzpI_h-NVkT_Y3aEO9LipmRzgZT_eMezUfwal1X-J-A_Z1bllzpVav_FE52ZTIlTM1VhLKMJutT2lRdFiLBfR2g3khXOfinFUHoqrC2Vyultpr-Eos6Zy1kmi4NRoGp1jo3sZbrQlPsjlwLizdQsipuZhEZ7QlKiUK4RFFOEdagachqDGt1-Nmtr3xinsmneTgkr-wSH9xdUoT-vuIuhlVwpH_lNFUVMT_6pZJgpVy3?></g></svg>