<?plantuml 1.2026.2?><svg xmlns="http://www.w3.org/2000/svg" xmlns:xlink="http://www.w3.org/1999/xlink" contentStyleType="text/css" data-diagram-type="CLASS" height="795px" preserveAspectRatio="none" style="width:996px;height:795px;background:#FFFFFF;" version="1.1" viewBox="0 0 996 795" width="996px" zoomAndPan="magnify"><defs/><g><!--cluster io.github.ai4ci.abm.behaviour--><g class="cluster" data-qualified-name="io.github.ai4ci.abm.behaviour" data-source-line="11" id="ent0002"><path d="M597.5,4 L836.1445,4 A3.75,3.75 0 0 1 838.6445,6.5 L845.6445,26.2969 L986.5,26.2969 A2.5,2.5 0 0 1 989,28.7969 L989,759.5 A2.5,2.5 0 0 1 986.5,762 L597.5,762 A2.5,2.5 0 0 1 595,759.5 L595,6.5 A2.5,2.5 0 0 1 597.5,4" fill="none" style="stroke:#000000;stroke-width:1.5;"/><line style="stroke:#000000;stroke-width:1.5;" x1="595" x2="845.6445" y1="26.2969" y2="26.2969"/><text fill="#000000" font-family="sans-serif" font-size="14" font-weight="bold" lengthAdjust="spacing" textLength="237.6445" x="599" y="18.9951">io.github.ai4ci.abm.behaviour</text></g><!--cluster io.github.ai4ci.flow.mechanics--><g class="cluster" data-qualified-name="io.github.ai4ci.flow.mechanics" data-source-line="55" id="ent0011"><path d="M16.5,258 L258.3779,258 A3.75,3.75 0 0 1 260.8779,260.5 L267.8779,280.2969 L572.5,280.2969 A2.5,2.5 0 0 1 575,282.7969 L575,518.5 A2.5,2.5 0 0 1 572.5,521 L16.5,521 A2.5,2.5 0 0 1 14,518.5 L14,260.5 A2.5,2.5 0 0 1 16.5,258" fill="none" style="stroke:#000000;stroke-width:1.5;"/><line style="stroke:#000000;stroke-width:1.5;" x1="14" x2="267.8779" y1="280.2969" y2="280.2969"/><text fill="#000000" font-family="sans-serif" font-size="14" font-weight="bold" lengthAdjust="spacing" textLength="240.8779" x="18" y="272.9951">io.github.ai4ci.flow.mechanics</text></g><!--class BehaviourModel--><g class="entity" data-qualified-name="io.github.ai4ci.abm.behaviour..BehaviourModel" data-source-line="13" id="ent0003"><a href="BehaviourModel.html" target="_top" title="BehaviourModel.html" xlink:actuate="onRequest" xlink:href="BehaviourModel.html" xlink:show="new" xlink:title="BehaviourModel.html" xlink:type="simple"><rect fill="#F1F1F1" height="48" rx="2.5" ry="2.5" style="stroke:#181818;stroke-width:0.5;" width="145.0732" x="603" y="228"/><ellipse cx="618" cy="244" fill="#B4A7E5" rx="11" ry="11" style="stroke:#181818;stroke-width:1;"/><path d="M613.9219,239.7656 L613.9219,237.6094 L621.3125,237.6094 L621.3125,239.7656 L618.8438,239.7656 L618.8438,247.8438 L621.3125,247.8438 L621.3125,250 L613.9219,250 L613.9219,247.8438 L616.3906,247.8438 L616.3906,239.7656 L613.9219,239.7656 Z " fill="#000000"/><text fill="#000000" font-family="sans-serif" font-size="14" font-style="italic" lengthAdjust="spacing" textLength="113.0732" x="632" y="248.8467">BehaviourModel</text><line style="stroke:#181818;stroke-width:0.5;" x1="604" x2="747.0732" y1="260" y2="260"/><line style="stroke:#181818;stroke-width:0.5;" x1="604" x2="747.0732" y1="268" y2="268"/></a></g><!--class SmartAgentTesting--><g class="entity" data-qualified-name="io.github.ai4ci.abm.behaviour..SmartAgentTesting" data-source-line="15" id="ent0004"><a href="SmartAgentTesting.html" target="_top" title="SmartAgentTesting.html" xlink:actuate="onRequest" xlink:href="SmartAgentTesting.html" xlink:show="new" xlink:title="SmartAgentTesting.html" xlink:type="simple"><rect fill="#F1F1F1" height="96.8906" rx="2.5" ry="2.5" style="stroke:#181818;stroke-width:0.5;" width="167.3857" x="799" y="426.5"/><ellipse cx="814" cy="442.5" fill="#EB937F" rx="11" ry="11" style="stroke:#181818;stroke-width:1;"/><path d="M818.1094,448.5 L810.3906,448.5 L810.3906,436.1094 L818.1094,436.1094 L818.1094,438.2656 L812.8438,438.2656 L812.8438,440.9375 L817.6094,440.9375 L817.6094,443.0938 L812.8438,443.0938 L812.8438,446.3438 L818.1094,446.3438 L818.1094,448.5 Z " fill="#000000"/><text fill="#000000" font-family="sans-serif" font-size="14" lengthAdjust="spacing" textLength="135.3857" x="828" y="447.3467">SmartAgentTesting</text><line style="stroke:#181818;stroke-width:0.5;" x1="800" x2="965.3857" y1="458.5" y2="458.5"/></a><g data-visibility-modifier="PUBLIC_FIELD"><a href="SmartAgentTesting.html" target="_top" title="SmartAgentTesting.html" xlink:actuate="onRequest" xlink:href="SmartAgentTesting.html" xlink:show="new" xlink:title="SmartAgentTesting.html" xlink:type="simple"><ellipse cx="810" cy="472.1484" fill="none" rx="3" ry="3" style="stroke:#038048;stroke-width:1;"/></a></g><a href="SmartAgentTesting.html" target="_top" title="SmartAgentTesting.html" xlink:actuate="onRequest" xlink:href="SmartAgentTesting.html" xlink:show="new" xlink:title="SmartAgentTesting.html" xlink:type="simple"><text fill="#000000" font-family="sans-serif" font-size="14" lengthAdjust="spacing" text-decoration="underline" textLength="103.9746" x="819" y="475.4951">REACTIVE_PCR</text></a><g data-visibility-modifier="PUBLIC_FIELD"><a href="SmartAgentTesting.html" target="_top" title="SmartAgentTesting.html" xlink:actuate="onRequest" xlink:href="SmartAgentTesting.html" xlink:show="new" xlink:title="SmartAgentTesting.html" xlink:type="simple"><ellipse cx="810" cy="488.4453" fill="none" rx="3" ry="3" style="stroke:#038048;stroke-width:1;"/></a></g><a href="SmartAgentTesting.html" target="_top" title="SmartAgentTesting.html" xlink:actuate="onRequest" xlink:href="SmartAgentTesting.html" xlink:show="new" xlink:title="SmartAgentTesting.html" xlink:type="simple"><text fill="#000000" font-family="sans-serif" font-size="14" lengthAdjust="spacing" text-decoration="underline" textLength="80.623" x="819" y="491.792">AWAIT_PCR</text></a><g data-visibility-modifier="PUBLIC_FIELD"><a href="SmartAgentTesting.html" target="_top" title="SmartAgentTesting.html" xlink:actuate="onRequest" xlink:href="SmartAgentTesting.html" xlink:show="new" xlink:title="SmartAgentTesting.html" xlink:type="simple"><ellipse cx="810" cy="504.7422" fill="none" rx="3" ry="3" style="stroke:#038048;stroke-width:1;"/></a></g><a href="SmartAgentTesting.html" target="_top" title="SmartAgentTesting.html" xlink:actuate="onRequest" xlink:href="SmartAgentTesting.html" xlink:show="new" xlink:title="SmartAgentTesting.html" xlink:type="simple"><text fill="#000000" font-family="sans-serif" font-size="14" lengthAdjust="spacing" text-decoration="underline" textLength="99.3945" x="819" y="508.0889">SELF_ISOLATE</text><line style="stroke:#181818;stroke-width:0.5;" x1="800" x2="965.3857" y1="515.3906" y2="515.3906"/></a></g><!--class LockdownIsolation--><g class="entity" data-qualified-name="io.github.ai4ci.abm.behaviour..LockdownIsolation" data-source-line="21" id="ent0005"><a href="LockdownIsolation.html" target="_top" title="LockdownIsolation.html" xlink:actuate="onRequest" xlink:href="LockdownIsolation.html" xlink:show="new" xlink:title="LockdownIsolation.html" xlink:type="simple"><rect fill="#F1F1F1" height="96.8906" rx="2.5" ry="2.5" style="stroke:#181818;stroke-width:0.5;" width="161.2197" x="802" y="656.5"/><ellipse cx="817" cy="672.5" fill="#EB937F" rx="11" ry="11" style="stroke:#181818;stroke-width:1;"/><path d="M821.1094,678.5 L813.3906,678.5 L813.3906,666.1094 L821.1094,666.1094 L821.1094,668.2656 L815.8438,668.2656 L815.8438,670.9375 L820.6094,670.9375 L820.6094,673.0938 L815.8438,673.0938 L815.8438,676.3438 L821.1094,676.3438 L821.1094,678.5 Z " fill="#000000"/><text fill="#000000" font-family="sans-serif" font-size="14" lengthAdjust="spacing" textLength="129.2197" x="831" y="677.3467">LockdownIsolation</text><line style="stroke:#181818;stroke-width:0.5;" x1="803" x2="962.2197" y1="688.5" y2="688.5"/></a><g data-visibility-modifier="PUBLIC_FIELD"><a href="LockdownIsolation.html" target="_top" title="LockdownIsolation.html" xlink:actuate="onRequest" xlink:href="LockdownIsolation.html" xlink:show="new" xlink:title="LockdownIsolation.html" xlink:type="simple"><ellipse cx="813" cy="702.1484" fill="none" rx="3" ry="3" style="stroke:#038048;stroke-width:1;"/></a></g><a href="LockdownIsolation.html" target="_top" title="LockdownIsolation.html" xlink:actuate="onRequest" xlink:href="LockdownIsolation.html" xlink:show="new" xlink:title="LockdownIsolation.html" xlink:type="simple"><text fill="#000000" font-family="sans-serif" font-size="14" lengthAdjust="spacing" text-decoration="underline" textLength="58.8096" x="822" y="705.4951">ISOLATE</text></a><g data-visibility-modifier="PUBLIC_FIELD"><a href="LockdownIsolation.html" target="_top" title="LockdownIsolation.html" xlink:actuate="onRequest" xlink:href="LockdownIsolation.html" xlink:show="new" xlink:title="LockdownIsolation.html" xlink:type="simple"><ellipse cx="813" cy="718.4453" fill="none" rx="3" ry="3" style="stroke:#038048;stroke-width:1;"/></a></g><a href="LockdownIsolation.html" target="_top" title="LockdownIsolation.html" xlink:actuate="onRequest" xlink:href="LockdownIsolation.html" xlink:show="new" xlink:title="LockdownIsolation.html" xlink:type="simple"><text fill="#000000" font-family="sans-serif" font-size="14" lengthAdjust="spacing" text-decoration="underline" textLength="36.1006" x="822" y="721.792">WAIT</text></a><g data-visibility-modifier="PUBLIC_FIELD"><a href="LockdownIsolation.html" target="_top" title="LockdownIsolation.html" xlink:actuate="onRequest" xlink:href="LockdownIsolation.html" xlink:show="new" xlink:title="LockdownIsolation.html" xlink:type="simple"><ellipse cx="813" cy="734.7422" fill="none" rx="3" ry="3" style="stroke:#038048;stroke-width:1;"/></a></g><a href="LockdownIsolation.html" target="_top" title="LockdownIsolation.html" xlink:actuate="onRequest" xlink:href="LockdownIsolation.html" xlink:show="new" xlink:title="LockdownIsolation.html" xlink:type="simple"><text fill="#000000" font-family="sans-serif" font-size="14" lengthAdjust="spacing" text-decoration="underline" textLength="62.5283" x="822" y="738.0889">RELEASE</text><line style="stroke:#181818;stroke-width:0.5;" x1="803" x2="962.2197" y1="745.3906" y2="745.3906"/></a></g><!--class ReactiveTestAndIsolate--><g class="entity" data-qualified-name="io.github.ai4ci.abm.behaviour..ReactiveTestAndIsolate" data-source-line="27" id="ent0006"><a href="ReactiveTestAndIsolate.html" target="_top" title="ReactiveTestAndIsolate.html" xlink:actuate="onRequest" xlink:href="ReactiveTestAndIsolate.html" xlink:show="new" xlink:title="ReactiveTestAndIsolate.html" xlink:type="simple"><rect fill="#F1F1F1" height="96.8906" rx="2.5" ry="2.5" style="stroke:#181818;stroke-width:0.5;" width="196.7393" x="784" y="541.5"/><ellipse cx="799" cy="557.5" fill="#EB937F" rx="11" ry="11" style="stroke:#181818;stroke-width:1;"/><path d="M803.1094,563.5 L795.3906,563.5 L795.3906,551.1094 L803.1094,551.1094 L803.1094,553.2656 L797.8438,553.2656 L797.8438,555.9375 L802.6094,555.9375 L802.6094,558.0938 L797.8438,558.0938 L797.8438,561.3438 L803.1094,561.3438 L803.1094,563.5 Z " fill="#000000"/><text fill="#000000" font-family="sans-serif" font-size="14" lengthAdjust="spacing" textLength="164.7393" x="813" y="562.3467">ReactiveTestAndIsolate</text><line style="stroke:#181818;stroke-width:0.5;" x1="785" x2="979.7393" y1="573.5" y2="573.5"/></a><g data-visibility-modifier="PUBLIC_FIELD"><a href="ReactiveTestAndIsolate.html" target="_top" title="ReactiveTestAndIsolate.html" xlink:actuate="onRequest" xlink:href="ReactiveTestAndIsolate.html" xlink:show="new" xlink:title="ReactiveTestAndIsolate.html" xlink:type="simple"><ellipse cx="795" cy="587.1484" fill="none" rx="3" ry="3" style="stroke:#038048;stroke-width:1;"/></a></g><a href="ReactiveTestAndIsolate.html" target="_top" title="ReactiveTestAndIsolate.html" xlink:actuate="onRequest" xlink:href="ReactiveTestAndIsolate.html" xlink:show="new" xlink:title="ReactiveTestAndIsolate.html" xlink:type="simple"><text fill="#000000" font-family="sans-serif" font-size="14" lengthAdjust="spacing" text-decoration="underline" textLength="103.9746" x="804" y="590.4951">REACTIVE_PCR</text></a><g data-visibility-modifier="PUBLIC_FIELD"><a href="ReactiveTestAndIsolate.html" target="_top" title="ReactiveTestAndIsolate.html" xlink:actuate="onRequest" xlink:href="ReactiveTestAndIsolate.html" xlink:show="new" xlink:title="ReactiveTestAndIsolate.html" xlink:type="simple"><ellipse cx="795" cy="603.4453" fill="none" rx="3" ry="3" style="stroke:#038048;stroke-width:1;"/></a></g><a href="ReactiveTestAndIsolate.html" target="_top" title="ReactiveTestAndIsolate.html" xlink:actuate="onRequest" xlink:href="ReactiveTestAndIsolate.html" xlink:show="new" xlink:title="ReactiveTestAndIsolate.html" xlink:type="simple"><text fill="#000000" font-family="sans-serif" font-size="14" lengthAdjust="spacing" text-decoration="underline" textLength="80.623" x="804" y="606.792">AWAIT_PCR</text></a><g data-visibility-modifier="PUBLIC_FIELD"><a href="ReactiveTestAndIsolate.html" target="_top" title="ReactiveTestAndIsolate.html" xlink:actuate="onRequest" xlink:href="ReactiveTestAndIsolate.html" xlink:show="new" xlink:title="ReactiveTestAndIsolate.html" xlink:type="simple"><ellipse cx="795" cy="619.7422" fill="none" rx="3" ry="3" style="stroke:#038048;stroke-width:1;"/></a></g><a href="ReactiveTestAndIsolate.html" target="_top" title="ReactiveTestAndIsolate.html" xlink:actuate="onRequest" xlink:href="ReactiveTestAndIsolate.html" xlink:show="new" xlink:title="ReactiveTestAndIsolate.html" xlink:type="simple"><text fill="#000000" font-family="sans-serif" font-size="14" lengthAdjust="spacing" text-decoration="underline" textLength="99.3945" x="804" y="623.0889">SELF_ISOLATE</text><line style="stroke:#181818;stroke-width:0.5;" x1="785" x2="979.7393" y1="630.3906" y2="630.3906"/></a></g><!--class NonCompliant--><g class="entity" data-qualified-name="io.github.ai4ci.abm.behaviour..NonCompliant" data-source-line="33" id="ent0007"><a href="NonCompliant.html" target="_top" title="NonCompliant.html" xlink:actuate="onRequest" xlink:href="NonCompliant.html" xlink:show="new" xlink:title="NonCompliant.html" xlink:type="simple"><rect fill="#F1F1F1" height="80.5938" rx="2.5" ry="2.5" style="stroke:#181818;stroke-width:0.5;" width="131.4971" x="817" y="31.5"/><ellipse cx="832" cy="47.5" fill="#EB937F" rx="11" ry="11" style="stroke:#181818;stroke-width:1;"/><path d="M836.1094,53.5 L828.3906,53.5 L828.3906,41.1094 L836.1094,41.1094 L836.1094,43.2656 L830.8438,43.2656 L830.8438,45.9375 L835.6094,45.9375 L835.6094,48.0938 L830.8438,48.0938 L830.8438,51.3438 L836.1094,51.3438 L836.1094,53.5 Z " fill="#000000"/><text fill="#000000" font-family="sans-serif" font-size="14" lengthAdjust="spacing" textLength="99.4971" x="846" y="52.3467">NonCompliant</text><line style="stroke:#181818;stroke-width:0.5;" x1="818" x2="947.4971" y1="63.5" y2="63.5"/></a><g data-visibility-modifier="PUBLIC_FIELD"><a href="NonCompliant.html" target="_top" title="NonCompliant.html" xlink:actuate="onRequest" xlink:href="NonCompliant.html" xlink:show="new" xlink:title="NonCompliant.html" xlink:type="simple"><ellipse cx="828" cy="77.1484" fill="none" rx="3" ry="3" style="stroke:#038048;stroke-width:1;"/></a></g><a href="NonCompliant.html" target="_top" title="NonCompliant.html" xlink:actuate="onRequest" xlink:href="NonCompliant.html" xlink:show="new" xlink:title="NonCompliant.html" xlink:type="simple"><text fill="#000000" font-family="sans-serif" font-size="14" lengthAdjust="spacing" text-decoration="underline" textLength="39.9287" x="837" y="80.4951">ALIVE</text></a><g data-visibility-modifier="PUBLIC_FIELD"><a href="NonCompliant.html" target="_top" title="NonCompliant.html" xlink:actuate="onRequest" xlink:href="NonCompliant.html" xlink:show="new" xlink:title="NonCompliant.html" xlink:type="simple"><ellipse cx="828" cy="93.4453" fill="none" rx="3" ry="3" style="stroke:#038048;stroke-width:1;"/></a></g><a href="NonCompliant.html" target="_top" title="NonCompliant.html" xlink:actuate="onRequest" xlink:href="NonCompliant.html" xlink:show="new" xlink:title="NonCompliant.html" xlink:type="simple"><text fill="#000000" font-family="sans-serif" font-size="14" lengthAdjust="spacing" text-decoration="underline" textLength="39.9834" x="837" y="96.792">DEAD</text><line style="stroke:#181818;stroke-width:0.5;" x1="818" x2="947.4971" y1="104.0938" y2="104.0938"/></a></g><!--class FixedBehaviour--><g class="entity" data-qualified-name="io.github.ai4ci.abm.behaviour..FixedBehaviour" data-source-line="38" id="ent0008"><a href="FixedBehaviour.html" target="_top" title="FixedBehaviour.html" xlink:actuate="onRequest" xlink:href="FixedBehaviour.html" xlink:show="new" xlink:title="FixedBehaviour.html" xlink:type="simple"><rect fill="#F1F1F1" height="64.2969" rx="2.5" ry="2.5" style="stroke:#181818;stroke-width:0.5;" width="140.7666" x="812" y="131"/><ellipse cx="827" cy="147" fill="#EB937F" rx="11" ry="11" style="stroke:#181818;stroke-width:1;"/><path d="M831.1094,153 L823.3906,153 L823.3906,140.6094 L831.1094,140.6094 L831.1094,142.7656 L825.8438,142.7656 L825.8438,145.4375 L830.6094,145.4375 L830.6094,147.5938 L825.8438,147.5938 L825.8438,150.8438 L831.1094,150.8438 L831.1094,153 Z " fill="#000000"/><text fill="#000000" font-family="sans-serif" font-size="14" lengthAdjust="spacing" textLength="108.7666" x="841" y="151.8467">FixedBehaviour</text><line style="stroke:#181818;stroke-width:0.5;" x1="813" x2="951.7666" y1="163" y2="163"/></a><g data-visibility-modifier="PUBLIC_FIELD"><a href="FixedBehaviour.html" target="_top" title="FixedBehaviour.html" xlink:actuate="onRequest" xlink:href="FixedBehaviour.html" xlink:show="new" xlink:title="FixedBehaviour.html" xlink:type="simple"><ellipse cx="823" cy="176.6484" fill="none" rx="3" ry="3" style="stroke:#038048;stroke-width:1;"/></a></g><a href="FixedBehaviour.html" target="_top" title="FixedBehaviour.html" xlink:actuate="onRequest" xlink:href="FixedBehaviour.html" xlink:show="new" xlink:title="FixedBehaviour.html" xlink:type="simple"><text fill="#000000" font-family="sans-serif" font-size="14" lengthAdjust="spacing" text-decoration="underline" textLength="94.8213" x="832" y="179.9951">DO_NOTHING</text><line style="stroke:#181818;stroke-width:0.5;" x1="813" x2="951.7666" y1="187.2969" y2="187.2969"/></a></g><!--class Symptomatic--><g class="entity" data-qualified-name="io.github.ai4ci.abm.behaviour..Symptomatic" data-source-line="42" id="ent0009"><a href="Symptomatic.html" target="_top" title="Symptomatic.html" xlink:actuate="onRequest" xlink:href="Symptomatic.html" xlink:show="new" xlink:title="Symptomatic.html" xlink:type="simple"><rect fill="#F1F1F1" height="64.2969" rx="2.5" ry="2.5" style="stroke:#181818;stroke-width:0.5;" width="125.0439" x="820" y="213"/><ellipse cx="835" cy="229" fill="#EB937F" rx="11" ry="11" style="stroke:#181818;stroke-width:1;"/><path d="M839.1094,235 L831.3906,235 L831.3906,222.6094 L839.1094,222.6094 L839.1094,224.7656 L833.8438,224.7656 L833.8438,227.4375 L838.6094,227.4375 L838.6094,229.5938 L833.8438,229.5938 L833.8438,232.8438 L839.1094,232.8438 L839.1094,235 Z " fill="#000000"/><text fill="#000000" font-family="sans-serif" font-size="14" lengthAdjust="spacing" textLength="93.0439" x="849" y="233.8467">Symptomatic</text><line style="stroke:#181818;stroke-width:0.5;" x1="821" x2="944.0439" y1="245" y2="245"/></a><g data-visibility-modifier="PUBLIC_FIELD"><a href="Symptomatic.html" target="_top" title="Symptomatic.html" xlink:actuate="onRequest" xlink:href="Symptomatic.html" xlink:show="new" xlink:title="Symptomatic.html" xlink:type="simple"><ellipse cx="831" cy="258.6484" fill="none" rx="3" ry="3" style="stroke:#038048;stroke-width:1;"/></a></g><a href="Symptomatic.html" target="_top" title="Symptomatic.html" xlink:actuate="onRequest" xlink:href="Symptomatic.html" xlink:show="new" xlink:title="Symptomatic.html" xlink:type="simple"><text fill="#000000" font-family="sans-serif" font-size="14" lengthAdjust="spacing" text-decoration="underline" textLength="63.8545" x="840" y="261.9951">DEFAULT</text><line style="stroke:#181818;stroke-width:0.5;" x1="821" x2="944.0439" y1="269.2969" y2="269.2969"/></a></g><!--class SmartAgentLFTTesting--><g class="entity" data-qualified-name="io.github.ai4ci.abm.behaviour..SmartAgentLFTTesting" data-source-line="46" id="ent0010"><a href="SmartAgentLFTTesting.html" target="_top" title="SmartAgentLFTTesting.html" xlink:actuate="onRequest" xlink:href="SmartAgentLFTTesting.html" xlink:show="new" xlink:title="SmartAgentLFTTesting.html" xlink:type="simple"><rect fill="#F1F1F1" height="113.1875" rx="2.5" ry="2.5" style="stroke:#181818;stroke-width:0.5;" width="191.79" x="786.5" y="295.5"/><ellipse cx="801.5" cy="311.5" fill="#EB937F" rx="11" ry="11" style="stroke:#181818;stroke-width:1;"/><path d="M805.6094,317.5 L797.8906,317.5 L797.8906,305.1094 L805.6094,305.1094 L805.6094,307.2656 L800.3438,307.2656 L800.3438,309.9375 L805.1094,309.9375 L805.1094,312.0938 L800.3438,312.0938 L800.3438,315.3438 L805.6094,315.3438 L805.6094,317.5 Z " fill="#000000"/><text fill="#000000" font-family="sans-serif" font-size="14" lengthAdjust="spacing" textLength="159.79" x="815.5" y="316.3467">SmartAgentLFTTesting</text><line style="stroke:#181818;stroke-width:0.5;" x1="787.5" x2="977.29" y1="327.5" y2="327.5"/></a><g data-visibility-modifier="PUBLIC_FIELD"><a href="SmartAgentLFTTesting.html" target="_top" title="SmartAgentLFTTesting.html" xlink:actuate="onRequest" xlink:href="SmartAgentLFTTesting.html" xlink:show="new" xlink:title="SmartAgentLFTTesting.html" xlink:type="simple"><ellipse cx="797.5" cy="341.1484" fill="none" rx="3" ry="3" style="stroke:#038048;stroke-width:1;"/></a></g><a href="SmartAgentLFTTesting.html" target="_top" title="SmartAgentLFTTesting.html" xlink:actuate="onRequest" xlink:href="SmartAgentLFTTesting.html" xlink:show="new" xlink:title="SmartAgentLFTTesting.html" xlink:type="simple"><text fill="#000000" font-family="sans-serif" font-size="14" lengthAdjust="spacing" text-decoration="underline" textLength="100.4336" x="806.5" y="344.4951">REACTIVE_LFT</text></a><g data-visibility-modifier="PUBLIC_FIELD"><a href="SmartAgentLFTTesting.html" target="_top" title="SmartAgentLFTTesting.html" xlink:actuate="onRequest" xlink:href="SmartAgentLFTTesting.html" xlink:show="new" xlink:title="SmartAgentLFTTesting.html" xlink:type="simple"><ellipse cx="797.5" cy="357.4453" fill="none" rx="3" ry="3" style="stroke:#038048;stroke-width:1;"/></a></g><a href="SmartAgentLFTTesting.html" target="_top" title="SmartAgentLFTTesting.html" xlink:actuate="onRequest" xlink:href="SmartAgentLFTTesting.html" xlink:show="new" xlink:title="SmartAgentLFTTesting.html" xlink:type="simple"><text fill="#000000" font-family="sans-serif" font-size="14" lengthAdjust="spacing" text-decoration="underline" textLength="87.8076" x="806.5" y="360.792">REFLEX_PCR</text></a><g data-visibility-modifier="PUBLIC_FIELD"><a href="SmartAgentLFTTesting.html" target="_top" title="SmartAgentLFTTesting.html" xlink:actuate="onRequest" xlink:href="SmartAgentLFTTesting.html" xlink:show="new" xlink:title="SmartAgentLFTTesting.html" xlink:type="simple"><ellipse cx="797.5" cy="373.7422" fill="none" rx="3" ry="3" style="stroke:#038048;stroke-width:1;"/></a></g><a href="SmartAgentLFTTesting.html" target="_top" title="SmartAgentLFTTesting.html" xlink:actuate="onRequest" xlink:href="SmartAgentLFTTesting.html" xlink:show="new" xlink:title="SmartAgentLFTTesting.html" xlink:type="simple"><text fill="#000000" font-family="sans-serif" font-size="14" lengthAdjust="spacing" text-decoration="underline" textLength="80.623" x="806.5" y="377.0889">AWAIT_PCR</text></a><g data-visibility-modifier="PUBLIC_FIELD"><a href="SmartAgentLFTTesting.html" target="_top" title="SmartAgentLFTTesting.html" xlink:actuate="onRequest" xlink:href="SmartAgentLFTTesting.html" xlink:show="new" xlink:title="SmartAgentLFTTesting.html" xlink:type="simple"><ellipse cx="797.5" cy="390.0391" fill="none" rx="3" ry="3" style="stroke:#038048;stroke-width:1;"/></a></g><a href="SmartAgentLFTTesting.html" target="_top" title="SmartAgentLFTTesting.html" xlink:actuate="onRequest" xlink:href="SmartAgentLFTTesting.html" xlink:show="new" xlink:title="SmartAgentLFTTesting.html" xlink:type="simple"><text fill="#000000" font-family="sans-serif" font-size="14" lengthAdjust="spacing" text-decoration="underline" textLength="99.3945" x="806.5" y="393.3857">SELF_ISOLATE</text><line style="stroke:#181818;stroke-width:0.5;" x1="787.5" x2="977.29" y1="400.6875" y2="400.6875"/></a></g><!--class State.BehaviourState--><g class="entity" data-qualified-name="io.github.ai4ci.flow.mechanics..State.BehaviourState" data-source-line="56" id="ent0012"><a href="../../flow/mechanics/State.BehaviourState.html" target="_top" title="../../flow/mechanics/State.BehaviourState.html" xlink:actuate="onRequest" xlink:href="../../flow/mechanics/State.BehaviourState.html" xlink:show="new" xlink:title="../../flow/mechanics/State.BehaviourState.html" xlink:type="simple"><rect fill="#F1F1F1" height="64.2969" rx="2.5" ry="2.5" style="stroke:#181818;stroke-width:0.5;" width="181.6045" x="203.5" y="285"/><ellipse cx="218.5" cy="301" fill="#B4A7E5" rx="11" ry="11" style="stroke:#181818;stroke-width:1;"/><path d="M214.4219,296.7656 L214.4219,294.6094 L221.8125,294.6094 L221.8125,296.7656 L219.3438,296.7656 L219.3438,304.8438 L221.8125,304.8438 L221.8125,307 L214.4219,307 L214.4219,304.8438 L216.8906,304.8438 L216.8906,296.7656 L214.4219,296.7656 Z " fill="#000000"/><text fill="#000000" font-family="sans-serif" font-size="14" font-style="italic" lengthAdjust="spacing" textLength="149.6045" x="232.5" y="305.8467">State.BehaviourState</text><line style="stroke:#181818;stroke-width:0.5;" x1="204.5" x2="384.1045" y1="317" y2="317"/><line style="stroke:#181818;stroke-width:0.5;" x1="204.5" x2="384.1045" y1="325" y2="325"/></a><g data-visibility-modifier="PUBLIC_METHOD"><a href="../../flow/mechanics/State.BehaviourState.html" target="_top" title="../../flow/mechanics/State.BehaviourState.html" xlink:actuate="onRequest" xlink:href="../../flow/mechanics/State.BehaviourState.html" xlink:show="new" xlink:title="../../flow/mechanics/State.BehaviourState.html" xlink:type="simple"><ellipse cx="214.5" cy="338.6484" fill="#84BE84" rx="3" ry="3" style="stroke:#038048;stroke-width:1;"/></a></g><a href="../../flow/mechanics/State.BehaviourState.html" target="_top" title="../../flow/mechanics/State.BehaviourState.html" xlink:actuate="onRequest" xlink:href="../../flow/mechanics/State.BehaviourState.html" xlink:show="new" xlink:title="../../flow/mechanics/State.BehaviourState.html" xlink:type="simple"><text fill="#000000" font-family="sans-serif" font-size="14" lengthAdjust="spacing" textLength="101.5752" x="223.5" y="341.9951">name(): String</text></a></g><!--class StateUtils.DefaultNoTesting--><g class="entity" data-qualified-name="io.github.ai4ci.flow.mechanics..StateUtils.DefaultNoTesting" data-source-line="59" id="ent0013"><a href="../../flow/mechanics/StateUtils.DefaultNoTesting.html" target="_top" title="../../flow/mechanics/StateUtils.DefaultNoTesting.html" xlink:actuate="onRequest" xlink:href="../../flow/mechanics/StateUtils.DefaultNoTesting.html" xlink:show="new" xlink:title="../../flow/mechanics/StateUtils.DefaultNoTesting.html" xlink:type="simple"><rect fill="#F1F1F1" height="64.2969" rx="2.5" ry="2.5" style="stroke:#181818;stroke-width:0.5;" width="544.6699" x="22" y="367"/><ellipse cx="193.0317" cy="383" fill="#B4A7E5" rx="11" ry="11" style="stroke:#181818;stroke-width:1;"/><path d="M188.9536,378.7656 L188.9536,376.6094 L196.3442,376.6094 L196.3442,378.7656 L193.8755,378.7656 L193.8755,386.8438 L196.3442,386.8438 L196.3442,389 L188.9536,389 L188.9536,386.8438 L191.4224,386.8438 L191.4224,378.7656 L188.9536,378.7656 Z " fill="#000000"/><text fill="#000000" font-family="sans-serif" font-size="14" font-style="italic" lengthAdjust="spacing" textLength="194.1064" x="213.5317" y="387.8467">StateUtils.DefaultNoTesting</text><line style="stroke:#181818;stroke-width:0.5;" x1="23" x2="565.6699" y1="399" y2="399"/><line style="stroke:#181818;stroke-width:0.5;" x1="23" x2="565.6699" y1="407" y2="407"/></a><g data-visibility-modifier="PUBLIC_METHOD"><a href="../../flow/mechanics/StateUtils.DefaultNoTesting.html" target="_top" title="../../flow/mechanics/StateUtils.DefaultNoTesting.html" xlink:actuate="onRequest" xlink:href="../../flow/mechanics/StateUtils.DefaultNoTesting.html" xlink:show="new" xlink:title="../../flow/mechanics/StateUtils.DefaultNoTesting.html" xlink:type="simple"><ellipse cx="33" cy="420.6484" fill="#84BE84" rx="3" ry="3" style="stroke:#038048;stroke-width:1;"/></a></g><a href="../../flow/mechanics/StateUtils.DefaultNoTesting.html" target="_top" title="../../flow/mechanics/StateUtils.DefaultNoTesting.html" xlink:actuate="onRequest" xlink:href="../../flow/mechanics/StateUtils.DefaultNoTesting.html" xlink:show="new" xlink:title="../../flow/mechanics/StateUtils.DefaultNoTesting.html" xlink:type="simple"><text fill="#000000" font-family="sans-serif" font-size="14" lengthAdjust="spacing" textLength="518.6699" x="42" y="423.9951">updateHistory(Builder, PersonState, StateMachineContext, Sampler): void</text></a></g><!--class StateUtils.DoesPCRIfSymptomatic--><g class="entity" data-qualified-name="io.github.ai4ci.flow.mechanics..StateUtils.DoesPCRIfSymptomatic" data-source-line="62" id="ent0014"><a href="../../flow/mechanics/StateUtils.DoesPCRIfSymptomatic.html" target="_top" title="../../flow/mechanics/StateUtils.DoesPCRIfSymptomatic.html" xlink:actuate="onRequest" xlink:href="../../flow/mechanics/StateUtils.DoesPCRIfSymptomatic.html" xlink:show="new" xlink:title="../../flow/mechanics/StateUtils.DoesPCRIfSymptomatic.html" xlink:type="simple"><rect fill="#F1F1F1" height="64.2969" rx="2.5" ry="2.5" style="stroke:#181818;stroke-width:0.5;" width="544.6699" x="22" y="449"/><ellipse cx="171.2764" cy="465" fill="#B4A7E5" rx="11" ry="11" style="stroke:#181818;stroke-width:1;"/><path d="M167.1982,460.7656 L167.1982,458.6094 L174.5889,458.6094 L174.5889,460.7656 L172.1201,460.7656 L172.1201,468.8438 L174.5889,468.8438 L174.5889,471 L167.1982,471 L167.1982,468.8438 L169.667,468.8438 L169.667,460.7656 L167.1982,460.7656 Z " fill="#000000"/><text fill="#000000" font-family="sans-serif" font-size="14" font-style="italic" lengthAdjust="spacing" textLength="237.6172" x="191.7764" y="469.8467">StateUtils.DoesPCRIfSymptomatic</text><line style="stroke:#181818;stroke-width:0.5;" x1="23" x2="565.6699" y1="481" y2="481"/><line style="stroke:#181818;stroke-width:0.5;" x1="23" x2="565.6699" y1="489" y2="489"/></a><g data-visibility-modifier="PUBLIC_METHOD"><a href="../../flow/mechanics/StateUtils.DoesPCRIfSymptomatic.html" target="_top" title="../../flow/mechanics/StateUtils.DoesPCRIfSymptomatic.html" xlink:actuate="onRequest" xlink:href="../../flow/mechanics/StateUtils.DoesPCRIfSymptomatic.html" xlink:show="new" xlink:title="../../flow/mechanics/StateUtils.DoesPCRIfSymptomatic.html" xlink:type="simple"><ellipse cx="33" cy="502.6484" fill="#84BE84" rx="3" ry="3" style="stroke:#038048;stroke-width:1;"/></a></g><a href="../../flow/mechanics/StateUtils.DoesPCRIfSymptomatic.html" target="_top" title="../../flow/mechanics/StateUtils.DoesPCRIfSymptomatic.html" xlink:actuate="onRequest" xlink:href="../../flow/mechanics/StateUtils.DoesPCRIfSymptomatic.html" xlink:show="new" xlink:title="../../flow/mechanics/StateUtils.DoesPCRIfSymptomatic.html" xlink:type="simple"><text fill="#000000" font-family="sans-serif" font-size="14" lengthAdjust="spacing" textLength="518.6699" x="42" y="505.9951">updateHistory(Builder, PersonState, StateMachineContext, Sampler): void</text></a></g><g class="link" data-entity-1="ent0012" data-entity-2="ent0003" data-link-type="extension" id="lnk15"><polygon fill="none" points="385.7984,301.5135,404.5536,304.3845,402.5252,292.5572,385.7984,301.5135" style="stroke:#181818;stroke-width:1;"/><path d="M403.5394,298.4708 C469.9895,287.0744 541.363,274.8335 602.9229,264.2758" fill="none" style="stroke:#181818;stroke-width:1;"/></g><g class="link" data-entity-1="ent0003" data-entity-2="ent0004" data-link-type="extension" id="lnk16"><polygon fill="none" points="687.7015,276.0109,690.2774,294.8089,701.041,289.5038,687.7015,276.0109" style="stroke:#181818;stroke-width:1;"/><path d="M695.6592,292.1564 C712.6474,326.6237 739.729,374.4994 784,417 C788.5466,421.3648 793.48,425.5446 798.6324,429.5176" fill="none" style="stroke:#181818;stroke-width:1;stroke-dasharray:7,7;"/></g><g class="link" data-entity-1="ent0013" data-entity-2="ent0004" data-link-type="extension" id="lnk17"><polygon fill="none" points="542.3184,431.0106,559.3972,439.2758,560.9406,427.3755,542.3184,431.0106" style="stroke:#181818;stroke-width:1;"/><path d="M560.1689,433.3257 C651.817,445.2118 731.7984,455.5848 798.7229,464.2644" fill="none" style="stroke:#181818;stroke-width:1;stroke-dasharray:7,7;"/></g><g class="link" data-entity-1="ent0003" data-entity-2="ent0005" data-link-type="extension" id="lnk18"><polygon fill="none" points="676.9204,276.1363,671.5572,294.3361,683.5497,293.9141,676.9204,276.1363" style="stroke:#181818;stroke-width:1;"/><path d="M677.5534,294.1251 C679.8875,360.4473 693.9232,530.3474 784,648 C789.1254,654.6945 795.2798,660.7482 801.9729,666.1875" fill="none" style="stroke:#181818;stroke-width:1;stroke-dasharray:7,7;"/></g><g class="link" data-entity-1="ent0014" data-entity-2="ent0005" data-link-type="extension" id="lnk19"><polygon fill="none" points="379.4595,513.0937,394.1307,525.1252,398.4153,513.9162,379.4595,513.0937" style="stroke:#181818;stroke-width:1;"/><path d="M396.273,519.5207 C509.0957,562.6475 691.389,632.3296 801.924,674.5819" fill="none" style="stroke:#181818;stroke-width:1;stroke-dasharray:7,7;"/></g><g class="link" data-entity-1="ent0003" data-entity-2="ent0006" data-link-type="extension" id="lnk20"><polygon fill="none" points="680.1817,276.1948,677.3374,294.9541,689.1618,292.9088,680.1817,276.1948" style="stroke:#181818;stroke-width:1;"/><path d="M683.2496,293.9315 C692.3034,346.2751 716.9231,453.9389 784,533 C786.4102,535.8408 788.9996,538.5738 791.7285,541.1995" fill="none" style="stroke:#181818;stroke-width:1;stroke-dasharray:7,7;"/></g><g class="link" data-entity-1="ent0013" data-entity-2="ent0006" data-link-type="extension" id="lnk21"><polygon fill="none" points="555.4462,431.0978,569.8023,443.5036,574.3745,432.4088,555.4462,431.0978" style="stroke:#181818;stroke-width:1;"/><path d="M572.0884,437.9562 C578.7562,440.7041 568.6454,436.8078 575,440 C586.2331,445.6429 584.6654,452.8431 595,460 C653.2633,500.3481 726.0636,533.1912 783.6983,555.7722" fill="none" style="stroke:#181818;stroke-width:1;stroke-dasharray:7,7;"/></g><g class="link" data-entity-1="ent0003" data-entity-2="ent0007" data-link-type="extension" id="lnk22"><polygon fill="none" points="691.9397,227.9034,706.9739,216.3286,697.0222,209.6231,691.9397,227.9034" style="stroke:#181818;stroke-width:1;"/><path d="M701.998,212.9759 C720.9848,184.7978 745.417,153.0002 784,122 C793.9357,114.017 805.3491,106.7877 816.7862,100.4645" fill="none" style="stroke:#181818;stroke-width:1;stroke-dasharray:7,7;"/></g><g class="link" data-entity-1="ent0013" data-entity-2="ent0007" data-link-type="extension" id="lnk23"><polygon fill="none" points="560.5542,366.8579,579.1955,363.3223,573.3459,352.8446,560.5542,366.8579" style="stroke:#181818;stroke-width:1;"/><path d="M576.2707,358.0835 C590.8153,348.2952 580.9834,334.5306 595,324 C651.1046,281.8489 699.1849,335.4136 748,285 C799.6086,231.7013 738.6795,180.7388 784,122 C792.5993,110.8547 804.3739,101.9749 816.7696,94.9822" fill="none" style="stroke:#181818;stroke-width:1;stroke-dasharray:7,7;"/></g><g class="link" data-entity-1="ent0003" data-entity-2="ent0008" data-link-type="extension" id="lnk24"><polygon fill="none" points="729.7103,227.9646,748.5911,226.0901,743.6903,215.1365,729.7103,227.9646" style="stroke:#181818;stroke-width:1;"/><path d="M746.1407,220.6133 C763.422,212.8814 766.2782,211.6815 784,204 C793.0138,200.093 802.5183,196.0283 811.9149,192.0425" fill="none" style="stroke:#181818;stroke-width:1;stroke-dasharray:7,7;"/></g><g class="link" data-entity-1="ent0013" data-entity-2="ent0008" data-link-type="extension" id="lnk25"><polygon fill="none" points="537.9061,366.9649,556.6084,370.1626,554.7866,358.3017,537.9061,366.9649" style="stroke:#181818;stroke-width:1;"/><path d="M555.6975,364.2322 C654.0896,349.1195 730.9854,333.7263 748,318 C787.0189,281.9356 748.2003,243.2619 784,204 C791.6709,195.5872 801.345,188.8446 811.6022,183.4565" fill="none" style="stroke:#181818;stroke-width:1;stroke-dasharray:7,7;"/></g><g class="link" data-entity-1="ent0003" data-entity-2="ent0009" data-link-type="extension" id="lnk26"><polygon fill="none" points="748.1991,249.5517,766.3933,254.934,765.9838,242.941,748.1991,249.5517" style="stroke:#181818;stroke-width:1;"/><path d="M766.1886,248.9375 C789.5117,248.1411 797.1909,247.8788 819.7239,247.1094" fill="none" style="stroke:#181818;stroke-width:1;stroke-dasharray:7,7;"/></g><g class="link" data-entity-1="ent0013" data-entity-2="ent0009" data-link-type="extension" id="lnk27"><polygon fill="none" points="567.1688,394.5642,585.5714,399.1842,584.6629,387.2187,567.1688,394.5642" style="stroke:#181818;stroke-width:1;"/><path d="M585.1171,393.2014 C662.5526,387.3219 716.5143,377.3223 748,356 C776.967,336.3833 758.3292,309.7678 784,286 C794.2405,276.5187 806.9938,269.0534 819.8654,263.2427" fill="none" style="stroke:#181818;stroke-width:1;stroke-dasharray:7,7;"/></g><g class="link" data-entity-1="ent0003" data-entity-2="ent0010" data-link-type="extension" id="lnk28"><polygon fill="none" points="725.8635,276.0797,739.4108,289.364,744.6719,278.5788,725.8635,276.0797" style="stroke:#181818;stroke-width:1;"/><path d="M742.0413,283.9714 C760.2865,292.8715 765.4586,295.3944 786.3949,305.6073" fill="none" style="stroke:#181818;stroke-width:1;stroke-dasharray:7,7;"/></g><g class="link" data-entity-1="ent0013" data-entity-2="ent0010" data-link-type="extension" id="lnk29"><polygon fill="none" points="567.2755,408.9263,585.4116,414.5011,585.1293,402.5045,567.2755,408.9263" style="stroke:#181818;stroke-width:1;"/><path d="M585.2705,408.5028 C645.0827,407.0953 689.9074,403.2514 748,394 C760.5972,391.9939 773.6422,389.0442 786.4215,385.6223" fill="none" style="stroke:#181818;stroke-width:1;stroke-dasharray:7,7;"/></g><g class="footer" data-source-line="89"><text fill="#888888" font-family="sans-serif" font-size="10" lengthAdjust="spacing" textLength="3.1787" x="488.4106" y="773.2822">&#160;</text><a href="https://github.com/talsma-ict/umldoclet" target="_top" title="https://github.com/talsma-ict/umldoclet" xlink:actuate="onRequest" xlink:href="https://github.com/talsma-ict/umldoclet" xlink:show="new" xlink:title="https://github.com/talsma-ict/umldoclet" xlink:type="simple"><text fill="#888888" font-family="sans-serif" font-size="10" lengthAdjust="spacing" textLength="82.3096" x="448.8452" y="784.9229">UMLDoclet 2.3.0</text></a></g><?plantuml-src lLTjRzf84FuCls9F_T1K3Mi7IdIrefDS0mqdvqN1t5NbKBJO2wootlLvrwGeb_z-itO3EBoa5Q4I4lBiplCyCpkUyLRU8aycyvHDfXffYVIKATI_y14H4PfGGLEYQOHOJ2PKeH7bKanKiP4YakcfJ94Svq-XJ5Eg4YaY9YReJp8ZICai3Qd2rMhbBGgUeE-9Me4UpOsn9KDEDJhotgtegTidfxMwNJz50U4g9gZh1TX0BHtgk85j1C2SXLGemCj4HDDSa9kG4FxyOkKOpMYgc1JWOniG4s4eXIPCA9IGL2iJoJKdGXkL9zWmupewSdj-MPNzCLTrZDnKa2n2D_BVh8ZojoGb4n3AoLnc6gcOQY98jSBfE4zlWH2nb8OQf5Gh2c9G5DY9Xamw3c20wZl8Dc8IJvYUPYDCs8UGOJAAyOXEoOn1Lj43xAmmeMaw9Y55dvuMBcH4EHeCoWOyrJ4V3f5neYABKI-6W5qu1HrGfSs13GPhjYUl1_2gF2XDD0iVqVkRjki5tR_QjzVUJNd5_Tlj1klcNjllt7PxLxuRj67bSQ72b-5T9Ez5LqbEJ490nPfjYuebtehHy3yNwxVTNfdsXX98_uoQC5qH5KmKk3Sl73mDbr9uCauuWz835QkFMxXT7uZBfbRRRPLGE-mRZHPb0BXbmnRarjNjvLLmthtyN0BhpUD4ozXiCfMoVDe6q-wuVJyeOopgo-y4cyfkQNufvR3p-Kh7Rt_PvoWUTxnwOoxlSKp3AH4iLBcgvQlNqwP65ddD7o4iZ2tu6KzhuMbjsbkAzRqWCJrwvm1g2dd8jQsHzJNZ2hVec6HSNyfbAhTpRdOfKsT913lFcO9MD3_wb34EdVGONKFRb297EIxuBw2lCa4zQ9xqcmOZWMgbAQYUIHRjr2ofWiFeZilrzABk3Mu7r6vAONS9ECx6Kp_xhrRRtRSTfzoOrubsRWS6Z5zYMElZFnZDbh9w9ShzurgR33yNrwRIUoNQ_MFRF7aEVt0_ohj_XAjJxV1nxMRRFvhoB3ryF2_nlKBNMBuMlw1Vx29xpGwu_AJubKrmXRLQELDwpkaVC5h6Ki9CB2RM-JoXgS_4dISvVFc_-Rrax9jB38Sv1PUcy4vGfP1TpAOpwmdkEze_OZ2OQfqenxA-gmjbREdynbHZeRQoc4V5RUdPlMauDFUWpukhcBdKrEmc_88JssasdAQDFpGR7nkDqqRpww2jGwiVUCF_0G00?></g></svg>