<?plantuml 1.2026.1?><svg xmlns="http://www.w3.org/2000/svg" xmlns:xlink="http://www.w3.org/1999/xlink" contentStyleType="text/css" data-diagram-type="CLASS" height="796px" preserveAspectRatio="none" style="width:996px;height:796px;background:#FFFFFF;" version="1.1" viewBox="0 0 996 796" width="996px" zoomAndPan="magnify"><defs/><g><!--cluster io.github.ai4ci.abm.behaviour--><g class="cluster" data-qualified-name="io.github.ai4ci.abm.behaviour" data-source-line="11" id="ent0002"><path d="M597.5,4 L836.1445,4 A3.75,3.75 0 0 1 838.6445,6.5 L845.6445,26.2969 L986.5,26.2969 A2.5,2.5 0 0 1 989,28.7969 L989,760.5 A2.5,2.5 0 0 1 986.5,763 L597.5,763 A2.5,2.5 0 0 1 595,760.5 L595,6.5 A2.5,2.5 0 0 1 597.5,4" fill="none" style="stroke:#000000;stroke-width:1.5;"/><line style="stroke:#000000;stroke-width:1.5;" x1="595" x2="845.6445" y1="26.2969" y2="26.2969"/><text fill="#000000" font-family="sans-serif" font-size="14" font-weight="bold" lengthAdjust="spacing" textLength="237.6445" x="599" y="18.9951">io.github.ai4ci.abm.behaviour</text></g><!--cluster io.github.ai4ci.flow.mechanics--><g class="cluster" data-qualified-name="io.github.ai4ci.flow.mechanics" data-source-line="55" id="ent0011"><path d="M16.5,298 L258.3779,298 A3.75,3.75 0 0 1 260.8779,300.5 L267.8779,320.2969 L572.5,320.2969 A2.5,2.5 0 0 1 575,322.7969 L575,558.5 A2.5,2.5 0 0 1 572.5,561 L16.5,561 A2.5,2.5 0 0 1 14,558.5 L14,300.5 A2.5,2.5 0 0 1 16.5,298" fill="none" style="stroke:#000000;stroke-width:1.5;"/><line style="stroke:#000000;stroke-width:1.5;" x1="14" x2="267.8779" y1="320.2969" y2="320.2969"/><text fill="#000000" font-family="sans-serif" font-size="14" font-weight="bold" lengthAdjust="spacing" textLength="240.8779" x="18" y="312.9951">io.github.ai4ci.flow.mechanics</text></g><!--class SmartAgentTesting--><g class="entity" data-qualified-name="io.github.ai4ci.abm.behaviour..SmartAgentTesting" data-source-line="13" id="ent0003"><a href="SmartAgentTesting.html" target="_top" title="SmartAgentTesting.html" xlink:actuate="onRequest" xlink:href="SmartAgentTesting.html" xlink:show="new" xlink:title="SmartAgentTesting.html" xlink:type="simple"><rect fill="#F1F1F1" height="96.8906" rx="2.5" ry="2.5" style="stroke:#181818;stroke-width:0.5;" width="167.3857" x="799" y="427.5"/><ellipse cx="814" cy="443.5" fill="#EB937F" rx="11" ry="11" style="stroke:#181818;stroke-width:1;"/><path d="M818.1094,449.5 L810.3906,449.5 L810.3906,437.1094 L818.1094,437.1094 L818.1094,439.2656 L812.8438,439.2656 L812.8438,441.9375 L817.6094,441.9375 L817.6094,444.0938 L812.8438,444.0938 L812.8438,447.3438 L818.1094,447.3438 L818.1094,449.5 Z " fill="#000000"/><text fill="#000000" font-family="sans-serif" font-size="14" lengthAdjust="spacing" textLength="135.3857" x="828" y="448.3467">SmartAgentTesting</text><line style="stroke:#181818;stroke-width:0.5;" x1="800" x2="965.3857" y1="459.5" y2="459.5"/></a><g data-visibility-modifier="PUBLIC_FIELD"><a href="SmartAgentTesting.html" target="_top" title="SmartAgentTesting.html" xlink:actuate="onRequest" xlink:href="SmartAgentTesting.html" xlink:show="new" xlink:title="SmartAgentTesting.html" xlink:type="simple"><ellipse cx="810" cy="473.1484" fill="none" rx="3" ry="3" style="stroke:#038048;stroke-width:1;"/></a></g><a href="SmartAgentTesting.html" target="_top" title="SmartAgentTesting.html" xlink:actuate="onRequest" xlink:href="SmartAgentTesting.html" xlink:show="new" xlink:title="SmartAgentTesting.html" xlink:type="simple"><text fill="#000000" font-family="sans-serif" font-size="14" lengthAdjust="spacing" text-decoration="underline" textLength="103.9746" x="819" y="476.4951">REACTIVE_PCR</text></a><g data-visibility-modifier="PUBLIC_FIELD"><a href="SmartAgentTesting.html" target="_top" title="SmartAgentTesting.html" xlink:actuate="onRequest" xlink:href="SmartAgentTesting.html" xlink:show="new" xlink:title="SmartAgentTesting.html" xlink:type="simple"><ellipse cx="810" cy="489.4453" fill="none" rx="3" ry="3" style="stroke:#038048;stroke-width:1;"/></a></g><a href="SmartAgentTesting.html" target="_top" title="SmartAgentTesting.html" xlink:actuate="onRequest" xlink:href="SmartAgentTesting.html" xlink:show="new" xlink:title="SmartAgentTesting.html" xlink:type="simple"><text fill="#000000" font-family="sans-serif" font-size="14" lengthAdjust="spacing" text-decoration="underline" textLength="80.623" x="819" y="492.792">AWAIT_PCR</text></a><g data-visibility-modifier="PUBLIC_FIELD"><a href="SmartAgentTesting.html" target="_top" title="SmartAgentTesting.html" xlink:actuate="onRequest" xlink:href="SmartAgentTesting.html" xlink:show="new" xlink:title="SmartAgentTesting.html" xlink:type="simple"><ellipse cx="810" cy="505.7422" fill="none" rx="3" ry="3" style="stroke:#038048;stroke-width:1;"/></a></g><a href="SmartAgentTesting.html" target="_top" title="SmartAgentTesting.html" xlink:actuate="onRequest" xlink:href="SmartAgentTesting.html" xlink:show="new" xlink:title="SmartAgentTesting.html" xlink:type="simple"><text fill="#000000" font-family="sans-serif" font-size="14" lengthAdjust="spacing" text-decoration="underline" textLength="99.3945" x="819" y="509.0889">SELF_ISOLATE</text><line style="stroke:#181818;stroke-width:0.5;" x1="800" x2="965.3857" y1="516.3906" y2="516.3906"/></a></g><!--class ReactiveTestAndIsolate--><g class="entity" data-qualified-name="io.github.ai4ci.abm.behaviour..ReactiveTestAndIsolate" data-source-line="19" id="ent0004"><a href="ReactiveTestAndIsolate.html" target="_top" title="ReactiveTestAndIsolate.html" xlink:actuate="onRequest" xlink:href="ReactiveTestAndIsolate.html" xlink:show="new" xlink:title="ReactiveTestAndIsolate.html" xlink:type="simple"><rect fill="#F1F1F1" height="96.8906" rx="2.5" ry="2.5" style="stroke:#181818;stroke-width:0.5;" width="196.7393" x="784" y="542.5"/><ellipse cx="799" cy="558.5" fill="#EB937F" rx="11" ry="11" style="stroke:#181818;stroke-width:1;"/><path d="M803.1094,564.5 L795.3906,564.5 L795.3906,552.1094 L803.1094,552.1094 L803.1094,554.2656 L797.8438,554.2656 L797.8438,556.9375 L802.6094,556.9375 L802.6094,559.0938 L797.8438,559.0938 L797.8438,562.3438 L803.1094,562.3438 L803.1094,564.5 Z " fill="#000000"/><text fill="#000000" font-family="sans-serif" font-size="14" lengthAdjust="spacing" textLength="164.7393" x="813" y="563.3467">ReactiveTestAndIsolate</text><line style="stroke:#181818;stroke-width:0.5;" x1="785" x2="979.7393" y1="574.5" y2="574.5"/></a><g data-visibility-modifier="PUBLIC_FIELD"><a href="ReactiveTestAndIsolate.html" target="_top" title="ReactiveTestAndIsolate.html" xlink:actuate="onRequest" xlink:href="ReactiveTestAndIsolate.html" xlink:show="new" xlink:title="ReactiveTestAndIsolate.html" xlink:type="simple"><ellipse cx="795" cy="588.1484" fill="none" rx="3" ry="3" style="stroke:#038048;stroke-width:1;"/></a></g><a href="ReactiveTestAndIsolate.html" target="_top" title="ReactiveTestAndIsolate.html" xlink:actuate="onRequest" xlink:href="ReactiveTestAndIsolate.html" xlink:show="new" xlink:title="ReactiveTestAndIsolate.html" xlink:type="simple"><text fill="#000000" font-family="sans-serif" font-size="14" lengthAdjust="spacing" text-decoration="underline" textLength="103.9746" x="804" y="591.4951">REACTIVE_PCR</text></a><g data-visibility-modifier="PUBLIC_FIELD"><a href="ReactiveTestAndIsolate.html" target="_top" title="ReactiveTestAndIsolate.html" xlink:actuate="onRequest" xlink:href="ReactiveTestAndIsolate.html" xlink:show="new" xlink:title="ReactiveTestAndIsolate.html" xlink:type="simple"><ellipse cx="795" cy="604.4453" fill="none" rx="3" ry="3" style="stroke:#038048;stroke-width:1;"/></a></g><a href="ReactiveTestAndIsolate.html" target="_top" title="ReactiveTestAndIsolate.html" xlink:actuate="onRequest" xlink:href="ReactiveTestAndIsolate.html" xlink:show="new" xlink:title="ReactiveTestAndIsolate.html" xlink:type="simple"><text fill="#000000" font-family="sans-serif" font-size="14" lengthAdjust="spacing" text-decoration="underline" textLength="80.623" x="804" y="607.792">AWAIT_PCR</text></a><g data-visibility-modifier="PUBLIC_FIELD"><a href="ReactiveTestAndIsolate.html" target="_top" title="ReactiveTestAndIsolate.html" xlink:actuate="onRequest" xlink:href="ReactiveTestAndIsolate.html" xlink:show="new" xlink:title="ReactiveTestAndIsolate.html" xlink:type="simple"><ellipse cx="795" cy="620.7422" fill="none" rx="3" ry="3" style="stroke:#038048;stroke-width:1;"/></a></g><a href="ReactiveTestAndIsolate.html" target="_top" title="ReactiveTestAndIsolate.html" xlink:actuate="onRequest" xlink:href="ReactiveTestAndIsolate.html" xlink:show="new" xlink:title="ReactiveTestAndIsolate.html" xlink:type="simple"><text fill="#000000" font-family="sans-serif" font-size="14" lengthAdjust="spacing" text-decoration="underline" textLength="99.3945" x="804" y="624.0889">SELF_ISOLATE</text><line style="stroke:#181818;stroke-width:0.5;" x1="785" x2="979.7393" y1="631.3906" y2="631.3906"/></a></g><!--class NonCompliant--><g class="entity" data-qualified-name="io.github.ai4ci.abm.behaviour..NonCompliant" data-source-line="25" id="ent0005"><a href="NonCompliant.html" target="_top" title="NonCompliant.html" xlink:actuate="onRequest" xlink:href="NonCompliant.html" xlink:show="new" xlink:title="NonCompliant.html" xlink:type="simple"><rect fill="#F1F1F1" height="80.5938" rx="2.5" ry="2.5" style="stroke:#181818;stroke-width:0.5;" width="131.4971" x="817" y="31.5"/><ellipse cx="832" cy="47.5" fill="#EB937F" rx="11" ry="11" style="stroke:#181818;stroke-width:1;"/><path d="M836.1094,53.5 L828.3906,53.5 L828.3906,41.1094 L836.1094,41.1094 L836.1094,43.2656 L830.8438,43.2656 L830.8438,45.9375 L835.6094,45.9375 L835.6094,48.0938 L830.8438,48.0938 L830.8438,51.3438 L836.1094,51.3438 L836.1094,53.5 Z " fill="#000000"/><text fill="#000000" font-family="sans-serif" font-size="14" lengthAdjust="spacing" textLength="99.4971" x="846" y="52.3467">NonCompliant</text><line style="stroke:#181818;stroke-width:0.5;" x1="818" x2="947.4971" y1="63.5" y2="63.5"/></a><g data-visibility-modifier="PUBLIC_FIELD"><a href="NonCompliant.html" target="_top" title="NonCompliant.html" xlink:actuate="onRequest" xlink:href="NonCompliant.html" xlink:show="new" xlink:title="NonCompliant.html" xlink:type="simple"><ellipse cx="828" cy="77.1484" fill="none" rx="3" ry="3" style="stroke:#038048;stroke-width:1;"/></a></g><a href="NonCompliant.html" target="_top" title="NonCompliant.html" xlink:actuate="onRequest" xlink:href="NonCompliant.html" xlink:show="new" xlink:title="NonCompliant.html" xlink:type="simple"><text fill="#000000" font-family="sans-serif" font-size="14" lengthAdjust="spacing" text-decoration="underline" textLength="39.9287" x="837" y="80.4951">ALIVE</text></a><g data-visibility-modifier="PUBLIC_FIELD"><a href="NonCompliant.html" target="_top" title="NonCompliant.html" xlink:actuate="onRequest" xlink:href="NonCompliant.html" xlink:show="new" xlink:title="NonCompliant.html" xlink:type="simple"><ellipse cx="828" cy="93.4453" fill="none" rx="3" ry="3" style="stroke:#038048;stroke-width:1;"/></a></g><a href="NonCompliant.html" target="_top" title="NonCompliant.html" xlink:actuate="onRequest" xlink:href="NonCompliant.html" xlink:show="new" xlink:title="NonCompliant.html" xlink:type="simple"><text fill="#000000" font-family="sans-serif" font-size="14" lengthAdjust="spacing" text-decoration="underline" textLength="39.9834" x="837" y="96.792">DEAD</text><line style="stroke:#181818;stroke-width:0.5;" x1="818" x2="947.4971" y1="104.0938" y2="104.0938"/></a></g><!--class BehaviourModel--><g class="entity" data-qualified-name="io.github.ai4ci.abm.behaviour..BehaviourModel" data-source-line="30" id="ent0006"><a href="BehaviourModel.html" target="_top" title="BehaviourModel.html" xlink:actuate="onRequest" xlink:href="BehaviourModel.html" xlink:show="new" xlink:title="BehaviourModel.html" xlink:type="simple"><rect fill="#F1F1F1" height="48" rx="2.5" ry="2.5" style="stroke:#181818;stroke-width:0.5;" width="145.0732" x="603" y="442"/><ellipse cx="618" cy="458" fill="#B4A7E5" rx="11" ry="11" style="stroke:#181818;stroke-width:1;"/><path d="M613.9219,453.7656 L613.9219,451.6094 L621.3125,451.6094 L621.3125,453.7656 L618.8438,453.7656 L618.8438,461.8438 L621.3125,461.8438 L621.3125,464 L613.9219,464 L613.9219,461.8438 L616.3906,461.8438 L616.3906,453.7656 L613.9219,453.7656 Z " fill="#000000"/><text fill="#000000" font-family="sans-serif" font-size="14" font-style="italic" lengthAdjust="spacing" textLength="113.0732" x="632" y="462.8467">BehaviourModel</text><line style="stroke:#181818;stroke-width:0.5;" x1="604" x2="747.0732" y1="474" y2="474"/><line style="stroke:#181818;stroke-width:0.5;" x1="604" x2="747.0732" y1="482" y2="482"/></a></g><!--class LockdownIsolation--><g class="entity" data-qualified-name="io.github.ai4ci.abm.behaviour..LockdownIsolation" data-source-line="32" id="ent0007"><a href="LockdownIsolation.html" target="_top" title="LockdownIsolation.html" xlink:actuate="onRequest" xlink:href="LockdownIsolation.html" xlink:show="new" xlink:title="LockdownIsolation.html" xlink:type="simple"><rect fill="#F1F1F1" height="96.8906" rx="2.5" ry="2.5" style="stroke:#181818;stroke-width:0.5;" width="161.2197" x="802" y="657.5"/><ellipse cx="817" cy="673.5" fill="#EB937F" rx="11" ry="11" style="stroke:#181818;stroke-width:1;"/><path d="M821.1094,679.5 L813.3906,679.5 L813.3906,667.1094 L821.1094,667.1094 L821.1094,669.2656 L815.8438,669.2656 L815.8438,671.9375 L820.6094,671.9375 L820.6094,674.0938 L815.8438,674.0938 L815.8438,677.3438 L821.1094,677.3438 L821.1094,679.5 Z " fill="#000000"/><text fill="#000000" font-family="sans-serif" font-size="14" lengthAdjust="spacing" textLength="129.2197" x="831" y="678.3467">LockdownIsolation</text><line style="stroke:#181818;stroke-width:0.5;" x1="803" x2="962.2197" y1="689.5" y2="689.5"/></a><g data-visibility-modifier="PUBLIC_FIELD"><a href="LockdownIsolation.html" target="_top" title="LockdownIsolation.html" xlink:actuate="onRequest" xlink:href="LockdownIsolation.html" xlink:show="new" xlink:title="LockdownIsolation.html" xlink:type="simple"><ellipse cx="813" cy="703.1484" fill="none" rx="3" ry="3" style="stroke:#038048;stroke-width:1;"/></a></g><a href="LockdownIsolation.html" target="_top" title="LockdownIsolation.html" xlink:actuate="onRequest" xlink:href="LockdownIsolation.html" xlink:show="new" xlink:title="LockdownIsolation.html" xlink:type="simple"><text fill="#000000" font-family="sans-serif" font-size="14" lengthAdjust="spacing" text-decoration="underline" textLength="58.8096" x="822" y="706.4951">ISOLATE</text></a><g data-visibility-modifier="PUBLIC_FIELD"><a href="LockdownIsolation.html" target="_top" title="LockdownIsolation.html" xlink:actuate="onRequest" xlink:href="LockdownIsolation.html" xlink:show="new" xlink:title="LockdownIsolation.html" xlink:type="simple"><ellipse cx="813" cy="719.4453" fill="none" rx="3" ry="3" style="stroke:#038048;stroke-width:1;"/></a></g><a href="LockdownIsolation.html" target="_top" title="LockdownIsolation.html" xlink:actuate="onRequest" xlink:href="LockdownIsolation.html" xlink:show="new" xlink:title="LockdownIsolation.html" xlink:type="simple"><text fill="#000000" font-family="sans-serif" font-size="14" lengthAdjust="spacing" text-decoration="underline" textLength="36.1006" x="822" y="722.792">WAIT</text></a><g data-visibility-modifier="PUBLIC_FIELD"><a href="LockdownIsolation.html" target="_top" title="LockdownIsolation.html" xlink:actuate="onRequest" xlink:href="LockdownIsolation.html" xlink:show="new" xlink:title="LockdownIsolation.html" xlink:type="simple"><ellipse cx="813" cy="735.7422" fill="none" rx="3" ry="3" style="stroke:#038048;stroke-width:1;"/></a></g><a href="LockdownIsolation.html" target="_top" title="LockdownIsolation.html" xlink:actuate="onRequest" xlink:href="LockdownIsolation.html" xlink:show="new" xlink:title="LockdownIsolation.html" xlink:type="simple"><text fill="#000000" font-family="sans-serif" font-size="14" lengthAdjust="spacing" text-decoration="underline" textLength="62.5283" x="822" y="739.0889">RELEASE</text><line style="stroke:#181818;stroke-width:0.5;" x1="803" x2="962.2197" y1="746.3906" y2="746.3906"/></a></g><!--class Symptomatic--><g class="entity" data-qualified-name="io.github.ai4ci.abm.behaviour..Symptomatic" data-source-line="38" id="ent0008"><a href="Symptomatic.html" target="_top" title="Symptomatic.html" xlink:actuate="onRequest" xlink:href="Symptomatic.html" xlink:show="new" xlink:title="Symptomatic.html" xlink:type="simple"><rect fill="#F1F1F1" height="64.2969" rx="2.5" ry="2.5" style="stroke:#181818;stroke-width:0.5;" width="125.0439" x="820" y="131"/><ellipse cx="835" cy="147" fill="#EB937F" rx="11" ry="11" style="stroke:#181818;stroke-width:1;"/><path d="M839.1094,153 L831.3906,153 L831.3906,140.6094 L839.1094,140.6094 L839.1094,142.7656 L833.8438,142.7656 L833.8438,145.4375 L838.6094,145.4375 L838.6094,147.5938 L833.8438,147.5938 L833.8438,150.8438 L839.1094,150.8438 L839.1094,153 Z " fill="#000000"/><text fill="#000000" font-family="sans-serif" font-size="14" lengthAdjust="spacing" textLength="93.0439" x="849" y="151.8467">Symptomatic</text><line style="stroke:#181818;stroke-width:0.5;" x1="821" x2="944.0439" y1="163" y2="163"/></a><g data-visibility-modifier="PUBLIC_FIELD"><a href="Symptomatic.html" target="_top" title="Symptomatic.html" xlink:actuate="onRequest" xlink:href="Symptomatic.html" xlink:show="new" xlink:title="Symptomatic.html" xlink:type="simple"><ellipse cx="831" cy="176.6484" fill="none" rx="3" ry="3" style="stroke:#038048;stroke-width:1;"/></a></g><a href="Symptomatic.html" target="_top" title="Symptomatic.html" xlink:actuate="onRequest" xlink:href="Symptomatic.html" xlink:show="new" xlink:title="Symptomatic.html" xlink:type="simple"><text fill="#000000" font-family="sans-serif" font-size="14" lengthAdjust="spacing" text-decoration="underline" textLength="63.8545" x="840" y="179.9951">DEFAULT</text><line style="stroke:#181818;stroke-width:0.5;" x1="821" x2="944.0439" y1="187.2969" y2="187.2969"/></a></g><!--class SmartAgentLFTTesting--><g class="entity" data-qualified-name="io.github.ai4ci.abm.behaviour..SmartAgentLFTTesting" data-source-line="42" id="ent0009"><a href="SmartAgentLFTTesting.html" target="_top" title="SmartAgentLFTTesting.html" xlink:actuate="onRequest" xlink:href="SmartAgentLFTTesting.html" xlink:show="new" xlink:title="SmartAgentLFTTesting.html" xlink:type="simple"><rect fill="#F1F1F1" height="113.1875" rx="2.5" ry="2.5" style="stroke:#181818;stroke-width:0.5;" width="191.79" x="786.5" y="213.5"/><ellipse cx="801.5" cy="229.5" fill="#EB937F" rx="11" ry="11" style="stroke:#181818;stroke-width:1;"/><path d="M805.6094,235.5 L797.8906,235.5 L797.8906,223.1094 L805.6094,223.1094 L805.6094,225.2656 L800.3438,225.2656 L800.3438,227.9375 L805.1094,227.9375 L805.1094,230.0938 L800.3438,230.0938 L800.3438,233.3438 L805.6094,233.3438 L805.6094,235.5 Z " fill="#000000"/><text fill="#000000" font-family="sans-serif" font-size="14" lengthAdjust="spacing" textLength="159.79" x="815.5" y="234.3467">SmartAgentLFTTesting</text><line style="stroke:#181818;stroke-width:0.5;" x1="787.5" x2="977.29" y1="245.5" y2="245.5"/></a><g data-visibility-modifier="PUBLIC_FIELD"><a href="SmartAgentLFTTesting.html" target="_top" title="SmartAgentLFTTesting.html" xlink:actuate="onRequest" xlink:href="SmartAgentLFTTesting.html" xlink:show="new" xlink:title="SmartAgentLFTTesting.html" xlink:type="simple"><ellipse cx="797.5" cy="259.1484" fill="none" rx="3" ry="3" style="stroke:#038048;stroke-width:1;"/></a></g><a href="SmartAgentLFTTesting.html" target="_top" title="SmartAgentLFTTesting.html" xlink:actuate="onRequest" xlink:href="SmartAgentLFTTesting.html" xlink:show="new" xlink:title="SmartAgentLFTTesting.html" xlink:type="simple"><text fill="#000000" font-family="sans-serif" font-size="14" lengthAdjust="spacing" text-decoration="underline" textLength="100.4336" x="806.5" y="262.4951">REACTIVE_LFT</text></a><g data-visibility-modifier="PUBLIC_FIELD"><a href="SmartAgentLFTTesting.html" target="_top" title="SmartAgentLFTTesting.html" xlink:actuate="onRequest" xlink:href="SmartAgentLFTTesting.html" xlink:show="new" xlink:title="SmartAgentLFTTesting.html" xlink:type="simple"><ellipse cx="797.5" cy="275.4453" fill="none" rx="3" ry="3" style="stroke:#038048;stroke-width:1;"/></a></g><a href="SmartAgentLFTTesting.html" target="_top" title="SmartAgentLFTTesting.html" xlink:actuate="onRequest" xlink:href="SmartAgentLFTTesting.html" xlink:show="new" xlink:title="SmartAgentLFTTesting.html" xlink:type="simple"><text fill="#000000" font-family="sans-serif" font-size="14" lengthAdjust="spacing" text-decoration="underline" textLength="87.8076" x="806.5" y="278.792">REFLEX_PCR</text></a><g data-visibility-modifier="PUBLIC_FIELD"><a href="SmartAgentLFTTesting.html" target="_top" title="SmartAgentLFTTesting.html" xlink:actuate="onRequest" xlink:href="SmartAgentLFTTesting.html" xlink:show="new" xlink:title="SmartAgentLFTTesting.html" xlink:type="simple"><ellipse cx="797.5" cy="291.7422" fill="none" rx="3" ry="3" style="stroke:#038048;stroke-width:1;"/></a></g><a href="SmartAgentLFTTesting.html" target="_top" title="SmartAgentLFTTesting.html" xlink:actuate="onRequest" xlink:href="SmartAgentLFTTesting.html" xlink:show="new" xlink:title="SmartAgentLFTTesting.html" xlink:type="simple"><text fill="#000000" font-family="sans-serif" font-size="14" lengthAdjust="spacing" text-decoration="underline" textLength="80.623" x="806.5" y="295.0889">AWAIT_PCR</text></a><g data-visibility-modifier="PUBLIC_FIELD"><a href="SmartAgentLFTTesting.html" target="_top" title="SmartAgentLFTTesting.html" xlink:actuate="onRequest" xlink:href="SmartAgentLFTTesting.html" xlink:show="new" xlink:title="SmartAgentLFTTesting.html" xlink:type="simple"><ellipse cx="797.5" cy="308.0391" fill="none" rx="3" ry="3" style="stroke:#038048;stroke-width:1;"/></a></g><a href="SmartAgentLFTTesting.html" target="_top" title="SmartAgentLFTTesting.html" xlink:actuate="onRequest" xlink:href="SmartAgentLFTTesting.html" xlink:show="new" xlink:title="SmartAgentLFTTesting.html" xlink:type="simple"><text fill="#000000" font-family="sans-serif" font-size="14" lengthAdjust="spacing" text-decoration="underline" textLength="99.3945" x="806.5" y="311.3857">SELF_ISOLATE</text><line style="stroke:#181818;stroke-width:0.5;" x1="787.5" x2="977.29" y1="318.6875" y2="318.6875"/></a></g><!--class Test--><g class="entity" data-qualified-name="io.github.ai4ci.abm.behaviour..Test" data-source-line="49" id="ent0010"><a href="Test.html" target="_top" title="Test.html" xlink:actuate="onRequest" xlink:href="Test.html" xlink:show="new" xlink:title="Test.html" xlink:type="simple"><rect fill="#F1F1F1" height="64.2969" rx="2.5" ry="2.5" style="stroke:#181818;stroke-width:0.5;" width="66.8105" x="849" y="345"/><ellipse cx="866.188" cy="361" fill="#EB937F" rx="11" ry="11" style="stroke:#181818;stroke-width:1;"/><path d="M870.2974,367 L862.5787,367 L862.5787,354.6094 L870.2974,354.6094 L870.2974,356.7656 L865.0318,356.7656 L865.0318,359.4375 L869.7974,359.4375 L869.7974,361.5938 L865.0318,361.5938 L865.0318,364.8438 L870.2974,364.8438 L870.2974,367 Z " fill="#000000"/><text fill="#000000" font-family="sans-serif" font-size="14" lengthAdjust="spacing" textLength="29.9482" x="880.6743" y="365.8467">Test</text><line style="stroke:#181818;stroke-width:0.5;" x1="850" x2="914.8105" y1="377" y2="377"/></a><g data-visibility-modifier="PUBLIC_FIELD"><a href="Test.html" target="_top" title="Test.html" xlink:actuate="onRequest" xlink:href="Test.html" xlink:show="new" xlink:title="Test.html" xlink:type="simple"><ellipse cx="860" cy="390.6484" fill="none" rx="3" ry="3" style="stroke:#038048;stroke-width:1;"/></a></g><a href="Test.html" target="_top" title="Test.html" xlink:actuate="onRequest" xlink:href="Test.html" xlink:show="new" xlink:title="Test.html" xlink:type="simple"><text fill="#000000" font-family="sans-serif" font-size="14" lengthAdjust="spacing" text-decoration="underline" textLength="40.8105" x="869" y="393.9951">NONE</text><line style="stroke:#181818;stroke-width:0.5;" x1="850" x2="914.8105" y1="401.2969" y2="401.2969"/></a></g><!--class StateUtils.DefaultNoTesting--><g class="entity" data-qualified-name="io.github.ai4ci.flow.mechanics..StateUtils.DefaultNoTesting" data-source-line="56" id="ent0012"><a href="../../flow/mechanics/StateUtils.DefaultNoTesting.html" target="_top" title="../../flow/mechanics/StateUtils.DefaultNoTesting.html" xlink:actuate="onRequest" xlink:href="../../flow/mechanics/StateUtils.DefaultNoTesting.html" xlink:show="new" xlink:title="../../flow/mechanics/StateUtils.DefaultNoTesting.html" xlink:type="simple"><rect fill="#F1F1F1" height="64.2969" rx="2.5" ry="2.5" style="stroke:#181818;stroke-width:0.5;" width="544.6699" x="22" y="325"/><ellipse cx="193.0317" cy="341" fill="#B4A7E5" rx="11" ry="11" style="stroke:#181818;stroke-width:1;"/><path d="M188.9536,336.7656 L188.9536,334.6094 L196.3442,334.6094 L196.3442,336.7656 L193.8755,336.7656 L193.8755,344.8438 L196.3442,344.8438 L196.3442,347 L188.9536,347 L188.9536,344.8438 L191.4224,344.8438 L191.4224,336.7656 L188.9536,336.7656 Z " fill="#000000"/><text fill="#000000" font-family="sans-serif" font-size="14" font-style="italic" lengthAdjust="spacing" textLength="194.1064" x="213.5317" y="345.8467">StateUtils.DefaultNoTesting</text><line style="stroke:#181818;stroke-width:0.5;" x1="23" x2="565.6699" y1="357" y2="357"/><line style="stroke:#181818;stroke-width:0.5;" x1="23" x2="565.6699" y1="365" y2="365"/></a><g data-visibility-modifier="PUBLIC_METHOD"><a href="../../flow/mechanics/StateUtils.DefaultNoTesting.html" target="_top" title="../../flow/mechanics/StateUtils.DefaultNoTesting.html" xlink:actuate="onRequest" xlink:href="../../flow/mechanics/StateUtils.DefaultNoTesting.html" xlink:show="new" xlink:title="../../flow/mechanics/StateUtils.DefaultNoTesting.html" xlink:type="simple"><ellipse cx="33" cy="378.6484" fill="#84BE84" rx="3" ry="3" style="stroke:#038048;stroke-width:1;"/></a></g><a href="../../flow/mechanics/StateUtils.DefaultNoTesting.html" target="_top" title="../../flow/mechanics/StateUtils.DefaultNoTesting.html" xlink:actuate="onRequest" xlink:href="../../flow/mechanics/StateUtils.DefaultNoTesting.html" xlink:show="new" xlink:title="../../flow/mechanics/StateUtils.DefaultNoTesting.html" xlink:type="simple"><text fill="#000000" font-family="sans-serif" font-size="14" lengthAdjust="spacing" textLength="518.6699" x="42" y="381.9951">updateHistory(Builder, PersonState, StateMachineContext, Sampler): void</text></a></g><!--class State.BehaviourState--><g class="entity" data-qualified-name="io.github.ai4ci.flow.mechanics..State.BehaviourState" data-source-line="59" id="ent0013"><a href="../../flow/mechanics/State.BehaviourState.html" target="_top" title="../../flow/mechanics/State.BehaviourState.html" xlink:actuate="onRequest" xlink:href="../../flow/mechanics/State.BehaviourState.html" xlink:show="new" xlink:title="../../flow/mechanics/State.BehaviourState.html" xlink:type="simple"><rect fill="#F1F1F1" height="64.2969" rx="2.5" ry="2.5" style="stroke:#181818;stroke-width:0.5;" width="181.6045" x="203.5" y="407"/><ellipse cx="218.5" cy="423" fill="#B4A7E5" rx="11" ry="11" style="stroke:#181818;stroke-width:1;"/><path d="M214.4219,418.7656 L214.4219,416.6094 L221.8125,416.6094 L221.8125,418.7656 L219.3438,418.7656 L219.3438,426.8438 L221.8125,426.8438 L221.8125,429 L214.4219,429 L214.4219,426.8438 L216.8906,426.8438 L216.8906,418.7656 L214.4219,418.7656 Z " fill="#000000"/><text fill="#000000" font-family="sans-serif" font-size="14" font-style="italic" lengthAdjust="spacing" textLength="149.6045" x="232.5" y="427.8467">State.BehaviourState</text><line style="stroke:#181818;stroke-width:0.5;" x1="204.5" x2="384.1045" y1="439" y2="439"/><line style="stroke:#181818;stroke-width:0.5;" x1="204.5" x2="384.1045" y1="447" y2="447"/></a><g data-visibility-modifier="PUBLIC_METHOD"><a href="../../flow/mechanics/State.BehaviourState.html" target="_top" title="../../flow/mechanics/State.BehaviourState.html" xlink:actuate="onRequest" xlink:href="../../flow/mechanics/State.BehaviourState.html" xlink:show="new" xlink:title="../../flow/mechanics/State.BehaviourState.html" xlink:type="simple"><ellipse cx="214.5" cy="460.6484" fill="#84BE84" rx="3" ry="3" style="stroke:#038048;stroke-width:1;"/></a></g><a href="../../flow/mechanics/State.BehaviourState.html" target="_top" title="../../flow/mechanics/State.BehaviourState.html" xlink:actuate="onRequest" xlink:href="../../flow/mechanics/State.BehaviourState.html" xlink:show="new" xlink:title="../../flow/mechanics/State.BehaviourState.html" xlink:type="simple"><text fill="#000000" font-family="sans-serif" font-size="14" lengthAdjust="spacing" textLength="101.5752" x="223.5" y="463.9951">name(): String</text></a></g><!--class StateUtils.DoesPCRIfSymptomatic--><g class="entity" data-qualified-name="io.github.ai4ci.flow.mechanics..StateUtils.DoesPCRIfSymptomatic" data-source-line="62" id="ent0014"><a href="../../flow/mechanics/StateUtils.DoesPCRIfSymptomatic.html" target="_top" title="../../flow/mechanics/StateUtils.DoesPCRIfSymptomatic.html" xlink:actuate="onRequest" xlink:href="../../flow/mechanics/StateUtils.DoesPCRIfSymptomatic.html" xlink:show="new" xlink:title="../../flow/mechanics/StateUtils.DoesPCRIfSymptomatic.html" xlink:type="simple"><rect fill="#F1F1F1" height="64.2969" rx="2.5" ry="2.5" style="stroke:#181818;stroke-width:0.5;" width="544.6699" x="22" y="489"/><ellipse cx="171.2764" cy="505" fill="#B4A7E5" rx="11" ry="11" style="stroke:#181818;stroke-width:1;"/><path d="M167.1982,500.7656 L167.1982,498.6094 L174.5889,498.6094 L174.5889,500.7656 L172.1201,500.7656 L172.1201,508.8438 L174.5889,508.8438 L174.5889,511 L167.1982,511 L167.1982,508.8438 L169.667,508.8438 L169.667,500.7656 L167.1982,500.7656 Z " fill="#000000"/><text fill="#000000" font-family="sans-serif" font-size="14" font-style="italic" lengthAdjust="spacing" textLength="237.6172" x="191.7764" y="509.8467">StateUtils.DoesPCRIfSymptomatic</text><line style="stroke:#181818;stroke-width:0.5;" x1="23" x2="565.6699" y1="521" y2="521"/><line style="stroke:#181818;stroke-width:0.5;" x1="23" x2="565.6699" y1="529" y2="529"/></a><g data-visibility-modifier="PUBLIC_METHOD"><a href="../../flow/mechanics/StateUtils.DoesPCRIfSymptomatic.html" target="_top" title="../../flow/mechanics/StateUtils.DoesPCRIfSymptomatic.html" xlink:actuate="onRequest" xlink:href="../../flow/mechanics/StateUtils.DoesPCRIfSymptomatic.html" xlink:show="new" xlink:title="../../flow/mechanics/StateUtils.DoesPCRIfSymptomatic.html" xlink:type="simple"><ellipse cx="33" cy="542.6484" fill="#84BE84" rx="3" ry="3" style="stroke:#038048;stroke-width:1;"/></a></g><a href="../../flow/mechanics/StateUtils.DoesPCRIfSymptomatic.html" target="_top" title="../../flow/mechanics/StateUtils.DoesPCRIfSymptomatic.html" xlink:actuate="onRequest" xlink:href="../../flow/mechanics/StateUtils.DoesPCRIfSymptomatic.html" xlink:show="new" xlink:title="../../flow/mechanics/StateUtils.DoesPCRIfSymptomatic.html" xlink:type="simple"><text fill="#000000" font-family="sans-serif" font-size="14" lengthAdjust="spacing" textLength="518.6699" x="42" y="545.9951">updateHistory(Builder, PersonState, StateMachineContext, Sampler): void</text></a></g><g class="link" data-entity-1="ent0006" data-entity-2="ent0003" data-link-type="extension" id="lnk15"><polygon fill="none" points="748.1991,469.4975,765.8853,476.3674,766.47,464.3816,748.1991,469.4975" style="stroke:#181818;stroke-width:1;"/><path d="M766.1777,470.3745 C782.5731,471.1743 782.1491,471.1536 798.9587,471.9736" fill="none" style="stroke:#181818;stroke-width:1;stroke-dasharray:7,7;"/></g><g class="link" data-entity-1="ent0012" data-entity-2="ent0003" data-link-type="extension" id="lnk16"><polygon fill="none" points="567.2217,364.0731,584.4491,372.024,585.7742,360.0974,567.2217,364.0731" style="stroke:#181818;stroke-width:1;"/><path d="M585.1116,366.0607 C645.5921,372.7801 690.8147,381.9252 748,400 C754.2621,401.9793 775.4692,413.6868 799.1937,427.3434" fill="none" style="stroke:#181818;stroke-width:1;stroke-dasharray:7,7;"/></g><g class="link" data-entity-1="ent0006" data-entity-2="ent0004" data-link-type="extension" id="lnk17"><polygon fill="none" points="714.1088,490.2418,726.0458,504.99,732.5073,494.8781,714.1088,490.2418" style="stroke:#181818;stroke-width:1;"/><path d="M729.2765,499.9341 C749.8202,513.0616 760.6051,519.7682 784,534 C788.5229,536.7514 793.1763,539.5565 797.8823,542.3733" fill="none" style="stroke:#181818;stroke-width:1;stroke-dasharray:7,7;"/></g><g class="link" data-entity-1="ent0012" data-entity-2="ent0004" data-link-type="extension" id="lnk18"><polygon fill="none" points="521.0588,389.0157,537.8866,397.7808,539.7801,385.9311,521.0588,389.0157" style="stroke:#181818;stroke-width:1;"/><path d="M538.8333,391.8559 C557.1022,394.7752 557.486,394.9461 575,398 C652.2806,411.4755 688.7145,381.6278 748,433 C784.015,464.2079 753.5893,497.3094 784,534 C786.3773,536.8683 788.9389,539.6248 791.6442,542.2703" fill="none" style="stroke:#181818;stroke-width:1;stroke-dasharray:7,7;"/></g><g class="link" data-entity-1="ent0006" data-entity-2="ent0005" data-link-type="extension" id="lnk19"><polygon fill="none" points="677.7941,441.719,685.09,424.2042,673.1219,423.3296,677.7941,441.719" style="stroke:#181818;stroke-width:1;"/><path d="M679.106,423.7669 C683.5507,362.9422 701.5765,219.8736 784,122 C792.9453,111.378 804.717,102.7481 816.976,95.838" fill="none" style="stroke:#181818;stroke-width:1;stroke-dasharray:7,7;"/></g><g class="link" data-entity-1="ent0012" data-entity-2="ent0005" data-link-type="extension" id="lnk20"><polygon fill="none" points="361.299,324.9988,380.1103,322.5219,374.8619,311.7305,361.299,324.9988" style="stroke:#181818;stroke-width:1;"/><path d="M377.4861,317.1262 C490.6551,262.0867 704.6058,158.0322 816.9251,103.4059" fill="none" style="stroke:#181818;stroke-width:1;stroke-dasharray:7,7;"/></g><g class="link" data-entity-1="ent0013" data-entity-2="ent0006" data-link-type="extension" id="lnk21"><polygon fill="none" points="385.7984,445.4329,403.3266,452.6968,404.1793,440.7271,385.7984,445.4329" style="stroke:#181818;stroke-width:1;"/><path d="M403.7529,446.7119 C470.203,451.4459 541.363,456.5153 602.9229,460.9008" fill="none" style="stroke:#181818;stroke-width:1;"/></g><g class="link" data-entity-1="ent0006" data-entity-2="ent0007" data-link-type="extension" id="lnk22"><polygon fill="none" points="688.7777,490.2509,691.6619,509.004,702.337,503.5229,688.7777,490.2509" style="stroke:#181818;stroke-width:1;"/><path d="M696.9994,506.2634 C719.4832,550.0525 759.0264,624.0787 784,649 C789.4129,654.4015 795.4393,659.4802 801.7668,664.2089" fill="none" style="stroke:#181818;stroke-width:1;stroke-dasharray:7,7;"/></g><g class="link" data-entity-1="ent0014" data-entity-2="ent0007" data-link-type="extension" id="lnk23"><polygon fill="none" points="396.9044,553.0133,412.263,564.1539,415.8757,552.7107,396.9044,553.0133" style="stroke:#181818;stroke-width:1;"/><path d="M414.0693,558.4323 C529.0498,594.7316 696.9639,647.742 801.9919,680.8993" fill="none" style="stroke:#181818;stroke-width:1;stroke-dasharray:7,7;"/></g><g class="link" data-entity-1="ent0006" data-entity-2="ent0008" data-link-type="extension" id="lnk24"><polygon fill="none" points="680.1321,441.6264,689.1109,424.9117,677.2863,422.8673,680.1321,441.6264" style="stroke:#181818;stroke-width:1;"/><path d="M683.1986,423.8895 C691.9762,373.1198 715.8104,272.7858 784,204 C793.9544,193.9585 806.7414,186.2484 819.7564,180.3756" fill="none" style="stroke:#181818;stroke-width:1;stroke-dasharray:7,7;"/></g><g class="link" data-entity-1="ent0012" data-entity-2="ent0008" data-link-type="extension" id="lnk25"><polygon fill="none" points="392.266,324.9648,411.2396,325.0037,407.4682,313.6118,392.266,324.9648" style="stroke:#181818;stroke-width:1;"/><path d="M409.3539,319.3078 C530.6084,279.1655 717.757,217.2084 819.7141,183.4547" fill="none" style="stroke:#181818;stroke-width:1;stroke-dasharray:7,7;"/></g><g class="link" data-entity-1="ent0006" data-entity-2="ent0009" data-link-type="extension" id="lnk26"><polygon fill="none" points="693.3185,441.7122,708.6909,430.5907,698.9435,423.5915,693.3185,441.7122" style="stroke:#181818;stroke-width:1;"/><path d="M703.8172,427.0911 C723.5809,399.5671 747.7991,368.8865 784,336 C787.4798,332.8388 791.1214,329.7128 794.8675,326.6413" fill="none" style="stroke:#181818;stroke-width:1;stroke-dasharray:7,7;"/></g><g class="link" data-entity-1="ent0012" data-entity-2="ent0009" data-link-type="extension" id="lnk27"><polygon fill="none" points="511.2083,324.9751,529.8942,328.2666,528.132,316.3967,511.2083,324.9751" style="stroke:#181818;stroke-width:1;"/><path d="M529.0131,322.3317 C623.6526,308.2811 712.074,295.1537 786.3995,284.119" fill="none" style="stroke:#181818;stroke-width:1;stroke-dasharray:7,7;"/></g><g class="link" data-entity-1="ent0006" data-entity-2="ent0010" data-link-type="extension" id="lnk28"><polygon fill="none" points="729.7103,441.9646,748.5911,440.0901,743.6903,429.1365,729.7103,441.9646" style="stroke:#181818;stroke-width:1;"/><path d="M746.1407,434.6133 C763.422,426.8814 766.2782,425.6815 784,418 C805.5657,408.6523 829.9407,398.4023 848.9243,390.4893" fill="none" style="stroke:#181818;stroke-width:1;stroke-dasharray:7,7;"/></g><g class="link" data-entity-1="ent0012" data-entity-2="ent0010" data-link-type="extension" id="lnk29"><polygon fill="none" points="567.2427,355.5541,585.1475,361.8324,585.3336,349.8339,567.2427,355.5541" style="stroke:#181818;stroke-width:1;"/><path d="M585.2405,355.8331 C644.8385,356.7572 689.5805,358.4044 748,362 C782.5691,364.1276 821.9542,368.8342 848.9357,372.4119" fill="none" style="stroke:#181818;stroke-width:1;stroke-dasharray:7,7;"/></g><g class="footer" data-source-line="89"><text fill="#888888" font-family="sans-serif" font-size="10" lengthAdjust="spacing" textLength="3.1787" x="488.4106" y="774.2822">&#160;</text><a href="https://github.com/talsma-ict/umldoclet" target="_top" title="https://github.com/talsma-ict/umldoclet" xlink:actuate="onRequest" xlink:href="https://github.com/talsma-ict/umldoclet" xlink:show="new" xlink:title="https://github.com/talsma-ict/umldoclet" xlink:type="simple"><text fill="#888888" font-family="sans-serif" font-size="10" lengthAdjust="spacing" textLength="140.4639" x="419.7681" y="785.9229">UMLDoclet 2.2.5-SNAPSHOT</text></a></g><?plantuml-src pLTjRzis4FxUNy6X7vQYCMKhMPSQmG1LTXeFYXD4yZRC2mfQecqY5Ac9b3EZpN_lKNBzAbdBaXep31WYUVSyp-buvqC8eH-HAvDvoYPJZRH4UieK6bnvY8W8JQYWAT4qGYmc4whGY78f9geuI179z5IcI8xpfr2cALM9514J4_GhcH6aP9Q6LE5Nhr0E5Npp_a3KclVHt2nsPCYfHaVkcpLAThFrhc4txNSe85p51FNS02-yhMniREEV6dxVkV4lhmC489o5L2ZmdOc8fZa_9o4X_7Z5pZ6QqLGnAS2ukN1eD8TIQCA4GWb9jJBQRZWHsf1kOKC4jz2HutkR99llSvB7o4a5oI9qA__Ebhf_I58o0UgSp6McaOgf9eBaMvoEyx0NVYAMqb03ftnFWJ15WGRH4EHskt068kxXNI0cyOJfQJR2X9s639DHZ4TqIcOCOeu-5uVDXueiHduCQXo8k0weqkRz38SxQtYgOtvt1yPexVDPQQ9P-8ZUtdOTD-ZzrlrquzvM775-Tth1dds_wrrywldNdXDqbqSUjyZUKW9Hc553on5HJqaEQGACopV-BxJxKhWoJZY3T06owuzr51qF-5NiTRfEfmoJ2KtJCGaf-l3jjL_9Y7A0tbnOW6-nzMHu7ya7KGJHt8FXS6UjZlTsI3PtJL0htudNTVpgMFhpED4oDgTDfgwUwXXrkXVEm0kg7I-Jthi8okx2QlbVvnMOL1wvyBf_VE_4Ctn1W_cfuzo_xk_uUTnVMCPSFk2OXbCYMAZMFAyIq0VtTA0PLxX3noJZkYzNiSNOWgznOotTM7jCoZMypP88J2wPWceuF_gGCGw5_HZTG1MN8dTtN12vWZBF17MXaDD_D2mIk8KqVTD6CycYDVKLGl3o-kIFUnLidQsWBaXCZm3VrodegsUmY8ka2ZAZDzwy3BNXB34xQ4WN-RItGRNRMqNh_0l6TIOx3QiKPpDVmMfFShuSwlFLbJUtWqXy0lJpTQxtnOEe-s-0srNW_4kZyRHeVAVuxJJf9mUnhAwy7F8BtFCLhyFSy1gybwnSgxyN1ovUDS3FrsYy7qHJ3fGZdIizv_INPVyPImbzTAlBNSuJcdfCtBkImnpr-gnyTs3cH0vD3cRKy5vGfL1pgx6TMsju2wo_n70urJfHRSjQa0vbREbyM6smK5jPpADYIgsQL-6_UJ5_VbnEn6QOR3JjHkiaiEssVT9ksVZzwUd9sTdFzjcVmwuEhK7Wtdq5?></g></svg>