<?plantuml 1.2026.1?><svg xmlns="http://www.w3.org/2000/svg" xmlns:xlink="http://www.w3.org/1999/xlink" contentStyleType="text/css" data-diagram-type="CLASS" height="131px" preserveAspectRatio="none" style="width:777px;height:131px;background:#FFFFFF;" version="1.1" viewBox="0 0 777 131" width="777px" zoomAndPan="magnify"><defs/><g><!--class io.github.ai4ci.flow.mechanics.StateUtils.DoesPCRIfSymptomatic--><g class="entity" data-qualified-name="io.github.ai4ci.flow.mechanics.StateUtils.DoesPCRIfSymptomatic" data-source-line="14" id="ent0002"><a href="StateUtils.DoesPCRIfSymptomatic.html" target="_top" title="StateUtils.DoesPCRIfSymptomatic.html" xlink:actuate="onRequest" xlink:href="StateUtils.DoesPCRIfSymptomatic.html" xlink:show="new" xlink:title="StateUtils.DoesPCRIfSymptomatic.html" xlink:type="simple"><rect fill="#F1F1F1" height="62.2344" rx="2.5" ry="2.5" style="stroke:#181818;stroke-width:0.5;" width="544.6699" x="226" y="28"/><ellipse cx="375.2764" cy="46.9688" fill="#B4A7E5" rx="11" ry="11" style="stroke:#181818;stroke-width:1;"/><path d="M371.1982,42.7344 L371.1982,40.5781 L378.5889,40.5781 L378.5889,42.7344 L376.1201,42.7344 L376.1201,50.8125 L378.5889,50.8125 L378.5889,52.9688 L371.1982,52.9688 L371.1982,50.8125 L373.667,50.8125 L373.667,42.7344 L371.1982,42.7344 Z " fill="#000000"/><text fill="#000000" font-family="sans-serif" font-size="14" font-style="italic" lengthAdjust="spacing" textLength="237.6172" x="395.7764" y="45.9951">StateUtils.DoesPCRIfSymptomatic</text><text fill="#000000" font-family="sans-serif" font-size="10" font-style="italic" lengthAdjust="spacing" textLength="151.5039" x="438.833" y="58.5791">io.github.ai4ci.flow.mechanics</text><line style="stroke:#181818;stroke-width:0.5;" x1="227" x2="769.6699" y1="65.9375" y2="65.9375"/></a><g data-visibility-modifier="PUBLIC_METHOD"><a href="StateUtils.DoesPCRIfSymptomatic.html" target="_top" title="StateUtils.DoesPCRIfSymptomatic.html" xlink:actuate="onRequest" xlink:href="StateUtils.DoesPCRIfSymptomatic.html" xlink:show="new" xlink:title="StateUtils.DoesPCRIfSymptomatic.html" xlink:type="simple"><ellipse cx="237" cy="79.5859" fill="#84BE84" rx="3" ry="3" style="stroke:#038048;stroke-width:1;"/></a></g><a href="StateUtils.DoesPCRIfSymptomatic.html" target="_top" title="StateUtils.DoesPCRIfSymptomatic.html" xlink:actuate="onRequest" xlink:href="StateUtils.DoesPCRIfSymptomatic.html" xlink:show="new" xlink:title="StateUtils.DoesPCRIfSymptomatic.html" xlink:type="simple"><text fill="#000000" font-family="sans-serif" font-size="14" lengthAdjust="spacing" textLength="518.6699" x="246" y="82.9326">updateHistory(Builder, PersonState, StateMachineContext, Sampler): void</text></a></g><!--class io.github.ai4ci.flow.mechanics.State.BehaviourState--><g class="entity" data-qualified-name="io.github.ai4ci.flow.mechanics.State.BehaviourState" data-source-line="18" id="ent0003"><a href="State.BehaviourState.html" target="_top" title="State.BehaviourState.html" xlink:actuate="onRequest" xlink:href="State.BehaviourState.html" xlink:show="new" xlink:title="State.BehaviourState.html" xlink:type="simple"><rect fill="#F1F1F1" height="37.9375" rx="2.5" ry="2.5" style="stroke:#181818;stroke-width:0.5;" width="183.5039" x="6" y="12"/><ellipse cx="21" cy="30.9688" fill="#B4A7E5" rx="11" ry="11" style="stroke:#181818;stroke-width:1;"/><path d="M16.9219,26.7344 L16.9219,24.5781 L24.3125,24.5781 L24.3125,26.7344 L21.8438,26.7344 L21.8438,34.8125 L24.3125,34.8125 L24.3125,36.9688 L16.9219,36.9688 L16.9219,34.8125 L19.3906,34.8125 L19.3906,26.7344 L16.9219,26.7344 Z " fill="#000000"/><text fill="#000000" font-family="sans-serif" font-size="14" font-style="italic" lengthAdjust="spacing" textLength="149.6045" x="35.9497" y="29.9951">State.BehaviourState</text><text fill="#000000" font-family="sans-serif" font-size="10" font-style="italic" lengthAdjust="spacing" textLength="151.5039" x="35" y="42.5791">io.github.ai4ci.flow.mechanics</text></a></g><!--class io.github.ai4ci.flow.mechanics.StateUtils--><g class="entity" data-qualified-name="io.github.ai4ci.flow.mechanics.StateUtils" data-source-line="19" id="ent0004"><a href="StateUtils.html" target="_top" title="StateUtils.html" xlink:actuate="onRequest" xlink:href="StateUtils.html" xlink:show="new" xlink:title="StateUtils.html" xlink:type="simple"><rect fill="#F1F1F1" height="37.9375" rx="2.5" ry="2.5" style="stroke:#181818;stroke-width:0.5;" width="183.5039" x="6" y="68"/><ellipse cx="21" cy="86.9688" fill="#ADD1B2" rx="11" ry="11" style="stroke:#181818;stroke-width:1;"/><path d="M23.9688,92.6094 Q23.3906,92.9063 22.75,93.0469 Q22.1094,93.2031 21.4063,93.2031 Q18.9063,93.2031 17.5781,91.5625 Q16.2656,89.9063 16.2656,86.7813 Q16.2656,83.6563 17.5781,82 Q18.9063,80.3438 21.4063,80.3438 Q22.1094,80.3438 22.75,80.5 Q23.4063,80.6563 23.9688,80.9531 L23.9688,83.6719 Q23.3438,83.0938 22.75,82.8281 Q22.1563,82.5469 21.5313,82.5469 Q20.1875,82.5469 19.5,83.625 Q18.8125,84.6875 18.8125,86.7813 Q18.8125,88.875 19.5,89.9531 Q20.1875,91.0156 21.5313,91.0156 Q22.1563,91.0156 22.75,90.75 Q23.3438,90.4688 23.9688,89.8906 L23.9688,92.6094 Z " fill="#000000"/><text fill="#000000" font-family="sans-serif" font-size="14" lengthAdjust="spacing" textLength="67.8672" x="76.8184" y="85.9951">StateUtils</text><text fill="#000000" font-family="sans-serif" font-size="10" lengthAdjust="spacing" textLength="151.5039" x="35" y="98.5791">io.github.ai4ci.flow.mechanics</text></a></g><g class="link" data-entity-1="ent0003" data-entity-2="ent0002" data-link-type="extension" id="lnk5"><polygon fill="none" points="190.4239,37.4238,207.9591,44.6706,208.8002,32.7002,190.4239,37.4238" style="stroke:#181818;stroke-width:1;"/><path d="M208.3797,38.6854 C219.6392,39.4765 213.6004,39.0522 225.9458,39.9197" fill="none" style="stroke:#181818;stroke-width:1;"/></g><g class="link" data-entity-1="ent0004" data-entity-2="ent0002" data-link-type="nested" id="lnk6"><ellipse cx="198.4043" cy="80.0155" fill="#FFFFFF" rx="8" ry="8" style="stroke:#181818;stroke-width:1;"/><line style="stroke:#181818;stroke-width:1;" x1="206.3846" x2="190.4239" y1="79.4548" y2="80.5762"/><line style="stroke:#181818;stroke-width:1;" x1="198.965" x2="197.8435" y1="87.9958" y2="72.0352"/><path d="M206.3846,79.4548 C217.6442,78.6636 213.6004,78.9478 225.9458,78.0803" fill="none" style="stroke:#181818;stroke-width:1;"/></g><g class="footer" data-source-line="30"><text fill="#888888" font-family="sans-serif" font-size="10" lengthAdjust="spacing" textLength="3.1787" x="383.4106" y="109.2822">&#160;</text><a href="https://github.com/talsma-ict/umldoclet" target="_top" title="https://github.com/talsma-ict/umldoclet" xlink:actuate="onRequest" xlink:href="https://github.com/talsma-ict/umldoclet" xlink:show="new" xlink:title="https://github.com/talsma-ict/umldoclet" xlink:type="simple"><text fill="#888888" font-family="sans-serif" font-size="10" lengthAdjust="spacing" textLength="140.4639" x="314.7681" y="120.9229">UMLDoclet 2.2.5-SNAPSHOT</text></a></g><?plantuml-src jLJVJzim47xVNt5Z3u1eqoJysAWGKYdJO2fRHTkN5HwCSsqi73kpdR9iut_VnGbTGMnCOykBvVFTVTzzTpa0W7NewxmqOfuwS1fSAYnCpWR0L09pL6YOmmH4nkPeuGgbLdDREoAmmgNQW9xv6zV6eCsrIeIQmtksO61rOJZQuCKBy53Zk-mtpAvaloehux7c4Xriz3TNACLXjDUEmtWFnapQZC5fVnmqsNx6n44SxBP77th3qSd7CH2851oLfTo5Ij1uVhsSSJe6zKiB5cYiq8g2moPXLJFNoZ6XBEJCE5lLDfHCkOfq55H4WWWsUgF1VPBXlYVPWfvHh4ZWN7ykbdM_p0sR4tN9Ibqui1awffX_aZZpijTv4c6GE-9KnrcgJB6CD6KSHqY4c2EvbLRetrEH862Mkn9c0cLY7re9ADLazdQX79ePPOAr0ok-OZVQEHmvqd_YXBJ1iKOxx9-VpaObnUgCES4lLECP7WeTp8LBYwk0YHqkWfdKDq66F6LASBi6rC_VkmHFOC5q-eH7aBfCNbx2DrzEzMqLUK8X9yAIBkN6KI4aDRi5G-giLZvT2_nnHgqN2llKNFpYoCYoNABPxC92YyGdl7r2fk08KxOGDD7--k-rUG1m9yW3SwE2vyebi_RHTlwdpjrlKiEabkql2Zputcu_Ssh-6Bkcl_LyG8zuO5qfyN0vY3EjQMfM9hFwJieSpK2ewxwMzDk-UlFuwwHQK9A6avOZlrP87GsNdhSrN6S5hy6wKDDfwbnkkvrEKm_NMSVvBTaMt7MAJ2RrUlpLecp6Q1tUBLTnjSNQOToEud6qJUFJZLy7s_kxKHZjHl6dwLl7EvDn__87?></g></svg>