<?plantuml 1.2026.1?><svg xmlns="http://www.w3.org/2000/svg" xmlns:xlink="http://www.w3.org/1999/xlink" contentStyleType="text/css" data-diagram-type="CLASS" height="132px" preserveAspectRatio="none" style="width:569px;height:132px;background:#FFFFFF;" version="1.1" viewBox="0 0 569 132" width="569px" zoomAndPan="magnify"><defs/><g><!--class io.github.ai4ci.util.Binomial.Confidence--><g class="entity" data-qualified-name="io.github.ai4ci.util.Binomial.Confidence" data-source-line="14" id="ent0002"><a href="Binomial.Confidence.html" target="_top" title="Binomial.Confidence.html" xlink:actuate="onRequest" xlink:href="Binomial.Confidence.html" xlink:show="new" xlink:title="Binomial.Confidence.html" xlink:type="simple"><rect fill="#F1F1F1" height="94.8281" rx="2.5" ry="2.5" style="stroke:#181818;stroke-width:0.5;" width="223.7568" x="339" y="12"/><ellipse cx="375.4479" cy="30.9688" fill="#ADD1B2" rx="11" ry="11" style="stroke:#181818;stroke-width:1;"/><path d="M378.4167,36.6094 Q377.8386,36.9063 377.1979,37.0469 Q376.5573,37.2031 375.8542,37.2031 Q373.3542,37.2031 372.0261,35.5625 Q370.7136,33.9063 370.7136,30.7813 Q370.7136,27.6563 372.0261,26 Q373.3542,24.3438 375.8542,24.3438 Q376.5573,24.3438 377.1979,24.5 Q377.8542,24.6563 378.4167,24.9531 L378.4167,27.6719 Q377.7917,27.0938 377.1979,26.8281 Q376.6042,26.5469 375.9792,26.5469 Q374.6354,26.5469 373.9479,27.625 Q373.2604,28.6875 373.2604,30.7813 Q373.2604,32.875 373.9479,33.9531 Q374.6354,35.0156 375.9792,35.0156 Q376.6042,35.0156 377.1979,34.75 Q377.7917,34.4688 378.4167,33.8906 L378.4167,36.6094 Z " fill="#000000"/><text fill="#000000" font-family="sans-serif" font-size="14" lengthAdjust="spacing" textLength="144.0947" x="394.2142" y="29.9951">Binomial.Confidence</text><text fill="#000000" font-family="sans-serif" font-size="10" lengthAdjust="spacing" textLength="89.8633" x="421.3299" y="42.5791">io.github.ai4ci.util</text><line style="stroke:#181818;stroke-width:0.5;" x1="340" x2="561.7568" y1="49.9375" y2="49.9375"/></a><g data-visibility-modifier="PUBLIC_METHOD"><a href="Binomial.Confidence.html" target="_top" title="Binomial.Confidence.html" xlink:actuate="onRequest" xlink:href="Binomial.Confidence.html" xlink:show="new" xlink:title="Binomial.Confidence.html" xlink:type="simple"><ellipse cx="350" cy="63.5859" fill="#84BE84" rx="3" ry="3" style="stroke:#038048;stroke-width:1;"/></a></g><a href="Binomial.Confidence.html" target="_top" title="Binomial.Confidence.html" xlink:actuate="onRequest" xlink:href="Binomial.Confidence.html" xlink:show="new" xlink:title="Binomial.Confidence.html" xlink:type="simple"><text fill="#000000" font-family="sans-serif" font-size="14" lengthAdjust="spacing" textLength="197.7568" x="359" y="66.9326">Confidence(Double, Double)</text></a><g data-visibility-modifier="PUBLIC_METHOD"><a href="Binomial.Confidence.html" target="_top" title="Binomial.Confidence.html" xlink:actuate="onRequest" xlink:href="Binomial.Confidence.html" xlink:show="new" xlink:title="Binomial.Confidence.html" xlink:type="simple"><ellipse cx="350" cy="79.8828" fill="#84BE84" rx="3" ry="3" style="stroke:#038048;stroke-width:1;"/></a></g><a href="Binomial.Confidence.html" target="_top" title="Binomial.Confidence.html" xlink:actuate="onRequest" xlink:href="Binomial.Confidence.html" xlink:show="new" xlink:title="Binomial.Confidence.html" xlink:type="simple"><text fill="#000000" font-family="sans-serif" font-size="14" lengthAdjust="spacing" textLength="106.0801" x="359" y="83.2295">lower(): double</text></a><g data-visibility-modifier="PUBLIC_METHOD"><a href="Binomial.Confidence.html" target="_top" title="Binomial.Confidence.html" xlink:actuate="onRequest" xlink:href="Binomial.Confidence.html" xlink:show="new" xlink:title="Binomial.Confidence.html" xlink:type="simple"><ellipse cx="350" cy="96.1797" fill="#84BE84" rx="3" ry="3" style="stroke:#038048;stroke-width:1;"/></a></g><a href="Binomial.Confidence.html" target="_top" title="Binomial.Confidence.html" xlink:actuate="onRequest" xlink:href="Binomial.Confidence.html" xlink:show="new" xlink:title="Binomial.Confidence.html" xlink:type="simple"><text fill="#000000" font-family="sans-serif" font-size="14" lengthAdjust="spacing" textLength="108.8213" x="359" y="99.5264">upper(): double</text></a></g><!--class org.apache.commons.lang3.tuple.ImmutablePair--><g class="entity" data-qualified-name="org.apache.commons.lang3.tuple.ImmutablePair" data-source-line="20" id="ent0003"><rect fill="#F1F1F1" height="37.9375" rx="2.5" ry="2.5" style="stroke:#181818;stroke-width:0.5;" width="296.8115" x="6" y="12.5"/><ellipse cx="21" cy="31.4688" fill="#ADD1B2" rx="11" ry="11" style="stroke:#181818;stroke-width:1;"/><path d="M23.9688,37.1094 Q23.3906,37.4063 22.75,37.5469 Q22.1094,37.7031 21.4063,37.7031 Q18.9063,37.7031 17.5781,36.0625 Q16.2656,34.4063 16.2656,31.2813 Q16.2656,28.1563 17.5781,26.5 Q18.9063,24.8438 21.4063,24.8438 Q22.1094,24.8438 22.75,25 Q23.4063,25.1563 23.9688,25.4531 L23.9688,28.1719 Q23.3438,27.5938 22.75,27.3281 Q22.1563,27.0469 21.5313,27.0469 Q20.1875,27.0469 19.5,28.125 Q18.8125,29.1875 18.8125,31.2813 Q18.8125,33.375 19.5,34.4531 Q20.1875,35.5156 21.5313,35.5156 Q22.1563,35.5156 22.75,35.25 Q23.3438,34.9688 23.9688,34.3906 L23.9688,37.1094 Z " fill="#000000"/><text fill="#000000" font-family="sans-serif" font-size="14" lengthAdjust="spacing" textLength="102.4023" x="67.8687" y="30.4951">ImmutablePair</text><text fill="#000000" font-family="sans-serif" font-size="10" lengthAdjust="spacing" textLength="168.1396" x="35" y="43.0791">org.apache.commons.lang3.tuple</text><rect fill="#FFFFFF" height="15.9688" style="stroke:#181818;stroke-width:1;stroke-dasharray:2,2;" width="94.6719" x="211.1396" y="9.5"/><text fill="#000000" font-family="sans-serif" font-size="12" font-style="italic" lengthAdjust="spacing" textLength="92.6719" x="212.1396" y="21.6387">Double, Double</text></g><!--class io.github.ai4ci.util.Binomial--><g class="entity" data-qualified-name="io.github.ai4ci.util.Binomial" data-source-line="21" id="ent0004"><a href="Binomial.html" target="_top" title="Binomial.html" xlink:actuate="onRequest" xlink:href="Binomial.html" xlink:show="new" xlink:title="Binomial.html" xlink:type="simple"><rect fill="#F1F1F1" height="37.9375" rx="2.5" ry="2.5" style="stroke:#181818;stroke-width:0.5;" width="121.8633" x="93.5" y="68.5"/><ellipse cx="108.5" cy="87.4688" fill="#ADD1B2" rx="11" ry="11" style="stroke:#181818;stroke-width:1;"/><path d="M111.4688,93.1094 Q110.8906,93.4063 110.25,93.5469 Q109.6094,93.7031 108.9063,93.7031 Q106.4063,93.7031 105.0781,92.0625 Q103.7656,90.4063 103.7656,87.2813 Q103.7656,84.1563 105.0781,82.5 Q106.4063,80.8438 108.9063,80.8438 Q109.6094,80.8438 110.25,81 Q110.9063,81.1563 111.4688,81.4531 L111.4688,84.1719 Q110.8438,83.5938 110.25,83.3281 Q109.6563,83.0469 109.0313,83.0469 Q107.6875,83.0469 107,84.125 Q106.3125,85.1875 106.3125,87.2813 Q106.3125,89.375 107,90.4531 Q107.6875,91.5156 109.0313,91.5156 Q109.6563,91.5156 110.25,91.25 Q110.8438,90.9688 111.4688,90.3906 L111.4688,93.1094 Z " fill="#000000"/><text fill="#000000" font-family="sans-serif" font-size="14" lengthAdjust="spacing" textLength="60.9287" x="136.9673" y="86.4951">Binomial</text><text fill="#000000" font-family="sans-serif" font-size="10" lengthAdjust="spacing" textLength="89.8633" x="122.5" y="99.0791">io.github.ai4ci.util</text></a></g><g class="link" data-entity-1="ent0003" data-entity-2="ent0002" data-link-type="extension" id="lnk5"><polygon fill="none" points="303.1814,45.541,320.5327,53.2178,321.6685,41.2716,303.1814,45.541" style="stroke:#181818;stroke-width:1;"/><path d="M321.1006,47.2447 C333.0125,48.3773 327.0015,47.8057 338.5941,48.9079" fill="none" style="stroke:#181818;stroke-width:1;"/></g><g class="link" data-entity-1="ent0004" data-entity-2="ent0002" data-link-type="nested" id="lnk6"><ellipse cx="223.7712" cy="81.009" fill="#FFFFFF" rx="8" ry="8" style="stroke:#181818;stroke-width:1;"/><line style="stroke:#181818;stroke-width:1;" x1="231.7353" x2="215.8071" y1="80.2518" y2="81.7662"/><line style="stroke:#181818;stroke-width:1;" x1="224.5284" x2="223.014" y1="88.9731" y2="73.0449"/><path d="M231.7353,80.2518 C267.1584,76.8839 297.1118,74.0361 338.8647,70.0663" fill="none" style="stroke:#181818;stroke-width:1;"/></g><g class="footer" data-source-line="32"><text fill="#888888" font-family="sans-serif" font-size="10" lengthAdjust="spacing" textLength="3.1787" x="279.4106" y="110.2822">&#160;</text><a href="https://github.com/talsma-ict/umldoclet" target="_top" title="https://github.com/talsma-ict/umldoclet" xlink:actuate="onRequest" xlink:href="https://github.com/talsma-ict/umldoclet" xlink:show="new" xlink:title="https://github.com/talsma-ict/umldoclet" xlink:type="simple"><text fill="#888888" font-family="sans-serif" font-size="10" lengthAdjust="spacing" textLength="140.4639" x="210.7681" y="121.9229">UMLDoclet 2.2.5-SNAPSHOT</text></a></g><?plantuml-src fLHHRzCm47xVhpZ60wsskcbenrPLaqg7s521YNOlT7kuEjV4ccC7szbKOFyTn-dM3ih4X5-it6T_zzrtyG40l8AHBfP6f9a3fy5bmiB5np6WIY0bHGOT9I1oJCd2dAHMgQqF4c3fCcr0By8NryQGBRHAX4hX0zuWM5qQJfRjx418DRrdlqMxmJvVLi4JpIKvQ8oQ6vBYg7FGYgFu0AOeROvmDfgo5TlwJinYrcjDFWtF9wUVf-2JIC59MSzTgeHCq3SiaFjjN2FxS4F62gtyvMX5MDNCjN8eb8K2ZRDLRUSIbQj4TrWbX7MWCPoC7ukCZeB8VHWQXMK2N_Ityg7k5uN1r4kNkDIb0vkJGuK1ahG8jjSyYJ34dTTKtxE-CeMvznGvJSWBGkVjLbfHm3EH451Uk2Ki1Cd4_XxrYJBjmo7E9LeBkmChlbE_qpr-AvJE1KesqchXxoXEbsg5HiT2irIuh9mp55qkMEc4t0NVjMq0sy85izcMACjSBg-ku4UGLAszDTWuqULS-ixKUtDzHkfRCerc7vA0h86oAFu0xhRNUvRdfKD_w1o5sQXKcvHX-3KOrtckbMM-uUbhvif2KgZvwIFi4VFWSH77Jth_tuPlkbnRMnV_7CKm-Dbg_NDV0_tJclQUGnVu1jOjxxsgra9hvr_j-Y-frkdIzteirFL8I_yCNXvkHo-g1o-58Zzi-BKYRtpqSFAkJjVUoBVATQbciyovmlRRxPLoxrpRXQdJ4jorormczRZvs-3nxjU3vFt3QAkcGYkAMvru6Xtrurw_rsC7lLxqfdjusFqwU-Tu-s8wkle5?></g></svg>