<?plantuml 1.2026.1?><svg xmlns="http://www.w3.org/2000/svg" xmlns:xlink="http://www.w3.org/1999/xlink" contentStyleType="text/css" data-diagram-type="CLASS" height="187px" preserveAspectRatio="none" style="width:758px;height:187px;background:#FFFFFF;" version="1.1" viewBox="0 0 758 187" width="758px" zoomAndPan="magnify"><defs/><g><!--class io.github.ai4ci.util.Cloner--><g class="entity" data-qualified-name="io.github.ai4ci.util.Cloner" data-source-line="14" id="ent0002"><a href="Cloner.html" target="_top" title="Cloner.html" xlink:actuate="onRequest" xlink:href="Cloner.html" xlink:show="new" xlink:title="Cloner.html" xlink:type="simple"><rect fill="#F1F1F1" height="94.8281" rx="2.5" ry="2.5" style="stroke:#181818;stroke-width:0.5;" width="429.375" x="6" y="39.5"/><ellipse cx="171.5059" cy="58.4688" fill="#ADD1B2" rx="11" ry="11" style="stroke:#181818;stroke-width:1;"/><path d="M174.4746,64.1094 Q173.8965,64.4063 173.2559,64.5469 Q172.6152,64.7031 171.9121,64.7031 Q169.4121,64.7031 168.084,63.0625 Q166.7715,61.4063 166.7715,58.2813 Q166.7715,55.1563 168.084,53.5 Q169.4121,51.8438 171.9121,51.8438 Q172.6152,51.8438 173.2559,52 Q173.9121,52.1563 174.4746,52.4531 L174.4746,55.1719 Q173.8496,54.5938 173.2559,54.3281 Q172.6621,54.0469 172.0371,54.0469 Q170.6934,54.0469 170.0059,55.125 Q169.3184,56.1875 169.3184,58.2813 Q169.3184,60.375 170.0059,61.4531 Q170.6934,62.5156 172.0371,62.5156 Q172.6621,62.5156 173.2559,62.25 Q173.8496,61.9688 174.4746,61.3906 L174.4746,64.1094 Z " fill="#000000"/><text fill="#000000" font-family="sans-serif" font-size="14" lengthAdjust="spacing" textLength="45.4727" x="214.2012" y="57.4951">Cloner</text><text fill="#000000" font-family="sans-serif" font-size="10" lengthAdjust="spacing" textLength="89.8633" x="192.0059" y="70.0791">io.github.ai4ci.util</text><line style="stroke:#181818;stroke-width:0.5;" x1="7" x2="434.375" y1="77.4375" y2="77.4375"/></a><g data-visibility-modifier="PUBLIC_METHOD"><a href="Cloner.html" target="_top" title="Cloner.html" xlink:actuate="onRequest" xlink:href="Cloner.html" xlink:show="new" xlink:title="Cloner.html" xlink:type="simple"><ellipse cx="17" cy="91.0859" fill="#84BE84" rx="3" ry="3" style="stroke:#038048;stroke-width:1;"/></a></g><a href="Cloner.html" target="_top" title="Cloner.html" xlink:actuate="onRequest" xlink:href="Cloner.html" xlink:show="new" xlink:title="Cloner.html" xlink:type="simple"><text fill="#000000" font-family="sans-serif" font-size="14" lengthAdjust="spacing" text-decoration="underline" textLength="364.2598" x="26" y="94.4326">copy(X extends Serializable): X extends Serializable</text></a><g data-visibility-modifier="PUBLIC_METHOD"><a href="Cloner.html" target="_top" title="Cloner.html" xlink:actuate="onRequest" xlink:href="Cloner.html" xlink:show="new" xlink:title="Cloner.html" xlink:type="simple"><ellipse cx="17" cy="107.3828" fill="#84BE84" rx="3" ry="3" style="stroke:#038048;stroke-width:1;"/></a></g><a href="Cloner.html" target="_top" title="Cloner.html" xlink:actuate="onRequest" xlink:href="Cloner.html" xlink:show="new" xlink:title="Cloner.html" xlink:type="simple"><text fill="#000000" font-family="sans-serif" font-size="14" lengthAdjust="spacing" text-decoration="underline" textLength="403.375" x="26" y="110.7295">copy(X extends Serializable, long): X extends Serializable</text></a><g data-visibility-modifier="PUBLIC_METHOD"><a href="Cloner.html" target="_top" title="Cloner.html" xlink:actuate="onRequest" xlink:href="Cloner.html" xlink:show="new" xlink:title="Cloner.html" xlink:type="simple"><ellipse cx="17" cy="123.6797" fill="#84BE84" rx="3" ry="3" style="stroke:#038048;stroke-width:1;"/></a></g><a href="Cloner.html" target="_top" title="Cloner.html" xlink:actuate="onRequest" xlink:href="Cloner.html" xlink:show="new" xlink:title="Cloner.html" xlink:type="simple"><text fill="#000000" font-family="sans-serif" font-size="14" lengthAdjust="spacing" text-decoration="underline" textLength="186.2451" x="26" y="127.0264">estimateSize(Object): long</text></a></g><!--class io.github.ai4ci.util.Cloner.FastByteArrayInputStream--><g class="entity" data-qualified-name="io.github.ai4ci.util.Cloner.FastByteArrayInputStream" data-source-line="19" id="ent0003"><a href="Cloner.FastByteArrayInputStream.html" target="_top" title="Cloner.FastByteArrayInputStream.html" xlink:actuate="onRequest" xlink:href="Cloner.FastByteArrayInputStream.html" xlink:show="new" xlink:title="Cloner.FastByteArrayInputStream.html" xlink:type="simple"><rect fill="#F1F1F1" height="37.9375" rx="2.5" ry="2.5" style="stroke:#181818;stroke-width:0.5;" width="268.4961" x="477.5" y="12"/><ellipse cx="492.5" cy="30.9688" fill="#ADD1B2" rx="11" ry="11" style="stroke:#181818;stroke-width:1;"/><path d="M495.4688,36.6094 Q494.8906,36.9063 494.25,37.0469 Q493.6094,37.2031 492.9063,37.2031 Q490.4063,37.2031 489.0781,35.5625 Q487.7656,33.9063 487.7656,30.7813 Q487.7656,27.6563 489.0781,26 Q490.4063,24.3438 492.9063,24.3438 Q493.6094,24.3438 494.25,24.5 Q494.9063,24.6563 495.4688,24.9531 L495.4688,27.6719 Q494.8438,27.0938 494.25,26.8281 Q493.6563,26.5469 493.0313,26.5469 Q491.6875,26.5469 491,27.625 Q490.3125,28.6875 490.3125,30.7813 Q490.3125,32.875 491,33.9531 Q491.6875,35.0156 493.0313,35.0156 Q493.6563,35.0156 494.25,34.75 Q494.8438,34.4688 495.4688,33.8906 L495.4688,36.6094 Z " fill="#000000"/><text fill="#000000" font-family="sans-serif" font-size="14" lengthAdjust="spacing" textLength="236.4961" x="506.5" y="29.9951">Cloner.FastByteArrayInputStream</text><text fill="#000000" font-family="sans-serif" font-size="10" lengthAdjust="spacing" textLength="89.8633" x="579.8164" y="42.5791">io.github.ai4ci.util</text></a></g><!--class io.github.ai4ci.util.Cloner.FastByteArrayOutputStream--><g class="entity" data-qualified-name="io.github.ai4ci.util.Cloner.FastByteArrayOutputStream" data-source-line="20" id="ent0004"><a href="Cloner.FastByteArrayOutputStream.html" target="_top" title="Cloner.FastByteArrayOutputStream.html" xlink:actuate="onRequest" xlink:href="Cloner.FastByteArrayOutputStream.html" xlink:show="new" xlink:title="Cloner.FastByteArrayOutputStream.html" xlink:type="simple"><rect fill="#F1F1F1" height="37.9375" rx="2.5" ry="2.5" style="stroke:#181818;stroke-width:0.5;" width="280.876" x="471" y="68"/><ellipse cx="486" cy="86.9688" fill="#ADD1B2" rx="11" ry="11" style="stroke:#181818;stroke-width:1;"/><path d="M488.9688,92.6094 Q488.3906,92.9063 487.75,93.0469 Q487.1094,93.2031 486.4063,93.2031 Q483.9063,93.2031 482.5781,91.5625 Q481.2656,89.9063 481.2656,86.7813 Q481.2656,83.6563 482.5781,82 Q483.9063,80.3438 486.4063,80.3438 Q487.1094,80.3438 487.75,80.5 Q488.4063,80.6563 488.9688,80.9531 L488.9688,83.6719 Q488.3438,83.0938 487.75,82.8281 Q487.1563,82.5469 486.5313,82.5469 Q485.1875,82.5469 484.5,83.625 Q483.8125,84.6875 483.8125,86.7813 Q483.8125,88.875 484.5,89.9531 Q485.1875,91.0156 486.5313,91.0156 Q487.1563,91.0156 487.75,90.75 Q488.3438,90.4688 488.9688,89.8906 L488.9688,92.6094 Z " fill="#000000"/><text fill="#000000" font-family="sans-serif" font-size="14" lengthAdjust="spacing" textLength="248.876" x="500" y="85.9951">Cloner.FastByteArrayOutputStream</text><text fill="#000000" font-family="sans-serif" font-size="10" lengthAdjust="spacing" textLength="89.8633" x="579.5063" y="98.5791">io.github.ai4ci.util</text></a></g><!--class io.github.ai4ci.util.Cloner.MockOutputStream--><g class="entity" data-qualified-name="io.github.ai4ci.util.Cloner.MockOutputStream" data-source-line="21" id="ent0005"><a href="Cloner.MockOutputStream.html" target="_top" title="Cloner.MockOutputStream.html" xlink:actuate="onRequest" xlink:href="Cloner.MockOutputStream.html" xlink:show="new" xlink:title="Cloner.MockOutputStream.html" xlink:type="simple"><rect fill="#F1F1F1" height="37.9375" rx="2.5" ry="2.5" style="stroke:#181818;stroke-width:0.5;" width="217.9648" x="502.5" y="124"/><ellipse cx="517.5" cy="142.9688" fill="#ADD1B2" rx="11" ry="11" style="stroke:#181818;stroke-width:1;"/><path d="M520.4688,148.6094 Q519.8906,148.9063 519.25,149.0469 Q518.6094,149.2031 517.9063,149.2031 Q515.4063,149.2031 514.0781,147.5625 Q512.7656,145.9063 512.7656,142.7813 Q512.7656,139.6563 514.0781,138 Q515.4063,136.3438 517.9063,136.3438 Q518.6094,136.3438 519.25,136.5 Q519.9063,136.6563 520.4688,136.9531 L520.4688,139.6719 Q519.8438,139.0938 519.25,138.8281 Q518.6563,138.5469 518.0313,138.5469 Q516.6875,138.5469 516,139.625 Q515.3125,140.6875 515.3125,142.7813 Q515.3125,144.875 516,145.9531 Q516.6875,147.0156 518.0313,147.0156 Q518.6563,147.0156 519.25,146.75 Q519.8438,146.4688 520.4688,145.8906 L520.4688,148.6094 Z " fill="#000000"/><text fill="#000000" font-family="sans-serif" font-size="14" lengthAdjust="spacing" textLength="185.9648" x="531.5" y="141.9951">Cloner.MockOutputStream</text><text fill="#000000" font-family="sans-serif" font-size="10" lengthAdjust="spacing" textLength="89.8633" x="579.5508" y="154.5791">io.github.ai4ci.util</text></a></g><g class="link" data-entity-1="ent0002" data-entity-2="ent0003" data-link-type="nested" id="lnk6"><ellipse cx="442.9802" cy="55.116" fill="#FFFFFF" rx="8" ry="8" style="stroke:#181818;stroke-width:1;"/><line style="stroke:#181818;stroke-width:1;" x1="450.8986" x2="435.0619" y1="53.976" y2="56.2559"/><line style="stroke:#181818;stroke-width:1;" x1="444.1202" x2="441.8403" y1="63.0343" y2="47.1976"/><path d="M450.8986,53.976 C465.5692,51.8641 464.2569,52.053 478.2972,50.0318" fill="none" style="stroke:#181818;stroke-width:1;"/></g><g class="link" data-entity-1="ent0002" data-entity-2="ent0004" data-link-type="nested" id="lnk7"><ellipse cx="443.0619" cy="87" fill="#FFFFFF" rx="8" ry="8" style="stroke:#181818;stroke-width:1;"/><line style="stroke:#181818;stroke-width:1;" x1="451.0619" x2="435.0619" y1="87" y2="87"/><line style="stroke:#181818;stroke-width:1;" x1="443.0619" x2="443.0619" y1="95" y2="79"/><path d="M451.0619,87 C463.1695,87 459.1776,87 470.8962,87" fill="none" style="stroke:#181818;stroke-width:1;"/></g><g class="link" data-entity-1="ent0002" data-entity-2="ent0005" data-link-type="nested" id="lnk8"><ellipse cx="442.9802" cy="118.884" fill="#FFFFFF" rx="8" ry="8" style="stroke:#181818;stroke-width:1;"/><line style="stroke:#181818;stroke-width:1;" x1="450.8986" x2="435.0619" y1="120.024" y2="117.7441"/><line style="stroke:#181818;stroke-width:1;" x1="441.8403" x2="444.1202" y1="126.8024" y2="110.9657"/><path d="M450.8986,120.024 C474.0533,123.3573 481.0075,124.3584 502.105,127.3956" fill="none" style="stroke:#181818;stroke-width:1;"/></g><g class="footer" data-source-line="33"><text fill="#888888" font-family="sans-serif" font-size="10" lengthAdjust="spacing" textLength="3.1787" x="373.9106" y="165.2822">&#160;</text><a href="https://github.com/talsma-ict/umldoclet" target="_top" title="https://github.com/talsma-ict/umldoclet" xlink:actuate="onRequest" xlink:href="https://github.com/talsma-ict/umldoclet" xlink:show="new" xlink:title="https://github.com/talsma-ict/umldoclet" xlink:type="simple"><text fill="#888888" font-family="sans-serif" font-size="10" lengthAdjust="spacing" textLength="140.4639" x="305.2681" y="176.9229">UMLDoclet 2.2.5-SNAPSHOT</text></a></g><?plantuml-src jLNRJjj047tdAwRqWI28urX91152IjCBLA6WEaXL0m-RzIJUijvrTyUq1l7lNTiXIIE2e52_s9xBcJDdBmC0i0LzdUP6J6C2qa2ni71-CW2c8fYYGiC88n09cwA5CKgjfhOAH60PnTg0dfH_N1k3DjKg4ceAdzar0wipmz5w6njGbXhUe_zYTWbzd1V6zvfB9AZrjvSe1NwpKm_ye0D39ct2uBW_z6PeYvp02xnsFVpIEmkFJeVWYaZ1KLc7dQa8JSclbpBkNeFAimlNQApGoYNxCy2YPwuLCQ4ifCoGBNexaqnHGRhf5KIy9jHwuU1lalv-IN8NUaQnB8Al-cSsx_jDQjZKKPSirnc1JP2OOgLBugIKlSA9X45EZbELPrrdYYLEKyOnH4U8aPDRQOMbFnOH0YOfvJ0HA2ExQdM5OktCfPrBPYri7bXnWzrcwx3lbXBDXPeP_4EXlQcWE1jxJBIuy38ISXFSGZtayAfq68sg3o-cH5vUmcrPgtXkBJ4I_0vsk1EgzWtmDw6AB8He19FYXeqbRdVXOSVpO7QXs9VF0KDBRayJXgxvskduXzFTfHSePV3T8v9v7vcbTpbXpnYM7wiqev0CikI5Mgx5NOYyBcAc_fD9dsRqVrWl0w-XlHpo1Dudcb-z9jrLl0NBLSyzkPBTOsTWfrx_ftLzNU1bwYz6NjMY4k70KYxnS7wS9bgJ0rkS-U8vobCq0w6k-bgws-hjtiFUy-9UbaAXcmdyIg5RUtyUMHs_WyPIlLcj2pKQnKIfxJOQC_PS9mqgXqDTS6faYOoggR1kFimst1Pyca-WulAk-q6z6Gpz_MxGxhRRtfxV3ZhxGQVrVVI1UEDysB_y0m00?></g></svg>