<?plantuml 1.2026.1?><svg xmlns="http://www.w3.org/2000/svg" xmlns:xlink="http://www.w3.org/1999/xlink" contentStyleType="text/css" data-diagram-type="CLASS" height="116px" preserveAspectRatio="none" style="width:594px;height:116px;background:#FFFFFF;" version="1.1" viewBox="0 0 594 116" width="594px" zoomAndPan="magnify"><defs/><g><!--class io.github.ai4ci.util.Repository.FunctionKey--><g class="entity" data-qualified-name="io.github.ai4ci.util.Repository.FunctionKey" data-source-line="14" id="ent0002"><a href="Repository.FunctionKey.html" target="_top" title="Repository.FunctionKey.html" xlink:actuate="onRequest" xlink:href="Repository.FunctionKey.html" xlink:show="new" xlink:title="Repository.FunctionKey.html" xlink:type="simple"><rect fill="#F1F1F1" height="78.5313" rx="2.5" ry="2.5" style="stroke:#181818;stroke-width:0.5;" width="419.374" x="164" y="12"/><ellipse cx="272.8896" cy="30.9688" fill="#ADD1B2" rx="11" ry="11" style="stroke:#181818;stroke-width:1;"/><path d="M275.8584,36.6094 Q275.2803,36.9063 274.6396,37.0469 Q273.999,37.2031 273.2959,37.2031 Q270.7959,37.2031 269.4678,35.5625 Q268.1553,33.9063 268.1553,30.7813 Q268.1553,27.6563 269.4678,26 Q270.7959,24.3438 273.2959,24.3438 Q273.999,24.3438 274.6396,24.5 Q275.2959,24.6563 275.8584,24.9531 L275.8584,27.6719 Q275.2334,27.0938 274.6396,26.8281 Q274.0459,26.5469 273.4209,26.5469 Q272.0771,26.5469 271.3896,27.625 Q270.7021,28.6875 270.7021,30.7813 Q270.7021,32.875 271.3896,33.9531 Q272.0771,35.0156 273.4209,35.0156 Q274.0459,35.0156 274.6396,34.75 Q275.2334,34.4688 275.8584,33.8906 L275.8584,36.6094 Z " fill="#000000"/><text fill="#000000" font-family="sans-serif" font-size="14" lengthAdjust="spacing" textLength="165.915" x="293.3896" y="29.9951">Repository.FunctionKey</text><text fill="#000000" font-family="sans-serif" font-size="10" lengthAdjust="spacing" textLength="89.8633" x="331.4155" y="42.5791">io.github.ai4ci.util</text><rect fill="#FFFFFF" height="15.9688" style="stroke:#181818;stroke-width:1;stroke-dasharray:2,2;" width="25.1797" x="561.1943" y="9"/><text fill="#000000" font-family="sans-serif" font-size="12" font-style="italic" lengthAdjust="spacing" textLength="23.1797" x="562.1943" y="21.1387">X, Y</text><line style="stroke:#181818;stroke-width:0.5;" x1="165" x2="582.374" y1="49.9375" y2="49.9375"/></a><g data-visibility-modifier="PUBLIC_METHOD"><a href="Repository.FunctionKey.html" target="_top" title="Repository.FunctionKey.html" xlink:actuate="onRequest" xlink:href="Repository.FunctionKey.html" xlink:show="new" xlink:title="Repository.FunctionKey.html" xlink:type="simple"><ellipse cx="175" cy="63.5859" fill="#84BE84" rx="3" ry="3" style="stroke:#038048;stroke-width:1;"/></a></g><a href="Repository.FunctionKey.html" target="_top" title="Repository.FunctionKey.html" xlink:actuate="onRequest" xlink:href="Repository.FunctionKey.html" xlink:show="new" xlink:title="Repository.FunctionKey.html" xlink:type="simple"><text fill="#000000" font-family="sans-serif" font-size="14" lengthAdjust="spacing" textLength="288.9551" x="184" y="66.9326">FunctionKey(SerializableFunction&lt;X, Y&gt;)</text></a><g data-visibility-modifier="PUBLIC_METHOD"><a href="Repository.FunctionKey.html" target="_top" title="Repository.FunctionKey.html" xlink:actuate="onRequest" xlink:href="Repository.FunctionKey.html" xlink:show="new" xlink:title="Repository.FunctionKey.html" xlink:type="simple"><ellipse cx="175" cy="79.8828" fill="#84BE84" rx="3" ry="3" style="stroke:#038048;stroke-width:1;"/></a></g><a href="Repository.FunctionKey.html" target="_top" title="Repository.FunctionKey.html" xlink:actuate="onRequest" xlink:href="Repository.FunctionKey.html" xlink:show="new" xlink:title="Repository.FunctionKey.html" xlink:type="simple"><text fill="#000000" font-family="sans-serif" font-size="14" lengthAdjust="spacing" text-decoration="underline" textLength="393.374" x="184" y="83.2295">create(SerializableFunction&lt;X, Y&gt;): FunctionKey&lt;X, Y&gt;</text></a></g><!--class io.github.ai4ci.util.Repository--><g class="entity" data-qualified-name="io.github.ai4ci.util.Repository" data-source-line="19" id="ent0003"><a href="Repository.html" target="_top" title="Repository.html" xlink:actuate="onRequest" xlink:href="Repository.html" xlink:show="new" xlink:title="Repository.html" xlink:type="simple"><rect fill="#F1F1F1" height="37.9375" rx="2.5" ry="2.5" style="stroke:#181818;stroke-width:0.5;" width="121.8633" x="6" y="32.5"/><ellipse cx="21" cy="51.4688" fill="#ADD1B2" rx="11" ry="11" style="stroke:#181818;stroke-width:1;"/><path d="M23.9688,57.1094 Q23.3906,57.4063 22.75,57.5469 Q22.1094,57.7031 21.4063,57.7031 Q18.9063,57.7031 17.5781,56.0625 Q16.2656,54.4063 16.2656,51.2813 Q16.2656,48.1563 17.5781,46.5 Q18.9063,44.8438 21.4063,44.8438 Q22.1094,44.8438 22.75,45 Q23.4063,45.1563 23.9688,45.4531 L23.9688,48.1719 Q23.3438,47.5938 22.75,47.3281 Q22.1563,47.0469 21.5313,47.0469 Q20.1875,47.0469 19.5,48.125 Q18.8125,49.1875 18.8125,51.2813 Q18.8125,53.375 19.5,54.4531 Q20.1875,55.5156 21.5313,55.5156 Q22.1563,55.5156 22.75,55.25 Q23.3438,54.9688 23.9688,54.3906 L23.9688,57.1094 Z " fill="#000000"/><text fill="#000000" font-family="sans-serif" font-size="14" lengthAdjust="spacing" textLength="75.0723" x="42.3955" y="50.4951">Repository</text><text fill="#000000" font-family="sans-serif" font-size="10" lengthAdjust="spacing" textLength="89.8633" x="35" y="63.0791">io.github.ai4ci.util</text></a></g><g class="link" data-entity-1="ent0003" data-entity-2="ent0002" data-link-type="nested" id="lnk4"><ellipse cx="136.1594" cy="51.5" fill="#FFFFFF" rx="8" ry="8" style="stroke:#181818;stroke-width:1;"/><line style="stroke:#181818;stroke-width:1;" x1="144.1594" x2="128.1594" y1="51.5" y2="51.5"/><line style="stroke:#181818;stroke-width:1;" x1="136.1594" x2="136.1594" y1="59.5" y2="43.5"/><path d="M144.1594,51.5 C155.1653,51.5 151.1997,51.5 163.838,51.5" fill="none" style="stroke:#181818;stroke-width:1;"/></g><g class="footer" data-source-line="29"><text fill="#888888" font-family="sans-serif" font-size="10" lengthAdjust="spacing" textLength="3.1787" x="289.4106" y="94.2822">&#160;</text><a href="https://github.com/talsma-ict/umldoclet" target="_top" title="https://github.com/talsma-ict/umldoclet" xlink:actuate="onRequest" xlink:href="https://github.com/talsma-ict/umldoclet" xlink:show="new" xlink:title="https://github.com/talsma-ict/umldoclet" xlink:type="simple"><text fill="#888888" font-family="sans-serif" font-size="10" lengthAdjust="spacing" textLength="140.4639" x="220.7681" y="105.9229">UMLDoclet 2.2.5-SNAPSHOT</text></a></g><?plantuml-src hLHTRzD047plhrZA0wrQNnmhBI6A8aNXeq20gaab8Ct3vRonJptVkNVh8hVgV-TifsaAWGe9lrZUlPsP7NiC0F02HYOlhKnI0Z90gNHm_caCNCUGe4RB2MEG6K_GmGALqObh3YBmWb9ZmIph9s6iHPSR7KkTm0T-pS6PmWfqR6S7QghfFVeFxZRG5sLLV6s4GeAzqVw6f2Xi7mTH61t3b2kNSNW_ch8LsiDCn29s54m-3qyd9r-cu4cK5AYTnovqZBRMDyovyBTnqpc4QxHE6ks7mnLWjRCmchZK3d9koLMxdIgkgHBTPfKGreQzuMJyM6JugXPv24EhUH73cRagrdi_oorFl7J5IrCGk0o9Qrwt52vhsnkSM5eKv3KrSyvlfddcFUK29-W5SV9sQwEnxgSoHi0ifnAM4bNiVgrwejJuSbqNYZi7ktqdRx3NxWpEC3TEUi2IlIrqJViHomkzEX0Ef669fBHOC2uxGhA2fDe5_-AsDTXskFxNG_WsWDbiUvkbbAdv76vhXTLriD7Tcw2LNCaRlb1uNsyGzzS3juuuIN471yAY_vh-DjI3twJLE7TFEVGVN7diGRDtG_lKu44G_8lb3MZVKQbmiBPfQGpv73mONLqdPOvsBFNbo2Z_OJtlRk-ULn5IKgEFhxZKw4qAroVl6hhM1j-AwqBFPYbHxdgjragyC5cBwXm7Kb2ho5JS1FXFKVOUDT5yj_vPL3aBmYXeHzEms-k4lQCs2yDk9mgxtPVVPsz8jCwde_bF?></g></svg>