<?plantuml 1.2026.1?><svg xmlns="http://www.w3.org/2000/svg" xmlns:xlink="http://www.w3.org/1999/xlink" contentStyleType="text/css" data-diagram-type="CLASS" height="148px" preserveAspectRatio="none" style="width:611px;height:148px;background:#FFFFFF;" version="1.1" viewBox="0 0 611 148" width="611px" zoomAndPan="magnify"><defs/><g><!--class io.github.ai4ci.util.Repository.ValueIndex--><g class="entity" data-qualified-name="io.github.ai4ci.util.Repository.ValueIndex" data-source-line="14" id="ent0002"><a href="Repository.ValueIndex.html" target="_top" title="Repository.ValueIndex.html" xlink:actuate="onRequest" xlink:href="Repository.ValueIndex.html" xlink:show="new" xlink:title="Repository.ValueIndex.html" xlink:type="simple"><rect fill="#F1F1F1" height="111.125" rx="2.5" ry="2.5" style="stroke:#181818;stroke-width:0.5;" width="436.8945" x="164" y="12"/><ellipse cx="293.6113" cy="30.9688" fill="#ADD1B2" rx="11" ry="11" style="stroke:#181818;stroke-width:1;"/><path d="M296.5801,36.6094 Q296.002,36.9063 295.3613,37.0469 Q294.7207,37.2031 294.0176,37.2031 Q291.5176,37.2031 290.1895,35.5625 Q288.877,33.9063 288.877,30.7813 Q288.877,27.6563 290.1895,26 Q291.5176,24.3438 294.0176,24.3438 Q294.7207,24.3438 295.3613,24.5 Q296.0176,24.6563 296.5801,24.9531 L296.5801,27.6719 Q295.9551,27.0938 295.3613,26.8281 Q294.7676,26.5469 294.1426,26.5469 Q292.7988,26.5469 292.1113,27.625 Q291.4238,28.6875 291.4238,30.7813 Q291.4238,32.875 292.1113,33.9531 Q292.7988,35.0156 294.1426,35.0156 Q294.7676,35.0156 295.3613,34.75 Q295.9551,34.4688 296.5801,33.8906 L296.5801,36.6094 Z " fill="#000000"/><text fill="#000000" font-family="sans-serif" font-size="14" lengthAdjust="spacing" textLength="157.8418" x="314.1113" y="29.9951">Repository.ValueIndex</text><text fill="#000000" font-family="sans-serif" font-size="10" lengthAdjust="spacing" textLength="89.8633" x="348.1006" y="42.5791">io.github.ai4ci.util</text><rect fill="#FFFFFF" height="15.9688" style="stroke:#181818;stroke-width:1;stroke-dasharray:2,2;" width="9.3301" x="594.5645" y="9"/><text fill="#000000" font-family="sans-serif" font-size="12" font-style="italic" lengthAdjust="spacing" textLength="7.3301" x="595.5645" y="21.1387">Y</text><line style="stroke:#181818;stroke-width:0.5;" x1="165" x2="599.8945" y1="49.9375" y2="49.9375"/></a><g data-visibility-modifier="PUBLIC_METHOD"><a href="Repository.ValueIndex.html" target="_top" title="Repository.ValueIndex.html" xlink:actuate="onRequest" xlink:href="Repository.ValueIndex.html" xlink:show="new" xlink:title="Repository.ValueIndex.html" xlink:type="simple"><ellipse cx="175" cy="63.5859" fill="#84BE84" rx="3" ry="3" style="stroke:#038048;stroke-width:1;"/></a></g><a href="Repository.ValueIndex.html" target="_top" title="Repository.ValueIndex.html" xlink:actuate="onRequest" xlink:href="Repository.ValueIndex.html" xlink:show="new" xlink:title="Repository.ValueIndex.html" xlink:type="simple"><text fill="#000000" font-family="sans-serif" font-size="14" lengthAdjust="spacing" textLength="242.0605" x="184" y="66.9326">ValueIndex(Class&lt;Y&gt;, Repository)</text></a><g data-visibility-modifier="PUBLIC_METHOD"><a href="Repository.ValueIndex.html" target="_top" title="Repository.ValueIndex.html" xlink:actuate="onRequest" xlink:href="Repository.ValueIndex.html" xlink:show="new" xlink:title="Repository.ValueIndex.html" xlink:type="simple"><ellipse cx="175" cy="79.8828" fill="#84BE84" rx="3" ry="3" style="stroke:#038048;stroke-width:1;"/></a></g><a href="Repository.ValueIndex.html" target="_top" title="Repository.ValueIndex.html" xlink:actuate="onRequest" xlink:href="Repository.ValueIndex.html" xlink:show="new" xlink:title="Repository.ValueIndex.html" xlink:type="simple"><text fill="#000000" font-family="sans-serif" font-size="14" lengthAdjust="spacing" textLength="361.6006" x="184" y="83.2295">cache(Class&lt;X&gt;, SerializableFunction&lt;X, Y&gt;): void</text></a><g data-visibility-modifier="PUBLIC_METHOD"><a href="Repository.ValueIndex.html" target="_top" title="Repository.ValueIndex.html" xlink:actuate="onRequest" xlink:href="Repository.ValueIndex.html" xlink:show="new" xlink:title="Repository.ValueIndex.html" xlink:type="simple"><ellipse cx="175" cy="96.1797" fill="#84BE84" rx="3" ry="3" style="stroke:#038048;stroke-width:1;"/></a></g><a href="Repository.ValueIndex.html" target="_top" title="Repository.ValueIndex.html" xlink:actuate="onRequest" xlink:href="Repository.ValueIndex.html" xlink:show="new" xlink:title="Repository.ValueIndex.html" xlink:type="simple"><text fill="#000000" font-family="sans-serif" font-size="14" lengthAdjust="spacing" textLength="146.2617" x="184" y="99.5264">getType(): Class&lt;Y&gt;</text></a><g data-visibility-modifier="PUBLIC_METHOD"><a href="Repository.ValueIndex.html" target="_top" title="Repository.ValueIndex.html" xlink:actuate="onRequest" xlink:href="Repository.ValueIndex.html" xlink:show="new" xlink:title="Repository.ValueIndex.html" xlink:type="simple"><ellipse cx="175" cy="112.4766" fill="#84BE84" rx="3" ry="3" style="stroke:#038048;stroke-width:1;"/></a></g><a href="Repository.ValueIndex.html" target="_top" title="Repository.ValueIndex.html" xlink:actuate="onRequest" xlink:href="Repository.ValueIndex.html" xlink:show="new" xlink:title="Repository.ValueIndex.html" xlink:type="simple"><text fill="#000000" font-family="sans-serif" font-size="14" lengthAdjust="spacing" textLength="410.8945" x="184" y="115.8232">lookup(Y, Class&lt;X&gt;, SerializableFunction&lt;X, Y&gt;): Set&lt;X&gt;</text></a></g><!--class io.github.ai4ci.util.Repository--><g class="entity" data-qualified-name="io.github.ai4ci.util.Repository" data-source-line="21" id="ent0003"><a href="Repository.html" target="_top" title="Repository.html" xlink:actuate="onRequest" xlink:href="Repository.html" xlink:show="new" xlink:title="Repository.html" xlink:type="simple"><rect fill="#F1F1F1" height="37.9375" rx="2.5" ry="2.5" style="stroke:#181818;stroke-width:0.5;" width="121.8633" x="6" y="48.5"/><ellipse cx="21" cy="67.4688" fill="#ADD1B2" rx="11" ry="11" style="stroke:#181818;stroke-width:1;"/><path d="M23.9688,73.1094 Q23.3906,73.4063 22.75,73.5469 Q22.1094,73.7031 21.4063,73.7031 Q18.9063,73.7031 17.5781,72.0625 Q16.2656,70.4063 16.2656,67.2813 Q16.2656,64.1563 17.5781,62.5 Q18.9063,60.8438 21.4063,60.8438 Q22.1094,60.8438 22.75,61 Q23.4063,61.1563 23.9688,61.4531 L23.9688,64.1719 Q23.3438,63.5938 22.75,63.3281 Q22.1563,63.0469 21.5313,63.0469 Q20.1875,63.0469 19.5,64.125 Q18.8125,65.1875 18.8125,67.2813 Q18.8125,69.375 19.5,70.4531 Q20.1875,71.5156 21.5313,71.5156 Q22.1563,71.5156 22.75,71.25 Q23.3438,70.9688 23.9688,70.3906 L23.9688,73.1094 Z " fill="#000000"/><text fill="#000000" font-family="sans-serif" font-size="14" lengthAdjust="spacing" textLength="75.0723" x="42.3955" y="66.4951">Repository</text><text fill="#000000" font-family="sans-serif" font-size="10" lengthAdjust="spacing" textLength="89.8633" x="35" y="79.0791">io.github.ai4ci.util</text></a></g><g class="link" data-entity-1="ent0003" data-entity-2="ent0002" data-link-type="nested" id="lnk4"><ellipse cx="136.075" cy="67.5" fill="#FFFFFF" rx="8" ry="8" style="stroke:#181818;stroke-width:1;"/><line style="stroke:#181818;stroke-width:1;" x1="144.075" x2="128.075" y1="67.5" y2="67.5"/><line style="stroke:#181818;stroke-width:1;" x1="136.075" x2="136.075" y1="75.5" y2="59.5"/><path d="M144.075,67.5 C155.0982,67.5 151.1678,67.5 163.8688,67.5" fill="none" style="stroke:#181818;stroke-width:1;"/></g><g class="footer" data-source-line="31"><text fill="#888888" font-family="sans-serif" font-size="10" lengthAdjust="spacing" textLength="3.1787" x="298.4106" y="126.2822">&#160;</text><a href="https://github.com/talsma-ict/umldoclet" target="_top" title="https://github.com/talsma-ict/umldoclet" xlink:actuate="onRequest" xlink:href="https://github.com/talsma-ict/umldoclet" xlink:show="new" xlink:title="https://github.com/talsma-ict/umldoclet" xlink:type="simple"><text fill="#888888" font-family="sans-serif" font-size="10" lengthAdjust="spacing" textLength="140.4639" x="229.7681" y="137.9229">UMLDoclet 2.2.5-SNAPSHOT</text></a></g><?plantuml-src hLHHRzCm47xVhpZ60vtMk6beIrTLbQe2sr21QStGHhS7rxacrXmxsCuWG_llE4ctRAXe896NAFxklllyNUu005x1J6M5vd5YmIgm2JTmzd4EL4OGeqHDBKR0KngZWHKA9MDJ1oBGt2PAWrfNNqnfZIPJCk8oXW_qXe9HkMPeoCuELAN2U_Rlr3nYNnNbuLl515fepVOUIGhyxi0B_6008HKcfN0y2yc6hSa9I43wtkBJz6Hnz3a4LqHmXj8uxbn6g2jzqumozvhNI1jkK1kkf4lsDuJbdPcIbd9f8AFQcl9k9u9AMuhkab88wK9hkfW_5UaVL2BRCDMIvX6Sgc_vmxrVP9h6JhgWXSejc1GjbRI21AuhsskUY6jarccgyuoxcQIfyvGoNA0JHAspMog95Pxm207Jp1QmvYWYy_kfAvGeTroTCq6DWTsnuRSuwlOcfvWfmnrXGRvGaUEnC-h7fTpW_eGh4dERv2j2UOznabikTi7rRHj0jhADBoQmN6w5I69JSNK5FojjvRFVWArPgTLbjw59tciYMTd8JT2v2rgWvbJmMxeI-3wNbONZypPSJFP6SADurAJ6QCCYmvO3xeiqe53gEizQ5stuI-u5MXTK4Tmzv_9_iFQfcRM3TTdd4lSzxn_wLdEEZIq4DlQibR9kb9gEbS-HCrFFkRoUAU7-pPV3xUXPEOM2ItGRW5rBT1xv3v5tTRdEetgRMfTokKoipSoeqzbePohjs6eLU9pPJfwAgDu1Vze6pg9wkWyVzaqvgfuVUDqWxFgZtd3K6v0t1_t-ww7VwtzTlhEiSnREhdu1?></g></svg>