<?plantuml 1.2026.1?><svg xmlns="http://www.w3.org/2000/svg" xmlns:xlink="http://www.w3.org/1999/xlink" contentStyleType="text/css" data-diagram-type="CLASS" height="131px" preserveAspectRatio="none" style="width:458px;height:131px;background:#FFFFFF;" version="1.1" viewBox="0 0 458 131" width="458px" zoomAndPan="magnify"><defs/><g><!--class io.github.ai4ci.util.Sampler.OutOfRangeException--><g class="entity" data-qualified-name="io.github.ai4ci.util.Sampler.OutOfRangeException" data-source-line="14" id="ent0002"><a href="Sampler.OutOfRangeException.html" target="_top" title="Sampler.OutOfRangeException.html" xlink:actuate="onRequest" xlink:href="Sampler.OutOfRangeException.html" xlink:show="new" xlink:title="Sampler.OutOfRangeException.html" xlink:type="simple"><rect fill="#F1F1F1" height="37.9375" rx="2.5" ry="2.5" style="stroke:#181818;stroke-width:0.5;" width="249.8545" x="202" y="40"/><ellipse cx="217" cy="58.9688" fill="#ADD1B2" rx="11" ry="11" style="stroke:#181818;stroke-width:1;"/><path d="M219.9688,64.6094 Q219.3906,64.9063 218.75,65.0469 Q218.1094,65.2031 217.4063,65.2031 Q214.9063,65.2031 213.5781,63.5625 Q212.2656,61.9063 212.2656,58.7813 Q212.2656,55.6563 213.5781,54 Q214.9063,52.3438 217.4063,52.3438 Q218.1094,52.3438 218.75,52.5 Q219.4063,52.6563 219.9688,52.9531 L219.9688,55.6719 Q219.3438,55.0938 218.75,54.8281 Q218.1563,54.5469 217.5313,54.5469 Q216.1875,54.5469 215.5,55.625 Q214.8125,56.6875 214.8125,58.7813 Q214.8125,60.875 215.5,61.9531 Q216.1875,63.0156 217.5313,63.0156 Q218.1563,63.0156 218.75,62.75 Q219.3438,62.4688 219.9688,61.8906 L219.9688,64.6094 Z " fill="#000000"/><text fill="#000000" font-family="sans-serif" font-size="14" lengthAdjust="spacing" textLength="217.8545" x="231" y="57.9951">Sampler.OutOfRangeException</text><text fill="#000000" font-family="sans-serif" font-size="10" lengthAdjust="spacing" textLength="89.8633" x="294.9956" y="70.5791">io.github.ai4ci.util</text></a></g><!--class java.lang.RuntimeException--><g class="entity" data-qualified-name="java.lang.RuntimeException" data-source-line="17" id="ent0003"><a href="https://docs.oracle.com/en/java/javase/11/docs/api/java.base/java/lang/RuntimeException.html?is-external=true" target="_top" title="https://docs.oracle.com/en/java/javase/11/docs/api/java.base/java/lang/RuntimeException.html?is-external=true" xlink:actuate="onRequest" xlink:href="https://docs.oracle.com/en/java/javase/11/docs/api/java.base/java/lang/RuntimeException.html?is-external=true" xlink:show="new" xlink:title="https://docs.oracle.com/en/java/javase/11/docs/api/java.base/java/lang/RuntimeException.html?is-external=true" xlink:type="simple"><rect fill="#F1F1F1" height="37.9375" rx="2.5" ry="2.5" style="stroke:#181818;stroke-width:0.5;" width="160.249" x="6" y="12"/><ellipse cx="21" cy="30.9688" fill="#ADD1B2" rx="11" ry="11" style="stroke:#181818;stroke-width:1;"/><path d="M23.9688,36.6094 Q23.3906,36.9063 22.75,37.0469 Q22.1094,37.2031 21.4063,37.2031 Q18.9063,37.2031 17.5781,35.5625 Q16.2656,33.9063 16.2656,30.7813 Q16.2656,27.6563 17.5781,26 Q18.9063,24.3438 21.4063,24.3438 Q22.1094,24.3438 22.75,24.5 Q23.4063,24.6563 23.9688,24.9531 L23.9688,27.6719 Q23.3438,27.0938 22.75,26.8281 Q22.1563,26.5469 21.5313,26.5469 Q20.1875,26.5469 19.5,27.625 Q18.8125,28.6875 18.8125,30.7813 Q18.8125,32.875 19.5,33.9531 Q20.1875,35.0156 21.5313,35.0156 Q22.1563,35.0156 22.75,34.75 Q23.3438,34.4688 23.9688,33.8906 L23.9688,36.6094 Z " fill="#000000"/><text fill="#000000" font-family="sans-serif" font-size="14" lengthAdjust="spacing" textLength="128.249" x="35" y="29.9951">RuntimeException</text><text fill="#000000" font-family="sans-serif" font-size="10" lengthAdjust="spacing" textLength="45.7227" x="76.2632" y="42.5791">java.lang</text></a></g><!--class io.github.ai4ci.util.Sampler--><g class="entity" data-qualified-name="io.github.ai4ci.util.Sampler" data-source-line="18" id="ent0004"><a href="Sampler.html" target="_top" title="Sampler.html" xlink:actuate="onRequest" xlink:href="Sampler.html" xlink:show="new" xlink:title="Sampler.html" xlink:type="simple"><rect fill="#F1F1F1" height="37.9375" rx="2.5" ry="2.5" style="stroke:#181818;stroke-width:0.5;" width="121.8633" x="25" y="68"/><ellipse cx="40" cy="86.9688" fill="#ADD1B2" rx="11" ry="11" style="stroke:#181818;stroke-width:1;"/><path d="M42.9688,92.6094 Q42.3906,92.9063 41.75,93.0469 Q41.1094,93.2031 40.4063,93.2031 Q37.9063,93.2031 36.5781,91.5625 Q35.2656,89.9063 35.2656,86.7813 Q35.2656,83.6563 36.5781,82 Q37.9063,80.3438 40.4063,80.3438 Q41.1094,80.3438 41.75,80.5 Q42.4063,80.6563 42.9688,80.9531 L42.9688,83.6719 Q42.3438,83.0938 41.75,82.8281 Q41.1563,82.5469 40.5313,82.5469 Q39.1875,82.5469 38.5,83.625 Q37.8125,84.6875 37.8125,86.7813 Q37.8125,88.875 38.5,89.9531 Q39.1875,91.0156 40.5313,91.0156 Q41.1563,91.0156 41.75,90.75 Q42.3438,90.4688 42.9688,89.8906 L42.9688,92.6094 Z " fill="#000000"/><text fill="#000000" font-family="sans-serif" font-size="14" lengthAdjust="spacing" textLength="58.249" x="69.8071" y="85.9951">Sampler</text><text fill="#000000" font-family="sans-serif" font-size="10" lengthAdjust="spacing" textLength="89.8633" x="54" y="98.5791">io.github.ai4ci.util</text></a></g><g class="link" data-entity-1="ent0003" data-entity-2="ent0002" data-link-type="extension" id="lnk5"><polygon fill="none" points="166.2516,40.2847,183.4311,48.3384,184.8275,36.4199,166.2516,40.2847" style="stroke:#181818;stroke-width:1;"/><path d="M184.1293,42.3792 C195.5432,43.7164 189.6341,43.0241 201.6682,44.4339" fill="none" style="stroke:#181818;stroke-width:1;"/></g><g class="link" data-entity-1="ent0004" data-entity-2="ent0002" data-link-type="nested" id="lnk6"><ellipse cx="154.947" cy="79.0397" fill="#FFFFFF" rx="8" ry="8" style="stroke:#181818;stroke-width:1;"/><line style="stroke:#181818;stroke-width:1;" x1="162.8926" x2="147.0013" y1="78.1088" y2="79.9706"/><line style="stroke:#181818;stroke-width:1;" x1="155.8778" x2="154.0161" y1="86.9853" y2="71.094"/><path d="M162.8926,78.1088 C179.6238,76.1487 182.5528,75.8055 201.5404,73.581" fill="none" style="stroke:#181818;stroke-width:1;"/></g><g class="footer" data-source-line="29"><text fill="#888888" font-family="sans-serif" font-size="10" lengthAdjust="spacing" textLength="3.1787" x="223.9106" y="109.2822">&#160;</text><a href="https://github.com/talsma-ict/umldoclet" target="_top" title="https://github.com/talsma-ict/umldoclet" xlink:actuate="onRequest" xlink:href="https://github.com/talsma-ict/umldoclet" xlink:show="new" xlink:title="https://github.com/talsma-ict/umldoclet" xlink:type="simple"><text fill="#888888" font-family="sans-serif" font-size="10" lengthAdjust="spacing" textLength="140.4639" x="155.2681" y="120.9229">UMLDoclet 2.2.5-SNAPSHOT</text></a></g><?plantuml-src fLJRSjCm47tlLopbeMMevGjf9isKCfdGeJ21TfBqXJOFYhonHMN9I79fWFuxikoceHCo0_Z1bxsSFNkqNW20FHYgSgbvbbkm2cpE3Ln-706LAMGeKLEBAV22PcXWZaB9p3I12BIokTAW5lwBAQtHb4gcN6RmWTvICAhI30tPsG5VQlg0_esQDVJviZQ-LKoWXVtXYpLAIHHtWoHAkZ2bmXGKtW-df4Lxp4b8GWw3oQV1nUJiV0gkYE0CfN7ObKnHUtw3aZBt63MU0xX5RRYIBZbg0UkUcPAMSccWfDgQkhSBGQMjISUa9a9Ys1zCHh-JZ8uyoGCOQ4ch5CRgQxNg-rcfQUQe2xfKbGLJeAMIUfV0XPUzmKcvHcOTfoRFkCuaBPocbE447I5gdTnIIVJ-dAS8M9Hs2GkE8ZLFhQvGhfpPsvcWni3kiU7ViHztJYQqA0LgSbxPyyMOoWnFxnYMTVbhsKP59roHZDkycXFAEuoJodAn2-xqDZd85aoukjhY9Rajn6m6FppL-ysCnvMqlDX8yukRDkBEAVFSLb_aQOfZaLjRcduOfeePeZHr0qIOAaAKOPtdRmR3EFOH8IsvDv5vRVKHDNBu5Dbty8QR0EyikY4GhwskS3RRflt_whocQQDVezkMzez_1i5V7vq7tShZvR-WUjXZOvS2J_nxVIsKSlArS_1mdIrBr2CkRuPAk1_WUM-pzxB-rGMNwDOCkv7e98zMaVTDkN2jNblhMZuEHTj1FG_Mxvk0CnjMXKYRHVEdbTEUynwyMosrUXy4KHB4oJIE-frUlzCblQDUBtaL7nvzlZgrBBoS3cU_0000?></g></svg>