<?plantuml 1.2026.1?><svg xmlns="http://www.w3.org/2000/svg" xmlns:xlink="http://www.w3.org/1999/xlink" contentStyleType="text/css" data-diagram-type="CLASS" height="99px" preserveAspectRatio="none" style="width:489px;height:99px;background:#FFFFFF;" version="1.1" viewBox="0 0 489 99" width="489px" zoomAndPan="magnify"><defs/><g><!--class io.github.ai4ci.util.ShallowList--><g class="entity" data-qualified-name="io.github.ai4ci.util.ShallowList" data-source-line="14" id="ent0002"><a href="ShallowList.html" target="_top" title="ShallowList.html" xlink:actuate="onRequest" xlink:href="ShallowList.html" xlink:show="new" xlink:title="ShallowList.html" xlink:type="simple"><rect fill="#F1F1F1" height="62.2344" rx="2.5" ry="2.5" style="stroke:#181818;stroke-width:0.5;" width="329.5703" x="149" y="12"/><ellipse cx="258.4932" cy="30.9688" fill="#ADD1B2" rx="11" ry="11" style="stroke:#181818;stroke-width:1;"/><path d="M261.4619,36.6094 Q260.8838,36.9063 260.2432,37.0469 Q259.6025,37.2031 258.8994,37.2031 Q256.3994,37.2031 255.0713,35.5625 Q253.7588,33.9063 253.7588,30.7813 Q253.7588,27.6563 255.0713,26 Q256.3994,24.3438 258.8994,24.3438 Q259.6025,24.3438 260.2432,24.5 Q260.8994,24.6563 261.4619,24.9531 L261.4619,27.6719 Q260.8369,27.0938 260.2432,26.8281 Q259.6494,26.5469 259.0244,26.5469 Q257.6807,26.5469 256.9932,27.625 Q256.3057,28.6875 256.3057,30.7813 Q256.3057,32.875 256.9932,33.9531 Q257.6807,35.0156 259.0244,35.0156 Q259.6494,35.0156 260.2432,34.75 Q260.8369,34.4688 261.4619,33.8906 L261.4619,36.6094 Z " fill="#000000"/><text fill="#000000" font-family="sans-serif" font-size="14" lengthAdjust="spacing" textLength="78.6064" x="284.6216" y="29.9951">ShallowList</text><text fill="#000000" font-family="sans-serif" font-size="10" lengthAdjust="spacing" textLength="89.8633" x="278.9932" y="42.5791">io.github.ai4ci.util</text><rect fill="#FFFFFF" height="15.9688" style="stroke:#181818;stroke-width:1;stroke-dasharray:2,2;" width="10.2207" x="471.3496" y="9"/><text fill="#000000" font-family="sans-serif" font-size="12" font-style="italic" lengthAdjust="spacing" textLength="8.2207" x="472.3496" y="21.1387">X</text><line style="stroke:#181818;stroke-width:0.5;" x1="150" x2="477.5703" y1="49.9375" y2="49.9375"/></a><g data-visibility-modifier="PUBLIC_METHOD"><a href="ShallowList.html" target="_top" title="ShallowList.html" xlink:actuate="onRequest" xlink:href="ShallowList.html" xlink:show="new" xlink:title="ShallowList.html" xlink:type="simple"><ellipse cx="160" cy="63.5859" fill="#84BE84" rx="3" ry="3" style="stroke:#038048;stroke-width:1;"/></a></g><a href="ShallowList.html" target="_top" title="ShallowList.html" xlink:actuate="onRequest" xlink:href="ShallowList.html" xlink:show="new" xlink:title="ShallowList.html" xlink:type="simple"><text fill="#000000" font-family="sans-serif" font-size="14" lengthAdjust="spacing" textLength="303.5703" x="169" y="66.9326">combine(ShallowList&lt;X&gt;): ShallowList&lt;X&gt;</text></a></g><!--class java.util.ArrayList--><g class="entity" data-qualified-name="java.util.ArrayList" data-source-line="18" id="ent0003"><a href="https://docs.oracle.com/en/java/javase/11/docs/api/java.base/java/util/ArrayList.html?is-external=true" target="_top" title="https://docs.oracle.com/en/java/javase/11/docs/api/java.base/java/util/ArrayList.html?is-external=true" xlink:actuate="onRequest" xlink:href="https://docs.oracle.com/en/java/javase/11/docs/api/java.base/java/util/ArrayList.html?is-external=true" xlink:show="new" xlink:title="https://docs.oracle.com/en/java/javase/11/docs/api/java.base/java/util/ArrayList.html?is-external=true" xlink:type="simple"><rect fill="#F1F1F1" height="37.9375" rx="2.5" ry="2.5" style="stroke:#181818;stroke-width:0.5;" width="106.6465" x="6" y="24"/><ellipse cx="21" cy="42.9688" fill="#ADD1B2" rx="11" ry="11" style="stroke:#181818;stroke-width:1;"/><path d="M23.9688,48.6094 Q23.3906,48.9063 22.75,49.0469 Q22.1094,49.2031 21.4063,49.2031 Q18.9063,49.2031 17.5781,47.5625 Q16.2656,45.9063 16.2656,42.7813 Q16.2656,39.6563 17.5781,38 Q18.9063,36.3438 21.4063,36.3438 Q22.1094,36.3438 22.75,36.5 Q23.4063,36.6563 23.9688,36.9531 L23.9688,39.6719 Q23.3438,39.0938 22.75,38.8281 Q22.1563,38.5469 21.5313,38.5469 Q20.1875,38.5469 19.5,39.625 Q18.8125,40.6875 18.8125,42.7813 Q18.8125,44.875 19.5,45.9531 Q20.1875,47.0156 21.5313,47.0156 Q22.1563,47.0156 22.75,46.75 Q23.3438,46.4688 23.9688,45.8906 L23.9688,48.6094 Z " fill="#000000"/><text fill="#000000" font-family="sans-serif" font-size="14" lengthAdjust="spacing" textLength="62.4258" x="35" y="41.9951">ArrayList</text><text fill="#000000" font-family="sans-serif" font-size="10" lengthAdjust="spacing" textLength="39.9463" x="46.2397" y="54.5791">java.util</text><rect fill="#FFFFFF" height="15.9688" style="stroke:#181818;stroke-width:1;stroke-dasharray:2,2;" width="10.2207" x="105.4258" y="21"/><text fill="#000000" font-family="sans-serif" font-size="12" font-style="italic" lengthAdjust="spacing" textLength="8.2207" x="106.4258" y="33.1387">X</text></a></g><g class="link" data-entity-1="ent0003" data-entity-2="ent0002" data-link-type="extension" id="lnk4"><polygon fill="none" points="113.1249,43,131.1249,49,131.1249,37,113.1249,43" style="stroke:#181818;stroke-width:1;"/><path d="M131.1249,43 C142.1094,43 136.2368,43 148.9258,43" fill="none" style="stroke:#181818;stroke-width:1;"/></g><g class="footer" data-source-line="28"><text fill="#888888" font-family="sans-serif" font-size="10" lengthAdjust="spacing" textLength="3.1787" x="237.4106" y="77.2822">&#160;</text><a href="https://github.com/talsma-ict/umldoclet" target="_top" title="https://github.com/talsma-ict/umldoclet" xlink:actuate="onRequest" xlink:href="https://github.com/talsma-ict/umldoclet" xlink:show="new" xlink:title="https://github.com/talsma-ict/umldoclet" xlink:type="simple"><text fill="#888888" font-family="sans-serif" font-size="10" lengthAdjust="spacing" textLength="140.4639" x="168.7681" y="88.9229">UMLDoclet 2.2.5-SNAPSHOT</text></a></g><?plantuml-src XLFlRzCm4Fs-l-8O7zZ4ulnO6QKgHLL135HWegs4sFh1TQw9cMC7sza8iFyTnobfDnMH3udyxkxTknSV0C0JcAYorZpBBLW5DkS65X-cG6KA6KhKr68AlA0P6bYXK38pRI82hMokDAYrFp6bDPfIoPJB3DxJ6mf6LPgX8GS7u5lD_xBVKhF3lgeRyBLY0YqSJOvt92LHV1OaKN86SofCGU7TP4usRDkQX2JaMJ3xEBwOdN-QWsiYE4Df77SbKzHUtxYap7scRUG4Rb0RhgGhZZQ4pSnCIKkvD51IRKqpsuMWqZQYOz888J4SZMVJ-oAZ5rxa2Oorf5KAdzNtgflxKQbfvgGBMglAWYdGKabzIE3Qszxof5mZiqvJMsVSP98MpbFAS8PE4BNERgaa-dZEKmGiIbl3cgD8pKFKDSgLWptE13K63eU6_yH1t1lDSYg4kfroOw_a1er6N96CsxnQ4SfxZ9FASd48xc_j2v0TZk6N4LnUxW0ajuLOBk6NxzuyJvagLbpYqVsoum7S1tp1tNxLOwrf_K3pDtVLjaAx4-boMssvjQKPX66gc25AKtTpY5CKeWoR6lyo6CQnpmXfoJr4LWtgCnhMi6Fr0xxY9i0V5jrl5o-jhd2vR8NlaG73tq7mNoFRyg6njS1HvzrQATTanypcEQzBr5CkhoTAk8lnkBy_kcXMG3ZZtVgnQudEqAZBl6lRXJlzDhskvDQpZUB6BkltCE3CXbKXqdO1_xMApersjTvsozxiIH0bGPpCusZGwmzwPwJ__FIq5v_sew-NRomB5_F9yWy0?></g></svg>