<?plantuml 1.2026.1?><svg xmlns="http://www.w3.org/2000/svg" xmlns:xlink="http://www.w3.org/1999/xlink" contentStyleType="text/css" data-diagram-type="CLASS" height="131px" preserveAspectRatio="none" style="width:762px;height:131px;background:#FFFFFF;" version="1.1" viewBox="0 0 762 131" width="762px" zoomAndPan="magnify"><defs/><g><!--class io.github.ai4ci.util.SparseDecomposition--><g class="entity" data-qualified-name="io.github.ai4ci.util.SparseDecomposition" data-source-line="14" id="ent0002"><a href="SparseDecomposition.html" target="_top" title="SparseDecomposition.html" xlink:actuate="onRequest" xlink:href="SparseDecomposition.html" xlink:show="new" xlink:title="SparseDecomposition.html" xlink:type="simple"><rect fill="#F1F1F1" height="62.2344" rx="2.5" ry="2.5" style="stroke:#181818;stroke-width:0.5;" width="383.2461" x="6" y="28"/><ellipse cx="116.9917" cy="46.9688" fill="#ADD1B2" rx="11" ry="11" style="stroke:#181818;stroke-width:1;"/><path d="M119.9604,52.6094 Q119.3823,52.9063 118.7417,53.0469 Q118.1011,53.2031 117.3979,53.2031 Q114.8979,53.2031 113.5698,51.5625 Q112.2573,49.9063 112.2573,46.7813 Q112.2573,43.6563 113.5698,42 Q114.8979,40.3438 117.3979,40.3438 Q118.1011,40.3438 118.7417,40.5 Q119.3979,40.6563 119.9604,40.9531 L119.9604,43.6719 Q119.3354,43.0938 118.7417,42.8281 Q118.1479,42.5469 117.5229,42.5469 Q116.1792,42.5469 115.4917,43.625 Q114.8042,44.6875 114.8042,46.7813 Q114.8042,48.875 115.4917,49.9531 Q116.1792,51.0156 117.5229,51.0156 Q118.1479,51.0156 118.7417,50.75 Q119.3354,50.4688 119.9604,49.8906 L119.9604,52.6094 Z " fill="#000000"/><text fill="#000000" font-family="sans-serif" font-size="14" lengthAdjust="spacing" textLength="152.7627" x="137.4917" y="45.9951">SparseDecomposition</text><text fill="#000000" font-family="sans-serif" font-size="10" lengthAdjust="spacing" textLength="89.8633" x="168.9414" y="58.5791">io.github.ai4ci.util</text><line style="stroke:#181818;stroke-width:0.5;" x1="7" x2="388.2461" y1="65.9375" y2="65.9375"/></a><g data-visibility-modifier="PUBLIC_METHOD"><a href="SparseDecomposition.html" target="_top" title="SparseDecomposition.html" xlink:actuate="onRequest" xlink:href="SparseDecomposition.html" xlink:show="new" xlink:title="SparseDecomposition.html" xlink:type="simple"><ellipse cx="17" cy="79.5859" fill="#84BE84" rx="3" ry="3" style="stroke:#038048;stroke-width:1;"/></a></g><a href="SparseDecomposition.html" target="_top" title="SparseDecomposition.html" xlink:actuate="onRequest" xlink:href="SparseDecomposition.html" xlink:show="new" xlink:title="SparseDecomposition.html" xlink:type="simple"><text fill="#000000" font-family="sans-serif" font-size="14" lengthAdjust="spacing" text-decoration="underline" textLength="357.2461" x="26" y="82.9326">powerIteration(SparseMatrix, int, double): double[]</text></a></g><!--class io.github.ai4ci.util.SparseDecomposition.SparseMatrix--><g class="entity" data-qualified-name="io.github.ai4ci.util.SparseDecomposition.SparseMatrix" data-source-line="17" id="ent0003"><a href="SparseDecomposition.SparseMatrix.html" target="_top" title="SparseDecomposition.SparseMatrix.html" xlink:actuate="onRequest" xlink:href="SparseDecomposition.SparseMatrix.html" xlink:show="new" xlink:title="SparseDecomposition.SparseMatrix.html" xlink:type="simple"><rect fill="#F1F1F1" height="37.9375" rx="2.5" ry="2.5" style="stroke:#181818;stroke-width:0.5;" width="281.3066" x="450" y="12"/><ellipse cx="465" cy="30.9688" fill="#ADD1B2" rx="11" ry="11" style="stroke:#181818;stroke-width:1;"/><path d="M467.9688,36.6094 Q467.3906,36.9063 466.75,37.0469 Q466.1094,37.2031 465.4063,37.2031 Q462.9063,37.2031 461.5781,35.5625 Q460.2656,33.9063 460.2656,30.7813 Q460.2656,27.6563 461.5781,26 Q462.9063,24.3438 465.4063,24.3438 Q466.1094,24.3438 466.75,24.5 Q467.4063,24.6563 467.9688,24.9531 L467.9688,27.6719 Q467.3438,27.0938 466.75,26.8281 Q466.1563,26.5469 465.5313,26.5469 Q464.1875,26.5469 463.5,27.625 Q462.8125,28.6875 462.8125,30.7813 Q462.8125,32.875 463.5,33.9531 Q464.1875,35.0156 465.5313,35.0156 Q466.1563,35.0156 466.75,34.75 Q467.3438,34.4688 467.9688,33.8906 L467.9688,36.6094 Z " fill="#000000"/><text fill="#000000" font-family="sans-serif" font-size="14" lengthAdjust="spacing" textLength="249.3066" x="479" y="29.9951">SparseDecomposition.SparseMatrix</text><text fill="#000000" font-family="sans-serif" font-size="10" lengthAdjust="spacing" textLength="89.8633" x="558.7217" y="42.5791">io.github.ai4ci.util</text></a></g><!--class io.github.ai4ci.util.SparseDecomposition.SparseMatrixBuilder--><g class="entity" data-qualified-name="io.github.ai4ci.util.SparseDecomposition.SparseMatrixBuilder" data-source-line="18" id="ent0004"><a href="SparseDecomposition.SparseMatrixBuilder.html" target="_top" title="SparseDecomposition.SparseMatrixBuilder.html" xlink:actuate="onRequest" xlink:href="SparseDecomposition.SparseMatrixBuilder.html" xlink:show="new" xlink:title="SparseDecomposition.SparseMatrixBuilder.html" xlink:type="simple"><rect fill="#F1F1F1" height="37.9375" rx="2.5" ry="2.5" style="stroke:#181818;stroke-width:0.5;" width="330.8193" x="425" y="68"/><ellipse cx="440" cy="86.9688" fill="#ADD1B2" rx="11" ry="11" style="stroke:#181818;stroke-width:1;"/><path d="M442.9688,92.6094 Q442.3906,92.9063 441.75,93.0469 Q441.1094,93.2031 440.4063,93.2031 Q437.9063,93.2031 436.5781,91.5625 Q435.2656,89.9063 435.2656,86.7813 Q435.2656,83.6563 436.5781,82 Q437.9063,80.3438 440.4063,80.3438 Q441.1094,80.3438 441.75,80.5 Q442.4063,80.6563 442.9688,80.9531 L442.9688,83.6719 Q442.3438,83.0938 441.75,82.8281 Q441.1563,82.5469 440.5313,82.5469 Q439.1875,82.5469 438.5,83.625 Q437.8125,84.6875 437.8125,86.7813 Q437.8125,88.875 438.5,89.9531 Q439.1875,91.0156 440.5313,91.0156 Q441.1563,91.0156 441.75,90.75 Q442.3438,90.4688 442.9688,89.8906 L442.9688,92.6094 Z " fill="#000000"/><text fill="#000000" font-family="sans-serif" font-size="14" lengthAdjust="spacing" textLength="298.8193" x="454" y="85.9951">SparseDecomposition.SparseMatrixBuilder</text><text fill="#000000" font-family="sans-serif" font-size="10" lengthAdjust="spacing" textLength="89.8633" x="558.478" y="98.5791">io.github.ai4ci.util</text></a></g><g class="link" data-entity-1="ent0002" data-entity-2="ent0003" data-link-type="nested" id="lnk5"><ellipse cx="397.1116" cy="44.7772" fill="#FFFFFF" rx="8" ry="8" style="stroke:#181818;stroke-width:1;"/><line style="stroke:#181818;stroke-width:1;" x1="405.0912" x2="389.132" y1="44.2057" y2="45.3486"/><line style="stroke:#181818;stroke-width:1;" x1="397.683" x2="396.5402" y1="52.7567" y2="36.7976"/><path d="M405.0912,44.2057 C425.5618,42.7398 430.1444,42.4117 449.8589,40.9999" fill="none" style="stroke:#181818;stroke-width:1;"/></g><g class="link" data-entity-1="ent0002" data-entity-2="ent0004" data-link-type="nested" id="lnk6"><ellipse cx="397.1116" cy="73.2228" fill="#FFFFFF" rx="8" ry="8" style="stroke:#181818;stroke-width:1;"/><line style="stroke:#181818;stroke-width:1;" x1="405.0912" x2="389.132" y1="73.7943" y2="72.6514"/><line style="stroke:#181818;stroke-width:1;" x1="396.5402" x2="397.683" y1="81.2024" y2="65.2433"/><path d="M405.0912,73.7943 C417.0243,74.6488 413.0224,74.3622 424.8259,75.2075" fill="none" style="stroke:#181818;stroke-width:1;"/></g><g class="footer" data-source-line="29"><text fill="#888888" font-family="sans-serif" font-size="10" lengthAdjust="spacing" textLength="3.1787" x="375.9106" y="109.2822">&#160;</text><a href="https://github.com/talsma-ict/umldoclet" target="_top" title="https://github.com/talsma-ict/umldoclet" xlink:actuate="onRequest" xlink:href="https://github.com/talsma-ict/umldoclet" xlink:show="new" xlink:title="https://github.com/talsma-ict/umldoclet" xlink:type="simple"><text fill="#888888" font-family="sans-serif" font-size="10" lengthAdjust="spacing" textLength="140.4639" x="307.2681" y="120.9229">UMLDoclet 2.2.5-SNAPSHOT</text></a></g><?plantuml-src lLHDJzj04BttLqpf0H3nnh48a0WXfQ4gLA55JRWqvB1PJ-mLwrrtTmnD4V-zwm_IK0K9eRPxiJqVRzwR7Gy0m3OCJRwqCaa9o02bqi7LnGYuZY51ZPOJnY0pdg23EIgZ4rS78l22KcF1BAelOQn5bniTIvt09txBmPd22dJipHkeIaqUqU-uMqEVBqlZgH4A2NQ6kskKeh1p44HXT00Jhbp6uNmuOGtQxvo8HQmRZ3yFBiTdNoRWYoWfK3kFNUWORSLla7FX7wFQqu9Rj4uQxPF31h3KB8mcBhM3d5jofRPBnJMLf3ki9C8wi3COZvwI37iLoHOChEP535_DzsAb-srkUUAfAxuq1O7BaBZcbKlXecfxZHDBYu8yfphFUMMQPxwdNE0OFI5EljtQQApygOmHCCjf2Gk9AdP_MdsXr7XpPHUAEmTRnqx-n7vd_sJiyHoUeZ1PRfmiorxhnXkUICCIIManPrpk2yaAaceB_ArjSh0DM32TRh2ob38rcy5zHQayzuuuIV40UxcvGtjEvKpuo9qw-uAJbJzQ83Mr83R5NE5kltcPpYgKXvVAO-kGVrFh4-1dXA-7D5ru5U_tXLH-elyP_GR_1IgQo4SnbPeNJyTU4BoEttygquYhLHqxMYeyMStimXW_fcj3N9wpPOvs9FNDq2Z_bxuxskozAlUHaXhzBXGt6ltbXwl8UfIFsslrcbhNUZfDYNBNRxSRDPvwcwgb64X1xI9JSRqDdzkBpSHjmyVLvYsNLX16GIUQXBr-rErtk-mmwlKEZpg7-z-c7qYqhoR3sIy0?></g></svg>