<?plantuml 1.2026.1?><svg xmlns="http://www.w3.org/2000/svg" xmlns:xlink="http://www.w3.org/1999/xlink" contentStyleType="text/css" data-diagram-type="CLASS" height="131px" preserveAspectRatio="none" style="width:374px;height:131px;background:#FFFFFF;" version="1.1" viewBox="0 0 374 131" width="374px" zoomAndPan="magnify"><defs/><g><!--class io.github.ai4ci.flow.output.Export--><g class="entity" data-qualified-name="io.github.ai4ci.flow.output.Export" data-source-line="14" id="ent0002"><a href="Export.html" target="_top" title="Export.html" xlink:actuate="onRequest" xlink:href="Export.html" xlink:show="new" xlink:title="Export.html" xlink:type="simple"><rect fill="#F1F1F1" height="37.9375" rx="2.5" ry="2.5" style="stroke:#181818;stroke-width:0.5;" width="162.8057" x="6" y="40"/><ellipse cx="21" cy="58.9688" fill="#E3664A" rx="11" ry="11" style="stroke:#181818;stroke-width:1;"/><path d="M23.0781,59.4375 Q23.0781,58.5 22.6563,57.9688 Q22.2344,57.4375 21.4844,57.4375 Q20.75,57.4375 20.3281,57.9688 Q19.9219,58.5 19.9219,59.4375 Q19.9219,60.3906 20.3281,60.9219 Q20.75,61.4531 21.4844,61.4531 Q22.2344,61.4531 22.6563,60.9219 Q23.0781,60.3906 23.0781,59.4375 Z M24.625,62.8438 L23,62.8438 L23,62.1719 Q22.6719,62.6094 22.25,62.8125 Q21.8281,63.0156 21.2188,63.0156 Q19.8594,63.0156 19.0313,62.0469 Q18.2031,61.0625 18.2031,59.4375 Q18.2031,57.8438 19.0313,56.875 Q19.8594,55.8906 21.2188,55.8906 Q21.8125,55.8906 22.2656,56.0938 Q22.7188,56.2969 23,56.6875 L23,56.3438 Q23,55.2188 22.375,54.6094 Q21.75,53.9844 20.6094,53.9844 Q18.8906,53.9844 17.7969,55.5156 Q16.7031,57.0313 16.7031,59.4688 Q16.7031,62.0156 17.9531,63.5156 Q19.2188,65.0156 21.3281,65.0156 Q21.9844,65.0156 22.6094,64.8281 Q23.2344,64.6406 23.8125,64.25 L24.5781,65.7031 Q23.9063,66.1563 23.1094,66.375 Q22.3125,66.6094 21.4063,66.6094 Q18.5,66.6094 16.7656,64.6719 Q15.0469,62.75 15.0469,59.4688 Q15.0469,56.25 16.5938,54.3281 Q18.1563,52.3906 20.7188,52.3906 Q22.5156,52.3906 23.5625,53.4844 Q24.625,54.5781 24.625,56.4531 L24.625,62.8438 Z " fill="#000000"/><text fill="#000000" font-family="sans-serif" font-size="14" lengthAdjust="spacing" textLength="45.8281" x="77.4888" y="57.9951">Export</text><text fill="#000000" font-family="sans-serif" font-size="10" lengthAdjust="spacing" textLength="130.8057" x="35" y="70.5791">io.github.ai4ci.flow.output</text></a></g><!--class io.github.ai4ci.flow.output.Export.Selector--><g class="entity" data-qualified-name="io.github.ai4ci.flow.output.Export.Selector" data-source-line="15" id="ent0003"><a href="Export.Selector.html" target="_top" title="Export.Selector.html" xlink:actuate="onRequest" xlink:href="Export.Selector.html" xlink:show="new" xlink:title="Export.Selector.html" xlink:type="simple"><rect fill="#F1F1F1" height="37.9375" rx="2.5" ry="2.5" style="stroke:#181818;stroke-width:0.5;" width="162.8057" x="205" y="12"/><ellipse cx="220" cy="30.9688" fill="#B4A7E5" rx="11" ry="11" style="stroke:#181818;stroke-width:1;"/><path d="M215.9219,26.7344 L215.9219,24.5781 L223.3125,24.5781 L223.3125,26.7344 L220.8438,26.7344 L220.8438,34.8125 L223.3125,34.8125 L223.3125,36.9688 L215.9219,36.9688 L215.9219,34.8125 L218.3906,34.8125 L218.3906,26.7344 L215.9219,26.7344 Z " fill="#000000"/><text fill="#000000" font-family="sans-serif" font-size="14" font-style="italic" lengthAdjust="spacing" textLength="107.7891" x="245.5083" y="29.9951">Export.Selector</text><text fill="#000000" font-family="sans-serif" font-size="10" font-style="italic" lengthAdjust="spacing" textLength="130.8057" x="234" y="42.5791">io.github.ai4ci.flow.output</text></a></g><!--class io.github.ai4ci.flow.output.Export.Stage--><g class="entity" data-qualified-name="io.github.ai4ci.flow.output.Export.Stage" data-source-line="16" id="ent0004"><a href="Export.Stage.html" target="_top" title="Export.Stage.html" xlink:actuate="onRequest" xlink:href="Export.Stage.html" xlink:show="new" xlink:title="Export.Stage.html" xlink:type="simple"><rect fill="#F1F1F1" height="37.9375" rx="2.5" ry="2.5" style="stroke:#181818;stroke-width:0.5;" width="162.8057" x="205" y="68"/><ellipse cx="220" cy="86.9688" fill="#EB937F" rx="11" ry="11" style="stroke:#181818;stroke-width:1;"/><path d="M224.1094,92.9688 L216.3906,92.9688 L216.3906,80.5781 L224.1094,80.5781 L224.1094,82.7344 L218.8438,82.7344 L218.8438,85.4063 L223.6094,85.4063 L223.6094,87.5625 L218.8438,87.5625 L218.8438,90.8125 L224.1094,90.8125 L224.1094,92.9688 Z " fill="#000000"/><text fill="#000000" font-family="sans-serif" font-size="14" lengthAdjust="spacing" textLength="90.7334" x="254.0361" y="85.9951">Export.Stage</text><text fill="#000000" font-family="sans-serif" font-size="10" lengthAdjust="spacing" textLength="130.8057" x="234" y="98.5791">io.github.ai4ci.flow.output</text></a></g><g class="link" data-entity-1="ent0002" data-entity-2="ent0003" data-link-type="nested" id="lnk5"><ellipse cx="177.1162" cy="46.4048" fill="#FFFFFF" rx="8" ry="8" style="stroke:#181818;stroke-width:1;"/><line style="stroke:#181818;stroke-width:1;" x1="185.0366" x2="169.1959" y1="45.2791" y2="47.5305"/><line style="stroke:#181818;stroke-width:1;" x1="178.242" x2="175.9905" y1="54.3252" y2="38.4844"/><path d="M185.0366,45.2791 C196.8313,43.6027 193.1375,44.1277 204.9296,42.4516" fill="none" style="stroke:#181818;stroke-width:1;"/></g><g class="link" data-entity-1="ent0002" data-entity-2="ent0004" data-link-type="nested" id="lnk6"><ellipse cx="177.1162" cy="71.5952" fill="#FFFFFF" rx="8" ry="8" style="stroke:#181818;stroke-width:1;"/><line style="stroke:#181818;stroke-width:1;" x1="185.0366" x2="169.1959" y1="72.7209" y2="70.4695"/><line style="stroke:#181818;stroke-width:1;" x1="175.9905" x2="178.242" y1="79.5156" y2="63.6748"/><path d="M185.0366,72.7209 C196.8313,74.3973 193.1375,73.8723 204.9296,75.5484" fill="none" style="stroke:#181818;stroke-width:1;"/></g><g class="footer" data-source-line="27"><text fill="#888888" font-family="sans-serif" font-size="10" lengthAdjust="spacing" textLength="3.1787" x="181.9106" y="109.2822">&#160;</text><a href="https://github.com/talsma-ict/umldoclet" target="_top" title="https://github.com/talsma-ict/umldoclet" xlink:actuate="onRequest" xlink:href="https://github.com/talsma-ict/umldoclet" xlink:show="new" xlink:title="https://github.com/talsma-ict/umldoclet" xlink:type="simple"><text fill="#888888" font-family="sans-serif" font-size="10" lengthAdjust="spacing" textLength="140.4639" x="113.2681" y="120.9229">UMLDoclet 2.2.5-SNAPSHOT</text></a></g><?plantuml-src hPHHRzCm4CVVzocEyR0X5ZV9scrKqwIgJ6oem4JR5xezUCuriUROmRvi5CHtnqxQhi008TKlYU_i__tkR1y0m1uCJRMmCYy8o00Lqi7qtGYupY17ZPOJPY1BdgE3MrH6vwvTYC1hAem5CszcmbYBhZ8wapg7j_oUWpEr5UZOpWuqeIOhzGVkDjHl5y7usWY51Fl35nj8QPmSHMcS7i64ArTok1nEs5BjSK_AKjQBnky7L-EB3nFmGPGKg9tNhdM6jk4RL5pupwZr7C0zMYUDzflZfM38MHXDN6e75RVaGcvNYciAq0aB82o1_S5uz3Da_Ag1F821rRpEuAFvNA_pVbPPddjqnHUc9d0b4jUySIcSDsLlTJ9fKP1dQlSvdvdcfQyf5pX63yJ9briRZOs_a1a2bXKjO2vHPUvNgmzK66zkx5nhGpoem-wfar-ndtJFphzKnjArNXhYCsbOBgceRncNNI7PN9a7vgchcdR17zfV_AmLWzci_M45bUhcfWakDQ6T-pH-Yyt6g7pIncuLOgtwIBEoR6AXhiidYCXVzYtZ1CaDbZ1TWRG5-dTTNqRH_sI-RTc0tBAUEbeeF6l-mvWRuqyNlgqDOLmiAhGZgU-6HlbZU7xoj7SQdgUI6drh47SQdODulV9x6wwp4MyPwrhFPWLHvVgTpf9ScB93JO-8fA1ENQgiRGv_QXFBEx07RzQDABpXA4wZv72I7FLx9_taa1qVTqzwSThjVfgTa-XC9yER7m00?></g></svg>