<?plantuml 1.2026.1?><svg xmlns="http://www.w3.org/2000/svg" xmlns:xlink="http://www.w3.org/1999/xlink" contentStyleType="text/css" data-diagram-type="CLASS" height="131px" preserveAspectRatio="none" style="width:444px;height:131px;background:#FFFFFF;" version="1.1" viewBox="0 0 444 131" width="444px" zoomAndPan="magnify"><defs/><g><!--class io.github.ai4ci.abm.ModelUpdate--><g class="entity" data-qualified-name="io.github.ai4ci.abm.ModelUpdate" data-source-line="14" id="ent0002"><a href="ModelUpdate.html" target="_top" title="ModelUpdate.html" xlink:actuate="onRequest" xlink:href="ModelUpdate.html" xlink:show="new" xlink:title="ModelUpdate.html" xlink:type="simple"><rect fill="#F1F1F1" height="37.9375" rx="2.5" ry="2.5" style="stroke:#181818;stroke-width:0.5;" width="128.2646" x="6" y="40"/><ellipse cx="21" cy="58.9688" fill="#ADD1B2" rx="11" ry="11" style="stroke:#181818;stroke-width:1;"/><path d="M23.9688,64.6094 Q23.3906,64.9063 22.75,65.0469 Q22.1094,65.2031 21.4063,65.2031 Q18.9063,65.2031 17.5781,63.5625 Q16.2656,61.9063 16.2656,58.7813 Q16.2656,55.6563 17.5781,54 Q18.9063,52.3438 21.4063,52.3438 Q22.1094,52.3438 22.75,52.5 Q23.4063,52.6563 23.9688,52.9531 L23.9688,55.6719 Q23.3438,55.0938 22.75,54.8281 Q22.1563,54.5469 21.5313,54.5469 Q20.1875,54.5469 19.5,55.625 Q18.8125,56.6875 18.8125,58.7813 Q18.8125,60.875 19.5,61.9531 Q20.1875,63.0156 21.5313,63.0156 Q22.1563,63.0156 22.75,62.75 Q23.3438,62.4688 23.9688,61.8906 L23.9688,64.6094 Z " fill="#000000"/><text fill="#000000" font-family="sans-serif" font-size="14" lengthAdjust="spacing" textLength="92.7363" x="36.7642" y="57.9951">ModelUpdate</text><text fill="#000000" font-family="sans-serif" font-size="10" lengthAdjust="spacing" textLength="96.2646" x="35" y="70.5791">io.github.ai4ci.abm</text></a></g><!--class io.github.ai4ci.abm.ModelUpdate.OutbreakUpdaterFn--><g class="entity" data-qualified-name="io.github.ai4ci.abm.ModelUpdate.OutbreakUpdaterFn" data-source-line="15" id="ent0003"><a href="ModelUpdate.OutbreakUpdaterFn.html" target="_top" title="ModelUpdate.OutbreakUpdaterFn.html" xlink:actuate="onRequest" xlink:href="ModelUpdate.OutbreakUpdaterFn.html" xlink:show="new" xlink:title="ModelUpdate.OutbreakUpdaterFn.html" xlink:type="simple"><rect fill="#F1F1F1" height="37.9375" rx="2.5" ry="2.5" style="stroke:#181818;stroke-width:0.5;" width="267.8945" x="170" y="12"/><ellipse cx="185" cy="30.9688" fill="#EB937F" rx="11" ry="11" style="stroke:#181818;stroke-width:1;"/><path d="M189.1094,36.9688 L181.3906,36.9688 L181.3906,24.5781 L189.1094,24.5781 L189.1094,26.7344 L183.8438,26.7344 L183.8438,29.4063 L188.6094,29.4063 L188.6094,31.5625 L183.8438,31.5625 L183.8438,34.8125 L189.1094,34.8125 L189.1094,36.9688 Z " fill="#000000"/><text fill="#000000" font-family="sans-serif" font-size="14" lengthAdjust="spacing" textLength="235.8945" x="199" y="29.9951">ModelUpdate.OutbreakUpdaterFn</text><text fill="#000000" font-family="sans-serif" font-size="10" lengthAdjust="spacing" textLength="96.2646" x="268.8149" y="42.5791">io.github.ai4ci.abm</text></a></g><!--class io.github.ai4ci.abm.ModelUpdate.PersonUpdaterFn--><g class="entity" data-qualified-name="io.github.ai4ci.abm.ModelUpdate.PersonUpdaterFn" data-source-line="16" id="ent0004"><a href="ModelUpdate.PersonUpdaterFn.html" target="_top" title="ModelUpdate.PersonUpdaterFn.html" xlink:actuate="onRequest" xlink:href="ModelUpdate.PersonUpdaterFn.html" xlink:show="new" xlink:title="ModelUpdate.PersonUpdaterFn.html" xlink:type="simple"><rect fill="#F1F1F1" height="37.9375" rx="2.5" ry="2.5" style="stroke:#181818;stroke-width:0.5;" width="250.1143" x="179" y="68"/><ellipse cx="194" cy="86.9688" fill="#EB937F" rx="11" ry="11" style="stroke:#181818;stroke-width:1;"/><path d="M198.1094,92.9688 L190.3906,92.9688 L190.3906,80.5781 L198.1094,80.5781 L198.1094,82.7344 L192.8438,82.7344 L192.8438,85.4063 L197.6094,85.4063 L197.6094,87.5625 L192.8438,87.5625 L192.8438,90.8125 L198.1094,90.8125 L198.1094,92.9688 Z " fill="#000000"/><text fill="#000000" font-family="sans-serif" font-size="14" lengthAdjust="spacing" textLength="218.1143" x="208" y="85.9951">ModelUpdate.PersonUpdaterFn</text><text fill="#000000" font-family="sans-serif" font-size="10" lengthAdjust="spacing" textLength="96.2646" x="268.9248" y="98.5791">io.github.ai4ci.abm</text></a></g><g class="link" data-entity-1="ent0002" data-entity-2="ent0003" data-link-type="nested" id="lnk5"><ellipse cx="142.0309" cy="50.4273" fill="#FFFFFF" rx="8" ry="8" style="stroke:#181818;stroke-width:1;"/><line style="stroke:#181818;stroke-width:1;" x1="149.9733" x2="134.0886" y1="49.4687" y2="51.3859"/><line style="stroke:#181818;stroke-width:1;" x1="142.9895" x2="141.0724" y1="58.3697" y2="42.4849"/><path d="M149.9733,49.4687 C161.2444,48.1084 157.4789,48.5629 169.8646,47.0681" fill="none" style="stroke:#181818;stroke-width:1;"/></g><g class="link" data-entity-1="ent0002" data-entity-2="ent0004" data-link-type="nested" id="lnk6"><ellipse cx="142.0309" cy="67.5727" fill="#FFFFFF" rx="8" ry="8" style="stroke:#181818;stroke-width:1;"/><line style="stroke:#181818;stroke-width:1;" x1="149.9733" x2="134.0886" y1="68.5313" y2="66.6141"/><line style="stroke:#181818;stroke-width:1;" x1="141.0724" x2="142.9895" y1="75.5151" y2="59.6303"/><path d="M149.9733,68.5313 C163.9279,70.2154 163.298,70.1394 178.7491,72.0042" fill="none" style="stroke:#181818;stroke-width:1;"/></g><g class="footer" data-source-line="27"><text fill="#888888" font-family="sans-serif" font-size="10" lengthAdjust="spacing" textLength="3.1787" x="216.9106" y="109.2822">&#160;</text><a href="https://github.com/talsma-ict/umldoclet" target="_top" title="https://github.com/talsma-ict/umldoclet" xlink:actuate="onRequest" xlink:href="https://github.com/talsma-ict/umldoclet" xlink:show="new" xlink:title="https://github.com/talsma-ict/umldoclet" xlink:type="simple"><text fill="#888888" font-family="sans-serif" font-size="10" lengthAdjust="spacing" textLength="140.4639" x="148.2681" y="120.9229">UMLDoclet 2.2.5-SNAPSHOT</text></a></g><?plantuml-src hPJVRzCm4CVVzrSSus53B6wITXshfafL-J5GnoRQlj3ruUfS4skEdTdEK47yxpX9Lqet18Zv9V6T_RtFdUq303Y0eIvMHgIP0wV1PSB2z684g198IP51Hmc875Eoi22fLMgRXGHOkamRqCjwnhKnP0kj4g5I-81t25QNXfDbUtjGXvhSgtz1kwM-M5N6rvfBSd0uVB6558THDuZ3k0iJb3P7U3-SiBNQppqnYzbnCFuuk1gVNqx01v62ax9UkrG9cPflK23tdr7ZEO8xCbPevJU7Qy4gPwwLGw4i56YShNAxagXS1Hsn2eH5S3WOZtw534zho2CO68Lb0f_qRRd9-rbXCFNe4bUwT61pSgYmTabQrcLlT19XY3lFrEopFZE5kQyfSXgJ1qBdowsqejgVYOI0yiAjO2b89dRNwWDbsfjhEvTeBUoVMV6LUb6dVw4JajCYyITmhTRMi2yqIuNBoWL3qU62uIBV1tzOZzZPbWBCPbipbhbSpkTrM59b_dXKTbcwXI6yQQRchVf_ZeUQEsGF_7_9UkKlYrPFIRgZkCEvuxsdh37_T1OlW-3Vw_HaoZla3VAPTIj9_Vg_6akjlHU-RGpLE5yLP4P2tGorzFVy-Ql7lTFgHKkXo7SJVgF8t-fmi_9x4wwr5MyTwrhDPfbpXUsrMki4kCvRhcuhWU2kLUOoQVh9xphB-fuSmBjDxwgUVH36GHHFedOlxlOw8OlQf-sJatRd-FFiZUEjwMGu_m40?></g></svg>