<?plantuml 1.2026.1?><svg xmlns="http://www.w3.org/2000/svg" xmlns:xlink="http://www.w3.org/1999/xlink" contentStyleType="text/css" data-diagram-type="CLASS" height="116px" preserveAspectRatio="none" style="width:604px;height:116px;background:#FFFFFF;" version="1.1" viewBox="0 0 604 116" width="604px" zoomAndPan="magnify"><defs/><g><!--class io.github.ai4ci.abm.Calibration.Estimator--><g class="entity" data-qualified-name="io.github.ai4ci.abm.Calibration.Estimator" data-source-line="14" id="ent0002"><a href="Calibration.Estimator.html" target="_top" title="Calibration.Estimator.html" xlink:actuate="onRequest" xlink:href="Calibration.Estimator.html" xlink:show="new" xlink:title="Calibration.Estimator.html" xlink:type="simple"><rect fill="#F1F1F1" height="78.5313" rx="2.5" ry="2.5" style="stroke:#181818;stroke-width:0.5;" width="427.7822" x="170" y="12"/><ellipse cx="305.5566" cy="30.9688" fill="#ADD1B2" rx="11" ry="11" style="stroke:#181818;stroke-width:1;"/><path d="M308.5254,36.6094 Q307.9473,36.9063 307.3066,37.0469 Q306.666,37.2031 305.9629,37.2031 Q303.4629,37.2031 302.1348,35.5625 Q300.8223,33.9063 300.8223,30.7813 Q300.8223,27.6563 302.1348,26 Q303.4629,24.3438 305.9629,24.3438 Q306.666,24.3438 307.3066,24.5 Q307.9629,24.6563 308.5254,24.9531 L308.5254,27.6719 Q307.9004,27.0938 307.3066,26.8281 Q306.7129,26.5469 306.0879,26.5469 Q304.7441,26.5469 304.0566,27.625 Q303.3691,28.6875 303.3691,30.7813 Q303.3691,32.875 304.0566,33.9531 Q304.7441,35.0156 306.0879,35.0156 Q306.7129,35.0156 307.3066,34.75 Q307.9004,34.4688 308.5254,33.8906 L308.5254,36.6094 Z " fill="#000000"/><text fill="#000000" font-family="sans-serif" font-size="14" lengthAdjust="spacing" textLength="148.1689" x="326.0566" y="29.9951">Calibration.Estimator</text><text fill="#000000" font-family="sans-serif" font-size="10" lengthAdjust="spacing" textLength="96.2646" x="352.0088" y="42.5791">io.github.ai4ci.abm</text><line style="stroke:#181818;stroke-width:0.5;" x1="171" x2="596.7822" y1="49.9375" y2="49.9375"/></a><g data-visibility-modifier="PUBLIC_METHOD"><a href="Calibration.Estimator.html" target="_top" title="Calibration.Estimator.html" xlink:actuate="onRequest" xlink:href="Calibration.Estimator.html" xlink:show="new" xlink:title="Calibration.Estimator.html" xlink:type="simple"><ellipse cx="181" cy="63.5859" fill="#84BE84" rx="3" ry="3" style="stroke:#038048;stroke-width:1;"/></a></g><a href="Calibration.Estimator.html" target="_top" title="Calibration.Estimator.html" xlink:actuate="onRequest" xlink:href="Calibration.Estimator.html" xlink:show="new" xlink:title="Calibration.Estimator.html" xlink:type="simple"><text fill="#000000" font-family="sans-serif" font-size="14" lengthAdjust="spacing" textLength="204.6475" x="190" y="66.9326">Estimator(double[], double[])</text></a><g data-visibility-modifier="PUBLIC_METHOD"><a href="Calibration.Estimator.html" target="_top" title="Calibration.Estimator.html" xlink:actuate="onRequest" xlink:href="Calibration.Estimator.html" xlink:show="new" xlink:title="Calibration.Estimator.html" xlink:type="simple"><ellipse cx="181" cy="79.8828" fill="#84BE84" rx="3" ry="3" style="stroke:#038048;stroke-width:1;"/></a></g><a href="Calibration.Estimator.html" target="_top" title="Calibration.Estimator.html" xlink:actuate="onRequest" xlink:href="Calibration.Estimator.html" xlink:show="new" xlink:title="Calibration.Estimator.html" xlink:type="simple"><text fill="#000000" font-family="sans-serif" font-size="14" lengthAdjust="spacing" textLength="401.7822" x="190" y="83.2295">precomputeAverageCoefficients(double[], double[]): void</text></a></g><!--class io.github.ai4ci.abm.Calibration--><g class="entity" data-qualified-name="io.github.ai4ci.abm.Calibration" data-source-line="19" id="ent0003"><a href="Calibration.html" target="_top" title="Calibration.html" xlink:actuate="onRequest" xlink:href="Calibration.html" xlink:show="new" xlink:title="Calibration.html" xlink:type="simple"><rect fill="#F1F1F1" height="37.9375" rx="2.5" ry="2.5" style="stroke:#181818;stroke-width:0.5;" width="128.2646" x="6" y="32.5"/><ellipse cx="21" cy="51.4688" fill="#ADD1B2" rx="11" ry="11" style="stroke:#181818;stroke-width:1;"/><path d="M23.9688,57.1094 Q23.3906,57.4063 22.75,57.5469 Q22.1094,57.7031 21.4063,57.7031 Q18.9063,57.7031 17.5781,56.0625 Q16.2656,54.4063 16.2656,51.2813 Q16.2656,48.1563 17.5781,46.5 Q18.9063,44.8438 21.4063,44.8438 Q22.1094,44.8438 22.75,45 Q23.4063,45.1563 23.9688,45.4531 L23.9688,48.1719 Q23.3438,47.5938 22.75,47.3281 Q22.1563,47.0469 21.5313,47.0469 Q20.1875,47.0469 19.5,48.125 Q18.8125,49.1875 18.8125,51.2813 Q18.8125,53.375 19.5,54.4531 Q20.1875,55.5156 21.5313,55.5156 Q22.1563,55.5156 22.75,55.25 Q23.3438,54.9688 23.9688,54.3906 L23.9688,57.1094 Z " fill="#000000"/><text fill="#000000" font-family="sans-serif" font-size="14" lengthAdjust="spacing" textLength="76.1729" x="45.0459" y="50.4951">Calibration</text><text fill="#000000" font-family="sans-serif" font-size="10" lengthAdjust="spacing" textLength="96.2646" x="35" y="63.0791">io.github.ai4ci.abm</text></a></g><g class="link" data-entity-1="ent0003" data-entity-2="ent0002" data-link-type="nested" id="lnk4"><ellipse cx="142.1379" cy="51.5" fill="#FFFFFF" rx="8" ry="8" style="stroke:#181818;stroke-width:1;"/><line style="stroke:#181818;stroke-width:1;" x1="150.1379" x2="134.1379" y1="51.5" y2="51.5"/><line style="stroke:#181818;stroke-width:1;" x1="142.1379" x2="142.1379" y1="59.5" y2="43.5"/><path d="M150.1379,51.5 C161.1776,51.5 157.193,51.5 169.7857,51.5" fill="none" style="stroke:#181818;stroke-width:1;"/></g><g class="footer" data-source-line="29"><text fill="#888888" font-family="sans-serif" font-size="10" lengthAdjust="spacing" textLength="3.1787" x="296.9106" y="94.2822">&#160;</text><a href="https://github.com/talsma-ict/umldoclet" target="_top" title="https://github.com/talsma-ict/umldoclet" xlink:actuate="onRequest" xlink:href="https://github.com/talsma-ict/umldoclet" xlink:show="new" xlink:title="https://github.com/talsma-ict/umldoclet" xlink:type="simple"><text fill="#888888" font-family="sans-serif" font-size="10" lengthAdjust="spacing" textLength="140.4639" x="228.2681" y="105.9229">UMLDoclet 2.2.5-SNAPSHOT</text></a></g><?plantuml-src fLJ1Jjj04Btp5LDwA0YyiTCaq0WXHIugL6cBcd1fo66pdjWhrhkkTqoLLlnxntO8AKf5fVfYUsRdlJTlF0O0U0EnArQbJZC2Sa2Pzd3pQGpI9f2YnL8I9g1pcQA71HfdKzyUH90LPQu4jspUb2jBz8MpYROfV9Jt4hohIeLUxEr1GpLzHFyX_HRwObK7tpjbaE0WFjoIr0sZGT0DkmEOIkDp2LVnLApHdcgweYlwmUJpw7fo-MKAJ6AqGkiPkx89bes-KI4LtyPjvXZkiVJQMIuEru1rpyfPajfwA6H9lkxjsaXBjUX8r49410UZoVXFaU6xHkGnZ4ehgmI-kk_LfkzNHIbJbcxaobK4FaUILZOfWyl6zXOdqIKgOarjdUVEhCpPKwbmWYn84jjjdSKcd-a40VE2Lh3KQ1B_FCf4cUDm4rT6UW_xPrx_n67KEu-bqGj6P3fnuOadpE2tTfqFpxKJgQQiMWYfUqeBkSZtWSUs8ovsOi5ijZCkCihDV0w_6bdrTRJ97IIkMXYSpO_XyUdmwLZ1zhYyg0X7F3p-8cE7owLM6YtvNQL3k7SwQG0UNdJX_tj_rd7RPylxKkLH4FoxiotacQULmVEDFKldY3_r9rlhwt9LO3dMzYvsXaVo-dHtzgRU4gCjyeQgEuliKRWv-T3ITRRurbotTZRBY0e_x7JMqdb07MfMDT2AEbLkadP7_xQjx52xVHys_uDwbOAm6qHlfz5Ws3yTHdqHXIUdqKclt_isko3LkPd6yzy0?></g></svg>