<?plantuml 1.2026.1?><svg xmlns="http://www.w3.org/2000/svg" xmlns:xlink="http://www.w3.org/1999/xlink" contentStyleType="text/css" data-diagram-type="CLASS" height="299px" preserveAspectRatio="none" style="width:642px;height:299px;background:#FFFFFF;" version="1.1" viewBox="0 0 642 299" width="642px" zoomAndPan="magnify"><defs/><g><!--class io.github.ai4ci.abm.Abstraction--><g class="entity" data-qualified-name="io.github.ai4ci.abm.Abstraction" data-source-line="14" id="ent0002"><a href="Abstraction.html" target="_top" title="Abstraction.html" xlink:actuate="onRequest" xlink:href="Abstraction.html" xlink:show="new" xlink:title="Abstraction.html" xlink:type="simple"><rect fill="#F1F1F1" height="37.9375" rx="2.5" ry="2.5" style="stroke:#181818;stroke-width:0.5;" width="128.2646" x="6" y="124"/><ellipse cx="21" cy="142.9688" fill="#B4A7E5" rx="11" ry="11" style="stroke:#181818;stroke-width:1;"/><path d="M16.9219,138.7344 L16.9219,136.5781 L24.3125,136.5781 L24.3125,138.7344 L21.8438,138.7344 L21.8438,146.8125 L24.3125,146.8125 L24.3125,148.9688 L16.9219,148.9688 L16.9219,146.8125 L19.3906,146.8125 L19.3906,138.7344 L16.9219,138.7344 Z " fill="#000000"/><text fill="#000000" font-family="sans-serif" font-size="14" font-style="italic" lengthAdjust="spacing" textLength="80.0967" x="43.084" y="141.9951">Abstraction</text><text fill="#000000" font-family="sans-serif" font-size="10" font-style="italic" lengthAdjust="spacing" textLength="96.2646" x="35" y="154.5791">io.github.ai4ci.abm</text></a></g><!--class io.github.ai4ci.abm.Abstraction.Entity--><g class="entity" data-qualified-name="io.github.ai4ci.abm.Abstraction.Entity" data-source-line="15" id="ent0003"><a href="Abstraction.Entity.html" target="_top" title="Abstraction.Entity.html" xlink:actuate="onRequest" xlink:href="Abstraction.Entity.html" xlink:show="new" xlink:title="Abstraction.Entity.html" xlink:type="simple"><rect fill="#F1F1F1" height="37.9375" rx="2.5" ry="2.5" style="stroke:#181818;stroke-width:0.5;" width="157.4189" x="322" y="12"/><ellipse cx="337" cy="30.9688" fill="#B4A7E5" rx="11" ry="11" style="stroke:#181818;stroke-width:1;"/><path d="M332.9219,26.7344 L332.9219,24.5781 L340.3125,24.5781 L340.3125,26.7344 L337.8438,26.7344 L337.8438,34.8125 L340.3125,34.8125 L340.3125,36.9688 L332.9219,36.9688 L332.9219,34.8125 L335.3906,34.8125 L335.3906,26.7344 L332.9219,26.7344 Z " fill="#000000"/><text fill="#000000" font-family="sans-serif" font-size="14" font-style="italic" lengthAdjust="spacing" textLength="125.4189" x="351" y="29.9951">Abstraction.Entity</text><text fill="#000000" font-family="sans-serif" font-size="10" font-style="italic" lengthAdjust="spacing" textLength="96.2646" x="365.5771" y="42.5791">io.github.ai4ci.abm</text></a></g><!--class io.github.ai4ci.abm.Abstraction.HistoricalStateProvider--><g class="entity" data-qualified-name="io.github.ai4ci.abm.Abstraction.HistoricalStateProvider" data-source-line="16" id="ent0004"><a href="Abstraction.HistoricalStateProvider.html" target="_top" title="Abstraction.HistoricalStateProvider.html" xlink:actuate="onRequest" xlink:href="Abstraction.HistoricalStateProvider.html" xlink:show="new" xlink:title="Abstraction.HistoricalStateProvider.html" xlink:type="simple"><rect fill="#F1F1F1" height="37.9375" rx="2.5" ry="2.5" style="stroke:#181818;stroke-width:0.5;" width="461.2998" x="170" y="68"/><ellipse cx="185" cy="86.9688" fill="#B4A7E5" rx="11" ry="11" style="stroke:#181818;stroke-width:1;"/><path d="M180.9219,82.7344 L180.9219,80.5781 L188.3125,80.5781 L188.3125,82.7344 L185.8438,82.7344 L185.8438,90.8125 L188.3125,90.8125 L188.3125,92.9688 L180.9219,92.9688 L180.9219,90.8125 L183.3906,90.8125 L183.3906,82.7344 L180.9219,82.7344 Z " fill="#000000"/><text fill="#000000" font-family="sans-serif" font-size="14" font-style="italic" lengthAdjust="spacing" textLength="245.376" x="199" y="85.9951">Abstraction.HistoricalStateProvider</text><text fill="#000000" font-family="sans-serif" font-size="10" font-style="italic" lengthAdjust="spacing" textLength="96.2646" x="273.5557" y="98.5791">io.github.ai4ci.abm</text><rect fill="#FFFFFF" height="15.9688" style="stroke:#181818;stroke-width:1;stroke-dasharray:2,2;" width="181.9238" x="452.376" y="65"/><text fill="#000000" font-family="sans-serif" font-size="12" font-style="italic" lengthAdjust="spacing" textLength="179.9238" x="453.376" y="77.1387">H extends TemporalState&lt;?&gt;</text></a></g><!--class io.github.ai4ci.abm.Abstraction.Named--><g class="entity" data-qualified-name="io.github.ai4ci.abm.Abstraction.Named" data-source-line="17" id="ent0005"><a href="Abstraction.Named.html" target="_top" title="Abstraction.Named.html" xlink:actuate="onRequest" xlink:href="Abstraction.Named.html" xlink:show="new" xlink:title="Abstraction.Named.html" xlink:type="simple"><rect fill="#F1F1F1" height="37.9375" rx="2.5" ry="2.5" style="stroke:#181818;stroke-width:0.5;" width="166.7363" x="317" y="124"/><ellipse cx="332" cy="142.9688" fill="#B4A7E5" rx="11" ry="11" style="stroke:#181818;stroke-width:1;"/><path d="M327.9219,138.7344 L327.9219,136.5781 L335.3125,136.5781 L335.3125,138.7344 L332.8438,138.7344 L332.8438,146.8125 L335.3125,146.8125 L335.3125,148.9688 L327.9219,148.9688 L327.9219,146.8125 L330.3906,146.8125 L330.3906,138.7344 L327.9219,138.7344 Z " fill="#000000"/><text fill="#000000" font-family="sans-serif" font-size="14" font-style="italic" lengthAdjust="spacing" textLength="134.7363" x="346" y="141.9951">Abstraction.Named</text><text fill="#000000" font-family="sans-serif" font-size="10" font-style="italic" lengthAdjust="spacing" textLength="96.2646" x="365.2358" y="154.5791">io.github.ai4ci.abm</text></a></g><!--class io.github.ai4ci.abm.Abstraction.Replica--><g class="entity" data-qualified-name="io.github.ai4ci.abm.Abstraction.Replica" data-source-line="18" id="ent0006"><a href="Abstraction.Replica.html" target="_top" title="Abstraction.Replica.html" xlink:actuate="onRequest" xlink:href="Abstraction.Replica.html" xlink:show="new" xlink:title="Abstraction.Replica.html" xlink:type="simple"><rect fill="#F1F1F1" height="37.9375" rx="2.5" ry="2.5" style="stroke:#181818;stroke-width:0.5;" width="167.8301" x="316.5" y="180"/><ellipse cx="331.5" cy="198.9688" fill="#B4A7E5" rx="11" ry="11" style="stroke:#181818;stroke-width:1;"/><path d="M327.4219,194.7344 L327.4219,192.5781 L334.8125,192.5781 L334.8125,194.7344 L332.3438,194.7344 L332.3438,202.8125 L334.8125,202.8125 L334.8125,204.9688 L327.4219,204.9688 L327.4219,202.8125 L329.8906,202.8125 L329.8906,194.7344 L327.4219,194.7344 Z " fill="#000000"/><text fill="#000000" font-family="sans-serif" font-size="14" font-style="italic" lengthAdjust="spacing" textLength="135.8301" x="345.5" y="197.9951">Abstraction.Replica</text><text fill="#000000" font-family="sans-serif" font-size="10" font-style="italic" lengthAdjust="spacing" textLength="96.2646" x="365.2827" y="210.5791">io.github.ai4ci.abm</text></a></g><!--class io.github.ai4ci.abm.Abstraction.TemporalState--><g class="entity" data-qualified-name="io.github.ai4ci.abm.Abstraction.TemporalState" data-source-line="19" id="ent0007"><a href="Abstraction.TemporalState.html" target="_top" title="Abstraction.TemporalState.html" xlink:actuate="onRequest" xlink:href="Abstraction.TemporalState.html" xlink:show="new" xlink:title="Abstraction.TemporalState.html" xlink:type="simple"><rect fill="#F1F1F1" height="37.9375" rx="2.5" ry="2.5" style="stroke:#181818;stroke-width:0.5;" width="322.375" x="239.5" y="236"/><ellipse cx="254.5" cy="254.9688" fill="#B4A7E5" rx="11" ry="11" style="stroke:#181818;stroke-width:1;"/><path d="M250.4219,250.7344 L250.4219,248.5781 L257.8125,248.5781 L257.8125,250.7344 L255.3438,250.7344 L255.3438,258.8125 L257.8125,258.8125 L257.8125,260.9688 L250.4219,260.9688 L250.4219,258.8125 L252.8906,258.8125 L252.8906,250.7344 L250.4219,250.7344 Z " fill="#000000"/><text fill="#000000" font-family="sans-serif" font-size="14" font-style="italic" lengthAdjust="spacing" textLength="188.084" x="268.5" y="253.9951">Abstraction.TemporalState</text><text fill="#000000" font-family="sans-serif" font-size="10" font-style="italic" lengthAdjust="spacing" textLength="96.2646" x="314.4097" y="266.5791">io.github.ai4ci.abm</text><rect fill="#FFFFFF" height="15.9688" style="stroke:#181818;stroke-width:1;stroke-dasharray:2,2;" width="100.291" x="464.584" y="233"/><text fill="#000000" font-family="sans-serif" font-size="12" font-style="italic" lengthAdjust="spacing" textLength="98.291" x="465.584" y="245.1387">E extends Entity</text></a></g><g class="link" data-entity-1="ent0002" data-entity-2="ent0003" data-link-type="nested" id="lnk8"><ellipse cx="92.4149" cy="118.0625" fill="#FFFFFF" rx="8" ry="8" style="stroke:#181818;stroke-width:1;"/><line style="stroke:#181818;stroke-width:1;" x1="97.7833" x2="87.0464" y1="112.1312" y2="123.9937"/><line style="stroke:#181818;stroke-width:1;" x1="98.3461" x2="86.4836" y1="123.4309" y2="112.694"/><path d="M97.7833,112.1312 C115.7662,92.2633 136.1341,73.8203 170,59 C217.712,38.1204 276.0142,31.2132 321.9153,29.4785" fill="none" style="stroke:#181818;stroke-width:1;"/></g><g class="link" data-entity-1="ent0002" data-entity-2="ent0004" data-link-type="nested" id="lnk9"><ellipse cx="140.4143" cy="121.8698" fill="#FFFFFF" rx="8" ry="8" style="stroke:#181818;stroke-width:1;"/><line style="stroke:#181818;stroke-width:1;" x1="148.1341" x2="132.6946" y1="119.7709" y2="123.9686"/><line style="stroke:#181818;stroke-width:1;" x1="142.5132" x2="138.3155" y1="129.5895" y2="114.15"/><path d="M148.1341,119.7709 C160.4107,116.433 157.8299,117.4482 170,115 C186.5274,111.6752 203.809,108.6878 221.1526,106.0164" fill="none" style="stroke:#181818;stroke-width:1;"/></g><g class="link" data-entity-1="ent0002" data-entity-2="ent0005" data-link-type="nested" id="lnk10"><ellipse cx="142.3381" cy="143" fill="#FFFFFF" rx="8" ry="8" style="stroke:#181818;stroke-width:1;"/><line style="stroke:#181818;stroke-width:1;" x1="150.3381" x2="134.3381" y1="143" y2="143"/><line style="stroke:#181818;stroke-width:1;" x1="142.3381" x2="142.3381" y1="151" y2="135"/><path d="M150.3381,143 C202.2622,143 260.1537,143 316.7514,143" fill="none" style="stroke:#181818;stroke-width:1;"/></g><g class="link" data-entity-1="ent0002" data-entity-2="ent0006" data-link-type="nested" id="lnk11"><ellipse cx="140.4143" cy="164.1302" fill="#FFFFFF" rx="8" ry="8" style="stroke:#181818;stroke-width:1;"/><line style="stroke:#181818;stroke-width:1;" x1="148.1341" x2="132.6946" y1="166.2291" y2="162.0314"/><line style="stroke:#181818;stroke-width:1;" x1="138.3155" x2="142.5132" y1="171.85" y2="156.4105"/><path d="M148.1341,166.2291 C160.4107,169.567 157.8299,168.5518 170,171 C218.1064,180.6774 272.6035,187.4973 316.4172,191.9821" fill="none" style="stroke:#181818;stroke-width:1;"/></g><g class="link" data-entity-1="ent0002" data-entity-2="ent0007" data-link-type="nested" id="lnk12"><ellipse cx="92.4149" cy="167.9375" fill="#FFFFFF" rx="8" ry="8" style="stroke:#181818;stroke-width:1;"/><line style="stroke:#181818;stroke-width:1;" x1="97.7833" x2="87.0464" y1="173.8688" y2="162.0063"/><line style="stroke:#181818;stroke-width:1;" x1="86.4836" x2="98.3461" y1="173.306" y2="162.5691"/><path d="M97.7833,173.8688 C115.7662,193.7367 136.1341,212.1797 170,227 C191.6956,236.4944 215.581,243.0997 239.4944,247.6433" fill="none" style="stroke:#181818;stroke-width:1;"/></g><g class="footer" data-source-line="33"><text fill="#888888" font-family="sans-serif" font-size="10" lengthAdjust="spacing" textLength="3.1787" x="313.4106" y="277.2822">&#160;</text><a href="https://github.com/talsma-ict/umldoclet" target="_top" title="https://github.com/talsma-ict/umldoclet" xlink:actuate="onRequest" xlink:href="https://github.com/talsma-ict/umldoclet" xlink:show="new" xlink:title="https://github.com/talsma-ict/umldoclet" xlink:type="simple"><text fill="#888888" font-family="sans-serif" font-size="10" lengthAdjust="spacing" textLength="140.4639" x="244.7681" y="288.9229">UMLDoclet 2.2.5-SNAPSHOT</text></a></g><?plantuml-src hPNVRzem4CVV-rVSkeTsMXD2HYkA41DYrUZ4kggaBwDzCCv1h3fsPZlTicd_-nmdPO2ALhJa1NAsl_Uv7yu101p1I6Q5Oil4W95W4gRXzlC4Y8XXYG8LCHW3IyaIDSoHIx7KrKO4afj4Af0BzqQbKgWpAM8cbl29F1BGCbSKjNzm0CvLzAJ-dUWrzNbH6Zz8oj70yUZD6b8OjC-yC0ZF829SfmGkHv5Vg_qz4_gXV-fDhuRNq_6N2AmJpYWARRLp4QDoVCECKFipgLPEu16LPbBOmq4jMCPCfJ242GqPKKQNiLrp8am9tVPB4ByDnyFfP1CoE7UG9p1KWkGntCXl-IhkLvaYIulEII5p0pf5GmHnInmNBksLJimKKcEPgdFQHYP8QdDAA4xH0X5ZqosaGBUUi1W1qymKi638OxrjjOuIQStEpeH1jR1ASDZNx2Vssft1SAwD8ixbdQYjmO19VybCaizzmZgK-MIU7e8js3DsVqq1PhErDpynAR-_Vubh_q8OPeh_9wY5ja0gupuyOwPjeXabV6fiWruh-MYJgXe0tA7S7mF-C2XY3P4jdLJrUl_zOB0LpGw5VSAxiZqLDn2Cqzd2SxPzO6umitULD81JAsq1rTPza3PAq03OPaalLgMk6dExm1kxdx0hxd_SlxUUzy8RqfZSZcviJD-rKsDgTIyqfhTHggf6VMqAZWFtltmMKjfcWryhG_cCYmpLX8c7aUJsW_ww-_pgRJcwE1DenoPz4AWr1AkTlojthJL_jQyxCPibncIwrshL-5IcBUFcfyUeQUKfZwl1kMk4rZVb23wkXdGvtxmWzDfX57HxdQ3NEVV3phjkz_Gqw7oTNHZQker6zty0?></g></svg>