<?plantuml 1.2026.1?><svg xmlns="http://www.w3.org/2000/svg" xmlns:xlink="http://www.w3.org/1999/xlink" contentStyleType="text/css" data-diagram-type="CLASS" height="915px" preserveAspectRatio="none" style="width:454px;height:915px;background:#FFFFFF;" version="1.1" viewBox="0 0 454 915" width="454px" zoomAndPan="magnify"><defs/><g><!--class io.github.ai4ci.config.refdata.UKCensus--><g class="entity" data-qualified-name="io.github.ai4ci.config.refdata.UKCensus" data-source-line="14" id="ent0002"><a href="UKCensus.html" target="_top" title="UKCensus.html" xlink:actuate="onRequest" xlink:href="UKCensus.html" xlink:show="new" xlink:title="UKCensus.html" xlink:type="simple"><rect fill="#F1F1F1" height="86.5313" rx="2.5" ry="2.5" style="stroke:#181818;stroke-width:0.5;" width="176.1357" x="6" y="407.5"/><ellipse cx="21" cy="426.4688" fill="#ADD1B2" rx="11" ry="11" style="stroke:#181818;stroke-width:1;"/><path d="M23.9688,432.1094 Q23.3906,432.4063 22.75,432.5469 Q22.1094,432.7031 21.4063,432.7031 Q18.9063,432.7031 17.5781,431.0625 Q16.2656,429.4063 16.2656,426.2813 Q16.2656,423.1563 17.5781,421.5 Q18.9063,419.8438 21.4063,419.8438 Q22.1094,419.8438 22.75,420 Q23.4063,420.1563 23.9688,420.4531 L23.9688,423.1719 Q23.3438,422.5938 22.75,422.3281 Q22.1563,422.0469 21.5313,422.0469 Q20.1875,422.0469 19.5,423.125 Q18.8125,424.1875 18.8125,426.2813 Q18.8125,428.375 19.5,429.4531 Q20.1875,430.5156 21.5313,430.5156 Q22.1563,430.5156 22.75,430.25 Q23.3438,429.9688 23.9688,429.3906 L23.9688,432.1094 Z " fill="#000000"/><text fill="#000000" font-family="sans-serif" font-size="14" lengthAdjust="spacing" textLength="70.1504" x="71.9927" y="425.4951">UKCensus</text><text fill="#000000" font-family="sans-serif" font-size="10" lengthAdjust="spacing" textLength="144.1357" x="35" y="438.0791">io.github.ai4ci.config.refdata</text><line style="stroke:#181818;stroke-width:0.5;" x1="7" x2="181.1357" y1="445.4375" y2="445.4375"/></a><g data-visibility-modifier="PUBLIC_FIELD"><a href="UKCensus.html" target="_top" title="UKCensus.html" xlink:actuate="onRequest" xlink:href="UKCensus.html" xlink:show="new" xlink:title="UKCensus.html" xlink:type="simple"><ellipse cx="17" cy="459.0859" fill="none" rx="3" ry="3" style="stroke:#038048;stroke-width:1;"/></a></g><a href="UKCensus.html" target="_top" title="UKCensus.html" xlink:actuate="onRequest" xlink:href="UKCensus.html" xlink:show="new" xlink:title="UKCensus.html" xlink:type="simple"><text fill="#000000" font-family="sans-serif" font-size="14" lengthAdjust="spacing" text-decoration="underline" textLength="131.0928" x="26" y="462.4326">TYPES: Class&lt;?&gt;[]</text><line style="stroke:#181818;stroke-width:0.5;" x1="7" x2="181.1357" y1="469.7344" y2="469.7344"/></a><g data-visibility-modifier="PUBLIC_METHOD"><a href="UKCensus.html" target="_top" title="UKCensus.html" xlink:actuate="onRequest" xlink:href="UKCensus.html" xlink:show="new" xlink:title="UKCensus.html" xlink:type="simple"><ellipse cx="17" cy="483.3828" fill="#84BE84" rx="3" ry="3" style="stroke:#038048;stroke-width:1;"/></a></g><a href="UKCensus.html" target="_top" title="UKCensus.html" xlink:actuate="onRequest" xlink:href="UKCensus.html" xlink:show="new" xlink:title="UKCensus.html" xlink:type="simple"><text fill="#000000" font-family="sans-serif" font-size="14" lengthAdjust="spacing" text-decoration="underline" textLength="125.084" x="26" y="486.7295">load(): Repository</text></a></g><!--class io.github.ai4ci.config.refdata.UKCensus.AgeGender--><g class="entity" data-qualified-name="io.github.ai4ci.config.refdata.UKCensus.AgeGender" data-source-line="18" id="ent0003"><a href="UKCensus.AgeGender.html" target="_top" title="UKCensus.AgeGender.html" xlink:actuate="onRequest" xlink:href="UKCensus.AgeGender.html" xlink:show="new" xlink:title="UKCensus.AgeGender.html" xlink:type="simple"><rect fill="#F1F1F1" height="37.9375" rx="2.5" ry="2.5" style="stroke:#181818;stroke-width:0.5;" width="185.2686" x="240.5" y="12"/><ellipse cx="255.5" cy="30.9688" fill="#B4A7E5" rx="11" ry="11" style="stroke:#181818;stroke-width:1;"/><path d="M251.4219,26.7344 L251.4219,24.5781 L258.8125,24.5781 L258.8125,26.7344 L256.3438,26.7344 L256.3438,34.8125 L258.8125,34.8125 L258.8125,36.9688 L251.4219,36.9688 L251.4219,34.8125 L253.8906,34.8125 L253.8906,26.7344 L251.4219,26.7344 Z " fill="#000000"/><text fill="#000000" font-family="sans-serif" font-size="14" font-style="italic" lengthAdjust="spacing" textLength="153.2686" x="269.5" y="29.9951">UKCensus.AgeGender</text><text fill="#000000" font-family="sans-serif" font-size="10" font-style="italic" lengthAdjust="spacing" textLength="144.1357" x="274.0664" y="42.5791">io.github.ai4ci.config.refdata</text></a></g><!--class io.github.ai4ci.config.refdata.UKCensus.Commuting--><g class="entity" data-qualified-name="io.github.ai4ci.config.refdata.UKCensus.Commuting" data-source-line="19" id="ent0004"><a href="UKCensus.Commuting.html" target="_top" title="UKCensus.Commuting.html" xlink:actuate="onRequest" xlink:href="UKCensus.Commuting.html" xlink:show="new" xlink:title="UKCensus.Commuting.html" xlink:type="simple"><rect fill="#F1F1F1" height="37.9375" rx="2.5" ry="2.5" style="stroke:#181818;stroke-width:0.5;" width="188.2285" x="239" y="68"/><ellipse cx="254" cy="86.9688" fill="#B4A7E5" rx="11" ry="11" style="stroke:#181818;stroke-width:1;"/><path d="M249.9219,82.7344 L249.9219,80.5781 L257.3125,80.5781 L257.3125,82.7344 L254.8438,82.7344 L254.8438,90.8125 L257.3125,90.8125 L257.3125,92.9688 L249.9219,92.9688 L249.9219,90.8125 L252.3906,90.8125 L252.3906,82.7344 L249.9219,82.7344 Z " fill="#000000"/><text fill="#000000" font-family="sans-serif" font-size="14" font-style="italic" lengthAdjust="spacing" textLength="156.2285" x="268" y="85.9951">UKCensus.Commuting</text><text fill="#000000" font-family="sans-serif" font-size="10" font-style="italic" lengthAdjust="spacing" textLength="144.1357" x="274.0464" y="98.5791">io.github.ai4ci.config.refdata</text></a></g><!--class io.github.ai4ci.config.refdata.UKCensus.CommutingType--><g class="entity" data-qualified-name="io.github.ai4ci.config.refdata.UKCensus.CommutingType" data-source-line="20" id="ent0005"><a href="UKCensus.CommutingType.html" target="_top" title="UKCensus.CommutingType.html" xlink:actuate="onRequest" xlink:href="UKCensus.CommutingType.html" xlink:show="new" xlink:title="UKCensus.CommutingType.html" xlink:type="simple"><rect fill="#F1F1F1" height="37.9375" rx="2.5" ry="2.5" style="stroke:#181818;stroke-width:0.5;" width="222.5654" x="221.5" y="124"/><ellipse cx="236.5" cy="142.9688" fill="#EB937F" rx="11" ry="11" style="stroke:#181818;stroke-width:1;"/><path d="M240.6094,148.9688 L232.8906,148.9688 L232.8906,136.5781 L240.6094,136.5781 L240.6094,138.7344 L235.3438,138.7344 L235.3438,141.4063 L240.1094,141.4063 L240.1094,143.5625 L235.3438,143.5625 L235.3438,146.8125 L240.6094,146.8125 L240.6094,148.9688 Z " fill="#000000"/><text fill="#000000" font-family="sans-serif" font-size="14" lengthAdjust="spacing" textLength="190.5654" x="250.5" y="141.9951">UKCensus.CommutingType</text><text fill="#000000" font-family="sans-serif" font-size="10" lengthAdjust="spacing" textLength="144.1357" x="273.7148" y="154.5791">io.github.ai4ci.config.refdata</text></a></g><!--class io.github.ai4ci.config.refdata.UKCensus.Distances--><g class="entity" data-qualified-name="io.github.ai4ci.config.refdata.UKCensus.Distances" data-source-line="21" id="ent0006"><a href="UKCensus.Distances.html" target="_top" title="UKCensus.Distances.html" xlink:actuate="onRequest" xlink:href="UKCensus.Distances.html" xlink:show="new" xlink:title="UKCensus.Distances.html" xlink:type="simple"><rect fill="#F1F1F1" height="37.9375" rx="2.5" ry="2.5" style="stroke:#181818;stroke-width:0.5;" width="176.1357" x="245" y="180"/><ellipse cx="260" cy="198.9688" fill="#B4A7E5" rx="11" ry="11" style="stroke:#181818;stroke-width:1;"/><path d="M255.9219,194.7344 L255.9219,192.5781 L263.3125,192.5781 L263.3125,194.7344 L260.8438,194.7344 L260.8438,202.8125 L263.3125,202.8125 L263.3125,204.9688 L255.9219,204.9688 L255.9219,202.8125 L258.3906,202.8125 L258.3906,194.7344 L255.9219,194.7344 Z " fill="#000000"/><text fill="#000000" font-family="sans-serif" font-size="14" font-style="italic" lengthAdjust="spacing" textLength="143.1104" x="274.5127" y="197.9951">UKCensus.Distances</text><text fill="#000000" font-family="sans-serif" font-size="10" font-style="italic" lengthAdjust="spacing" textLength="144.1357" x="274" y="210.5791">io.github.ai4ci.config.refdata</text></a></g><!--class io.github.ai4ci.config.refdata.UKCensus.Employment--><g class="entity" data-qualified-name="io.github.ai4ci.config.refdata.UKCensus.Employment" data-source-line="22" id="ent0007"><a href="UKCensus.Employment.html" target="_top" title="UKCensus.Employment.html" xlink:actuate="onRequest" xlink:href="UKCensus.Employment.html" xlink:show="new" xlink:title="UKCensus.Employment.html" xlink:type="simple"><rect fill="#F1F1F1" height="37.9375" rx="2.5" ry="2.5" style="stroke:#181818;stroke-width:0.5;" width="195.3242" x="235.5" y="236"/><ellipse cx="250.5" cy="254.9688" fill="#EB937F" rx="11" ry="11" style="stroke:#181818;stroke-width:1;"/><path d="M254.6094,260.9688 L246.8906,260.9688 L246.8906,248.5781 L254.6094,248.5781 L254.6094,250.7344 L249.3438,250.7344 L249.3438,253.4063 L254.1094,253.4063 L254.1094,255.5625 L249.3438,255.5625 L249.3438,258.8125 L254.6094,258.8125 L254.6094,260.9688 Z " fill="#000000"/><text fill="#000000" font-family="sans-serif" font-size="14" lengthAdjust="spacing" textLength="163.3242" x="264.5" y="253.9951">UKCensus.Employment</text><text fill="#000000" font-family="sans-serif" font-size="10" lengthAdjust="spacing" textLength="144.1357" x="274.0942" y="266.5791">io.github.ai4ci.config.refdata</text></a></g><!--class io.github.ai4ci.config.refdata.UKCensus.EmploymentType--><g class="entity" data-qualified-name="io.github.ai4ci.config.refdata.UKCensus.EmploymentType" data-source-line="23" id="ent0008"><a href="UKCensus.EmploymentType.html" target="_top" title="UKCensus.EmploymentType.html" xlink:actuate="onRequest" xlink:href="UKCensus.EmploymentType.html" xlink:show="new" xlink:title="UKCensus.EmploymentType.html" xlink:type="simple"><rect fill="#F1F1F1" height="37.9375" rx="2.5" ry="2.5" style="stroke:#181818;stroke-width:0.5;" width="229.6611" x="218" y="292"/><ellipse cx="233" cy="310.9688" fill="#EB937F" rx="11" ry="11" style="stroke:#181818;stroke-width:1;"/><path d="M237.1094,316.9688 L229.3906,316.9688 L229.3906,304.5781 L237.1094,304.5781 L237.1094,306.7344 L231.8438,306.7344 L231.8438,309.4063 L236.6094,309.4063 L236.6094,311.5625 L231.8438,311.5625 L231.8438,314.8125 L237.1094,314.8125 L237.1094,316.9688 Z " fill="#000000"/><text fill="#000000" font-family="sans-serif" font-size="14" lengthAdjust="spacing" textLength="197.6611" x="247" y="309.9951">UKCensus.EmploymentType</text><text fill="#000000" font-family="sans-serif" font-size="10" lengthAdjust="spacing" textLength="144.1357" x="273.7627" y="322.5791">io.github.ai4ci.config.refdata</text></a></g><!--class io.github.ai4ci.config.refdata.UKCensus.Ethnicity--><g class="entity" data-qualified-name="io.github.ai4ci.config.refdata.UKCensus.Ethnicity" data-source-line="24" id="ent0009"><a href="UKCensus.Ethnicity.html" target="_top" title="UKCensus.Ethnicity.html" xlink:actuate="onRequest" xlink:href="UKCensus.Ethnicity.html" xlink:show="new" xlink:title="UKCensus.Ethnicity.html" xlink:type="simple"><rect fill="#F1F1F1" height="37.9375" rx="2.5" ry="2.5" style="stroke:#181818;stroke-width:0.5;" width="176.1357" x="245" y="348"/><ellipse cx="260" cy="366.9688" fill="#B4A7E5" rx="11" ry="11" style="stroke:#181818;stroke-width:1;"/><path d="M255.9219,362.7344 L255.9219,360.5781 L263.3125,360.5781 L263.3125,362.7344 L260.8438,362.7344 L260.8438,370.8125 L263.3125,370.8125 L263.3125,372.9688 L255.9219,372.9688 L255.9219,370.8125 L258.3906,370.8125 L258.3906,362.7344 L255.9219,362.7344 Z " fill="#000000"/><text fill="#000000" font-family="sans-serif" font-size="14" font-style="italic" lengthAdjust="spacing" textLength="135.9326" x="278.1016" y="365.9951">UKCensus.Ethnicity</text><text fill="#000000" font-family="sans-serif" font-size="10" font-style="italic" lengthAdjust="spacing" textLength="144.1357" x="274" y="378.5791">io.github.ai4ci.config.refdata</text></a></g><!--class io.github.ai4ci.config.refdata.UKCensus.FullTime--><g class="entity" data-qualified-name="io.github.ai4ci.config.refdata.UKCensus.FullTime" data-source-line="25" id="ent0010"><a href="UKCensus.FullTime.html" target="_top" title="UKCensus.FullTime.html" xlink:actuate="onRequest" xlink:href="UKCensus.FullTime.html" xlink:show="new" xlink:title="UKCensus.FullTime.html" xlink:type="simple"><rect fill="#F1F1F1" height="37.9375" rx="2.5" ry="2.5" style="stroke:#181818;stroke-width:0.5;" width="176.1357" x="245" y="404"/><ellipse cx="260" cy="422.9688" fill="#EB937F" rx="11" ry="11" style="stroke:#181818;stroke-width:1;"/><path d="M264.1094,428.9688 L256.3906,428.9688 L256.3906,416.5781 L264.1094,416.5781 L264.1094,418.7344 L258.8438,418.7344 L258.8438,421.4063 L263.6094,421.4063 L263.6094,423.5625 L258.8438,423.5625 L258.8438,426.8125 L264.1094,426.8125 L264.1094,428.9688 Z " fill="#000000"/><text fill="#000000" font-family="sans-serif" font-size="14" lengthAdjust="spacing" textLength="133.998" x="279.0688" y="421.9951">UKCensus.FullTime</text><text fill="#000000" font-family="sans-serif" font-size="10" lengthAdjust="spacing" textLength="144.1357" x="274" y="434.5791">io.github.ai4ci.config.refdata</text></a></g><!--class io.github.ai4ci.config.refdata.UKCensus.Gender--><g class="entity" data-qualified-name="io.github.ai4ci.config.refdata.UKCensus.Gender" data-source-line="26" id="ent0011"><a href="UKCensus.Gender.html" target="_top" title="UKCensus.Gender.html" xlink:actuate="onRequest" xlink:href="UKCensus.Gender.html" xlink:show="new" xlink:title="UKCensus.Gender.html" xlink:type="simple"><rect fill="#F1F1F1" height="37.9375" rx="2.5" ry="2.5" style="stroke:#181818;stroke-width:0.5;" width="176.1357" x="245" y="460"/><ellipse cx="260" cy="478.9688" fill="#EB937F" rx="11" ry="11" style="stroke:#181818;stroke-width:1;"/><path d="M264.1094,484.9688 L256.3906,484.9688 L256.3906,472.5781 L264.1094,472.5781 L264.1094,474.7344 L258.8438,474.7344 L258.8438,477.4063 L263.6094,477.4063 L263.6094,479.5625 L258.8438,479.5625 L258.8438,482.8125 L264.1094,482.8125 L264.1094,484.9688 Z " fill="#000000"/><text fill="#000000" font-family="sans-serif" font-size="14" lengthAdjust="spacing" textLength="126.1914" x="282.9722" y="477.9951">UKCensus.Gender</text><text fill="#000000" font-family="sans-serif" font-size="10" lengthAdjust="spacing" textLength="144.1357" x="274" y="490.5791">io.github.ai4ci.config.refdata</text></a></g><!--class io.github.ai4ci.config.refdata.UKCensus.Geography--><g class="entity" data-qualified-name="io.github.ai4ci.config.refdata.UKCensus.Geography" data-source-line="27" id="ent0012"><a href="UKCensus.Geography.html" target="_top" title="UKCensus.Geography.html" xlink:actuate="onRequest" xlink:href="UKCensus.Geography.html" xlink:show="new" xlink:title="UKCensus.Geography.html" xlink:type="simple"><rect fill="#F1F1F1" height="37.9375" rx="2.5" ry="2.5" style="stroke:#181818;stroke-width:0.5;" width="183.8945" x="241" y="516"/><ellipse cx="256" cy="534.9688" fill="#B4A7E5" rx="11" ry="11" style="stroke:#181818;stroke-width:1;"/><path d="M251.9219,530.7344 L251.9219,528.5781 L259.3125,528.5781 L259.3125,530.7344 L256.8438,530.7344 L256.8438,538.8125 L259.3125,538.8125 L259.3125,540.9688 L251.9219,540.9688 L251.9219,538.8125 L254.3906,538.8125 L254.3906,530.7344 L251.9219,530.7344 Z " fill="#000000"/><text fill="#000000" font-family="sans-serif" font-size="14" font-style="italic" lengthAdjust="spacing" textLength="151.8945" x="270" y="533.9951">UKCensus.Geography</text><text fill="#000000" font-family="sans-serif" font-size="10" font-style="italic" lengthAdjust="spacing" textLength="144.1357" x="273.8794" y="546.5791">io.github.ai4ci.config.refdata</text></a></g><!--class io.github.ai4ci.config.refdata.UKCensus.Group--><g class="entity" data-qualified-name="io.github.ai4ci.config.refdata.UKCensus.Group" data-source-line="28" id="ent0013"><a href="UKCensus.Group.html" target="_top" title="UKCensus.Group.html" xlink:actuate="onRequest" xlink:href="UKCensus.Group.html" xlink:show="new" xlink:title="UKCensus.Group.html" xlink:type="simple"><rect fill="#F1F1F1" height="37.9375" rx="2.5" ry="2.5" style="stroke:#181818;stroke-width:0.5;" width="176.1357" x="245" y="572"/><ellipse cx="260" cy="590.9688" fill="#EB937F" rx="11" ry="11" style="stroke:#181818;stroke-width:1;"/><path d="M264.1094,596.9688 L256.3906,596.9688 L256.3906,584.5781 L264.1094,584.5781 L264.1094,586.7344 L258.8438,586.7344 L258.8438,589.4063 L263.6094,589.4063 L263.6094,591.5625 L258.8438,591.5625 L258.8438,594.8125 L264.1094,594.8125 L264.1094,596.9688 Z " fill="#000000"/><text fill="#000000" font-family="sans-serif" font-size="14" lengthAdjust="spacing" textLength="117.5303" x="287.3027" y="589.9951">UKCensus.Group</text><text fill="#000000" font-family="sans-serif" font-size="10" lengthAdjust="spacing" textLength="144.1357" x="274" y="602.5791">io.github.ai4ci.config.refdata</text></a></g><!--class io.github.ai4ci.config.refdata.UKCensus.Industry--><g class="entity" data-qualified-name="io.github.ai4ci.config.refdata.UKCensus.Industry" data-source-line="29" id="ent0014"><a href="UKCensus.Industry.html" target="_top" title="UKCensus.Industry.html" xlink:actuate="onRequest" xlink:href="UKCensus.Industry.html" xlink:show="new" xlink:title="UKCensus.Industry.html" xlink:type="simple"><rect fill="#F1F1F1" height="37.9375" rx="2.5" ry="2.5" style="stroke:#181818;stroke-width:0.5;" width="176.1357" x="245" y="628"/><ellipse cx="260" cy="646.9688" fill="#B4A7E5" rx="11" ry="11" style="stroke:#181818;stroke-width:1;"/><path d="M255.9219,642.7344 L255.9219,640.5781 L263.3125,640.5781 L263.3125,642.7344 L260.8438,642.7344 L260.8438,650.8125 L263.3125,650.8125 L263.3125,652.9688 L255.9219,652.9688 L255.9219,650.8125 L258.3906,650.8125 L258.3906,642.7344 L255.9219,642.7344 Z " fill="#000000"/><text fill="#000000" font-family="sans-serif" font-size="14" font-style="italic" lengthAdjust="spacing" textLength="132.1865" x="279.9746" y="645.9951">UKCensus.Industry</text><text fill="#000000" font-family="sans-serif" font-size="10" font-style="italic" lengthAdjust="spacing" textLength="144.1357" x="274" y="658.5791">io.github.ai4ci.config.refdata</text></a></g><!--class io.github.ai4ci.config.refdata.UKCensus.IndustryName--><g class="entity" data-qualified-name="io.github.ai4ci.config.refdata.UKCensus.IndustryName" data-source-line="30" id="ent0015"><a href="UKCensus.IndustryName.html" target="_top" title="UKCensus.IndustryName.html" xlink:actuate="onRequest" xlink:href="UKCensus.IndustryName.html" xlink:show="new" xlink:title="UKCensus.IndustryName.html" xlink:type="simple"><rect fill="#F1F1F1" height="37.9375" rx="2.5" ry="2.5" style="stroke:#181818;stroke-width:0.5;" width="205.4893" x="230.5" y="684"/><ellipse cx="245.5" cy="702.9688" fill="#EB937F" rx="11" ry="11" style="stroke:#181818;stroke-width:1;"/><path d="M249.6094,708.9688 L241.8906,708.9688 L241.8906,696.5781 L249.6094,696.5781 L249.6094,698.7344 L244.3438,698.7344 L244.3438,701.4063 L249.1094,701.4063 L249.1094,703.5625 L244.3438,703.5625 L244.3438,706.8125 L249.6094,706.8125 L249.6094,708.9688 Z " fill="#000000"/><text fill="#000000" font-family="sans-serif" font-size="14" lengthAdjust="spacing" textLength="173.4893" x="259.5" y="701.9951">UKCensus.IndustryName</text><text fill="#000000" font-family="sans-serif" font-size="10" lengthAdjust="spacing" textLength="144.1357" x="274.1768" y="714.5791">io.github.ai4ci.config.refdata</text></a></g><!--class io.github.ai4ci.config.refdata.UKCensus.Student--><g class="entity" data-qualified-name="io.github.ai4ci.config.refdata.UKCensus.Student" data-source-line="31" id="ent0016"><a href="UKCensus.Student.html" target="_top" title="UKCensus.Student.html" xlink:actuate="onRequest" xlink:href="UKCensus.Student.html" xlink:show="new" xlink:title="UKCensus.Student.html" xlink:type="simple"><rect fill="#F1F1F1" height="37.9375" rx="2.5" ry="2.5" style="stroke:#181818;stroke-width:0.5;" width="176.1357" x="245" y="740"/><ellipse cx="260" cy="758.9688" fill="#EB937F" rx="11" ry="11" style="stroke:#181818;stroke-width:1;"/><path d="M264.1094,764.9688 L256.3906,764.9688 L256.3906,752.5781 L264.1094,752.5781 L264.1094,754.7344 L258.8438,754.7344 L258.8438,757.4063 L263.6094,757.4063 L263.6094,759.5625 L258.8438,759.5625 L258.8438,762.8125 L264.1094,762.8125 L264.1094,764.9688 Z " fill="#000000"/><text fill="#000000" font-family="sans-serif" font-size="14" lengthAdjust="spacing" textLength="129.7119" x="281.2119" y="757.9951">UKCensus.Student</text><text fill="#000000" font-family="sans-serif" font-size="10" lengthAdjust="spacing" textLength="144.1357" x="274" y="770.5791">io.github.ai4ci.config.refdata</text></a></g><!--class io.github.ai4ci.config.refdata.UKCensus.Subgroup--><g class="entity" data-qualified-name="io.github.ai4ci.config.refdata.UKCensus.Subgroup" data-source-line="32" id="ent0017"><a href="UKCensus.Subgroup.html" target="_top" title="UKCensus.Subgroup.html" xlink:actuate="onRequest" xlink:href="UKCensus.Subgroup.html" xlink:show="new" xlink:title="UKCensus.Subgroup.html" xlink:type="simple"><rect fill="#F1F1F1" height="37.9375" rx="2.5" ry="2.5" style="stroke:#181818;stroke-width:0.5;" width="176.1357" x="245" y="796"/><ellipse cx="260" cy="814.9688" fill="#EB937F" rx="11" ry="11" style="stroke:#181818;stroke-width:1;"/><path d="M264.1094,820.9688 L256.3906,820.9688 L256.3906,808.5781 L264.1094,808.5781 L264.1094,810.7344 L258.8438,810.7344 L258.8438,813.4063 L263.6094,813.4063 L263.6094,815.5625 L258.8438,815.5625 L258.8438,818.8125 L264.1094,818.8125 L264.1094,820.9688 Z " fill="#000000"/><text fill="#000000" font-family="sans-serif" font-size="14" lengthAdjust="spacing" textLength="142.2148" x="274.9604" y="813.9951">UKCensus.Subgroup</text><text fill="#000000" font-family="sans-serif" font-size="10" lengthAdjust="spacing" textLength="144.1357" x="274" y="826.5791">io.github.ai4ci.config.refdata</text></a></g><!--class io.github.ai4ci.config.refdata.UKCensus.Unemployment--><g class="entity" data-qualified-name="io.github.ai4ci.config.refdata.UKCensus.Unemployment" data-source-line="33" id="ent0018"><a href="UKCensus.Unemployment.html" target="_top" title="UKCensus.Unemployment.html" xlink:actuate="onRequest" xlink:href="UKCensus.Unemployment.html" xlink:show="new" xlink:title="UKCensus.Unemployment.html" xlink:type="simple"><rect fill="#F1F1F1" height="37.9375" rx="2.5" ry="2.5" style="stroke:#181818;stroke-width:0.5;" width="214.2119" x="226" y="852"/><ellipse cx="241" cy="870.9688" fill="#B4A7E5" rx="11" ry="11" style="stroke:#181818;stroke-width:1;"/><path d="M236.9219,866.7344 L236.9219,864.5781 L244.3125,864.5781 L244.3125,866.7344 L241.8438,866.7344 L241.8438,874.8125 L244.3125,874.8125 L244.3125,876.9688 L236.9219,876.9688 L236.9219,874.8125 L239.3906,874.8125 L239.3906,866.7344 L236.9219,866.7344 Z " fill="#000000"/><text fill="#000000" font-family="sans-serif" font-size="14" font-style="italic" lengthAdjust="spacing" textLength="182.2119" x="255" y="869.9951">UKCensus.Unemployment</text><text fill="#000000" font-family="sans-serif" font-size="10" font-style="italic" lengthAdjust="spacing" textLength="144.1357" x="274.0381" y="882.5791">io.github.ai4ci.config.refdata</text></a></g><g class="link" data-entity-1="ent0002" data-entity-2="ent0003" data-link-type="nested" id="lnk19"><ellipse cx="95.832" cy="399.3312" fill="#FFFFFF" rx="8" ry="8" style="stroke:#181818;stroke-width:1;"/><line style="stroke:#181818;stroke-width:1;" x1="96.1668" x2="95.4972" y1="391.3382" y2="407.3242"/><line style="stroke:#181818;stroke-width:1;" x1="103.825" x2="87.839" y1="399.666" y2="398.9964"/><path d="M96.1668,391.3382 C99.5581,310.3785 118.1519,152.729 218,59 C224.5379,52.8628 232.1961,48.0081 240.3963,44.1763" fill="none" style="stroke:#181818;stroke-width:1;"/></g><g class="link" data-entity-1="ent0002" data-entity-2="ent0004" data-link-type="nested" id="lnk20"><ellipse cx="99.0398" cy="399.2875" fill="#FFFFFF" rx="8" ry="8" style="stroke:#181818;stroke-width:1;"/><line style="stroke:#181818;stroke-width:1;" x1="99.8877" x2="98.192" y1="391.3326" y2="407.2425"/><line style="stroke:#181818;stroke-width:1;" x1="106.9948" x2="91.0849" y1="400.1354" y2="398.4397"/><path d="M99.8877,391.3326 C107.5559,319.3828 131.6979,192.2894 218,115 C224.1486,109.4935 231.2049,105.0285 238.7279,101.4133" fill="none" style="stroke:#181818;stroke-width:1;"/></g><g class="link" data-entity-1="ent0002" data-entity-2="ent0005" data-link-type="nested" id="lnk21"><ellipse cx="103.3691" cy="399.5062" fill="#FFFFFF" rx="8" ry="8" style="stroke:#181818;stroke-width:1;"/><line style="stroke:#181818;stroke-width:1;" x1="104.8979" x2="101.8403" y1="391.6537" y2="407.3588"/><line style="stroke:#181818;stroke-width:1;" x1="111.2216" x2="95.5165" y1="401.035" y2="397.9774"/><path d="M104.8979,391.6537 C116.979,329.5996 145.0373,232.3145 218,171 C221.9786,167.6566 226.2957,164.7014 230.8443,162.0903" fill="none" style="stroke:#181818;stroke-width:1;"/></g><g class="link" data-entity-1="ent0002" data-entity-2="ent0006" data-link-type="nested" id="lnk22"><ellipse cx="109.6746" cy="399.6347" fill="#FFFFFF" rx="8" ry="8" style="stroke:#181818;stroke-width:1;"/><line style="stroke:#181818;stroke-width:1;" x1="112.1409" x2="107.2083" y1="392.0243" y2="407.245"/><line style="stroke:#181818;stroke-width:1;" x1="117.285" x2="102.0643" y1="402.101" y2="397.1684"/><path d="M112.1409,392.0243 C128.7009,340.9249 158.3507,272.7937 218,227 C226.0019,220.8568 235.1715,216.0425 244.7581,212.2727" fill="none" style="stroke:#181818;stroke-width:1;"/></g><g class="link" data-entity-1="ent0002" data-entity-2="ent0007" data-link-type="nested" id="lnk23"><ellipse cx="119.5588" cy="400.3087" fill="#FFFFFF" rx="8" ry="8" style="stroke:#181818;stroke-width:1;"/><line style="stroke:#181818;stroke-width:1;" x1="123.3314" x2="115.7862" y1="393.2541" y2="407.3633"/><line style="stroke:#181818;stroke-width:1;" x1="126.6134" x2="112.5042" y1="404.0813" y2="396.536"/><path d="M123.3314,393.2541 C143.9413,354.7148 171.5876,314.0645 218,283 C223.4196,279.3726 229.2656,276.2145 235.3467,273.4651" fill="none" style="stroke:#181818;stroke-width:1;"/></g><g class="link" data-entity-1="ent0002" data-entity-2="ent0008" data-link-type="nested" id="lnk24"><ellipse cx="138.0986" cy="401.7095" fill="#FFFFFF" rx="8" ry="8" style="stroke:#181818;stroke-width:1;"/><line style="stroke:#181818;stroke-width:1;" x1="143.6326" x2="132.5646" y1="395.9324" y2="407.4866"/><line style="stroke:#181818;stroke-width:1;" x1="143.8757" x2="132.3215" y1="407.2435" y2="396.1755"/><path d="M143.6326,395.9324 C166.1767,372.398 185.6329,356.2532 218,339 C224.2945,335.6447 230.9988,332.6835 237.8831,330.0713" fill="none" style="stroke:#181818;stroke-width:1;"/></g><g class="link" data-entity-1="ent0002" data-entity-2="ent0009" data-link-type="nested" id="lnk25"><ellipse cx="189.5728" cy="405.7805" fill="#FFFFFF" rx="8" ry="8" style="stroke:#181818;stroke-width:1;"/><line style="stroke:#181818;stroke-width:1;" x1="196.9403" x2="182.2053" y1="402.6629" y2="408.8981"/><line style="stroke:#181818;stroke-width:1;" x1="192.6904" x2="186.4552" y1="413.148" y2="398.413"/><path d="M196.9403,402.6629 C208.8313,397.6312 206.2519,399.0772 218,395 C227.2416,391.7927 237.0255,388.8038 246.8233,386.0641" fill="none" style="stroke:#181818;stroke-width:1;"/></g><g class="link" data-entity-1="ent0002" data-entity-2="ent0010" data-link-type="nested" id="lnk26"><ellipse cx="190.1851" cy="439.7545" fill="#FFFFFF" rx="8" ry="8" style="stroke:#181818;stroke-width:1;"/><line style="stroke:#181818;stroke-width:1;" x1="198.1299" x2="182.2404" y1="438.8159" y2="440.6931"/><line style="stroke:#181818;stroke-width:1;" x1="191.1237" x2="189.2465" y1="447.6992" y2="431.8098"/><path d="M198.1299,438.8159 C218.5876,436.3989 224.4945,435.7011 244.9441,433.2851" fill="none" style="stroke:#181818;stroke-width:1;"/></g><g class="link" data-entity-1="ent0002" data-entity-2="ent0011" data-link-type="nested" id="lnk27"><ellipse cx="190.1851" cy="462.2455" fill="#FFFFFF" rx="8" ry="8" style="stroke:#181818;stroke-width:1;"/><line style="stroke:#181818;stroke-width:1;" x1="198.1299" x2="182.2404" y1="463.1841" y2="461.3069"/><line style="stroke:#181818;stroke-width:1;" x1="189.2465" x2="191.1237" y1="470.1902" y2="454.3008"/><path d="M198.1299,463.1841 C218.5876,465.6011 224.4945,466.2989 244.9441,468.7149" fill="none" style="stroke:#181818;stroke-width:1;"/></g><g class="link" data-entity-1="ent0002" data-entity-2="ent0012" data-link-type="nested" id="lnk28"><ellipse cx="189.5728" cy="496.2195" fill="#FFFFFF" rx="8" ry="8" style="stroke:#181818;stroke-width:1;"/><line style="stroke:#181818;stroke-width:1;" x1="196.9403" x2="182.2053" y1="499.3371" y2="493.1019"/><line style="stroke:#181818;stroke-width:1;" x1="186.4552" x2="192.6904" y1="503.587" y2="488.852"/><path d="M196.9403,499.3371 C208.8313,504.3688 206.2519,502.9228 218,507 C227.2416,510.2073 237.0255,513.1962 246.8233,515.9359" fill="none" style="stroke:#181818;stroke-width:1;"/></g><g class="link" data-entity-1="ent0002" data-entity-2="ent0013" data-link-type="nested" id="lnk29"><ellipse cx="138.0986" cy="500.2905" fill="#FFFFFF" rx="8" ry="8" style="stroke:#181818;stroke-width:1;"/><line style="stroke:#181818;stroke-width:1;" x1="143.6326" x2="132.5646" y1="506.0676" y2="494.5134"/><line style="stroke:#181818;stroke-width:1;" x1="132.3215" x2="143.8757" y1="505.8245" y2="494.7565"/><path d="M143.6326,506.0676 C166.1767,529.602 185.6329,545.7468 218,563 C226.3627,567.4577 235.4487,571.2199 244.7192,574.3921" fill="none" style="stroke:#181818;stroke-width:1;"/></g><g class="link" data-entity-1="ent0002" data-entity-2="ent0014" data-link-type="nested" id="lnk30"><ellipse cx="119.5588" cy="501.6913" fill="#FFFFFF" rx="8" ry="8" style="stroke:#181818;stroke-width:1;"/><line style="stroke:#181818;stroke-width:1;" x1="123.3314" x2="115.7862" y1="508.7459" y2="494.6367"/><line style="stroke:#181818;stroke-width:1;" x1="112.5042" x2="126.6134" y1="505.464" y2="497.9187"/><path d="M123.3314,508.7459 C143.9413,547.2852 171.5876,587.9355 218,619 C226.2141,624.4979 235.4076,628.9175 244.9146,632.4702" fill="none" style="stroke:#181818;stroke-width:1;"/></g><g class="link" data-entity-1="ent0002" data-entity-2="ent0015" data-link-type="nested" id="lnk31"><ellipse cx="109.6746" cy="502.3653" fill="#FFFFFF" rx="8" ry="8" style="stroke:#181818;stroke-width:1;"/><line style="stroke:#181818;stroke-width:1;" x1="112.1409" x2="107.2083" y1="509.9757" y2="494.755"/><line style="stroke:#181818;stroke-width:1;" x1="102.0643" x2="117.285" y1="504.8316" y2="499.899"/><path d="M112.1409,509.9757 C128.7009,561.0751 158.3507,629.2063 218,675 C222.3647,678.3508 227.0768,681.3063 232.0144,683.9125" fill="none" style="stroke:#181818;stroke-width:1;"/></g><g class="link" data-entity-1="ent0002" data-entity-2="ent0016" data-link-type="nested" id="lnk32"><ellipse cx="103.3691" cy="502.4938" fill="#FFFFFF" rx="8" ry="8" style="stroke:#181818;stroke-width:1;"/><line style="stroke:#181818;stroke-width:1;" x1="104.8979" x2="101.8403" y1="510.3463" y2="494.6412"/><line style="stroke:#181818;stroke-width:1;" x1="95.5165" x2="111.2216" y1="504.0226" y2="500.965"/><path d="M104.8979,510.3463 C116.979,572.4004 145.0373,669.6855 218,731 C225.8791,737.6213 235.0859,742.7198 244.7898,746.6388" fill="none" style="stroke:#181818;stroke-width:1;"/></g><g class="link" data-entity-1="ent0002" data-entity-2="ent0017" data-link-type="nested" id="lnk33"><ellipse cx="99.0398" cy="502.7125" fill="#FFFFFF" rx="8" ry="8" style="stroke:#181818;stroke-width:1;"/><line style="stroke:#181818;stroke-width:1;" x1="99.8877" x2="98.192" y1="510.6674" y2="494.7575"/><line style="stroke:#181818;stroke-width:1;" x1="91.0849" x2="106.9948" y1="503.5603" y2="501.8646"/><path d="M99.8877,510.6674 C107.5559,582.6172 131.6979,709.7106 218,787 C225.8186,794.0021 235.105,799.32 244.9522,803.3482" fill="none" style="stroke:#181818;stroke-width:1;"/></g><g class="link" data-entity-1="ent0002" data-entity-2="ent0018" data-link-type="nested" id="lnk34"><ellipse cx="95.832" cy="502.6688" fill="#FFFFFF" rx="8" ry="8" style="stroke:#181818;stroke-width:1;"/><line style="stroke:#181818;stroke-width:1;" x1="96.1668" x2="95.4972" y1="510.6618" y2="494.6758"/><line style="stroke:#181818;stroke-width:1;" x1="87.839" x2="103.825" y1="503.0036" y2="502.334"/><path d="M96.1668,510.6618 C99.5581,591.6215 118.1519,749.271 218,843 C221.5661,846.3476 225.4656,849.3136 229.6045,851.9401" fill="none" style="stroke:#181818;stroke-width:1;"/></g><g class="footer" data-source-line="58"><text fill="#888888" font-family="sans-serif" font-size="10" lengthAdjust="spacing" textLength="3.1787" x="221.9106" y="893.2822">&#160;</text><a href="https://github.com/talsma-ict/umldoclet" target="_top" title="https://github.com/talsma-ict/umldoclet" xlink:actuate="onRequest" xlink:href="https://github.com/talsma-ict/umldoclet" xlink:show="new" xlink:title="https://github.com/talsma-ict/umldoclet" xlink:type="simple"><text fill="#888888" font-family="sans-serif" font-size="10" lengthAdjust="spacing" textLength="140.4639" x="153.2681" y="904.9229">UMLDoclet 2.2.5-SNAPSHOT</text></a></g><?plantuml-src lPXDSzCm48Rl_8e53fI1E77wCINJAPC9fGKAT8XpWD23Qczi3R9a91d6CFnt9CTs50ZW7eGF-LZ9x_jeRMar0W1u03DHL9AccGOjG6TKmUBr9H2UG8eS9T6O0Cr9YWfka0cUgdL715BgJ4WGg_fVBAH4LGYUK9x2I_A5W1AbZ545T-v0RHMrwb-9SjHlAXjy9cA66lPc3nsayIWy6en7uoE825CvWHUpA6ZKDlUCWt5mE9Y_cLxDBzv6O4mOZP4herto16NDDor8RBukrosFuGjAHGKtDuyQGJlcM71DA5TG4AcL7TiL8rnRw32m8448UzFvvJRaw4aD-HYcafCoWNVYSzcD-suXIMhG6Qb4gK7bg0adTHF3LPtsjKv29SRQCAtlKsPadEGcfoJ6EHeWeaswkU1OjsSqGS2yq1MiAB94_HerHfamuJeUCw8Kt3jHz1jEmeFJnQkPoKEfFl8cD3gb8aYfpigRWD23c0Oc5okQ1X9N2T7a7fY7zlSkGIiAosNxCyXqpgwluNjDOQ_lIXDDun_mA7f_TJQVmCoYdJmzNLxlwCC4IVOUJk0T5a9Hau2gxlIZ_gHSeroPzEmOM31DyHpju_Son8syEzWks0pxtvGpaUUbDbF63sKdxr9sGPSIUPd_5J2g2lGCQIrsWjg6tYbzHitRmyt2uuUsatT9ks2Vb9xb1HDLZbpx8TpekuYRwEqO_JttRO_ThBTwycSwupIcklB4syfleRR1FbbzNZ8MqTnJFbjr5w-DzQ7pkLp-lbRUSg4yHv5AKcILBxv6VXkn2VRAdXHbuGdEIc-1sK3lrBtWIQcqz9IvLjtbQsDzyjRsVKDypGlNOHUbZVSXdUioyRPeD-8kNnFgXLRUfFxUlrPz2ww9zNuB5nmzrptNmKLruotkchVdTlRHO73xVQ4tXsvNvD_1LbzlBjsUoPl3PXln7ooyvghRPNXpQ3SAtWmypugkLljpiCkTD_Ms67atiDNEcqbJilpfDrN7cu5RAzP5uaJfYk5fTpQn4i9KEUT0mruNPlBBIye_pGGJ4kuVxsvTs2d0ACSee_4dZah1gEkvFjCu6Jf-ZTT7lbncMXTgCXmseuX5FjJrcTY0ndfOvYnP7uRzwLYiAT4FuBmxUBDdLeFHU13kH-7HvF3ObEiWt3yEzyF3_OCFopCT3nVHxFed?></g></svg>