<?plantuml 1.2026.1?><svg xmlns="http://www.w3.org/2000/svg" xmlns:xlink="http://www.w3.org/1999/xlink" contentStyleType="text/css" data-diagram-type="CLASS" height="132px" preserveAspectRatio="none" style="width:554px;height:132px;background:#FFFFFF;" version="1.1" viewBox="0 0 554 132" width="554px" zoomAndPan="magnify"><defs/><g><!--class io.github.ai4ci.config.refdata.UKCensus.Student--><g class="entity" data-qualified-name="io.github.ai4ci.config.refdata.UKCensus.Student" data-source-line="14" id="ent0002"><a href="UKCensus.Student.html" target="_top" title="UKCensus.Student.html" xlink:actuate="onRequest" xlink:href="UKCensus.Student.html" xlink:show="new" xlink:title="UKCensus.Student.html" xlink:type="simple"><rect fill="#F1F1F1" height="94.8281" rx="2.5" ry="2.5" style="stroke:#181818;stroke-width:0.5;" width="329.6729" x="218" y="12"/><ellipse cx="306.5186" cy="30.9688" fill="#EB937F" rx="11" ry="11" style="stroke:#181818;stroke-width:1;"/><path d="M310.6279,36.9688 L302.9092,36.9688 L302.9092,24.5781 L310.6279,24.5781 L310.6279,26.7344 L305.3623,26.7344 L305.3623,29.4063 L310.1279,29.4063 L310.1279,31.5625 L305.3623,31.5625 L305.3623,34.8125 L310.6279,34.8125 L310.6279,36.9688 Z " fill="#000000"/><text fill="#000000" font-family="sans-serif" font-size="14" lengthAdjust="spacing" textLength="129.7119" x="334.2305" y="29.9951">UKCensus.Student</text><text fill="#000000" font-family="sans-serif" font-size="10" lengthAdjust="spacing" textLength="144.1357" x="327.0186" y="42.5791">io.github.ai4ci.config.refdata</text><line style="stroke:#181818;stroke-width:0.5;" x1="219" x2="546.6729" y1="49.9375" y2="49.9375"/></a><g data-visibility-modifier="PUBLIC_FIELD"><a href="UKCensus.Student.html" target="_top" title="UKCensus.Student.html" xlink:actuate="onRequest" xlink:href="UKCensus.Student.html" xlink:show="new" xlink:title="UKCensus.Student.html" xlink:type="simple"><ellipse cx="229" cy="63.5859" fill="none" rx="3" ry="3" style="stroke:#038048;stroke-width:1;"/></a></g><a href="UKCensus.Student.html" target="_top" title="UKCensus.Student.html" xlink:actuate="onRequest" xlink:href="UKCensus.Student.html" xlink:show="new" xlink:title="UKCensus.Student.html" xlink:type="simple"><text fill="#000000" font-family="sans-serif" font-size="14" lengthAdjust="spacing" text-decoration="underline" textLength="303.6729" x="238" y="66.9326">ACTIVE_EXCLUDING_FULL_TIME_STUDENTS</text></a><g data-visibility-modifier="PUBLIC_FIELD"><a href="UKCensus.Student.html" target="_top" title="UKCensus.Student.html" xlink:actuate="onRequest" xlink:href="UKCensus.Student.html" xlink:show="new" xlink:title="UKCensus.Student.html" xlink:type="simple"><ellipse cx="229" cy="79.8828" fill="none" rx="3" ry="3" style="stroke:#038048;stroke-width:1;"/></a></g><a href="UKCensus.Student.html" target="_top" title="UKCensus.Student.html" xlink:actuate="onRequest" xlink:href="UKCensus.Student.html" xlink:show="new" xlink:title="UKCensus.Student.html" xlink:type="simple"><text fill="#000000" font-family="sans-serif" font-size="14" lengthAdjust="spacing" text-decoration="underline" textLength="259.7041" x="238" y="83.2295">ACTIVE_AND_A_FULL_TIME_STUDENT</text></a><g data-visibility-modifier="PUBLIC_FIELD"><a href="UKCensus.Student.html" target="_top" title="UKCensus.Student.html" xlink:actuate="onRequest" xlink:href="UKCensus.Student.html" xlink:show="new" xlink:title="UKCensus.Student.html" xlink:type="simple"><ellipse cx="229" cy="96.1797" fill="none" rx="3" ry="3" style="stroke:#038048;stroke-width:1;"/></a></g><a href="UKCensus.Student.html" target="_top" title="UKCensus.Student.html" xlink:actuate="onRequest" xlink:href="UKCensus.Student.html" xlink:show="new" xlink:title="UKCensus.Student.html" xlink:type="simple"><text fill="#000000" font-family="sans-serif" font-size="14" lengthAdjust="spacing" text-decoration="underline" textLength="65.0576" x="238" y="99.5264">INACTIVE</text></a></g><!--class io.github.ai4ci.util.Factor--><g class="entity" data-qualified-name="io.github.ai4ci.util.Factor" data-source-line="20" id="ent0003"><a href="../../util/Factor.html" target="_top" title="../../util/Factor.html" xlink:actuate="onRequest" xlink:href="../../util/Factor.html" xlink:show="new" xlink:title="../../util/Factor.html" xlink:type="simple"><rect fill="#F1F1F1" height="37.9375" rx="2.5" ry="2.5" style="stroke:#181818;stroke-width:0.5;" width="121.8633" x="33" y="12.5"/><ellipse cx="48" cy="31.4688" fill="#B4A7E5" rx="11" ry="11" style="stroke:#181818;stroke-width:1;"/><path d="M43.9219,27.2344 L43.9219,25.0781 L51.3125,25.0781 L51.3125,27.2344 L48.8438,27.2344 L48.8438,35.3125 L51.3125,35.3125 L51.3125,37.4688 L43.9219,37.4688 L43.9219,35.3125 L46.3906,35.3125 L46.3906,27.2344 L43.9219,27.2344 Z " fill="#000000"/><text fill="#000000" font-family="sans-serif" font-size="14" font-style="italic" lengthAdjust="spacing" textLength="44.1396" x="84.8618" y="30.4951">Factor</text><text fill="#000000" font-family="sans-serif" font-size="10" font-style="italic" lengthAdjust="spacing" textLength="89.8633" x="62" y="43.0791">io.github.ai4ci.util</text></a></g><!--class io.github.ai4ci.config.refdata.UKCensus--><g class="entity" data-qualified-name="io.github.ai4ci.config.refdata.UKCensus" data-source-line="21" id="ent0004"><a href="UKCensus.html" target="_top" title="UKCensus.html" xlink:actuate="onRequest" xlink:href="UKCensus.html" xlink:show="new" xlink:title="UKCensus.html" xlink:type="simple"><rect fill="#F1F1F1" height="37.9375" rx="2.5" ry="2.5" style="stroke:#181818;stroke-width:0.5;" width="176.1357" x="6" y="68.5"/><ellipse cx="21" cy="87.4688" fill="#ADD1B2" rx="11" ry="11" style="stroke:#181818;stroke-width:1;"/><path d="M23.9688,93.1094 Q23.3906,93.4063 22.75,93.5469 Q22.1094,93.7031 21.4063,93.7031 Q18.9063,93.7031 17.5781,92.0625 Q16.2656,90.4063 16.2656,87.2813 Q16.2656,84.1563 17.5781,82.5 Q18.9063,80.8438 21.4063,80.8438 Q22.1094,80.8438 22.75,81 Q23.4063,81.1563 23.9688,81.4531 L23.9688,84.1719 Q23.3438,83.5938 22.75,83.3281 Q22.1563,83.0469 21.5313,83.0469 Q20.1875,83.0469 19.5,84.125 Q18.8125,85.1875 18.8125,87.2813 Q18.8125,89.375 19.5,90.4531 Q20.1875,91.5156 21.5313,91.5156 Q22.1563,91.5156 22.75,91.25 Q23.3438,90.9688 23.9688,90.3906 L23.9688,93.1094 Z " fill="#000000"/><text fill="#000000" font-family="sans-serif" font-size="14" lengthAdjust="spacing" textLength="70.1504" x="71.9927" y="86.4951">UKCensus</text><text fill="#000000" font-family="sans-serif" font-size="10" lengthAdjust="spacing" textLength="144.1357" x="35" y="99.0791">io.github.ai4ci.config.refdata</text></a></g><g class="link" data-entity-1="ent0003" data-entity-2="ent0002" data-link-type="extension" id="lnk5"><polygon fill="none" points="155.1646,37.3697,172.4969,45.0892,173.6621,33.1459,155.1646,37.3697" style="stroke:#181818;stroke-width:1;"/><path d="M173.0795,39.1175 C191.8178,40.9456 195.5422,41.309 217.8619,43.4865" fill="none" style="stroke:#181818;stroke-width:1;stroke-dasharray:7,7;"/></g><g class="link" data-entity-1="ent0004" data-entity-2="ent0002" data-link-type="nested" id="lnk6"><ellipse cx="190.2406" cy="78.2082" fill="#FFFFFF" rx="8" ry="8" style="stroke:#181818;stroke-width:1;"/><line style="stroke:#181818;stroke-width:1;" x1="198.2028" x2="182.2784" y1="77.4314" y2="78.985"/><line style="stroke:#181818;stroke-width:1;" x1="191.0174" x2="189.4638" y1="86.1704" y2="70.246"/><path d="M198.2028,77.4314 C209.582,76.3213 205.5971,76.71 217.7391,75.5255" fill="none" style="stroke:#181818;stroke-width:1;"/></g><g class="footer" data-source-line="32"><text fill="#888888" font-family="sans-serif" font-size="10" lengthAdjust="spacing" textLength="3.1787" x="271.9106" y="110.2822">&#160;</text><a href="https://github.com/talsma-ict/umldoclet" target="_top" title="https://github.com/talsma-ict/umldoclet" xlink:actuate="onRequest" xlink:href="https://github.com/talsma-ict/umldoclet" xlink:show="new" xlink:title="https://github.com/talsma-ict/umldoclet" xlink:type="simple"><text fill="#888888" font-family="sans-serif" font-size="10" lengthAdjust="spacing" textLength="140.4639" x="203.2681" y="121.9229">UMLDoclet 2.2.5-SNAPSHOT</text></a></g><?plantuml-src jLHjJzim4FxEhxYn3so2E6rv4KC8gKeBT0iTMfDfMa6LSQw9XMDdjiFKCVxxd9Tr7Ij8V9XLgSgTd-UUUyuw080j25Inq3pDB5W5DkC6ueiGg4mWHOcQMao0vpH50pSeb4nDSn61bZPJ6jIy_c9AQpI5aWcNARodTnICAZL3GpOse2uL_MR_JiqA-ysY2WuK4sZXJV1sHLAlqptmUftU0KHKc9p2A8X8o_O7qoCzikzDnltBoVd725mHmHbAuxXBcQ2kzVKBojnVs6Hsu0wruKewSASbh7fcIbhAfO62QckgtYu5bROItIML4DA5D_r9-BV8phjQv0xqjQHb0f_KjtBPzwj2qzH95tIXIWicHqibhLC2vxNj3K_2DJBhD3KuupgJD7UUKeOJT8AeTNPB9R7EPpn1mBom2vXp58bv77M5CkN2THnbcSFciU4_yAYxTn9_29mDfI4JMoOexPLiKvqJhaZARLRU4Cht62VEaZbFYSPvGYtT13Uxvw-Gn-GmdJuEaSpculeQxcjnrRatbbhE7c2x7qIZpyFPy4iGneFH-6ns6eVXB1fT36UJA1uCnz7aQLH_F9Zr_qMi0Op63QHEFJGkSMbHpvtVArQTKkPyVyQWqdAnrfOgGHguiu0Gt_sgcD_4MW_gmanGOzRCvx_CPNKUhOQc-sVq7_yavALpNqlwbAPjptinVrtWsDY5m9FbXETAkI6klApgd2yAr26Nju4IhflNX-kpSRKk19VeLXMxbUXcqbdUV6ZA-IlrsbfNSZhDh2tCaU-t3J2L-xRUMHvdrYzpaJJBwgcrrJw4BJXRBiPgftYTdjVTZRe7H_k7xc6u7RI_vyxXxjVfq38_ZeBhNm00?></g></svg>