<?plantuml 1.2026.1?><svg xmlns="http://www.w3.org/2000/svg" xmlns:xlink="http://www.w3.org/1999/xlink" contentStyleType="text/css" data-diagram-type="CLASS" height="148px" preserveAspectRatio="none" style="width:374px;height:148px;background:#FFFFFF;" version="1.1" viewBox="0 0 374 148" width="374px" zoomAndPan="magnify"><defs/><g><!--class io.github.ai4ci.flow.output.Export.Stage--><g class="entity" data-qualified-name="io.github.ai4ci.flow.output.Export.Stage" data-source-line="14" id="ent0002"><a href="Export.Stage.html" target="_top" title="Export.Stage.html" xlink:actuate="onRequest" xlink:href="Export.Stage.html" xlink:show="new" xlink:title="Export.Stage.html" xlink:type="simple"><rect fill="#F1F1F1" height="111.125" rx="2.5" ry="2.5" style="stroke:#181818;stroke-width:0.5;" width="162.8057" x="205" y="12"/><ellipse cx="220" cy="30.9688" fill="#EB937F" rx="11" ry="11" style="stroke:#181818;stroke-width:1;"/><path d="M224.1094,36.9688 L216.3906,36.9688 L216.3906,24.5781 L224.1094,24.5781 L224.1094,26.7344 L218.8438,26.7344 L218.8438,29.4063 L223.6094,29.4063 L223.6094,31.5625 L218.8438,31.5625 L218.8438,34.8125 L224.1094,34.8125 L224.1094,36.9688 Z " fill="#000000"/><text fill="#000000" font-family="sans-serif" font-size="14" lengthAdjust="spacing" textLength="90.7334" x="254.0361" y="29.9951">Export.Stage</text><text fill="#000000" font-family="sans-serif" font-size="10" lengthAdjust="spacing" textLength="130.8057" x="234" y="42.5791">io.github.ai4ci.flow.output</text><line style="stroke:#181818;stroke-width:0.5;" x1="206" x2="366.8057" y1="49.9375" y2="49.9375"/></a><g data-visibility-modifier="PUBLIC_FIELD"><a href="Export.Stage.html" target="_top" title="Export.Stage.html" xlink:actuate="onRequest" xlink:href="Export.Stage.html" xlink:show="new" xlink:title="Export.Stage.html" xlink:type="simple"><ellipse cx="216" cy="63.5859" fill="none" rx="3" ry="3" style="stroke:#038048;stroke-width:1;"/></a></g><a href="Export.Stage.html" target="_top" title="Export.Stage.html" xlink:actuate="onRequest" xlink:href="Export.Stage.html" xlink:show="new" xlink:title="Export.Stage.html" xlink:type="simple"><text fill="#000000" font-family="sans-serif" font-size="14" lengthAdjust="spacing" text-decoration="underline" textLength="68.1611" x="225" y="66.9326">BASELINE</text></a><g data-visibility-modifier="PUBLIC_FIELD"><a href="Export.Stage.html" target="_top" title="Export.Stage.html" xlink:actuate="onRequest" xlink:href="Export.Stage.html" xlink:show="new" xlink:title="Export.Stage.html" xlink:type="simple"><ellipse cx="216" cy="79.8828" fill="none" rx="3" ry="3" style="stroke:#038048;stroke-width:1;"/></a></g><a href="Export.Stage.html" target="_top" title="Export.Stage.html" xlink:actuate="onRequest" xlink:href="Export.Stage.html" xlink:show="new" xlink:title="Export.Stage.html" xlink:type="simple"><text fill="#000000" font-family="sans-serif" font-size="14" lengthAdjust="spacing" text-decoration="underline" textLength="45.2949" x="225" y="83.2295">START</text></a><g data-visibility-modifier="PUBLIC_FIELD"><a href="Export.Stage.html" target="_top" title="Export.Stage.html" xlink:actuate="onRequest" xlink:href="Export.Stage.html" xlink:show="new" xlink:title="Export.Stage.html" xlink:type="simple"><ellipse cx="216" cy="96.1797" fill="none" rx="3" ry="3" style="stroke:#038048;stroke-width:1;"/></a></g><a href="Export.Stage.html" target="_top" title="Export.Stage.html" xlink:actuate="onRequest" xlink:href="Export.Stage.html" xlink:show="new" xlink:title="Export.Stage.html" xlink:type="simple"><text fill="#000000" font-family="sans-serif" font-size="14" lengthAdjust="spacing" text-decoration="underline" textLength="56.4443" x="225" y="99.5264">UPDATE</text></a><g data-visibility-modifier="PUBLIC_FIELD"><a href="Export.Stage.html" target="_top" title="Export.Stage.html" xlink:actuate="onRequest" xlink:href="Export.Stage.html" xlink:show="new" xlink:title="Export.Stage.html" xlink:type="simple"><ellipse cx="216" cy="112.4766" fill="none" rx="3" ry="3" style="stroke:#038048;stroke-width:1;"/></a></g><a href="Export.Stage.html" target="_top" title="Export.Stage.html" xlink:actuate="onRequest" xlink:href="Export.Stage.html" xlink:show="new" xlink:title="Export.Stage.html" xlink:type="simple"><text fill="#000000" font-family="sans-serif" font-size="14" lengthAdjust="spacing" text-decoration="underline" textLength="46.1973" x="225" y="115.8232">FINISH</text></a></g><!--class io.github.ai4ci.flow.output.Export--><g class="entity" data-qualified-name="io.github.ai4ci.flow.output.Export" data-source-line="21" id="ent0003"><a href="Export.html" target="_top" title="Export.html" xlink:actuate="onRequest" xlink:href="Export.html" xlink:show="new" xlink:title="Export.html" xlink:type="simple"><rect fill="#F1F1F1" height="37.9375" rx="2.5" ry="2.5" style="stroke:#181818;stroke-width:0.5;" width="162.8057" x="6" y="48.5"/><ellipse cx="21" cy="67.4688" fill="#E3664A" rx="11" ry="11" style="stroke:#181818;stroke-width:1;"/><path d="M23.0781,67.9375 Q23.0781,67 22.6563,66.4688 Q22.2344,65.9375 21.4844,65.9375 Q20.75,65.9375 20.3281,66.4688 Q19.9219,67 19.9219,67.9375 Q19.9219,68.8906 20.3281,69.4219 Q20.75,69.9531 21.4844,69.9531 Q22.2344,69.9531 22.6563,69.4219 Q23.0781,68.8906 23.0781,67.9375 Z M24.625,71.3438 L23,71.3438 L23,70.6719 Q22.6719,71.1094 22.25,71.3125 Q21.8281,71.5156 21.2188,71.5156 Q19.8594,71.5156 19.0313,70.5469 Q18.2031,69.5625 18.2031,67.9375 Q18.2031,66.3438 19.0313,65.375 Q19.8594,64.3906 21.2188,64.3906 Q21.8125,64.3906 22.2656,64.5938 Q22.7188,64.7969 23,65.1875 L23,64.8438 Q23,63.7188 22.375,63.1094 Q21.75,62.4844 20.6094,62.4844 Q18.8906,62.4844 17.7969,64.0156 Q16.7031,65.5313 16.7031,67.9688 Q16.7031,70.5156 17.9531,72.0156 Q19.2188,73.5156 21.3281,73.5156 Q21.9844,73.5156 22.6094,73.3281 Q23.2344,73.1406 23.8125,72.75 L24.5781,74.2031 Q23.9063,74.6563 23.1094,74.875 Q22.3125,75.1094 21.4063,75.1094 Q18.5,75.1094 16.7656,73.1719 Q15.0469,71.25 15.0469,67.9688 Q15.0469,64.75 16.5938,62.8281 Q18.1563,60.8906 20.7188,60.8906 Q22.5156,60.8906 23.5625,61.9844 Q24.625,63.0781 24.625,64.9531 L24.625,71.3438 Z " fill="#000000"/><text fill="#000000" font-family="sans-serif" font-size="14" lengthAdjust="spacing" textLength="45.8281" x="77.4888" y="66.4951">Export</text><text fill="#000000" font-family="sans-serif" font-size="10" lengthAdjust="spacing" textLength="130.8057" x="35" y="79.0791">io.github.ai4ci.flow.output</text></a></g><g class="link" data-entity-1="ent0003" data-entity-2="ent0002" data-link-type="nested" id="lnk4"><ellipse cx="177.1959" cy="67.5" fill="#FFFFFF" rx="8" ry="8" style="stroke:#181818;stroke-width:1;"/><line style="stroke:#181818;stroke-width:1;" x1="185.1959" x2="169.1959" y1="67.5" y2="67.5"/><line style="stroke:#181818;stroke-width:1;" x1="177.1959" x2="177.1959" y1="75.5" y2="59.5"/><path d="M185.1959,67.5 C196.9905,67.5 193.1375,67.5 204.9296,67.5" fill="none" style="stroke:#181818;stroke-width:1;"/></g><g class="footer" data-source-line="31"><text fill="#888888" font-family="sans-serif" font-size="10" lengthAdjust="spacing" textLength="3.1787" x="181.9106" y="126.2822">&#160;</text><a href="https://github.com/talsma-ict/umldoclet" target="_top" title="https://github.com/talsma-ict/umldoclet" xlink:actuate="onRequest" xlink:href="https://github.com/talsma-ict/umldoclet" xlink:show="new" xlink:title="https://github.com/talsma-ict/umldoclet" xlink:type="simple"><text fill="#888888" font-family="sans-serif" font-size="10" lengthAdjust="spacing" textLength="140.4639" x="113.2681" y="137.9229">UMLDoclet 2.2.5-SNAPSHOT</text></a></g><?plantuml-src hLHHJzim47xdLzpOmvWWRXeLDYg4r9LkxTGnHDAN5HwCSqqi73kpBx0EyT_d95tfK3VnCBz4li_ttVUTVG40U0D3Kowjp782Ca2vT33xCWMkKyXGe-M4ASY2P-ZW1fNHcMiF8l2AScF1B9gTCDQYAurEfSxWCx_Zu4nb1JgsimDDgUGt-prt6-mtopfuPeH2WhtXsmr9KTWz2g8mEeA4ArTmc0mJjc9xoebOn0w3-7nm4O-_9k2BA2bGEyzTwHHjeszGSk4_qnOvW3kqJXhjayCLOUrP64rSQWSbj-HgRnUAQwf5TrajX7LXRn1F_nGP7ZSY3s1WDQzIk3JVgxNlLwNbcPUk-D9K1Av0ufetaC95q_QM9vKM1NbDRPxppZGlV4-vm1Yz84w-tTfeRF1SfWXObBI4XKILkkTHNoWtFjp4KLS5x9uu-HFxtTxfw4TfBB6O_CLUwLKuF9M6PPBowePnsHEIBPIvPrvrMT4k-4lx1yusAM4-tzood0frVGqFZPHwFJZY9CKZx7yOnAFfv7oq1OgJmMMo9JwxE1iasn8-JiudyRW17blRN6jJe_wYdvl_hxQV3BTMs-eloDiFWXTtjIKzSRHKUBgslp26_1j_wcszniiIxLJgsw5H_j6yVhyTdTNZeQH6FvhYLgDp4AvFFhRbEXlrLhMkz7oU4vMkt-cib0jJTAYPqK0AwbI5IjlX_DkO-XwrO_Tf_IEePoW8ew0R9U5nFphi7_PO68MzTxrk57sRZqXqPidm-XS0?></g></svg>