<?plantuml 1.2026.1?><svg xmlns="http://www.w3.org/2000/svg" xmlns:xlink="http://www.w3.org/1999/xlink" contentStyleType="text/css" data-diagram-type="CLASS" height="155px" preserveAspectRatio="none" style="width:578px;height:155px;background:#FFFFFF;" version="1.1" viewBox="0 0 578 155" width="578px" zoomAndPan="magnify"><defs/><g><!--class io.github.ai4ci.flow.output.Export.Selector--><g class="entity" data-qualified-name="io.github.ai4ci.flow.output.Export.Selector" data-source-line="14" id="ent0002"><a href="Export.Selector.html" target="_top" title="Export.Selector.html" xlink:actuate="onRequest" xlink:href="Export.Selector.html" xlink:show="new" xlink:title="Export.Selector.html" xlink:type="simple"><rect fill="#F1F1F1" height="37.9375" rx="2.5" ry="2.5" style="stroke:#181818;stroke-width:0.5;" width="162.8057" x="409" y="58"/><ellipse cx="424" cy="76.9688" fill="#B4A7E5" rx="11" ry="11" style="stroke:#181818;stroke-width:1;"/><path d="M419.9219,72.7344 L419.9219,70.5781 L427.3125,70.5781 L427.3125,72.7344 L424.8438,72.7344 L424.8438,80.8125 L427.3125,80.8125 L427.3125,82.9688 L419.9219,82.9688 L419.9219,80.8125 L422.3906,80.8125 L422.3906,72.7344 L419.9219,72.7344 Z " fill="#000000"/><text fill="#000000" font-family="sans-serif" font-size="14" font-style="italic" lengthAdjust="spacing" textLength="107.7891" x="449.5083" y="75.9951">Export.Selector</text><text fill="#000000" font-family="sans-serif" font-size="10" font-style="italic" lengthAdjust="spacing" textLength="130.8057" x="438" y="88.5791">io.github.ai4ci.flow.output</text></a></g><!--class java.util.function.Function--><g class="entity" data-qualified-name="java.util.function.Function" data-source-line="16" id="ent0003"><a href="https://docs.oracle.com/en/java/javase/11/docs/api/java.base/java/util/function/Function.html?is-external=true" target="_top" title="https://docs.oracle.com/en/java/javase/11/docs/api/java.base/java/util/function/Function.html?is-external=true" xlink:actuate="onRequest" xlink:href="https://docs.oracle.com/en/java/javase/11/docs/api/java.base/java/util/function/Function.html?is-external=true" xlink:show="new" xlink:title="https://docs.oracle.com/en/java/javase/11/docs/api/java.base/java/util/function/Function.html?is-external=true" xlink:type="simple"><rect fill="#F1F1F1" height="62.2344" rx="2.5" ry="2.5" style="stroke:#181818;stroke-width:0.5;" width="367.3398" x="6" y="12"/><ellipse cx="21" cy="30.9688" fill="#B4A7E5" rx="11" ry="11" style="stroke:#181818;stroke-width:1;"/><path d="M16.9219,26.7344 L16.9219,24.5781 L24.3125,24.5781 L24.3125,26.7344 L21.8438,26.7344 L21.8438,34.8125 L24.3125,34.8125 L24.3125,36.9688 L16.9219,36.9688 L16.9219,34.8125 L19.3906,34.8125 L19.3906,26.7344 L16.9219,26.7344 Z " fill="#000000"/><text fill="#000000" font-family="sans-serif" font-size="14" font-style="italic" lengthAdjust="spacing" textLength="60.3135" x="46.8306" y="29.9951">Function</text><text fill="#000000" font-family="sans-serif" font-size="10" font-style="italic" lengthAdjust="spacing" textLength="83.9746" x="35" y="42.5791">java.util.function</text><rect fill="#FFFFFF" height="15.9688" style="stroke:#181818;stroke-width:1;stroke-dasharray:2,2;" width="249.3652" x="126.9746" y="9"/><text fill="#000000" font-family="sans-serif" font-size="12" font-style="italic" lengthAdjust="spacing" textLength="247.3652" x="127.9746" y="21.1387">Outbreak, Stream&lt;? extends Writeable&gt;</text><line style="stroke:#181818;stroke-width:0.5;" x1="7" x2="372.3398" y1="49.9375" y2="49.9375"/></a><g data-visibility-modifier="PUBLIC_METHOD"><a href="https://docs.oracle.com/en/java/javase/11/docs/api/java.base/java/util/function/Function.html?is-external=true" target="_top" title="https://docs.oracle.com/en/java/javase/11/docs/api/java.base/java/util/function/Function.html?is-external=true" xlink:actuate="onRequest" xlink:href="https://docs.oracle.com/en/java/javase/11/docs/api/java.base/java/util/function/Function.html?is-external=true" xlink:show="new" xlink:title="https://docs.oracle.com/en/java/javase/11/docs/api/java.base/java/util/function/Function.html?is-external=true" xlink:type="simple"><ellipse cx="17" cy="63.5859" fill="#84BE84" rx="3" ry="3" style="stroke:#038048;stroke-width:1;"/></a></g><a href="https://docs.oracle.com/en/java/javase/11/docs/api/java.base/java/util/function/Function.html?is-external=true" target="_top" title="https://docs.oracle.com/en/java/javase/11/docs/api/java.base/java/util/function/Function.html?is-external=true" xlink:actuate="onRequest" xlink:href="https://docs.oracle.com/en/java/javase/11/docs/api/java.base/java/util/function/Function.html?is-external=true" xlink:show="new" xlink:title="https://docs.oracle.com/en/java/javase/11/docs/api/java.base/java/util/function/Function.html?is-external=true" xlink:type="simple"><text fill="#000000" font-family="sans-serif" font-size="14" font-style="italic" lengthAdjust="spacing" textLength="338.3105" x="26" y="66.9326">apply(Outbreak): Stream&lt;? extends Writeable&gt;</text></a></g><!--class io.github.ai4ci.flow.output.Export--><g class="entity" data-qualified-name="io.github.ai4ci.flow.output.Export" data-source-line="19" id="ent0004"><a href="Export.html" target="_top" title="Export.html" xlink:actuate="onRequest" xlink:href="Export.html" xlink:show="new" xlink:title="Export.html" xlink:type="simple"><rect fill="#F1F1F1" height="37.9375" rx="2.5" ry="2.5" style="stroke:#181818;stroke-width:0.5;" width="162.8057" x="108" y="92"/><ellipse cx="123" cy="110.9688" fill="#E3664A" rx="11" ry="11" style="stroke:#181818;stroke-width:1;"/><path d="M125.0781,111.4375 Q125.0781,110.5 124.6563,109.9688 Q124.2344,109.4375 123.4844,109.4375 Q122.75,109.4375 122.3281,109.9688 Q121.9219,110.5 121.9219,111.4375 Q121.9219,112.3906 122.3281,112.9219 Q122.75,113.4531 123.4844,113.4531 Q124.2344,113.4531 124.6563,112.9219 Q125.0781,112.3906 125.0781,111.4375 Z M126.625,114.8438 L125,114.8438 L125,114.1719 Q124.6719,114.6094 124.25,114.8125 Q123.8281,115.0156 123.2188,115.0156 Q121.8594,115.0156 121.0313,114.0469 Q120.2031,113.0625 120.2031,111.4375 Q120.2031,109.8438 121.0313,108.875 Q121.8594,107.8906 123.2188,107.8906 Q123.8125,107.8906 124.2656,108.0938 Q124.7188,108.2969 125,108.6875 L125,108.3438 Q125,107.2188 124.375,106.6094 Q123.75,105.9844 122.6094,105.9844 Q120.8906,105.9844 119.7969,107.5156 Q118.7031,109.0313 118.7031,111.4688 Q118.7031,114.0156 119.9531,115.5156 Q121.2188,117.0156 123.3281,117.0156 Q123.9844,117.0156 124.6094,116.8281 Q125.2344,116.6406 125.8125,116.25 L126.5781,117.7031 Q125.9063,118.1563 125.1094,118.375 Q124.3125,118.6094 123.4063,118.6094 Q120.5,118.6094 118.7656,116.6719 Q117.0469,114.75 117.0469,111.4688 Q117.0469,108.25 118.5938,106.3281 Q120.1563,104.3906 122.7188,104.3906 Q124.5156,104.3906 125.5625,105.4844 Q126.625,106.5781 126.625,108.4531 L126.625,114.8438 Z " fill="#000000"/><text fill="#000000" font-family="sans-serif" font-size="14" lengthAdjust="spacing" textLength="45.8281" x="179.4888" y="109.9951">Export</text><text fill="#000000" font-family="sans-serif" font-size="10" lengthAdjust="spacing" textLength="130.8057" x="137" y="122.5791">io.github.ai4ci.flow.output</text></a></g><g class="link" data-entity-1="ent0003" data-entity-2="ent0002" data-link-type="extension" id="lnk5"><polygon fill="none" points="373.0426,63.7574,390.2495,71.7527,391.6053,59.8295,373.0426,63.7574" style="stroke:#181818;stroke-width:1;"/><path d="M390.9274,65.7911 C403.3291,67.2013 397.5267,66.5415 408.9248,67.8376" fill="none" style="stroke:#181818;stroke-width:1;"/></g><g class="link" data-entity-1="ent0004" data-entity-2="ent0002" data-link-type="nested" id="lnk6"><ellipse cx="278.9686" cy="100.94" fill="#FFFFFF" rx="8" ry="8" style="stroke:#181818;stroke-width:1;"/><line style="stroke:#181818;stroke-width:1;" x1="286.9174" x2="271.0198" y1="100.0362" y2="101.8439"/><line style="stroke:#181818;stroke-width:1;" x1="279.8725" x2="278.0647" y1="108.8888" y2="92.9912"/><path d="M286.9174,100.0362 C329.6403,95.178 366.0918,91.033 408.8364,86.1725" fill="none" style="stroke:#181818;stroke-width:1;"/></g><g class="footer" data-source-line="30"><text fill="#888888" font-family="sans-serif" font-size="10" lengthAdjust="spacing" textLength="3.1787" x="283.9106" y="133.2822">&#160;</text><a href="https://github.com/talsma-ict/umldoclet" target="_top" title="https://github.com/talsma-ict/umldoclet" xlink:actuate="onRequest" xlink:href="https://github.com/talsma-ict/umldoclet" xlink:show="new" xlink:title="https://github.com/talsma-ict/umldoclet" xlink:type="simple"><text fill="#888888" font-family="sans-serif" font-size="10" lengthAdjust="spacing" textLength="140.4639" x="215.2681" y="144.9229">UMLDoclet 2.2.5-SNAPSHOT</text></a></g><?plantuml-src hPJVJzim4CVV-Ijkx64WY9DqfIfLLuGwDZPr0wr5amPzS9Dhu-7OcNq1EiR_FiTfeOF1XBGy9CgT_RtF_T010Bo2lYxcHimo0j90cR1myca0NAKmGuM64wOWSZv32nEKMiriVH21bvHf0thg_n9j3Df2grIe6Npa5noiBas2bgsjWGyrMgfVShkYFfbNnhSwaKYmqTzSGMf4SIjeH8qMZBYqEOSF_H5RgDtTQR06smc6d_UFXuT78t11f4XGMQTTgXIDvzilUE8-Wzgp3HTehD3ANOuMWbNEYLR4XR9GS4EsokrOSaKLTCmg41R3nlvmy2TajEiXjs7VA5wcy4N_A6_pVb4OFdFeaizrIM1p9AwuTqcS-hBNEgamc91ZgkzPbvdYkQifJt283eYJAxVI2hq_4oa2vWNDOIfGflQ-rGNAj3Dxkr24PkgKOBrhnK_inCtUmLMX3R4XIXTNcpEry4GzeTbCK5PE61VDHB2fr9VCqHSbhODhtXD-TayLJa_lMLX6kHoF7-TwLofVXnMWxswUM4b2ikd2wJaUcjdoSlUef8b1VhuDGtBVlBi7U4MeKWjVZI3a4uczdiFBY0hR2SDK9vPfmzrCiKJd8QgmqlSlYs4S-nCXBuGtiKbbzISgWd1942u9V9vxmWPLM3SOyWsP4iTZkFQPLyyrdrXo4Ua6jdXHoFd6adgpynIs5xZnRwwK9bx5Uz3P_zhGkpwkjk-91a3tLn0yPrBgUVWtoDOpPRrkrz9yMRZgcMhjchBIYkevd1Te1aATzxLqa_ko_NVlIRLKf53e5bfohj1QY6vFrbtfXYln5h7ErDsiBU2hCIE_sGAHK5ZcCgrNscFBpTMzNbRlRzTdjNc2g174ZL7KxZIZJhFDTbytc-tMJYl-Tdf0INWowez_0m00?></g></svg>