<?plantuml 1.2026.1?><svg xmlns="http://www.w3.org/2000/svg" xmlns:xlink="http://www.w3.org/1999/xlink" contentStyleType="text/css" data-diagram-type="CLASS" height="156px" preserveAspectRatio="none" style="width:751px;height:156px;background:#FFFFFF;" version="1.1" viewBox="0 0 751 156" width="751px" zoomAndPan="magnify"><defs/><g><!--class io.github.ai4ci.util.Factor--><g class="entity" data-qualified-name="io.github.ai4ci.util.Factor" data-source-line="14" id="ent0002"><a href="Factor.html" target="_top" title="Factor.html" xlink:actuate="onRequest" xlink:href="Factor.html" xlink:show="new" xlink:title="Factor.html" xlink:type="simple"><rect fill="#F1F1F1" height="119.125" rx="2.5" ry="2.5" style="stroke:#181818;stroke-width:0.5;" width="580.668" x="6" y="12"/><ellipse cx="247.1523" cy="30.9688" fill="#B4A7E5" rx="11" ry="11" style="stroke:#181818;stroke-width:1;"/><path d="M243.0742,26.7344 L243.0742,24.5781 L250.4648,24.5781 L250.4648,26.7344 L247.9961,26.7344 L247.9961,34.8125 L250.4648,34.8125 L250.4648,36.9688 L243.0742,36.9688 L243.0742,34.8125 L245.543,34.8125 L245.543,26.7344 L243.0742,26.7344 Z " fill="#000000"/><text fill="#000000" font-family="sans-serif" font-size="14" font-style="italic" lengthAdjust="spacing" textLength="44.1396" x="290.5142" y="29.9951">Factor</text><text fill="#000000" font-family="sans-serif" font-size="10" font-style="italic" lengthAdjust="spacing" textLength="89.8633" x="267.6523" y="42.5791">io.github.ai4ci.util</text><line style="stroke:#181818;stroke-width:0.5;" x1="7" x2="585.668" y1="49.9375" y2="49.9375"/></a><g data-visibility-modifier="PUBLIC_FIELD"><a href="Factor.html" target="_top" title="Factor.html" xlink:actuate="onRequest" xlink:href="Factor.html" xlink:show="new" xlink:title="Factor.html" xlink:type="simple"><ellipse cx="17" cy="63.5859" fill="none" rx="3" ry="3" style="stroke:#038048;stroke-width:1;"/></a></g><a href="Factor.html" target="_top" title="Factor.html" xlink:actuate="onRequest" xlink:href="Factor.html" xlink:show="new" xlink:title="Factor.html" xlink:type="simple"><text fill="#000000" font-family="sans-serif" font-size="14" lengthAdjust="spacing" text-decoration="underline" textLength="516.2979" x="26" y="66.9326">forward: Memoised&lt;Class&lt;? extends Enum&lt;?&gt;&gt;, Map&lt;String, String&gt;&gt;</text></a><g data-visibility-modifier="PUBLIC_FIELD"><a href="Factor.html" target="_top" title="Factor.html" xlink:actuate="onRequest" xlink:href="Factor.html" xlink:show="new" xlink:title="Factor.html" xlink:type="simple"><ellipse cx="17" cy="79.8828" fill="none" rx="3" ry="3" style="stroke:#038048;stroke-width:1;"/></a></g><a href="Factor.html" target="_top" title="Factor.html" xlink:actuate="onRequest" xlink:href="Factor.html" xlink:show="new" xlink:title="Factor.html" xlink:type="simple"><text fill="#000000" font-family="sans-serif" font-size="14" lengthAdjust="spacing" text-decoration="underline" textLength="515.3066" x="26" y="83.2295">reverse: Memoised&lt;Class&lt;? extends Enum&lt;?&gt;&gt;, Map&lt;String, String&gt;&gt;</text><line style="stroke:#181818;stroke-width:0.5;" x1="7" x2="585.668" y1="90.5313" y2="90.5313"/></a><g data-visibility-modifier="PUBLIC_METHOD"><a href="Factor.html" target="_top" title="Factor.html" xlink:actuate="onRequest" xlink:href="Factor.html" xlink:show="new" xlink:title="Factor.html" xlink:type="simple"><ellipse cx="17" cy="104.1797" fill="#84BE84" rx="3" ry="3" style="stroke:#038048;stroke-width:1;"/></a></g><a href="Factor.html" target="_top" title="Factor.html" xlink:actuate="onRequest" xlink:href="Factor.html" xlink:show="new" xlink:title="Factor.html" xlink:type="simple"><text fill="#000000" font-family="sans-serif" font-size="14" lengthAdjust="spacing" text-decoration="underline" textLength="554.668" x="26" y="107.5264">fromLabel(Class&lt;? extends Enum&lt;?&gt;&gt;, String): Enum&lt;T extends Enum&lt;T&gt;&gt;</text></a><g data-visibility-modifier="PUBLIC_METHOD"><a href="Factor.html" target="_top" title="Factor.html" xlink:actuate="onRequest" xlink:href="Factor.html" xlink:show="new" xlink:title="Factor.html" xlink:type="simple"><ellipse cx="17" cy="120.4766" fill="#84BE84" rx="3" ry="3" style="stroke:#038048;stroke-width:1;"/></a></g><a href="Factor.html" target="_top" title="Factor.html" xlink:actuate="onRequest" xlink:href="Factor.html" xlink:show="new" xlink:title="Factor.html" xlink:type="simple"><text fill="#000000" font-family="sans-serif" font-size="14" lengthAdjust="spacing" textLength="122.6299" x="26" y="123.8232">getLabel(): String</text></a></g><!--class io.github.ai4ci.util.Factor.Level--><g class="entity" data-qualified-name="io.github.ai4ci.util.Factor.Level" data-source-line="20" id="ent0003"><a href="Factor.Level.html" target="_top" title="Factor.Level.html" xlink:actuate="onRequest" xlink:href="Factor.Level.html" xlink:show="new" xlink:title="Factor.Level.html" xlink:type="simple"><rect fill="#F1F1F1" height="37.9375" rx="2.5" ry="2.5" style="stroke:#181818;stroke-width:0.5;" width="121.8633" x="623" y="52.5"/><ellipse cx="638" cy="71.4688" fill="#E3664A" rx="11" ry="11" style="stroke:#181818;stroke-width:1;"/><path d="M640.0781,71.9375 Q640.0781,71 639.6563,70.4688 Q639.2344,69.9375 638.4844,69.9375 Q637.75,69.9375 637.3281,70.4688 Q636.9219,71 636.9219,71.9375 Q636.9219,72.8906 637.3281,73.4219 Q637.75,73.9531 638.4844,73.9531 Q639.2344,73.9531 639.6563,73.4219 Q640.0781,72.8906 640.0781,71.9375 Z M641.625,75.3438 L640,75.3438 L640,74.6719 Q639.6719,75.1094 639.25,75.3125 Q638.8281,75.5156 638.2188,75.5156 Q636.8594,75.5156 636.0313,74.5469 Q635.2031,73.5625 635.2031,71.9375 Q635.2031,70.3438 636.0313,69.375 Q636.8594,68.3906 638.2188,68.3906 Q638.8125,68.3906 639.2656,68.5938 Q639.7188,68.7969 640,69.1875 L640,68.8438 Q640,67.7188 639.375,67.1094 Q638.75,66.4844 637.6094,66.4844 Q635.8906,66.4844 634.7969,68.0156 Q633.7031,69.5313 633.7031,71.9688 Q633.7031,74.5156 634.9531,76.0156 Q636.2188,77.5156 638.3281,77.5156 Q638.9844,77.5156 639.6094,77.3281 Q640.2344,77.1406 640.8125,76.75 L641.5781,78.2031 Q640.9063,78.6563 640.1094,78.875 Q639.3125,79.1094 638.4063,79.1094 Q635.5,79.1094 633.7656,77.1719 Q632.0469,75.25 632.0469,71.9688 Q632.0469,68.75 633.5938,66.8281 Q635.1563,64.8906 637.7188,64.8906 Q639.5156,64.8906 640.5625,65.9844 Q641.625,67.0781 641.625,68.9531 L641.625,75.3438 Z " fill="#000000"/><text fill="#000000" font-family="sans-serif" font-size="14" lengthAdjust="spacing" textLength="85.791" x="654.0361" y="70.4951">Factor.Level</text><text fill="#000000" font-family="sans-serif" font-size="10" lengthAdjust="spacing" textLength="89.8633" x="652" y="83.0791">io.github.ai4ci.util</text></a></g><g class="link" data-entity-1="ent0002" data-entity-2="ent0003" data-link-type="nested" id="lnk4"><ellipse cx="595.2126" cy="71.5" fill="#FFFFFF" rx="8" ry="8" style="stroke:#181818;stroke-width:1;"/><line style="stroke:#181818;stroke-width:1;" x1="603.2126" x2="587.2126" y1="71.5" y2="71.5"/><line style="stroke:#181818;stroke-width:1;" x1="595.2126" x2="595.2126" y1="79.5" y2="63.5"/><path d="M603.2126,71.5 C616.0004,71.5 612.0184,71.5 622.9335,71.5" fill="none" style="stroke:#181818;stroke-width:1;"/></g><g class="footer" data-source-line="30"><text fill="#888888" font-family="sans-serif" font-size="10" lengthAdjust="spacing" textLength="3.1787" x="370.4106" y="134.2822">&#160;</text><a href="https://github.com/talsma-ict/umldoclet" target="_top" title="https://github.com/talsma-ict/umldoclet" xlink:actuate="onRequest" xlink:href="https://github.com/talsma-ict/umldoclet" xlink:show="new" xlink:title="https://github.com/talsma-ict/umldoclet" xlink:type="simple"><text fill="#888888" font-family="sans-serif" font-size="10" lengthAdjust="spacing" textLength="140.4639" x="301.7681" y="145.9229">UMLDoclet 2.2.5-SNAPSHOT</text></a></g><?plantuml-src hLHDKzim4BtpAxRqK1WInpQKqemdJ2QbfPtGCesvD70GyjhM84kkj8Qc3F-zifM6m41xQ7Mmh5tjsxSVMW20Lp3HzSA8eYGW3LGA2sSdKs0gWm8L6aQOWQXOWHOkKMfLM7yHWJLKQWCwxqvS6uEsrYeJge1Fx9g1rOtXQ8ED3UXSfR_HRvXTGxzSjC9tcaias9fihr6AmsY_7uVnFgHCseh1nqaQBD7kRU8W3bxtPv_7fxFZBoau9r9mLDPXDof3q_4RruoxRUerFRX6OuLMpZXS0hOnSws82MMXPePi6zkfP8fQqb7G4WaYs1hFfWz9XcyxaZqO6yMQ3BxgxyqgxXUrOOMZBjb2DmIsGcAATIg9UPTsZvC9WvmS9szdNMIALIwdZECC7I56BjrAA-pqfSWGiAff0Rb0cTd7KkUer4xSoOKYDBb3Wit4YfyuZFP6xnbtYETgAGX7GWU5eBAv39ZOuo9eICXDSCLwIX5uSvZF_KzGKYKlBk2syzUkMqkC1B-3dLoR6sQo8PnWfOKhJ3AHpDha4F07eSei7AccIWv7enwSi3gPaN5Tr0E_ZqPFG1fiAuZ_4p8tkfeor-LRpqDvy-sX5wKFRwHhi3i5aWTpbxrLfxlhlamftRfr3VYu7i7KHIR_iIeUvBustN5PeML3_A6aE_t-ty4zJ69f8V4-x5nhrsXhJT2kuqMDPYhKrKHB1__ou6djMVjOfL3e1WM_KcWjXAkRFc_9OCtVqjUvcizBejeE1uCbPQwh0NKJeoyu3PfAPdvKF3SqN5Ry4FYm6aljY-w7SJ-AqsXt6EyFzzoeY0vse_3DGVHjVaHyS9PEBdu1?></g></svg>