<?plantuml 1.2026.1?><svg xmlns="http://www.w3.org/2000/svg" xmlns:xlink="http://www.w3.org/1999/xlink" contentStyleType="text/css" data-diagram-type="CLASS" height="243px" preserveAspectRatio="none" style="width:296px;height:243px;background:#FFFFFF;" version="1.1" viewBox="0 0 296 243" width="296px" zoomAndPan="magnify"><defs/><g><!--class io.github.ai4ci.Data--><g class="entity" data-qualified-name="io.github.ai4ci.Data" data-source-line="14" id="ent0002"><a href="Data.html" target="_top" title="Data.html" xlink:actuate="onRequest" xlink:href="Data.html" xlink:show="new" xlink:title="Data.html" xlink:type="simple"><rect fill="#F1F1F1" height="37.9375" rx="2.5" ry="2.5" style="stroke:#181818;stroke-width:0.5;" width="102.8691" x="6" y="96"/><ellipse cx="21" cy="114.9688" fill="#E3664A" rx="11" ry="11" style="stroke:#181818;stroke-width:1;"/><path d="M23.0781,115.4375 Q23.0781,114.5 22.6563,113.9688 Q22.2344,113.4375 21.4844,113.4375 Q20.75,113.4375 20.3281,113.9688 Q19.9219,114.5 19.9219,115.4375 Q19.9219,116.3906 20.3281,116.9219 Q20.75,117.4531 21.4844,117.4531 Q22.2344,117.4531 22.6563,116.9219 Q23.0781,116.3906 23.0781,115.4375 Z M24.625,118.8438 L23,118.8438 L23,118.1719 Q22.6719,118.6094 22.25,118.8125 Q21.8281,119.0156 21.2188,119.0156 Q19.8594,119.0156 19.0313,118.0469 Q18.2031,117.0625 18.2031,115.4375 Q18.2031,113.8438 19.0313,112.875 Q19.8594,111.8906 21.2188,111.8906 Q21.8125,111.8906 22.2656,112.0938 Q22.7188,112.2969 23,112.6875 L23,112.3438 Q23,111.2188 22.375,110.6094 Q21.75,109.9844 20.6094,109.9844 Q18.8906,109.9844 17.7969,111.5156 Q16.7031,113.0313 16.7031,115.4688 Q16.7031,118.0156 17.9531,119.5156 Q19.2188,121.0156 21.3281,121.0156 Q21.9844,121.0156 22.6094,120.8281 Q23.2344,120.6406 23.8125,120.25 L24.5781,121.7031 Q23.9063,122.1563 23.1094,122.375 Q22.3125,122.6094 21.4063,122.6094 Q18.5,122.6094 16.7656,120.6719 Q15.0469,118.75 15.0469,115.4688 Q15.0469,112.25 16.5938,110.3281 Q18.1563,108.3906 20.7188,108.3906 Q22.5156,108.3906 23.5625,109.4844 Q24.625,110.5781 24.625,112.4531 L24.625,118.8438 Z " fill="#000000"/><text fill="#000000" font-family="sans-serif" font-size="14" lengthAdjust="spacing" textLength="33.4277" x="53.7207" y="113.9951">Data</text><text fill="#000000" font-family="sans-serif" font-size="10" lengthAdjust="spacing" textLength="70.8691" x="35" y="126.5791">io.github.ai4ci</text></a></g><!--class io.github.ai4ci.Data.Mutable--><g class="entity" data-qualified-name="io.github.ai4ci.Data.Mutable" data-source-line="15" id="ent0003"><a href="Data.Mutable.html" target="_top" title="Data.Mutable.html" xlink:actuate="onRequest" xlink:href="Data.Mutable.html" xlink:show="new" xlink:title="Data.Mutable.html" xlink:type="simple"><rect fill="#F1F1F1" height="37.9375" rx="2.5" ry="2.5" style="stroke:#181818;stroke-width:0.5;" width="126.2881" x="154.5" y="12"/><ellipse cx="169.5" cy="30.9688" fill="#E3664A" rx="11" ry="11" style="stroke:#181818;stroke-width:1;"/><path d="M171.5781,31.4375 Q171.5781,30.5 171.1563,29.9688 Q170.7344,29.4375 169.9844,29.4375 Q169.25,29.4375 168.8281,29.9688 Q168.4219,30.5 168.4219,31.4375 Q168.4219,32.3906 168.8281,32.9219 Q169.25,33.4531 169.9844,33.4531 Q170.7344,33.4531 171.1563,32.9219 Q171.5781,32.3906 171.5781,31.4375 Z M173.125,34.8438 L171.5,34.8438 L171.5,34.1719 Q171.1719,34.6094 170.75,34.8125 Q170.3281,35.0156 169.7188,35.0156 Q168.3594,35.0156 167.5313,34.0469 Q166.7031,33.0625 166.7031,31.4375 Q166.7031,29.8438 167.5313,28.875 Q168.3594,27.8906 169.7188,27.8906 Q170.3125,27.8906 170.7656,28.0938 Q171.2188,28.2969 171.5,28.6875 L171.5,28.3438 Q171.5,27.2188 170.875,26.6094 Q170.25,25.9844 169.1094,25.9844 Q167.3906,25.9844 166.2969,27.5156 Q165.2031,29.0313 165.2031,31.4688 Q165.2031,34.0156 166.4531,35.5156 Q167.7188,37.0156 169.8281,37.0156 Q170.4844,37.0156 171.1094,36.8281 Q171.7344,36.6406 172.3125,36.25 L173.0781,37.7031 Q172.4063,38.1563 171.6094,38.375 Q170.8125,38.6094 169.9063,38.6094 Q167,38.6094 165.2656,36.6719 Q163.5469,34.75 163.5469,31.4688 Q163.5469,28.25 165.0938,26.3281 Q166.6563,24.3906 169.2188,24.3906 Q171.0156,24.3906 172.0625,25.4844 Q173.125,26.5781 173.125,28.4531 L173.125,34.8438 Z " fill="#000000"/><text fill="#000000" font-family="sans-serif" font-size="14" lengthAdjust="spacing" textLength="94.2881" x="183.5" y="29.9951">Data.Mutable</text><text fill="#000000" font-family="sans-serif" font-size="10" lengthAdjust="spacing" textLength="70.8691" x="195.2095" y="42.5791">io.github.ai4ci</text></a></g><!--class io.github.ai4ci.Data.Partial--><g class="entity" data-qualified-name="io.github.ai4ci.Data.Partial" data-source-line="16" id="ent0004"><a href="Data.Partial.html" target="_top" title="Data.Partial.html" xlink:actuate="onRequest" xlink:href="Data.Partial.html" xlink:show="new" xlink:title="Data.Partial.html" xlink:type="simple"><rect fill="#F1F1F1" height="37.9375" rx="2.5" ry="2.5" style="stroke:#181818;stroke-width:0.5;" width="114.5029" x="160" y="68"/><ellipse cx="175" cy="86.9688" fill="#E3664A" rx="11" ry="11" style="stroke:#181818;stroke-width:1;"/><path d="M177.0781,87.4375 Q177.0781,86.5 176.6563,85.9688 Q176.2344,85.4375 175.4844,85.4375 Q174.75,85.4375 174.3281,85.9688 Q173.9219,86.5 173.9219,87.4375 Q173.9219,88.3906 174.3281,88.9219 Q174.75,89.4531 175.4844,89.4531 Q176.2344,89.4531 176.6563,88.9219 Q177.0781,88.3906 177.0781,87.4375 Z M178.625,90.8438 L177,90.8438 L177,90.1719 Q176.6719,90.6094 176.25,90.8125 Q175.8281,91.0156 175.2188,91.0156 Q173.8594,91.0156 173.0313,90.0469 Q172.2031,89.0625 172.2031,87.4375 Q172.2031,85.8438 173.0313,84.875 Q173.8594,83.8906 175.2188,83.8906 Q175.8125,83.8906 176.2656,84.0938 Q176.7188,84.2969 177,84.6875 L177,84.3438 Q177,83.2188 176.375,82.6094 Q175.75,81.9844 174.6094,81.9844 Q172.8906,81.9844 171.7969,83.5156 Q170.7031,85.0313 170.7031,87.4688 Q170.7031,90.0156 171.9531,91.5156 Q173.2188,93.0156 175.3281,93.0156 Q175.9844,93.0156 176.6094,92.8281 Q177.2344,92.6406 177.8125,92.25 L178.5781,93.7031 Q177.9063,94.1563 177.1094,94.375 Q176.3125,94.6094 175.4063,94.6094 Q172.5,94.6094 170.7656,92.6719 Q169.0469,90.75 169.0469,87.4688 Q169.0469,84.25 170.5938,82.3281 Q172.1563,80.3906 174.7188,80.3906 Q176.5156,80.3906 177.5625,81.4844 Q178.625,82.5781 178.625,84.4531 L178.625,90.8438 Z " fill="#000000"/><text fill="#000000" font-family="sans-serif" font-size="14" lengthAdjust="spacing" textLength="82.5029" x="189" y="85.9951">Data.Partial</text><text fill="#000000" font-family="sans-serif" font-size="10" lengthAdjust="spacing" textLength="70.8691" x="194.8169" y="98.5791">io.github.ai4ci</text></a></g><!--class io.github.ai4ci.Data.Repository--><g class="entity" data-qualified-name="io.github.ai4ci.Data.Repository" data-source-line="17" id="ent0005"><a href="Data.Repository.html" target="_top" title="Data.Repository.html" xlink:actuate="onRequest" xlink:href="Data.Repository.html" xlink:show="new" xlink:title="Data.Repository.html" xlink:type="simple"><rect fill="#F1F1F1" height="37.9375" rx="2.5" ry="2.5" style="stroke:#181818;stroke-width:0.5;" width="144.9502" x="145" y="124"/><ellipse cx="160" cy="142.9688" fill="#E3664A" rx="11" ry="11" style="stroke:#181818;stroke-width:1;"/><path d="M162.0781,143.4375 Q162.0781,142.5 161.6563,141.9688 Q161.2344,141.4375 160.4844,141.4375 Q159.75,141.4375 159.3281,141.9688 Q158.9219,142.5 158.9219,143.4375 Q158.9219,144.3906 159.3281,144.9219 Q159.75,145.4531 160.4844,145.4531 Q161.2344,145.4531 161.6563,144.9219 Q162.0781,144.3906 162.0781,143.4375 Z M163.625,146.8438 L162,146.8438 L162,146.1719 Q161.6719,146.6094 161.25,146.8125 Q160.8281,147.0156 160.2188,147.0156 Q158.8594,147.0156 158.0313,146.0469 Q157.2031,145.0625 157.2031,143.4375 Q157.2031,141.8438 158.0313,140.875 Q158.8594,139.8906 160.2188,139.8906 Q160.8125,139.8906 161.2656,140.0938 Q161.7188,140.2969 162,140.6875 L162,140.3438 Q162,139.2188 161.375,138.6094 Q160.75,137.9844 159.6094,137.9844 Q157.8906,137.9844 156.7969,139.5156 Q155.7031,141.0313 155.7031,143.4688 Q155.7031,146.0156 156.9531,147.5156 Q158.2188,149.0156 160.3281,149.0156 Q160.9844,149.0156 161.6094,148.8281 Q162.2344,148.6406 162.8125,148.25 L163.5781,149.7031 Q162.9063,150.1563 162.1094,150.375 Q161.3125,150.6094 160.4063,150.6094 Q157.5,150.6094 155.7656,148.6719 Q154.0469,146.75 154.0469,143.4688 Q154.0469,140.25 155.5938,138.3281 Q157.1563,136.3906 159.7188,136.3906 Q161.5156,136.3906 162.5625,137.4844 Q163.625,138.5781 163.625,140.4531 L163.625,146.8438 Z " fill="#000000"/><text fill="#000000" font-family="sans-serif" font-size="14" lengthAdjust="spacing" textLength="112.9502" x="174" y="141.9951">Data.Repository</text><text fill="#000000" font-family="sans-serif" font-size="10" lengthAdjust="spacing" textLength="70.8691" x="195.0405" y="154.5791">io.github.ai4ci</text></a></g><!--class io.github.ai4ci.Data.Style--><g class="entity" data-qualified-name="io.github.ai4ci.Data.Style" data-source-line="18" id="ent0006"><a href="Data.Style.html" target="_top" title="Data.Style.html" xlink:actuate="onRequest" xlink:href="Data.Style.html" xlink:show="new" xlink:title="Data.Style.html" xlink:type="simple"><rect fill="#F1F1F1" height="37.9375" rx="2.5" ry="2.5" style="stroke:#181818;stroke-width:0.5;" width="105.042" x="165" y="180"/><ellipse cx="180" cy="198.9688" fill="#E3664A" rx="11" ry="11" style="stroke:#181818;stroke-width:1;"/><path d="M182.0781,199.4375 Q182.0781,198.5 181.6563,197.9688 Q181.2344,197.4375 180.4844,197.4375 Q179.75,197.4375 179.3281,197.9688 Q178.9219,198.5 178.9219,199.4375 Q178.9219,200.3906 179.3281,200.9219 Q179.75,201.4531 180.4844,201.4531 Q181.2344,201.4531 181.6563,200.9219 Q182.0781,200.3906 182.0781,199.4375 Z M183.625,202.8438 L182,202.8438 L182,202.1719 Q181.6719,202.6094 181.25,202.8125 Q180.8281,203.0156 180.2188,203.0156 Q178.8594,203.0156 178.0313,202.0469 Q177.2031,201.0625 177.2031,199.4375 Q177.2031,197.8438 178.0313,196.875 Q178.8594,195.8906 180.2188,195.8906 Q180.8125,195.8906 181.2656,196.0938 Q181.7188,196.2969 182,196.6875 L182,196.3438 Q182,195.2188 181.375,194.6094 Q180.75,193.9844 179.6094,193.9844 Q177.8906,193.9844 176.7969,195.5156 Q175.7031,197.0313 175.7031,199.4688 Q175.7031,202.0156 176.9531,203.5156 Q178.2188,205.0156 180.3281,205.0156 Q180.9844,205.0156 181.6094,204.8281 Q182.2344,204.6406 182.8125,204.25 L183.5781,205.7031 Q182.9063,206.1563 182.1094,206.375 Q181.3125,206.6094 180.4063,206.6094 Q177.5,206.6094 175.7656,204.6719 Q174.0469,202.75 174.0469,199.4688 Q174.0469,196.25 175.5938,194.3281 Q177.1563,192.3906 179.7188,192.3906 Q181.5156,192.3906 182.5625,193.4844 Q183.625,194.5781 183.625,196.4531 L183.625,202.8438 Z " fill="#000000"/><text fill="#000000" font-family="sans-serif" font-size="14" lengthAdjust="spacing" textLength="73.042" x="194" y="197.9951">Data.Style</text><text fill="#000000" font-family="sans-serif" font-size="10" lengthAdjust="spacing" textLength="70.8691" x="195.0864" y="210.5791">io.github.ai4ci</text></a></g><g class="link" data-entity-1="ent0002" data-entity-2="ent0003" data-link-type="nested" id="lnk7"><ellipse cx="91.5117" cy="91.3441" fill="#FFFFFF" rx="8" ry="8" style="stroke:#181818;stroke-width:1;"/><line style="stroke:#181818;stroke-width:1;" x1="98.0896" x2="84.9338" y1="86.7909" y2="95.8973"/><line style="stroke:#181818;stroke-width:1;" x1="96.0649" x2="86.9585" y1="97.922" y2="84.7662"/><path d="M98.0896,86.7909 C114.8026,75.2222 123.9879,69.7766 145,59 C151.0496,55.8973 157.5265,52.9195 164.0204,50.1401" fill="none" style="stroke:#181818;stroke-width:1;"/></g><g class="link" data-entity-1="ent0002" data-entity-2="ent0004" data-link-type="nested" id="lnk8"><ellipse cx="117.2392" cy="104.5905" fill="#FFFFFF" rx="8" ry="8" style="stroke:#181818;stroke-width:1;"/><line style="stroke:#181818;stroke-width:1;" x1="125.1164" x2="109.3619" y1="103.1946" y2="105.9865"/><line style="stroke:#181818;stroke-width:1;" x1="118.6351" x2="115.8432" y1="112.4678" y2="96.7133"/><path d="M125.1164,103.1946 C141.2643,100.3329 143.4619,99.9435 159.983,97.0157" fill="none" style="stroke:#181818;stroke-width:1;"/></g><g class="link" data-entity-1="ent0002" data-entity-2="ent0005" data-link-type="nested" id="lnk9"><ellipse cx="117.2392" cy="125.4095" fill="#FFFFFF" rx="8" ry="8" style="stroke:#181818;stroke-width:1;"/><line style="stroke:#181818;stroke-width:1;" x1="125.1164" x2="109.3619" y1="126.8054" y2="124.0135"/><line style="stroke:#181818;stroke-width:1;" x1="115.8432" x2="118.6351" y1="133.2867" y2="117.5322"/><path d="M125.1164,126.8054 C136.3929,128.8038 132.7947,128.1661 144.7291,130.2811" fill="none" style="stroke:#181818;stroke-width:1;"/></g><g class="link" data-entity-1="ent0002" data-entity-2="ent0006" data-link-type="nested" id="lnk10"><ellipse cx="91.5117" cy="138.6559" fill="#FFFFFF" rx="8" ry="8" style="stroke:#181818;stroke-width:1;"/><line style="stroke:#181818;stroke-width:1;" x1="98.0896" x2="84.9338" y1="143.2091" y2="134.1027"/><line style="stroke:#181818;stroke-width:1;" x1="86.9585" x2="96.0649" y1="145.2338" y2="132.078"/><path d="M98.0896,143.2091 C114.8026,154.7778 123.9879,160.2234 145,171 C151.2868,174.2244 158.0352,177.3138 164.7844,180.1859" fill="none" style="stroke:#181818;stroke-width:1;"/></g><g class="footer" data-source-line="31"><text fill="#888888" font-family="sans-serif" font-size="10" lengthAdjust="spacing" textLength="3.1787" x="142.9106" y="221.2822">&#160;</text><a href="https://github.com/talsma-ict/umldoclet" target="_top" title="https://github.com/talsma-ict/umldoclet" xlink:actuate="onRequest" xlink:href="https://github.com/talsma-ict/umldoclet" xlink:show="new" xlink:title="https://github.com/talsma-ict/umldoclet" xlink:type="simple"><text fill="#888888" font-family="sans-serif" font-size="10" lengthAdjust="spacing" textLength="140.4639" x="74.2681" y="232.9229">UMLDoclet 2.2.5-SNAPSHOT</text></a></g><?plantuml-src dPHHRvim4CVV-obktKCxhH22agoDgafHEgsRqgrgqfUbVRZ01QmQczcc4vlstMSC95dLLH6yWC_yx_U_Cnm0m15CPLugbgG6Z0IJCWrtrpD04KD2WXGQYe5bc9265N4f4bs_I825IQK2kNQhI2f5EfSYPYA1B_Y4e6MX8jB-mG4urABD_XFrJlPLMGKlPSJ9mF7qtOwbCEYFl308Hx10hZE4pzE5tsJRQa8_z8VU_ElaPdxrRG4Mmbb4GjlSXOX9EN-J72DxczKx9_14IZCfh3Xe4bOrHr8OP493ZiheghORZi9Kflj-PSJlm_5aFllNP73cJ9x0H0aiOhYLFufDtMzoXOcrph6KXG6TaK61RelJshMzpXCpHP6ndcgTjfK9p6nFCQ8vMKDeRBk55EJsKnOJK9QR4jQCUAoVHoqebJRiuYY4D5XbXyDppNxHk3-uk4I3zw9P1XTC-WapQR7oaGqYTWZsc9x5_4e2osLryrEJyOU7rzFxruN15QSEc5RQufhbVjWRUtuCUHTi8ssnpN8_x2tbKZDxJcKNybRTmhUH_VXpKtRhjHEsLBTeWOxuucVmtlDUFRWEogRP7PJRJdKGkuBhIizrzNpXdgjhBQMn8-Jt9b1TLsLEQiR4urHo-q--FNrvzwwQFfm9ifClUXIaDGIRD__KkDuEhs7TY-KoDIRNurwlyHh9h6VS2FHOP7f5nkDwzlrl2ZPVoX5ysipPQaHvGUZrmqK_60zEnuE1_s4u6fuDWzFHz-L74_Nk5jE7lm00?></g></svg>