<?plantuml 1.2026.1?><svg xmlns="http://www.w3.org/2000/svg" xmlns:xlink="http://www.w3.org/1999/xlink" contentStyleType="text/css" data-diagram-type="CLASS" height="384px" preserveAspectRatio="none" style="width:690px;height:384px;background:#FFFFFF;" version="1.1" viewBox="0 0 690 384" width="690px" zoomAndPan="magnify"><defs/><g><!--cluster io.github.ai4ci--><g class="cluster" data-qualified-name="io.github.ai4ci" data-source-line="11" id="ent0002"><path d="M16.5,4 L131.1064,4 A3.75,3.75 0 0 1 133.6064,6.5 L140.6064,26.2969 L680.5,26.2969 A2.5,2.5 0 0 1 683,28.7969 L683,348.5 A2.5,2.5 0 0 1 680.5,351 L16.5,351 A2.5,2.5 0 0 1 14,348.5 L14,6.5 A2.5,2.5 0 0 1 16.5,4" fill="none" style="stroke:#000000;stroke-width:1.5;"/><line style="stroke:#000000;stroke-width:1.5;" x1="14" x2="140.6064" y1="26.2969" y2="26.2969"/><text fill="#000000" font-family="sans-serif" font-size="14" font-weight="bold" lengthAdjust="spacing" textLength="113.6064" x="18" y="18.9951">io.github.ai4ci</text></g><!--class Import--><g class="entity" data-qualified-name="io.github.ai4ci..Import" data-source-line="13" id="ent0003"><a href="Import.html" target="_top" title="Import.html" xlink:actuate="onRequest" xlink:href="Import.html" xlink:show="new" xlink:title="Import.html" xlink:type="simple"><rect fill="#F1F1F1" height="48" rx="2.5" ry="2.5" style="stroke:#181818;stroke-width:0.5;" width="78.4639" x="219" y="31"/><ellipse cx="234" cy="47" fill="#E3664A" rx="11" ry="11" style="stroke:#181818;stroke-width:1;"/><path d="M236.0781,47.4688 Q236.0781,46.5313 235.6563,46 Q235.2344,45.4688 234.4844,45.4688 Q233.75,45.4688 233.3281,46 Q232.9219,46.5313 232.9219,47.4688 Q232.9219,48.4219 233.3281,48.9531 Q233.75,49.4844 234.4844,49.4844 Q235.2344,49.4844 235.6563,48.9531 Q236.0781,48.4219 236.0781,47.4688 Z M237.625,50.875 L236,50.875 L236,50.2031 Q235.6719,50.6406 235.25,50.8438 Q234.8281,51.0469 234.2188,51.0469 Q232.8594,51.0469 232.0313,50.0781 Q231.2031,49.0938 231.2031,47.4688 Q231.2031,45.875 232.0313,44.9063 Q232.8594,43.9219 234.2188,43.9219 Q234.8125,43.9219 235.2656,44.125 Q235.7188,44.3281 236,44.7188 L236,44.375 Q236,43.25 235.375,42.6406 Q234.75,42.0156 233.6094,42.0156 Q231.8906,42.0156 230.7969,43.5469 Q229.7031,45.0625 229.7031,47.5 Q229.7031,50.0469 230.9531,51.5469 Q232.2188,53.0469 234.3281,53.0469 Q234.9844,53.0469 235.6094,52.8594 Q236.2344,52.6719 236.8125,52.2813 L237.5781,53.7344 Q236.9063,54.1875 236.1094,54.4063 Q235.3125,54.6406 234.4063,54.6406 Q231.5,54.6406 229.7656,52.7031 Q228.0469,50.7813 228.0469,47.5 Q228.0469,44.2813 229.5938,42.3594 Q231.1563,40.4219 233.7188,40.4219 Q235.5156,40.4219 236.5625,41.5156 Q237.625,42.6094 237.625,44.4844 L237.625,50.875 Z " fill="#000000"/><text fill="#000000" font-family="sans-serif" font-size="14" lengthAdjust="spacing" textLength="46.4639" x="248" y="51.8467">Import</text><line style="stroke:#181818;stroke-width:0.5;" x1="220" x2="296.4639" y1="63" y2="63"/><line style="stroke:#181818;stroke-width:0.5;" x1="220" x2="296.4639" y1="71" y2="71"/></a></g><!--class Import.Id--><g class="entity" data-qualified-name="io.github.ai4ci..Import.Id" data-source-line="15" id="ent0004"><a href="Import.Id.html" target="_top" title="Import.Id.html" xlink:actuate="onRequest" xlink:href="Import.Id.html" xlink:show="new" xlink:title="Import.Id.html" xlink:type="simple"><rect fill="#F1F1F1" height="48" rx="2.5" ry="2.5" style="stroke:#181818;stroke-width:0.5;" width="95.9297" x="554.5" y="31"/><ellipse cx="569.5" cy="47" fill="#E3664A" rx="11" ry="11" style="stroke:#181818;stroke-width:1;"/><path d="M571.5781,47.4688 Q571.5781,46.5313 571.1563,46 Q570.7344,45.4688 569.9844,45.4688 Q569.25,45.4688 568.8281,46 Q568.4219,46.5313 568.4219,47.4688 Q568.4219,48.4219 568.8281,48.9531 Q569.25,49.4844 569.9844,49.4844 Q570.7344,49.4844 571.1563,48.9531 Q571.5781,48.4219 571.5781,47.4688 Z M573.125,50.875 L571.5,50.875 L571.5,50.2031 Q571.1719,50.6406 570.75,50.8438 Q570.3281,51.0469 569.7188,51.0469 Q568.3594,51.0469 567.5313,50.0781 Q566.7031,49.0938 566.7031,47.4688 Q566.7031,45.875 567.5313,44.9063 Q568.3594,43.9219 569.7188,43.9219 Q570.3125,43.9219 570.7656,44.125 Q571.2188,44.3281 571.5,44.7188 L571.5,44.375 Q571.5,43.25 570.875,42.6406 Q570.25,42.0156 569.1094,42.0156 Q567.3906,42.0156 566.2969,43.5469 Q565.2031,45.0625 565.2031,47.5 Q565.2031,50.0469 566.4531,51.5469 Q567.7188,53.0469 569.8281,53.0469 Q570.4844,53.0469 571.1094,52.8594 Q571.7344,52.6719 572.3125,52.2813 L573.0781,53.7344 Q572.4063,54.1875 571.6094,54.4063 Q570.8125,54.6406 569.9063,54.6406 Q567,54.6406 565.2656,52.7031 Q563.5469,50.7813 563.5469,47.5 Q563.5469,44.2813 565.0938,42.3594 Q566.6563,40.4219 569.2188,40.4219 Q571.0156,40.4219 572.0625,41.5156 Q573.125,42.6094 573.125,44.4844 L573.125,50.875 Z " fill="#000000"/><text fill="#000000" font-family="sans-serif" font-size="14" lengthAdjust="spacing" textLength="63.9297" x="583.5" y="51.8467">Import.Id</text><line style="stroke:#181818;stroke-width:0.5;" x1="555.5" x2="649.4297" y1="63" y2="63"/><line style="stroke:#181818;stroke-width:0.5;" x1="555.5" x2="649.4297" y1="71" y2="71"/></a></g><!--class SlurmAwareLogger--><g class="entity" data-qualified-name="io.github.ai4ci..SlurmAwareLogger" data-source-line="17" id="ent0005"><a href="SlurmAwareLogger.html" target="_top" title="SlurmAwareLogger.html" xlink:actuate="onRequest" xlink:href="SlurmAwareLogger.html" xlink:show="new" xlink:title="SlurmAwareLogger.html" xlink:type="simple"><rect fill="#F1F1F1" height="64.2969" rx="2.5" ry="2.5" style="stroke:#181818;stroke-width:0.5;" width="471.7031" x="22" y="101"/><ellipse cx="186.8384" cy="117" fill="#ADD1B2" rx="11" ry="11" style="stroke:#181818;stroke-width:1;"/><path d="M189.8071,122.6406 Q189.229,122.9375 188.5884,123.0781 Q187.9478,123.2344 187.2446,123.2344 Q184.7446,123.2344 183.4165,121.5938 Q182.104,119.9375 182.104,116.8125 Q182.104,113.6875 183.4165,112.0313 Q184.7446,110.375 187.2446,110.375 Q187.9478,110.375 188.5884,110.5313 Q189.2446,110.6875 189.8071,110.9844 L189.8071,113.7031 Q189.1821,113.125 188.5884,112.8594 Q187.9946,112.5781 187.3696,112.5781 Q186.0259,112.5781 185.3384,113.6563 Q184.6509,114.7188 184.6509,116.8125 Q184.6509,118.9063 185.3384,119.9844 Q186.0259,121.0469 187.3696,121.0469 Q187.9946,121.0469 188.5884,120.7813 Q189.1821,120.5 189.8071,119.9219 L189.8071,122.6406 Z " fill="#000000"/><text fill="#000000" font-family="sans-serif" font-size="14" lengthAdjust="spacing" textLength="133.5264" x="207.3384" y="121.8467">SlurmAwareLogger</text><line style="stroke:#181818;stroke-width:0.5;" x1="23" x2="492.7031" y1="133" y2="133"/><line style="stroke:#181818;stroke-width:0.5;" x1="23" x2="492.7031" y1="141" y2="141"/></a><g data-visibility-modifier="PUBLIC_METHOD"><a href="SlurmAwareLogger.html" target="_top" title="SlurmAwareLogger.html" xlink:actuate="onRequest" xlink:href="SlurmAwareLogger.html" xlink:show="new" xlink:title="SlurmAwareLogger.html" xlink:type="simple"><ellipse cx="33" cy="154.6484" fill="#84BE84" rx="3" ry="3" style="stroke:#038048;stroke-width:1;"/></a></g><a href="SlurmAwareLogger.html" target="_top" title="SlurmAwareLogger.html" xlink:actuate="onRequest" xlink:href="SlurmAwareLogger.html" xlink:show="new" xlink:title="SlurmAwareLogger.html" xlink:type="simple"><text fill="#000000" font-family="sans-serif" font-size="14" lengthAdjust="spacing" text-decoration="underline" textLength="445.7031" x="42" y="157.9951">setupLogger(ExperimentConfiguration, Path, Level, Level): void</text></a></g><!--class Data--><g class="entity" data-qualified-name="io.github.ai4ci..Data" data-source-line="21" id="ent0006"><a href="Data.html" target="_top" title="Data.html" xlink:actuate="onRequest" xlink:href="Data.html" xlink:show="new" xlink:title="Data.html" xlink:type="simple"><rect fill="#F1F1F1" height="48" rx="2.5" ry="2.5" style="stroke:#181818;stroke-width:0.5;" width="65.4277" x="225.5" y="191"/><ellipse cx="240.5" cy="207" fill="#E3664A" rx="11" ry="11" style="stroke:#181818;stroke-width:1;"/><path d="M242.5781,207.4688 Q242.5781,206.5313 242.1563,206 Q241.7344,205.4688 240.9844,205.4688 Q240.25,205.4688 239.8281,206 Q239.4219,206.5313 239.4219,207.4688 Q239.4219,208.4219 239.8281,208.9531 Q240.25,209.4844 240.9844,209.4844 Q241.7344,209.4844 242.1563,208.9531 Q242.5781,208.4219 242.5781,207.4688 Z M244.125,210.875 L242.5,210.875 L242.5,210.2031 Q242.1719,210.6406 241.75,210.8438 Q241.3281,211.0469 240.7188,211.0469 Q239.3594,211.0469 238.5313,210.0781 Q237.7031,209.0938 237.7031,207.4688 Q237.7031,205.875 238.5313,204.9063 Q239.3594,203.9219 240.7188,203.9219 Q241.3125,203.9219 241.7656,204.125 Q242.2188,204.3281 242.5,204.7188 L242.5,204.375 Q242.5,203.25 241.875,202.6406 Q241.25,202.0156 240.1094,202.0156 Q238.3906,202.0156 237.2969,203.5469 Q236.2031,205.0625 236.2031,207.5 Q236.2031,210.0469 237.4531,211.5469 Q238.7188,213.0469 240.8281,213.0469 Q241.4844,213.0469 242.1094,212.8594 Q242.7344,212.6719 243.3125,212.2813 L244.0781,213.7344 Q243.4063,214.1875 242.6094,214.4063 Q241.8125,214.6406 240.9063,214.6406 Q238,214.6406 236.2656,212.7031 Q234.5469,210.7813 234.5469,207.5 Q234.5469,204.2813 236.0938,202.3594 Q237.6563,200.4219 240.2188,200.4219 Q242.0156,200.4219 243.0625,201.5156 Q244.125,202.6094 244.125,204.4844 L244.125,210.875 Z " fill="#000000"/><text fill="#000000" font-family="sans-serif" font-size="14" lengthAdjust="spacing" textLength="33.4277" x="254.5" y="211.8467">Data</text><line style="stroke:#181818;stroke-width:0.5;" x1="226.5" x2="289.9277" y1="223" y2="223"/><line style="stroke:#181818;stroke-width:0.5;" x1="226.5" x2="289.9277" y1="231" y2="231"/></a></g><!--class Data.Mutable--><g class="entity" data-qualified-name="io.github.ai4ci..Data.Mutable" data-source-line="23" id="ent0007"><a href="Data.Mutable.html" target="_top" title="Data.Mutable.html" xlink:actuate="onRequest" xlink:href="Data.Mutable.html" xlink:show="new" xlink:title="Data.Mutable.html" xlink:type="simple"><rect fill="#F1F1F1" height="48" rx="2.5" ry="2.5" style="stroke:#181818;stroke-width:0.5;" width="126.2881" x="539.5" y="295"/><ellipse cx="554.5" cy="311" fill="#E3664A" rx="11" ry="11" style="stroke:#181818;stroke-width:1;"/><path d="M556.5781,311.4688 Q556.5781,310.5313 556.1563,310 Q555.7344,309.4688 554.9844,309.4688 Q554.25,309.4688 553.8281,310 Q553.4219,310.5313 553.4219,311.4688 Q553.4219,312.4219 553.8281,312.9531 Q554.25,313.4844 554.9844,313.4844 Q555.7344,313.4844 556.1563,312.9531 Q556.5781,312.4219 556.5781,311.4688 Z M558.125,314.875 L556.5,314.875 L556.5,314.2031 Q556.1719,314.6406 555.75,314.8438 Q555.3281,315.0469 554.7188,315.0469 Q553.3594,315.0469 552.5313,314.0781 Q551.7031,313.0938 551.7031,311.4688 Q551.7031,309.875 552.5313,308.9063 Q553.3594,307.9219 554.7188,307.9219 Q555.3125,307.9219 555.7656,308.125 Q556.2188,308.3281 556.5,308.7188 L556.5,308.375 Q556.5,307.25 555.875,306.6406 Q555.25,306.0156 554.1094,306.0156 Q552.3906,306.0156 551.2969,307.5469 Q550.2031,309.0625 550.2031,311.5 Q550.2031,314.0469 551.4531,315.5469 Q552.7188,317.0469 554.8281,317.0469 Q555.4844,317.0469 556.1094,316.8594 Q556.7344,316.6719 557.3125,316.2813 L558.0781,317.7344 Q557.4063,318.1875 556.6094,318.4063 Q555.8125,318.6406 554.9063,318.6406 Q552,318.6406 550.2656,316.7031 Q548.5469,314.7813 548.5469,311.5 Q548.5469,308.2813 550.0938,306.3594 Q551.6563,304.4219 554.2188,304.4219 Q556.0156,304.4219 557.0625,305.5156 Q558.125,306.6094 558.125,308.4844 L558.125,314.875 Z " fill="#000000"/><text fill="#000000" font-family="sans-serif" font-size="14" lengthAdjust="spacing" textLength="94.2881" x="568.5" y="315.8467">Data.Mutable</text><line style="stroke:#181818;stroke-width:0.5;" x1="540.5" x2="664.7881" y1="327" y2="327"/><line style="stroke:#181818;stroke-width:0.5;" x1="540.5" x2="664.7881" y1="335" y2="335"/></a></g><!--class Data.Partial--><g class="entity" data-qualified-name="io.github.ai4ci..Data.Partial" data-source-line="25" id="ent0008"><a href="Data.Partial.html" target="_top" title="Data.Partial.html" xlink:actuate="onRequest" xlink:href="Data.Partial.html" xlink:show="new" xlink:title="Data.Partial.html" xlink:type="simple"><rect fill="#F1F1F1" height="48" rx="2.5" ry="2.5" style="stroke:#181818;stroke-width:0.5;" width="114.5029" x="545" y="229"/><ellipse cx="560" cy="245" fill="#E3664A" rx="11" ry="11" style="stroke:#181818;stroke-width:1;"/><path d="M562.0781,245.4688 Q562.0781,244.5313 561.6563,244 Q561.2344,243.4688 560.4844,243.4688 Q559.75,243.4688 559.3281,244 Q558.9219,244.5313 558.9219,245.4688 Q558.9219,246.4219 559.3281,246.9531 Q559.75,247.4844 560.4844,247.4844 Q561.2344,247.4844 561.6563,246.9531 Q562.0781,246.4219 562.0781,245.4688 Z M563.625,248.875 L562,248.875 L562,248.2031 Q561.6719,248.6406 561.25,248.8438 Q560.8281,249.0469 560.2188,249.0469 Q558.8594,249.0469 558.0313,248.0781 Q557.2031,247.0938 557.2031,245.4688 Q557.2031,243.875 558.0313,242.9063 Q558.8594,241.9219 560.2188,241.9219 Q560.8125,241.9219 561.2656,242.125 Q561.7188,242.3281 562,242.7188 L562,242.375 Q562,241.25 561.375,240.6406 Q560.75,240.0156 559.6094,240.0156 Q557.8906,240.0156 556.7969,241.5469 Q555.7031,243.0625 555.7031,245.5 Q555.7031,248.0469 556.9531,249.5469 Q558.2188,251.0469 560.3281,251.0469 Q560.9844,251.0469 561.6094,250.8594 Q562.2344,250.6719 562.8125,250.2813 L563.5781,251.7344 Q562.9063,252.1875 562.1094,252.4063 Q561.3125,252.6406 560.4063,252.6406 Q557.5,252.6406 555.7656,250.7031 Q554.0469,248.7813 554.0469,245.5 Q554.0469,242.2813 555.5938,240.3594 Q557.1563,238.4219 559.7188,238.4219 Q561.5156,238.4219 562.5625,239.5156 Q563.625,240.6094 563.625,242.4844 L563.625,248.875 Z " fill="#000000"/><text fill="#000000" font-family="sans-serif" font-size="14" lengthAdjust="spacing" textLength="82.5029" x="574" y="249.8467">Data.Partial</text><line style="stroke:#181818;stroke-width:0.5;" x1="546" x2="658.5029" y1="261" y2="261"/><line style="stroke:#181818;stroke-width:0.5;" x1="546" x2="658.5029" y1="269" y2="269"/></a></g><!--class Data.Repository--><g class="entity" data-qualified-name="io.github.ai4ci..Data.Repository" data-source-line="27" id="ent0009"><a href="Data.Repository.html" target="_top" title="Data.Repository.html" xlink:actuate="onRequest" xlink:href="Data.Repository.html" xlink:show="new" xlink:title="Data.Repository.html" xlink:type="simple"><rect fill="#F1F1F1" height="48" rx="2.5" ry="2.5" style="stroke:#181818;stroke-width:0.5;" width="144.9502" x="530" y="163"/><ellipse cx="545" cy="179" fill="#E3664A" rx="11" ry="11" style="stroke:#181818;stroke-width:1;"/><path d="M547.0781,179.4688 Q547.0781,178.5313 546.6563,178 Q546.2344,177.4688 545.4844,177.4688 Q544.75,177.4688 544.3281,178 Q543.9219,178.5313 543.9219,179.4688 Q543.9219,180.4219 544.3281,180.9531 Q544.75,181.4844 545.4844,181.4844 Q546.2344,181.4844 546.6563,180.9531 Q547.0781,180.4219 547.0781,179.4688 Z M548.625,182.875 L547,182.875 L547,182.2031 Q546.6719,182.6406 546.25,182.8438 Q545.8281,183.0469 545.2188,183.0469 Q543.8594,183.0469 543.0313,182.0781 Q542.2031,181.0938 542.2031,179.4688 Q542.2031,177.875 543.0313,176.9063 Q543.8594,175.9219 545.2188,175.9219 Q545.8125,175.9219 546.2656,176.125 Q546.7188,176.3281 547,176.7188 L547,176.375 Q547,175.25 546.375,174.6406 Q545.75,174.0156 544.6094,174.0156 Q542.8906,174.0156 541.7969,175.5469 Q540.7031,177.0625 540.7031,179.5 Q540.7031,182.0469 541.9531,183.5469 Q543.2188,185.0469 545.3281,185.0469 Q545.9844,185.0469 546.6094,184.8594 Q547.2344,184.6719 547.8125,184.2813 L548.5781,185.7344 Q547.9063,186.1875 547.1094,186.4063 Q546.3125,186.6406 545.4063,186.6406 Q542.5,186.6406 540.7656,184.7031 Q539.0469,182.7813 539.0469,179.5 Q539.0469,176.2813 540.5938,174.3594 Q542.1563,172.4219 544.7188,172.4219 Q546.5156,172.4219 547.5625,173.5156 Q548.625,174.6094 548.625,176.4844 L548.625,182.875 Z " fill="#000000"/><text fill="#000000" font-family="sans-serif" font-size="14" lengthAdjust="spacing" textLength="112.9502" x="559" y="183.8467">Data.Repository</text><line style="stroke:#181818;stroke-width:0.5;" x1="531" x2="673.9502" y1="195" y2="195"/><line style="stroke:#181818;stroke-width:0.5;" x1="531" x2="673.9502" y1="203" y2="203"/></a></g><!--class Data.Style--><g class="entity" data-qualified-name="io.github.ai4ci..Data.Style" data-source-line="29" id="ent0010"><a href="Data.Style.html" target="_top" title="Data.Style.html" xlink:actuate="onRequest" xlink:href="Data.Style.html" xlink:show="new" xlink:title="Data.Style.html" xlink:type="simple"><rect fill="#F1F1F1" height="48" rx="2.5" ry="2.5" style="stroke:#181818;stroke-width:0.5;" width="105.042" x="550" y="97"/><ellipse cx="565" cy="113" fill="#E3664A" rx="11" ry="11" style="stroke:#181818;stroke-width:1;"/><path d="M567.0781,113.4688 Q567.0781,112.5313 566.6563,112 Q566.2344,111.4688 565.4844,111.4688 Q564.75,111.4688 564.3281,112 Q563.9219,112.5313 563.9219,113.4688 Q563.9219,114.4219 564.3281,114.9531 Q564.75,115.4844 565.4844,115.4844 Q566.2344,115.4844 566.6563,114.9531 Q567.0781,114.4219 567.0781,113.4688 Z M568.625,116.875 L567,116.875 L567,116.2031 Q566.6719,116.6406 566.25,116.8438 Q565.8281,117.0469 565.2188,117.0469 Q563.8594,117.0469 563.0313,116.0781 Q562.2031,115.0938 562.2031,113.4688 Q562.2031,111.875 563.0313,110.9063 Q563.8594,109.9219 565.2188,109.9219 Q565.8125,109.9219 566.2656,110.125 Q566.7188,110.3281 567,110.7188 L567,110.375 Q567,109.25 566.375,108.6406 Q565.75,108.0156 564.6094,108.0156 Q562.8906,108.0156 561.7969,109.5469 Q560.7031,111.0625 560.7031,113.5 Q560.7031,116.0469 561.9531,117.5469 Q563.2188,119.0469 565.3281,119.0469 Q565.9844,119.0469 566.6094,118.8594 Q567.2344,118.6719 567.8125,118.2813 L568.5781,119.7344 Q567.9063,120.1875 567.1094,120.4063 Q566.3125,120.6406 565.4063,120.6406 Q562.5,120.6406 560.7656,118.7031 Q559.0469,116.7813 559.0469,113.5 Q559.0469,110.2813 560.5938,108.3594 Q562.1563,106.4219 564.7188,106.4219 Q566.5156,106.4219 567.5625,107.5156 Q568.625,108.6094 568.625,110.4844 L568.625,116.875 Z " fill="#000000"/><text fill="#000000" font-family="sans-serif" font-size="14" lengthAdjust="spacing" textLength="73.042" x="579" y="117.8467">Data.Style</text><line style="stroke:#181818;stroke-width:0.5;" x1="551" x2="654.042" y1="129" y2="129"/><line style="stroke:#181818;stroke-width:0.5;" x1="551" x2="654.042" y1="137" y2="137"/></a></g><!--class JPanSim2--><g class="entity" data-qualified-name="io.github.ai4ci..JPanSim2" data-source-line="31" id="ent0011"><a href="JPanSim2.html" target="_top" title="JPanSim2.html" xlink:actuate="onRequest" xlink:href="JPanSim2.html" xlink:show="new" xlink:title="JPanSim2.html" xlink:type="simple"><rect fill="#F1F1F1" height="64.2969" rx="2.5" ry="2.5" style="stroke:#181818;stroke-width:0.5;" width="165.8291" x="175" y="274"/><ellipse cx="220.9922" cy="290" fill="#ADD1B2" rx="11" ry="11" style="stroke:#181818;stroke-width:1;"/><path d="M223.9609,295.6406 Q223.3828,295.9375 222.7422,296.0781 Q222.1016,296.2344 221.3984,296.2344 Q218.8984,296.2344 217.5703,294.5938 Q216.2578,292.9375 216.2578,289.8125 Q216.2578,286.6875 217.5703,285.0313 Q218.8984,283.375 221.3984,283.375 Q222.1016,283.375 222.7422,283.5313 Q223.3984,283.6875 223.9609,283.9844 L223.9609,286.7031 Q223.3359,286.125 222.7422,285.8594 Q222.1484,285.5781 221.5234,285.5781 Q220.1797,285.5781 219.4922,286.6563 Q218.8047,287.7188 218.8047,289.8125 Q218.8047,291.9063 219.4922,292.9844 Q220.1797,294.0469 221.5234,294.0469 Q222.1484,294.0469 222.7422,293.7813 Q223.3359,293.5 223.9609,292.9219 L223.9609,295.6406 Z " fill="#000000"/><text fill="#000000" font-family="sans-serif" font-size="14" lengthAdjust="spacing" textLength="65.3447" x="241.4922" y="294.8467">JPanSim2</text><line style="stroke:#181818;stroke-width:0.5;" x1="176" x2="339.8291" y1="306" y2="306"/><line style="stroke:#181818;stroke-width:0.5;" x1="176" x2="339.8291" y1="314" y2="314"/></a><g data-visibility-modifier="PUBLIC_METHOD"><a href="JPanSim2.html" target="_top" title="JPanSim2.html" xlink:actuate="onRequest" xlink:href="JPanSim2.html" xlink:show="new" xlink:title="JPanSim2.html" xlink:type="simple"><ellipse cx="186" cy="327.6484" fill="#84BE84" rx="3" ry="3" style="stroke:#038048;stroke-width:1;"/></a></g><a href="JPanSim2.html" target="_top" title="JPanSim2.html" xlink:actuate="onRequest" xlink:href="JPanSim2.html" xlink:show="new" xlink:title="JPanSim2.html" xlink:type="simple"><text fill="#000000" font-family="sans-serif" font-size="14" lengthAdjust="spacing" text-decoration="underline" textLength="139.8291" x="195" y="330.9951">main(String...): void</text></a></g><g class="link" data-entity-1="ent0003" data-entity-2="ent0004" data-link-type="nested" id="lnk12"><ellipse cx="305.2922" cy="55" fill="#FFFFFF" rx="8" ry="8" style="stroke:#181818;stroke-width:1;"/><line style="stroke:#181818;stroke-width:1;" x1="313.2922" x2="297.2922" y1="55" y2="55"/><line style="stroke:#181818;stroke-width:1;" x1="305.2922" x2="305.2922" y1="63" y2="47"/><path d="M313.2922,55 C376.3952,55 486.0415,55 554.4554,55" fill="none" style="stroke:#181818;stroke-width:1;"/></g><g class="link" data-entity-1="ent0006" data-entity-2="ent0007" data-link-type="nested" id="lnk13"><ellipse cx="298.6419" cy="219.4929" fill="#FFFFFF" rx="8" ry="8" style="stroke:#181818;stroke-width:1;"/><line style="stroke:#181818;stroke-width:1;" x1="306.5793" x2="290.7045" y1="220.4914" y2="218.4943"/><line style="stroke:#181818;stroke-width:1;" x1="297.6434" x2="299.6405" y1="227.4303" y2="211.5555"/><path d="M306.5793,220.4914 C352.6006,226.2811 424.1632,238.0046 494,265 C511.2774,271.6786 513.572,277.4424 530,286 C535.6988,288.9686 541.7151,291.9595 547.7402,294.8644" fill="none" style="stroke:#181818;stroke-width:1;"/></g><g class="link" data-entity-1="ent0006" data-entity-2="ent0008" data-link-type="nested" id="lnk14"><ellipse cx="298.5589" cy="219.389" fill="#FFFFFF" rx="8" ry="8" style="stroke:#181818;stroke-width:1;"/><line style="stroke:#181818;stroke-width:1;" x1="306.5101" x2="290.6077" y1="220.2712" y2="218.5068"/><line style="stroke:#181818;stroke-width:1;" x1="297.6767" x2="299.4411" y1="227.3402" y2="211.4378"/><path d="M306.5101,220.2712 C364.3884,226.6927 472.2122,238.6557 544.9191,246.7224" fill="none" style="stroke:#181818;stroke-width:1;"/></g><g class="link" data-entity-1="ent0006" data-entity-2="ent0009" data-link-type="nested" id="lnk15"><ellipse cx="298.5811" cy="211.7642" fill="#FFFFFF" rx="8" ry="8" style="stroke:#181818;stroke-width:1;"/><line style="stroke:#181818;stroke-width:1;" x1="306.5545" x2="290.6077" y1="211.1123" y2="212.416"/><line style="stroke:#181818;stroke-width:1;" x1="299.2329" x2="297.9292" y1="219.7376" y2="203.7908"/><path d="M306.5545,211.1123 C360.6239,206.6921 456.2129,198.8775 529.9354,192.8505" fill="none" style="stroke:#181818;stroke-width:1;"/></g><g class="link" data-entity-1="ent0006" data-entity-2="ent0010" data-link-type="nested" id="lnk16"><ellipse cx="298.6094" cy="212.1721" fill="#FFFFFF" rx="8" ry="8" style="stroke:#181818;stroke-width:1;"/><line style="stroke:#181818;stroke-width:1;" x1="306.5811" x2="290.6377" y1="211.4999" y2="212.8443"/><line style="stroke:#181818;stroke-width:1;" x1="299.2816" x2="297.9371" y1="220.1438" y2="204.2004"/><path d="M306.5811,211.4999 C352.5201,207.626 423.9137,198.7853 494,174 C511.2561,167.8976 513.6793,162.2853 530,154 C536.3391,150.7819 543.0531,147.5096 549.728,144.3379" fill="none" style="stroke:#181818;stroke-width:1;"/></g><g class="footer" data-source-line="49"><text fill="#888888" font-family="sans-serif" font-size="10" lengthAdjust="spacing" textLength="3.1787" x="335.4106" y="362.2822">&#160;</text><a href="https://github.com/talsma-ict/umldoclet" target="_top" title="https://github.com/talsma-ict/umldoclet" xlink:actuate="onRequest" xlink:href="https://github.com/talsma-ict/umldoclet" xlink:show="new" xlink:title="https://github.com/talsma-ict/umldoclet" xlink:type="simple"><text fill="#888888" font-family="sans-serif" font-size="10" lengthAdjust="spacing" textLength="140.4639" x="266.7681" y="373.9229">UMLDoclet 2.2.5-SNAPSHOT</text></a></g><?plantuml-src dLHDRzim3BttLt3OOIcQE8wRPQqn30ZIOasHRa6TNfRrmDYABLIMF8bE5nJzxvC_yj4kQO3w8alK8n_vA080V8A1ofQQnma1AQ246xYx6G7A268ccKPY4V0KOsPWneIIiQakCi2S4gL1pSjTgBHc9bCouZA6QrmW69Nha1ddw0ZAK9ELzqSqMzvdo-BmGeM24JG6nrkKFBVJQtckruC92fCY30SJf_QsmNYEvtnk1J_wu-3gvmHi4C539etrdSk8wP9VFyFGBgFAqeG5quOhQS5kxR38ELIIa4i36MeoHMvZWP8AqXsd8E9qeD4FHYz9kkSboIRqjSGyWblr9r_d_I7J65lg0fSg9p0f8vHOcWIRbsMl_4HSiv0ifz9cR6A6MHf8jiY-NpcpIJnOBO0h9-QKv3C7UJVay5IPYm-bL8I57nYccT84qsdruoIKYllxDwuwmsXpUnZz1mW56WE1o7NQVqJDHYgERNsdqzT7DTBoWgtloHJHmcSuiTdbMNMrSVatOvgdJD90oJcFSrrIQi8OAMd2Y2sOg9TZ7nQAHskdppjpkK12owbOtagvjD_aX3F1LjVhxK7OsBO7Hx62rTk3i5kMASEjeCiLSdDo41pGSaEqtEpHvtgCCk2fP--kVW_faTgcRmIaxTjr76TFcUlbLU_vVjrc9wtMFfljfTtGKggTm6qvteMjDNaNTgFAk-2bE5MnlfhY_zkwb7EboBwObpfSBUqB677vC532FlQFPxkjTyKm4rmoEqZ31ycirEwMHcMuzbQyEjPlEPqcH9dns-sQRAZIDfKJjSL3QkUfYAfHkc-esYQhXkJtzTWk9bxBzLeTR-AU-LtNx_QSKxTxwdNElfp_cbvIsBwR3Ex_0G00?></g></svg>