<?plantuml 1.2026.1?><svg xmlns="http://www.w3.org/2000/svg" xmlns:xlink="http://www.w3.org/1999/xlink" contentStyleType="text/css" data-diagram-type="CLASS" height="131px" preserveAspectRatio="none" style="width:672px;height:131px;background:#FFFFFF;" version="1.1" viewBox="0 0 672 131" width="672px" zoomAndPan="magnify"><defs/><g><!--class io.github.ai4ci.flow.mechanics.ModelOperation.PersonStateUpdater--><g class="entity" data-qualified-name="io.github.ai4ci.flow.mechanics.ModelOperation.PersonStateUpdater" data-source-line="14" id="ent0002"><a href="ModelOperation.PersonStateUpdater.html" target="_top" title="ModelOperation.PersonStateUpdater.html" xlink:actuate="onRequest" xlink:href="ModelOperation.PersonStateUpdater.html" xlink:show="new" xlink:title="ModelOperation.PersonStateUpdater.html" xlink:type="simple"><rect fill="#F1F1F1" height="37.9375" rx="2.5" ry="2.5" style="stroke:#181818;stroke-width:0.5;" width="289.2158" x="376" y="40"/><ellipse cx="391" cy="58.9688" fill="#ADD1B2" rx="11" ry="11" style="stroke:#181818;stroke-width:1;"/><path d="M393.9688,64.6094 Q393.3906,64.9063 392.75,65.0469 Q392.1094,65.2031 391.4063,65.2031 Q388.9063,65.2031 387.5781,63.5625 Q386.2656,61.9063 386.2656,58.7813 Q386.2656,55.6563 387.5781,54 Q388.9063,52.3438 391.4063,52.3438 Q392.1094,52.3438 392.75,52.5 Q393.4063,52.6563 393.9688,52.9531 L393.9688,55.6719 Q393.3438,55.0938 392.75,54.8281 Q392.1563,54.5469 391.5313,54.5469 Q390.1875,54.5469 389.5,55.625 Q388.8125,56.6875 388.8125,58.7813 Q388.8125,60.875 389.5,61.9531 Q390.1875,63.0156 391.5313,63.0156 Q392.1563,63.0156 392.75,62.75 Q393.3438,62.4688 393.9688,61.8906 L393.9688,64.6094 Z " fill="#000000"/><text fill="#000000" font-family="sans-serif" font-size="14" lengthAdjust="spacing" textLength="257.2158" x="405" y="57.9951">ModelOperation.PersonStateUpdater</text><text fill="#000000" font-family="sans-serif" font-size="10" lengthAdjust="spacing" textLength="151.5039" x="457.856" y="70.5791">io.github.ai4ci.flow.mechanics</text></a></g><!--class io.github.ai4ci.flow.mechanics.ModelOperation.UpdateStage--><g class="entity" data-qualified-name="io.github.ai4ci.flow.mechanics.ModelOperation.UpdateStage" data-source-line="17" id="ent0003"><a href="ModelOperation.UpdateStage.html" target="_top" title="ModelOperation.UpdateStage.html" xlink:actuate="onRequest" xlink:href="ModelOperation.UpdateStage.html" xlink:show="new" xlink:title="ModelOperation.UpdateStage.html" xlink:type="simple"><rect fill="#F1F1F1" height="37.9375" rx="2.5" ry="2.5" style="stroke:#181818;stroke-width:0.5;" width="334.1338" x="6" y="12"/><ellipse cx="21" cy="30.9688" fill="#ADD1B2" rx="11" ry="11" style="stroke:#181818;stroke-width:1;"/><path d="M23.9688,36.6094 Q23.3906,36.9063 22.75,37.0469 Q22.1094,37.2031 21.4063,37.2031 Q18.9063,37.2031 17.5781,35.5625 Q16.2656,33.9063 16.2656,30.7813 Q16.2656,27.6563 17.5781,26 Q18.9063,24.3438 21.4063,24.3438 Q22.1094,24.3438 22.75,24.5 Q23.4063,24.6563 23.9688,24.9531 L23.9688,27.6719 Q23.3438,27.0938 22.75,26.8281 Q22.1563,26.5469 21.5313,26.5469 Q20.1875,26.5469 19.5,27.625 Q18.8125,28.6875 18.8125,30.7813 Q18.8125,32.875 19.5,33.9531 Q20.1875,35.0156 21.5313,35.0156 Q22.1563,35.0156 22.75,34.75 Q23.3438,34.4688 23.9688,33.8906 L23.9688,36.6094 Z " fill="#000000"/><text fill="#000000" font-family="sans-serif" font-size="14" lengthAdjust="spacing" textLength="207.3135" x="35" y="29.9951">ModelOperation.UpdateStage</text><text fill="#000000" font-family="sans-serif" font-size="10" lengthAdjust="spacing" textLength="151.5039" x="62.9048" y="42.5791">io.github.ai4ci.flow.mechanics</text><rect fill="#FFFFFF" height="15.9688" style="stroke:#181818;stroke-width:1;stroke-dasharray:2,2;" width="92.8203" x="250.3135" y="9"/><text fill="#000000" font-family="sans-serif" font-size="12" font-style="italic" lengthAdjust="spacing" textLength="90.8203" x="251.3135" y="21.1387">Builder, Person</text></a></g><!--class io.github.ai4ci.flow.mechanics.ModelOperation--><g class="entity" data-qualified-name="io.github.ai4ci.flow.mechanics.ModelOperation" data-source-line="18" id="ent0004"><a href="ModelOperation.html" target="_top" title="ModelOperation.html" xlink:actuate="onRequest" xlink:href="ModelOperation.html" xlink:show="new" xlink:title="ModelOperation.html" xlink:type="simple"><rect fill="#F1F1F1" height="37.9375" rx="2.5" ry="2.5" style="stroke:#181818;stroke-width:0.5;" width="183.5039" x="81" y="68"/><ellipse cx="96" cy="86.9688" fill="#ADD1B2" rx="11" ry="11" style="stroke:#181818;stroke-width:1;"/><path d="M98.9688,92.6094 Q98.3906,92.9063 97.75,93.0469 Q97.1094,93.2031 96.4063,93.2031 Q93.9063,93.2031 92.5781,91.5625 Q91.2656,89.9063 91.2656,86.7813 Q91.2656,83.6563 92.5781,82 Q93.9063,80.3438 96.4063,80.3438 Q97.1094,80.3438 97.75,80.5 Q98.4063,80.6563 98.9688,80.9531 L98.9688,83.6719 Q98.3438,83.0938 97.75,82.8281 Q97.1563,82.5469 96.5313,82.5469 Q95.1875,82.5469 94.5,83.625 Q93.8125,84.6875 93.8125,86.7813 Q93.8125,88.875 94.5,89.9531 Q95.1875,91.0156 96.5313,91.0156 Q97.1563,91.0156 97.75,90.75 Q98.3438,90.4688 98.9688,89.8906 L98.9688,92.6094 Z " fill="#000000"/><text fill="#000000" font-family="sans-serif" font-size="14" lengthAdjust="spacing" textLength="111.7061" x="129.8989" y="85.9951">ModelOperation</text><text fill="#000000" font-family="sans-serif" font-size="10" lengthAdjust="spacing" textLength="151.5039" x="110" y="98.5791">io.github.ai4ci.flow.mechanics</text></a></g><g class="link" data-entity-1="ent0003" data-entity-2="ent0002" data-link-type="extension" id="lnk5"><polygon fill="none" points="340.1721,44.4669,357.6286,51.9013,358.5979,39.9405,340.1721,44.4669" style="stroke:#181818;stroke-width:1;"/><path d="M358.1132,45.9209 C370.0415,46.8876 364.0704,46.4037 375.8545,47.3587" fill="none" style="stroke:#181818;stroke-width:1;"/></g><g class="link" data-entity-1="ent0004" data-entity-2="ent0002" data-link-type="nested" id="lnk6"><ellipse cx="273.2019" cy="78.9605" fill="#FFFFFF" rx="8" ry="8" style="stroke:#181818;stroke-width:1;"/><line style="stroke:#181818;stroke-width:1;" x1="281.1757" x2="265.228" y1="78.3143" y2="79.6067"/><line style="stroke:#181818;stroke-width:1;" x1="273.8481" x2="272.5556" y1="86.9343" y2="70.9866"/><path d="M281.1757,78.3143 C315.063,75.568 338.433,73.674 375.8716,70.6399" fill="none" style="stroke:#181818;stroke-width:1;"/></g><g class="footer" data-source-line="29"><text fill="#888888" font-family="sans-serif" font-size="10" lengthAdjust="spacing" textLength="3.1787" x="330.4106" y="109.2822">&#160;</text><a href="https://github.com/talsma-ict/umldoclet" target="_top" title="https://github.com/talsma-ict/umldoclet" xlink:actuate="onRequest" xlink:href="https://github.com/talsma-ict/umldoclet" xlink:show="new" xlink:title="https://github.com/talsma-ict/umldoclet" xlink:type="simple"><text fill="#888888" font-family="sans-serif" font-size="10" lengthAdjust="spacing" textLength="140.4639" x="261.7681" y="120.9229">UMLDoclet 2.2.5-SNAPSHOT</text></a></g><?plantuml-src jLHDSzCm4BttLopbq3B4YcrC9sGocGc1eMLIsY79XJG7LTxOcigIaUHsGkb_HvPD21He-QWF_bZjxdjlTxq007imLkLQyootO1NOd1kO7q-0oXGobAYfnHHuGJCqS8v2oSmqZWYqihdIe5R-YocjqPHAfbncy9PUKZ2gqWmDsTa13pNxclsAcgtiv-lQ-4enWHRsnq-sACLXT134ONm0CofCGU5eF2DjjcynCOd9ys3wRdGwFJoPWGCHdA4qBdSbKzIUtwYap3qcpKa7Bb4RhgGB3jk4jMQcfALS6YYfjgRMTYgej3NfYDH4I0Jxe-daUvBX2q-o0oCjQPN2U_MnskX-L6gQEUg2hbLbmHHegQJ-IE3Abxt9atADp3fEJPnnoYGjN4qfmoawGjIwSaibqP_dF4N0ehHhM74KgVdHwe1ovSpUpWGr1dO7Xd_2VfGCZrMAugIiM-0GoQchXf9JwneoBrDtrsUozGs7N96Csxmw9vGdZ9ELK5UaG9PJoPdP1TVDtxkGEz5WiRZJX-Is4CibN7j1D_VIrOIwB1a-fA0jcC7BYWitT1re50nlIzloRZNTGye3qh_Di6NbQVrr9M3mEGZ-UJB-d0Cy_H-m7dTWx5hWqB_NrqgfUbYlDuRwEboxF1CkByPAk1_qSU_df_Dw5GakqQr1TY7HzJhSUDuqSDqjl1RhJ2uMkRMbwNUxhIAcYgxr-p3Wp7QhGgJD8lpLIcm7R0_UR9PklQ-2C0wYU1Q5_QJNJnAIF0kJg1SUH1yMhothpcVZvHS0?></g></svg>