<?plantuml 1.2026.1?><svg xmlns="http://www.w3.org/2000/svg" xmlns:xlink="http://www.w3.org/1999/xlink" contentStyleType="text/css" data-diagram-type="CLASS" height="131px" preserveAspectRatio="none" style="width:704px;height:131px;background:#FFFFFF;" version="1.1" viewBox="0 0 704 131" width="704px" zoomAndPan="magnify"><defs/><g><!--class io.github.ai4ci.flow.mechanics.ModelOperation.OutbreakStateUpdater--><g class="entity" data-qualified-name="io.github.ai4ci.flow.mechanics.ModelOperation.OutbreakStateUpdater" data-source-line="14" id="ent0002"><a href="ModelOperation.OutbreakStateUpdater.html" target="_top" title="ModelOperation.OutbreakStateUpdater.html" xlink:actuate="onRequest" xlink:href="ModelOperation.OutbreakStateUpdater.html" xlink:show="new" xlink:title="ModelOperation.OutbreakStateUpdater.html" xlink:type="simple"><rect fill="#F1F1F1" height="37.9375" rx="2.5" ry="2.5" style="stroke:#181818;stroke-width:0.5;" width="306.9961" x="391" y="40"/><ellipse cx="406" cy="58.9688" fill="#ADD1B2" rx="11" ry="11" style="stroke:#181818;stroke-width:1;"/><path d="M408.9688,64.6094 Q408.3906,64.9063 407.75,65.0469 Q407.1094,65.2031 406.4063,65.2031 Q403.9063,65.2031 402.5781,63.5625 Q401.2656,61.9063 401.2656,58.7813 Q401.2656,55.6563 402.5781,54 Q403.9063,52.3438 406.4063,52.3438 Q407.1094,52.3438 407.75,52.5 Q408.4063,52.6563 408.9688,52.9531 L408.9688,55.6719 Q408.3438,55.0938 407.75,54.8281 Q407.1563,54.5469 406.5313,54.5469 Q405.1875,54.5469 404.5,55.625 Q403.8125,56.6875 403.8125,58.7813 Q403.8125,60.875 404.5,61.9531 Q405.1875,63.0156 406.5313,63.0156 Q407.1563,63.0156 407.75,62.75 Q408.3438,62.4688 408.9688,61.8906 L408.9688,64.6094 Z " fill="#000000"/><text fill="#000000" font-family="sans-serif" font-size="14" lengthAdjust="spacing" textLength="274.9961" x="420" y="57.9951">ModelOperation.OutbreakStateUpdater</text><text fill="#000000" font-family="sans-serif" font-size="10" lengthAdjust="spacing" textLength="151.5039" x="481.7461" y="70.5791">io.github.ai4ci.flow.mechanics</text></a></g><!--class io.github.ai4ci.flow.mechanics.ModelOperation.UpdateStage--><g class="entity" data-qualified-name="io.github.ai4ci.flow.mechanics.ModelOperation.UpdateStage" data-source-line="17" id="ent0003"><a href="ModelOperation.UpdateStage.html" target="_top" title="ModelOperation.UpdateStage.html" xlink:actuate="onRequest" xlink:href="ModelOperation.UpdateStage.html" xlink:show="new" xlink:title="ModelOperation.UpdateStage.html" xlink:type="simple"><rect fill="#F1F1F1" height="37.9375" rx="2.5" ry="2.5" style="stroke:#181818;stroke-width:0.5;" width="349.374" x="6" y="12"/><ellipse cx="21" cy="30.9688" fill="#ADD1B2" rx="11" ry="11" style="stroke:#181818;stroke-width:1;"/><path d="M23.9688,36.6094 Q23.3906,36.9063 22.75,37.0469 Q22.1094,37.2031 21.4063,37.2031 Q18.9063,37.2031 17.5781,35.5625 Q16.2656,33.9063 16.2656,30.7813 Q16.2656,27.6563 17.5781,26 Q18.9063,24.3438 21.4063,24.3438 Q22.1094,24.3438 22.75,24.5 Q23.4063,24.6563 23.9688,24.9531 L23.9688,27.6719 Q23.3438,27.0938 22.75,26.8281 Q22.1563,26.5469 21.5313,26.5469 Q20.1875,26.5469 19.5,27.625 Q18.8125,28.6875 18.8125,30.7813 Q18.8125,32.875 19.5,33.9531 Q20.1875,35.0156 21.5313,35.0156 Q22.1563,35.0156 22.75,34.75 Q23.3438,34.4688 23.9688,33.8906 L23.9688,36.6094 Z " fill="#000000"/><text fill="#000000" font-family="sans-serif" font-size="14" lengthAdjust="spacing" textLength="207.3135" x="35" y="29.9951">ModelOperation.UpdateStage</text><text fill="#000000" font-family="sans-serif" font-size="10" lengthAdjust="spacing" textLength="151.5039" x="62.9048" y="42.5791">io.github.ai4ci.flow.mechanics</text><rect fill="#FFFFFF" height="15.9688" style="stroke:#181818;stroke-width:1;stroke-dasharray:2,2;" width="108.0605" x="250.3135" y="9"/><text fill="#000000" font-family="sans-serif" font-size="12" font-style="italic" lengthAdjust="spacing" textLength="106.0605" x="251.3135" y="21.1387">Builder, Outbreak</text></a></g><!--class io.github.ai4ci.flow.mechanics.ModelOperation--><g class="entity" data-qualified-name="io.github.ai4ci.flow.mechanics.ModelOperation" data-source-line="18" id="ent0004"><a href="ModelOperation.html" target="_top" title="ModelOperation.html" xlink:actuate="onRequest" xlink:href="ModelOperation.html" xlink:show="new" xlink:title="ModelOperation.html" xlink:type="simple"><rect fill="#F1F1F1" height="37.9375" rx="2.5" ry="2.5" style="stroke:#181818;stroke-width:0.5;" width="183.5039" x="88.5" y="68"/><ellipse cx="103.5" cy="86.9688" fill="#ADD1B2" rx="11" ry="11" style="stroke:#181818;stroke-width:1;"/><path d="M106.4688,92.6094 Q105.8906,92.9063 105.25,93.0469 Q104.6094,93.2031 103.9063,93.2031 Q101.4063,93.2031 100.0781,91.5625 Q98.7656,89.9063 98.7656,86.7813 Q98.7656,83.6563 100.0781,82 Q101.4063,80.3438 103.9063,80.3438 Q104.6094,80.3438 105.25,80.5 Q105.9063,80.6563 106.4688,80.9531 L106.4688,83.6719 Q105.8438,83.0938 105.25,82.8281 Q104.6563,82.5469 104.0313,82.5469 Q102.6875,82.5469 102,83.625 Q101.3125,84.6875 101.3125,86.7813 Q101.3125,88.875 102,89.9531 Q102.6875,91.0156 104.0313,91.0156 Q104.6563,91.0156 105.25,90.75 Q105.8438,90.4688 106.4688,89.8906 L106.4688,92.6094 Z " fill="#000000"/><text fill="#000000" font-family="sans-serif" font-size="14" lengthAdjust="spacing" textLength="111.7061" x="137.3989" y="85.9951">ModelOperation</text><text fill="#000000" font-family="sans-serif" font-size="10" lengthAdjust="spacing" textLength="151.5039" x="117.5" y="98.5791">io.github.ai4ci.flow.mechanics</text></a></g><g class="link" data-entity-1="ent0003" data-entity-2="ent0002" data-link-type="extension" id="lnk5"><polygon fill="none" points="355.078,44.4259,372.5617,51.7962,373.4871,39.8319,355.078,44.4259" style="stroke:#181818;stroke-width:1;"/><path d="M373.0244,45.814 C385.0005,46.7404 379.0735,46.2819 390.9262,47.1987" fill="none" style="stroke:#181818;stroke-width:1;"/></g><g class="link" data-entity-1="ent0004" data-entity-2="ent0002" data-link-type="nested" id="lnk6"><ellipse cx="280.8241" cy="79.3175" fill="#FFFFFF" rx="8" ry="8" style="stroke:#181818;stroke-width:1;"/><line style="stroke:#181818;stroke-width:1;" x1="288.8002" x2="272.8479" y1="78.7005" y2="79.9344"/><line style="stroke:#181818;stroke-width:1;" x1="281.441" x2="280.2071" y1="87.2937" y2="71.3413"/><path d="M288.8002,78.7005 C324.6166,75.9302 350.7464,73.9091 390.9139,70.8022" fill="none" style="stroke:#181818;stroke-width:1;"/></g><g class="footer" data-source-line="29"><text fill="#888888" font-family="sans-serif" font-size="10" lengthAdjust="spacing" textLength="3.1787" x="346.9106" y="109.2822">&#160;</text><a href="https://github.com/talsma-ict/umldoclet" target="_top" title="https://github.com/talsma-ict/umldoclet" xlink:actuate="onRequest" xlink:href="https://github.com/talsma-ict/umldoclet" xlink:show="new" xlink:title="https://github.com/talsma-ict/umldoclet" xlink:type="simple"><text fill="#888888" font-family="sans-serif" font-size="10" lengthAdjust="spacing" textLength="140.4639" x="278.2681" y="120.9229">UMLDoclet 2.2.5-SNAPSHOT</text></a></g><?plantuml-src jLHTRzCm57tVhxYCXmsnk6dQJMrLLIe5iQ6EJRHzeTk3wzmcLXqxsCwcClRVSPoi50Qee2qF-RXVvnpVcmi0S00ZbQyrJr8BLe5DkO7P-HYeZ251YPfQZ85dD4432nHA9gOAHA25JPK6jVHVJ6cD9bSovZA13_I6Wb65PcZ8tXvugEb3zLjgjgelrgNnhM82BHoENcrHYiBcIH25qGbCgJ0PXRFHbDJLVkH492B7mUJZy79oUZ451o8uGsbSxKB6g3s_OKwPUumhpn7Se3PSIPSSrWLBpKn9Ixaqa5DjJQdjKb1fIz9DKX8XJJWSJiO_amoxdkGH3BMaHGoVr9TYe_j5hcdYg0kwLeK5aw6badgNmAK_zgfEp3KowpXLUSOfapHpPqePJj0HejOTjrGIlJ_bCG9ckLt3agE8pQzM1vGgP_Ps9gWniDyt_2lsckt1kOfHNEHb2nmYkIZiGYDTJQnhoIoFtLrVoJew77154cxJOa4eRpDEbaBTaWnPIYLdPXzSF_yUGdR0W_byXoYIsanSNyETbtM_axegrLL9y3b5RS7qtnHSkD4xWWSDWyVojk9hLJk8UKO1ZndMh3oj_puBw7yBWYUOZtzd0Q-V1jWZzurT2npuz_9QAbKExTt6K5wdQrTfpELgf8JxMLzsVk-TbMj9S8bk9RALHDVlS1DvNy4rjl1gh2ivdwVMvgRNQDIQcCeQrk_6W3FRA38HLqlnJ-kn7h83UBzPmENk2i8eQBQcKTIBMhrcYtGwdMutRBMFFy_VMTQOJKVNtm40?></g></svg>