<?plantuml 1.2026.1?><svg xmlns="http://www.w3.org/2000/svg" xmlns:xlink="http://www.w3.org/1999/xlink" contentStyleType="text/css" data-diagram-type="CLASS" height="116px" preserveAspectRatio="none" style="width:673px;height:116px;background:#FFFFFF;" version="1.1" viewBox="0 0 673 116" width="673px" zoomAndPan="magnify"><defs/><g><!--class io.github.ai4ci.flow.mechanics.ModelOperation.UpdateStage--><g class="entity" data-qualified-name="io.github.ai4ci.flow.mechanics.ModelOperation.UpdateStage" data-source-line="14" id="ent0002"><a href="ModelOperation.UpdateStage.html" target="_top" title="ModelOperation.UpdateStage.html" xlink:actuate="onRequest" xlink:href="ModelOperation.UpdateStage.html" xlink:show="new" xlink:title="ModelOperation.UpdateStage.html" xlink:type="simple"><rect fill="#F1F1F1" height="78.5313" rx="2.5" ry="2.5" style="stroke:#181818;stroke-width:0.5;" width="436.6621" x="226" y="12"/><ellipse cx="284.7104" cy="30.9688" fill="#ADD1B2" rx="11" ry="11" style="stroke:#181818;stroke-width:1;"/><path d="M287.6792,36.6094 Q287.1011,36.9063 286.4604,37.0469 Q285.8198,37.2031 285.1167,37.2031 Q282.6167,37.2031 281.2886,35.5625 Q279.9761,33.9063 279.9761,30.7813 Q279.9761,27.6563 281.2886,26 Q282.6167,24.3438 285.1167,24.3438 Q285.8198,24.3438 286.4604,24.5 Q287.1167,24.6563 287.6792,24.9531 L287.6792,27.6719 Q287.0542,27.0938 286.4604,26.8281 Q285.8667,26.5469 285.2417,26.5469 Q283.8979,26.5469 283.2104,27.625 Q282.5229,28.6875 282.5229,30.7813 Q282.5229,32.875 283.2104,33.9531 Q283.8979,35.0156 285.2417,35.0156 Q285.8667,35.0156 286.4604,34.75 Q287.0542,34.4688 287.6792,33.8906 L287.6792,36.6094 Z " fill="#000000"/><text fill="#000000" font-family="sans-serif" font-size="14" lengthAdjust="spacing" textLength="207.3135" x="305.2104" y="29.9951">ModelOperation.UpdateStage</text><text fill="#000000" font-family="sans-serif" font-size="10" lengthAdjust="spacing" textLength="151.5039" x="333.1152" y="42.5791">io.github.ai4ci.flow.mechanics</text><rect fill="#FFFFFF" height="15.9688" style="stroke:#181818;stroke-width:1;stroke-dasharray:2,2;" width="101.4277" x="564.2344" y="9"/><text fill="#000000" font-family="sans-serif" font-size="12" font-style="italic" lengthAdjust="spacing" textLength="99.4277" x="565.2344" y="21.1387">FACTORY, INPUT</text><line style="stroke:#181818;stroke-width:0.5;" x1="227" x2="661.6621" y1="49.9375" y2="49.9375"/></a><g data-visibility-modifier="PUBLIC_METHOD"><a href="ModelOperation.UpdateStage.html" target="_top" title="ModelOperation.UpdateStage.html" xlink:actuate="onRequest" xlink:href="ModelOperation.UpdateStage.html" xlink:show="new" xlink:title="ModelOperation.UpdateStage.html" xlink:type="simple"><ellipse cx="237" cy="63.5859" fill="#84BE84" rx="3" ry="3" style="stroke:#038048;stroke-width:1;"/></a></g><a href="ModelOperation.UpdateStage.html" target="_top" title="ModelOperation.UpdateStage.html" xlink:actuate="onRequest" xlink:href="ModelOperation.UpdateStage.html" xlink:show="new" xlink:title="ModelOperation.UpdateStage.html" xlink:type="simple"><text fill="#000000" font-family="sans-serif" font-size="14" lengthAdjust="spacing" textLength="410.6621" x="246" y="66.9326">getConsumer(): TriConsumer&lt;FACTORY, INPUT, Sampler&gt;</text></a><g data-visibility-modifier="PUBLIC_METHOD"><a href="ModelOperation.UpdateStage.html" target="_top" title="ModelOperation.UpdateStage.html" xlink:actuate="onRequest" xlink:href="ModelOperation.UpdateStage.html" xlink:show="new" xlink:title="ModelOperation.UpdateStage.html" xlink:type="simple"><ellipse cx="237" cy="79.8828" fill="#84BE84" rx="3" ry="3" style="stroke:#038048;stroke-width:1;"/></a></g><a href="ModelOperation.UpdateStage.html" target="_top" title="ModelOperation.UpdateStage.html" xlink:actuate="onRequest" xlink:href="ModelOperation.UpdateStage.html" xlink:show="new" xlink:title="ModelOperation.UpdateStage.html" xlink:type="simple"><text fill="#000000" font-family="sans-serif" font-size="14" lengthAdjust="spacing" textLength="231.8613" x="246" y="83.2295">getSelector(): Predicate&lt;INPUT&gt;</text></a></g><!--class io.github.ai4ci.flow.mechanics.ModelOperation--><g class="entity" data-qualified-name="io.github.ai4ci.flow.mechanics.ModelOperation" data-source-line="19" id="ent0003"><a href="ModelOperation.html" target="_top" title="ModelOperation.html" xlink:actuate="onRequest" xlink:href="ModelOperation.html" xlink:show="new" xlink:title="ModelOperation.html" xlink:type="simple"><rect fill="#F1F1F1" height="37.9375" rx="2.5" ry="2.5" style="stroke:#181818;stroke-width:0.5;" width="183.5039" x="6" y="32.5"/><ellipse cx="21" cy="51.4688" fill="#ADD1B2" rx="11" ry="11" style="stroke:#181818;stroke-width:1;"/><path d="M23.9688,57.1094 Q23.3906,57.4063 22.75,57.5469 Q22.1094,57.7031 21.4063,57.7031 Q18.9063,57.7031 17.5781,56.0625 Q16.2656,54.4063 16.2656,51.2813 Q16.2656,48.1563 17.5781,46.5 Q18.9063,44.8438 21.4063,44.8438 Q22.1094,44.8438 22.75,45 Q23.4063,45.1563 23.9688,45.4531 L23.9688,48.1719 Q23.3438,47.5938 22.75,47.3281 Q22.1563,47.0469 21.5313,47.0469 Q20.1875,47.0469 19.5,48.125 Q18.8125,49.1875 18.8125,51.2813 Q18.8125,53.375 19.5,54.4531 Q20.1875,55.5156 21.5313,55.5156 Q22.1563,55.5156 22.75,55.25 Q23.3438,54.9688 23.9688,54.3906 L23.9688,57.1094 Z " fill="#000000"/><text fill="#000000" font-family="sans-serif" font-size="14" lengthAdjust="spacing" textLength="111.7061" x="54.8989" y="50.4951">ModelOperation</text><text fill="#000000" font-family="sans-serif" font-size="10" lengthAdjust="spacing" textLength="151.5039" x="35" y="63.0791">io.github.ai4ci.flow.mechanics</text></a></g><g class="link" data-entity-1="ent0003" data-entity-2="ent0002" data-link-type="nested" id="lnk4"><ellipse cx="198.4152" cy="51.5" fill="#FFFFFF" rx="8" ry="8" style="stroke:#181818;stroke-width:1;"/><line style="stroke:#181818;stroke-width:1;" x1="206.4152" x2="190.4152" y1="51.5" y2="51.5"/><line style="stroke:#181818;stroke-width:1;" x1="198.4152" x2="198.4152" y1="59.5" y2="43.5"/><path d="M206.4152,51.5 C217.6777,51.5 213.5364,51.5 225.7227,51.5" fill="none" style="stroke:#181818;stroke-width:1;"/></g><g class="footer" data-source-line="29"><text fill="#888888" font-family="sans-serif" font-size="10" lengthAdjust="spacing" textLength="3.1787" x="329.4106" y="94.2822">&#160;</text><a href="https://github.com/talsma-ict/umldoclet" target="_top" title="https://github.com/talsma-ict/umldoclet" xlink:actuate="onRequest" xlink:href="https://github.com/talsma-ict/umldoclet" xlink:show="new" xlink:title="https://github.com/talsma-ict/umldoclet" xlink:type="simple"><text fill="#888888" font-family="sans-serif" font-size="10" lengthAdjust="spacing" textLength="140.4639" x="260.7681" y="105.9229">UMLDoclet 2.2.5-SNAPSHOT</text></a></g><?plantuml-src jLHTJzim57tdLzonXu5etAI5YbPLfIhxWAdGYgGFM-71EBU9XMC7sm5r4_zzJb9eOMFQ9iqlaUrxppdttFW20Bo3K1KhpTFCWbLWCsvWVZO1AXD8KQAc5XFWEKtHm3KA9LFJ12BGqcPAWrhMEwQqHbCecN2PmcTwHy6eKZCqP6S7Qghu4VsUcYtqwrLr-5unWHRsmlqjIHq_w7aTlzE3c0gJKpWDOx96s-HqI8SSUT7vU1QTJ6Dm988pbCPXbp91NUiR5vIvpwIvQS4TQiELTCd-6h2gcIbfAPS62ggjgMgR2Ifj9JeWbH0ImDuucZmNwVThaIqOQqdB12xKRVbKzvj2qzH95tIbIWicHqibhQy4BclR6vo4QsJMQMhoZAjCqjnvIXb6w0HHw-oMIc9zd_440VF2hc39KIJcvQaZofGxhi-PeCR0xj3mRpW83aTdAa4nBQeME4OoBnBNYyYwFb_ATP0_uegat6RbDQ7ya76o5EgUvCWoAZapk-3Q-FiGyZhDyECuZASNNrfmUZwRnoDOB5uF9fdDnTKLVAzhgTP1YZPKqfGvwhtz0SIQFsvV8BSWedaXK8-U9KSedDkgJfvfJ3XpPCD6Intuy2V6_KUpVZQaCQ6HzNTG1vxtxvrg28V6hWHkF5mgPTtJsdIaMYSh1p3XyYPKmlshRuz_VJklNgNW4jr4O3SIdS7-K-H3GzVUubjpNSh58hEsC8DsUrqAKtdRrgF1uyosormapKnuRJeu_vhN_kbf_bHFr_CxNj2DWzxWw7WGTCbHhzyzxdVx_Q-B3vQrvt5uzGC0?></g></svg>