<?plantuml 1.2026.1?><svg xmlns="http://www.w3.org/2000/svg" xmlns:xlink="http://www.w3.org/1999/xlink" contentStyleType="text/css" data-diagram-type="CLASS" height="355px" preserveAspectRatio="none" style="width:1219px;height:355px;background:#FFFFFF;" version="1.1" viewBox="0 0 1219 355" width="1219px" zoomAndPan="magnify"><defs/><g><!--class io.github.ai4ci.flow.mechanics.ModelOperation--><g class="entity" data-qualified-name="io.github.ai4ci.flow.mechanics.ModelOperation" data-source-line="14" id="ent0002"><a href="ModelOperation.html" target="_top" title="ModelOperation.html" xlink:actuate="onRequest" xlink:href="ModelOperation.html" xlink:show="new" xlink:title="ModelOperation.html" xlink:type="simple"><rect fill="#F1F1F1" height="78.5313" rx="2.5" ry="2.5" style="stroke:#181818;stroke-width:0.5;" width="824.2256" x="6" y="131.5"/><ellipse cx="338.1108" cy="150.4688" fill="#ADD1B2" rx="11" ry="11" style="stroke:#181818;stroke-width:1;"/><path d="M341.0796,156.1094 Q340.5015,156.4063 339.8608,156.5469 Q339.2202,156.7031 338.5171,156.7031 Q336.0171,156.7031 334.689,155.0625 Q333.3765,153.4063 333.3765,150.2813 Q333.3765,147.1563 334.689,145.5 Q336.0171,143.8438 338.5171,143.8438 Q339.2202,143.8438 339.8608,144 Q340.5171,144.1563 341.0796,144.4531 L341.0796,147.1719 Q340.4546,146.5938 339.8608,146.3281 Q339.2671,146.0469 338.6421,146.0469 Q337.2983,146.0469 336.6108,147.125 Q335.9233,148.1875 335.9233,150.2813 Q335.9233,152.375 336.6108,153.4531 Q337.2983,154.5156 338.6421,154.5156 Q339.2671,154.5156 339.8608,154.25 Q340.4546,153.9688 341.0796,153.3906 L341.0796,156.1094 Z " fill="#000000"/><text fill="#000000" font-family="sans-serif" font-size="14" lengthAdjust="spacing" textLength="111.7061" x="378.5098" y="149.4951">ModelOperation</text><text fill="#000000" font-family="sans-serif" font-size="10" lengthAdjust="spacing" textLength="151.5039" x="358.6108" y="162.0791">io.github.ai4ci.flow.mechanics</text><line style="stroke:#181818;stroke-width:0.5;" x1="7" x2="829.2256" y1="169.4375" y2="169.4375"/></a><g data-visibility-modifier="PUBLIC_METHOD"><a href="ModelOperation.html" target="_top" title="ModelOperation.html" xlink:actuate="onRequest" xlink:href="ModelOperation.html" xlink:show="new" xlink:title="ModelOperation.html" xlink:type="simple"><ellipse cx="17" cy="183.0859" fill="#84BE84" rx="3" ry="3" style="stroke:#038048;stroke-width:1;"/></a></g><a href="ModelOperation.html" target="_top" title="ModelOperation.html" xlink:actuate="onRequest" xlink:href="ModelOperation.html" xlink:show="new" xlink:title="ModelOperation.html" xlink:type="simple"><text fill="#000000" font-family="sans-serif" font-size="14" lengthAdjust="spacing" text-decoration="underline" textLength="798.2256" x="26" y="186.4326">updateOutbreakState(Predicate&lt;Outbreak&gt;, TriConsumer&lt;Builder, Outbreak, Sampler&gt;): OutbreakStateUpdater</text></a><g data-visibility-modifier="PUBLIC_METHOD"><a href="ModelOperation.html" target="_top" title="ModelOperation.html" xlink:actuate="onRequest" xlink:href="ModelOperation.html" xlink:show="new" xlink:title="ModelOperation.html" xlink:type="simple"><ellipse cx="17" cy="199.3828" fill="#84BE84" rx="3" ry="3" style="stroke:#038048;stroke-width:1;"/></a></g><a href="ModelOperation.html" target="_top" title="ModelOperation.html" xlink:actuate="onRequest" xlink:href="ModelOperation.html" xlink:show="new" xlink:title="ModelOperation.html" xlink:type="simple"><text fill="#000000" font-family="sans-serif" font-size="14" lengthAdjust="spacing" text-decoration="underline" textLength="727.1045" x="26" y="202.7295">updatePersonState(Predicate&lt;Person&gt;, TriConsumer&lt;Builder, Person, Sampler&gt;): PersonStateUpdater</text></a></g><!--class io.github.ai4ci.flow.mechanics.ModelOperation.BiFunction--><g class="entity" data-qualified-name="io.github.ai4ci.flow.mechanics.ModelOperation.BiFunction" data-source-line="18" id="ent0003"><a href="ModelOperation.BiFunction.html" target="_top" title="ModelOperation.BiFunction.html" xlink:actuate="onRequest" xlink:href="ModelOperation.BiFunction.html" xlink:show="new" xlink:title="ModelOperation.BiFunction.html" xlink:type="simple"><rect fill="#F1F1F1" height="37.9375" rx="2.5" ry="2.5" style="stroke:#181818;stroke-width:0.5;" width="266.001" x="904.5" y="12"/><ellipse cx="919.5" cy="30.9688" fill="#B4A7E5" rx="11" ry="11" style="stroke:#181818;stroke-width:1;"/><path d="M915.4219,26.7344 L915.4219,24.5781 L922.8125,24.5781 L922.8125,26.7344 L920.3438,26.7344 L920.3438,34.8125 L922.8125,34.8125 L922.8125,36.9688 L915.4219,36.9688 L915.4219,34.8125 L917.8906,34.8125 L917.8906,26.7344 L915.4219,26.7344 Z " fill="#000000"/><text fill="#000000" font-family="sans-serif" font-size="14" font-style="italic" lengthAdjust="spacing" textLength="189.9639" x="933.5" y="29.9951">ModelOperation.BiFunction</text><text fill="#000000" font-family="sans-serif" font-size="10" font-style="italic" lengthAdjust="spacing" textLength="151.5039" x="952.73" y="42.5791">io.github.ai4ci.flow.mechanics</text><rect fill="#FFFFFF" height="15.9688" style="stroke:#181818;stroke-width:1;stroke-dasharray:2,2;" width="42.0371" x="1131.4639" y="9"/><text fill="#000000" font-family="sans-serif" font-size="12" font-style="italic" lengthAdjust="spacing" textLength="40.0371" x="1132.4639" y="21.1387">A, B, R</text></a></g><!--class io.github.ai4ci.flow.mechanics.ModelOperation.OutbreakStateUpdater--><g class="entity" data-qualified-name="io.github.ai4ci.flow.mechanics.ModelOperation.OutbreakStateUpdater" data-source-line="19" id="ent0004"><a href="ModelOperation.OutbreakStateUpdater.html" target="_top" title="ModelOperation.OutbreakStateUpdater.html" xlink:actuate="onRequest" xlink:href="ModelOperation.OutbreakStateUpdater.html" xlink:show="new" xlink:title="ModelOperation.OutbreakStateUpdater.html" xlink:type="simple"><rect fill="#F1F1F1" height="37.9375" rx="2.5" ry="2.5" style="stroke:#181818;stroke-width:0.5;" width="306.9961" x="884" y="68"/><ellipse cx="899" cy="86.9688" fill="#ADD1B2" rx="11" ry="11" style="stroke:#181818;stroke-width:1;"/><path d="M901.9688,92.6094 Q901.3906,92.9063 900.75,93.0469 Q900.1094,93.2031 899.4063,93.2031 Q896.9063,93.2031 895.5781,91.5625 Q894.2656,89.9063 894.2656,86.7813 Q894.2656,83.6563 895.5781,82 Q896.9063,80.3438 899.4063,80.3438 Q900.1094,80.3438 900.75,80.5 Q901.4063,80.6563 901.9688,80.9531 L901.9688,83.6719 Q901.3438,83.0938 900.75,82.8281 Q900.1563,82.5469 899.5313,82.5469 Q898.1875,82.5469 897.5,83.625 Q896.8125,84.6875 896.8125,86.7813 Q896.8125,88.875 897.5,89.9531 Q898.1875,91.0156 899.5313,91.0156 Q900.1563,91.0156 900.75,90.75 Q901.3438,90.4688 901.9688,89.8906 L901.9688,92.6094 Z " fill="#000000"/><text fill="#000000" font-family="sans-serif" font-size="14" lengthAdjust="spacing" textLength="274.9961" x="913" y="85.9951">ModelOperation.OutbreakStateUpdater</text><text fill="#000000" font-family="sans-serif" font-size="10" lengthAdjust="spacing" textLength="151.5039" x="974.7461" y="98.5791">io.github.ai4ci.flow.mechanics</text></a></g><!--class io.github.ai4ci.flow.mechanics.ModelOperation.PersonStateUpdater--><g class="entity" data-qualified-name="io.github.ai4ci.flow.mechanics.ModelOperation.PersonStateUpdater" data-source-line="20" id="ent0005"><a href="ModelOperation.PersonStateUpdater.html" target="_top" title="ModelOperation.PersonStateUpdater.html" xlink:actuate="onRequest" xlink:href="ModelOperation.PersonStateUpdater.html" xlink:show="new" xlink:title="ModelOperation.PersonStateUpdater.html" xlink:type="simple"><rect fill="#F1F1F1" height="37.9375" rx="2.5" ry="2.5" style="stroke:#181818;stroke-width:0.5;" width="289.2158" x="893" y="124"/><ellipse cx="908" cy="142.9688" fill="#ADD1B2" rx="11" ry="11" style="stroke:#181818;stroke-width:1;"/><path d="M910.9688,148.6094 Q910.3906,148.9063 909.75,149.0469 Q909.1094,149.2031 908.4063,149.2031 Q905.9063,149.2031 904.5781,147.5625 Q903.2656,145.9063 903.2656,142.7813 Q903.2656,139.6563 904.5781,138 Q905.9063,136.3438 908.4063,136.3438 Q909.1094,136.3438 909.75,136.5 Q910.4063,136.6563 910.9688,136.9531 L910.9688,139.6719 Q910.3438,139.0938 909.75,138.8281 Q909.1563,138.5469 908.5313,138.5469 Q907.1875,138.5469 906.5,139.625 Q905.8125,140.6875 905.8125,142.7813 Q905.8125,144.875 906.5,145.9531 Q907.1875,147.0156 908.5313,147.0156 Q909.1563,147.0156 909.75,146.75 Q910.3438,146.4688 910.9688,145.8906 L910.9688,148.6094 Z " fill="#000000"/><text fill="#000000" font-family="sans-serif" font-size="14" lengthAdjust="spacing" textLength="257.2158" x="922" y="141.9951">ModelOperation.PersonStateUpdater</text><text fill="#000000" font-family="sans-serif" font-size="10" lengthAdjust="spacing" textLength="151.5039" x="974.856" y="154.5791">io.github.ai4ci.flow.mechanics</text></a></g><!--class io.github.ai4ci.flow.mechanics.ModelOperation.TriConsumer--><g class="entity" data-qualified-name="io.github.ai4ci.flow.mechanics.ModelOperation.TriConsumer" data-source-line="21" id="ent0006"><a href="ModelOperation.TriConsumer.html" target="_top" title="ModelOperation.TriConsumer.html" xlink:actuate="onRequest" xlink:href="ModelOperation.TriConsumer.html" xlink:show="new" xlink:title="ModelOperation.TriConsumer.html" xlink:type="simple"><rect fill="#F1F1F1" height="37.9375" rx="2.5" ry="2.5" style="stroke:#181818;stroke-width:0.5;" width="281.8193" x="896.5" y="180"/><ellipse cx="911.5" cy="198.9688" fill="#B4A7E5" rx="11" ry="11" style="stroke:#181818;stroke-width:1;"/><path d="M907.4219,194.7344 L907.4219,192.5781 L914.8125,192.5781 L914.8125,194.7344 L912.3438,194.7344 L912.3438,202.8125 L914.8125,202.8125 L914.8125,204.9688 L907.4219,204.9688 L907.4219,202.8125 L909.8906,202.8125 L909.8906,194.7344 L907.4219,194.7344 Z " fill="#000000"/><text fill="#000000" font-family="sans-serif" font-size="14" font-style="italic" lengthAdjust="spacing" textLength="205.7412" x="925.5" y="197.9951">ModelOperation.TriConsumer</text><text fill="#000000" font-family="sans-serif" font-size="10" font-style="italic" lengthAdjust="spacing" textLength="151.5039" x="952.6187" y="210.5791">io.github.ai4ci.flow.mechanics</text><rect fill="#FFFFFF" height="15.9688" style="stroke:#181818;stroke-width:1;stroke-dasharray:2,2;" width="42.0781" x="1139.2412" y="177"/><text fill="#000000" font-family="sans-serif" font-size="12" font-style="italic" lengthAdjust="spacing" textLength="40.0781" x="1140.2412" y="189.1387">A, B, C</text></a></g><!--class io.github.ai4ci.flow.mechanics.ModelOperation.TriFunction--><g class="entity" data-qualified-name="io.github.ai4ci.flow.mechanics.ModelOperation.TriFunction" data-source-line="22" id="ent0007"><a href="ModelOperation.TriFunction.html" target="_top" title="ModelOperation.TriFunction.html" xlink:actuate="onRequest" xlink:href="ModelOperation.TriFunction.html" xlink:show="new" xlink:title="ModelOperation.TriFunction.html" xlink:type="simple"><rect fill="#F1F1F1" height="37.9375" rx="2.5" ry="2.5" style="stroke:#181818;stroke-width:0.5;" width="286.7119" x="894" y="236"/><ellipse cx="909" cy="254.9688" fill="#B4A7E5" rx="11" ry="11" style="stroke:#181818;stroke-width:1;"/><path d="M904.9219,250.7344 L904.9219,248.5781 L912.3125,248.5781 L912.3125,250.7344 L909.8438,250.7344 L909.8438,258.8125 L912.3125,258.8125 L912.3125,260.9688 L904.9219,260.9688 L904.9219,258.8125 L907.3906,258.8125 L907.3906,250.7344 L904.9219,250.7344 Z " fill="#000000"/><text fill="#000000" font-family="sans-serif" font-size="14" font-style="italic" lengthAdjust="spacing" textLength="194.667" x="923" y="253.9951">ModelOperation.TriFunction</text><text fill="#000000" font-family="sans-serif" font-size="10" font-style="italic" lengthAdjust="spacing" textLength="151.5039" x="944.5815" y="266.5791">io.github.ai4ci.flow.mechanics</text><rect fill="#FFFFFF" height="15.9688" style="stroke:#181818;stroke-width:1;stroke-dasharray:2,2;" width="58.0449" x="1125.667" y="233"/><text fill="#000000" font-family="sans-serif" font-size="12" font-style="italic" lengthAdjust="spacing" textLength="56.0449" x="1126.667" y="245.1387">A, B, C, R</text></a></g><!--class io.github.ai4ci.flow.mechanics.ModelOperation.UpdateStage--><g class="entity" data-qualified-name="io.github.ai4ci.flow.mechanics.ModelOperation.UpdateStage" data-source-line="23" id="ent0008"><a href="ModelOperation.UpdateStage.html" target="_top" title="ModelOperation.UpdateStage.html" xlink:actuate="onRequest" xlink:href="ModelOperation.UpdateStage.html" xlink:show="new" xlink:title="ModelOperation.UpdateStage.html" xlink:type="simple"><rect fill="#F1F1F1" height="37.9375" rx="2.5" ry="2.5" style="stroke:#181818;stroke-width:0.5;" width="342.7412" x="866" y="292"/><ellipse cx="881" cy="310.9688" fill="#ADD1B2" rx="11" ry="11" style="stroke:#181818;stroke-width:1;"/><path d="M883.9688,316.6094 Q883.3906,316.9063 882.75,317.0469 Q882.1094,317.2031 881.4063,317.2031 Q878.9063,317.2031 877.5781,315.5625 Q876.2656,313.9063 876.2656,310.7813 Q876.2656,307.6563 877.5781,306 Q878.9063,304.3438 881.4063,304.3438 Q882.1094,304.3438 882.75,304.5 Q883.4063,304.6563 883.9688,304.9531 L883.9688,307.6719 Q883.3438,307.0938 882.75,306.8281 Q882.1563,306.5469 881.5313,306.5469 Q880.1875,306.5469 879.5,307.625 Q878.8125,308.6875 878.8125,310.7813 Q878.8125,312.875 879.5,313.9531 Q880.1875,315.0156 881.5313,315.0156 Q882.1563,315.0156 882.75,314.75 Q883.3438,314.4688 883.9688,313.8906 L883.9688,316.6094 Z " fill="#000000"/><text fill="#000000" font-family="sans-serif" font-size="14" lengthAdjust="spacing" textLength="207.3135" x="895" y="309.9951">ModelOperation.UpdateStage</text><text fill="#000000" font-family="sans-serif" font-size="10" lengthAdjust="spacing" textLength="151.5039" x="922.9048" y="322.5791">io.github.ai4ci.flow.mechanics</text><rect fill="#FFFFFF" height="15.9688" style="stroke:#181818;stroke-width:1;stroke-dasharray:2,2;" width="101.4277" x="1110.3135" y="289"/><text fill="#000000" font-family="sans-serif" font-size="12" font-style="italic" lengthAdjust="spacing" textLength="99.4277" x="1111.3135" y="301.1387">FACTORY, INPUT</text></a></g><g class="link" data-entity-1="ent0002" data-entity-2="ent0003" data-link-type="nested" id="lnk9"><ellipse cx="571.7385" cy="129.397" fill="#FFFFFF" rx="8" ry="8" style="stroke:#181818;stroke-width:1;"/><line style="stroke:#181818;stroke-width:1;" x1="579.4743" x2="564.0026" y1="127.3582" y2="131.4359"/><line style="stroke:#181818;stroke-width:1;" x1="573.7773" x2="569.6996" y1="137.1329" y2="121.6612"/><path d="M579.4743,127.3582 C666.6048,104.394 764.4493,80.0231 866,59 C881.1278,55.8682 897.0692,52.8633 912.8845,50.061" fill="none" style="stroke:#181818;stroke-width:1;"/></g><g class="link" data-entity-1="ent0002" data-entity-2="ent0004" data-link-type="nested" id="lnk10"><ellipse cx="717.5954" cy="130.3814" fill="#FFFFFF" rx="8" ry="8" style="stroke:#181818;stroke-width:1;"/><line style="stroke:#181818;stroke-width:1;" x1="725.5224" x2="709.6684" y1="129.303" y2="131.4597"/><line style="stroke:#181818;stroke-width:1;" x1="718.6737" x2="716.517" y1="138.3084" y2="122.4544"/><path d="M725.5224,129.303 C790.5876,120.4521 840.8733,113.6116 896.4762,106.0478" fill="none" style="stroke:#181818;stroke-width:1;"/></g><g class="link" data-entity-1="ent0002" data-entity-2="ent0005" data-link-type="nested" id="lnk11"><ellipse cx="838.0147" cy="152.0001" fill="#FFFFFF" rx="8" ry="8" style="stroke:#181818;stroke-width:1;"/><line style="stroke:#181818;stroke-width:1;" x1="846.0065" x2="830.0229" y1="151.6378" y2="152.3625"/><line style="stroke:#181818;stroke-width:1;" x1="838.3771" x2="837.6523" y1="159.9919" y2="144.0084"/><path d="M846.0065,151.6378 C867.8731,150.6462 872.9846,150.4145 892.7957,149.5161" fill="none" style="stroke:#181818;stroke-width:1;"/></g><g class="link" data-entity-1="ent0002" data-entity-2="ent0006" data-link-type="nested" id="lnk12"><ellipse cx="838.0147" cy="189.9999" fill="#FFFFFF" rx="8" ry="8" style="stroke:#181818;stroke-width:1;"/><line style="stroke:#181818;stroke-width:1;" x1="846.0065" x2="830.0229" y1="190.3622" y2="189.6375"/><line style="stroke:#181818;stroke-width:1;" x1="837.6523" x2="838.3771" y1="197.9916" y2="182.0081"/><path d="M846.0065,190.3622 C869.2051,191.4142 875.5517,191.7019 896.4016,192.6474" fill="none" style="stroke:#181818;stroke-width:1;"/></g><g class="link" data-entity-1="ent0002" data-entity-2="ent0007" data-link-type="nested" id="lnk13"><ellipse cx="717.5954" cy="211.6186" fill="#FFFFFF" rx="8" ry="8" style="stroke:#181818;stroke-width:1;"/><line style="stroke:#181818;stroke-width:1;" x1="725.5224" x2="709.6684" y1="212.697" y2="210.5403"/><line style="stroke:#181818;stroke-width:1;" x1="716.517" x2="718.6737" y1="219.5456" y2="203.6916"/><path d="M725.5224,212.697 C790.5876,221.5479 840.8733,228.3884 896.4762,235.9522" fill="none" style="stroke:#181818;stroke-width:1;"/></g><g class="link" data-entity-1="ent0002" data-entity-2="ent0008" data-link-type="nested" id="lnk14"><ellipse cx="571.7385" cy="212.603" fill="#FFFFFF" rx="8" ry="8" style="stroke:#181818;stroke-width:1;"/><line style="stroke:#181818;stroke-width:1;" x1="579.4743" x2="564.0026" y1="214.6418" y2="210.5641"/><line style="stroke:#181818;stroke-width:1;" x1="569.6996" x2="573.7773" y1="220.3388" y2="204.8671"/><path d="M579.4743,214.6418 C666.6048,237.606 764.4493,261.9769 866,283 C881.1278,286.1318 897.0692,289.1367 912.8845,291.939" fill="none" style="stroke:#181818;stroke-width:1;"/></g><g class="footer" data-source-line="38"><text fill="#888888" font-family="sans-serif" font-size="10" lengthAdjust="spacing" textLength="3.1787" x="602.4106" y="333.2822">&#160;</text><a href="https://github.com/talsma-ict/umldoclet" target="_top" title="https://github.com/talsma-ict/umldoclet" xlink:actuate="onRequest" xlink:href="https://github.com/talsma-ict/umldoclet" xlink:show="new" xlink:title="https://github.com/talsma-ict/umldoclet" xlink:type="simple"><text fill="#888888" font-family="sans-serif" font-size="10" lengthAdjust="spacing" textLength="140.4639" x="533.7681" y="344.9229">UMLDoclet 2.2.5-SNAPSHOT</text></a></g><?plantuml-src lLRVRzem47xlNt7h7jgg423zeGuX9ChMjHCjg8I7ZVR1TOx4gcDdjjEALVtVvoH0Gu6fJ88yG79tkUy-V-Vu003se2tZiM91QC18C27JCBZk014-12XG4OC-i8W4gE41kHI1pWCHI692gK2EiYSgbK8TI-4p4S0FyaH0oqHHrCxE3cHGtZJxCz65x0_ZrFXLKeu6zji7XPBSQksqx5RTK_08rn61gxRdJBAzlUCwhdDIxj-qUltBhWSMX3EAGjlSYV1HPVMrOaBjNoVtbE09bMPIs9UhauGfPog58KneY8aoEkNMuqIOjEYQanRYr62_rU_C5rdzaXLPWfOI9F7XLlvEPhm_nOe4jdHEnZ8ne2CqH93CnN6KBNkUnsSAgR4rvUzfoqoGoAufeTX7Mn0nThc559ZvG-OZO1IRCOmOSb-_jrgWK5fpPgUSQ0sx3St-OBrstBoMFl9kd4fW4U_4n55jCka4p8J9WqFOCMNEYCjd9q8Q4i6etWKhtRz3dFdKC1pE6vpGHFp-7bwokjBhHHlheQzmcCI-RObkOXuKaiU-DUD-Jw7FgBrhJEtD4dYAjQNGIOIgSPumRbKkmTHVWZw9OewgUL27kMI3BBzQYTopJI75UzpSkWerzyvX5j8K4L-pNoRiyyXgkb8DvvnT989kM9W2IgDLWlCIt3ONnNeBckZsWMvobgtv9faimrkaiYng3LABecwIqYBQ8g75c2AT3_HPePytoQMuRV9EQo_fj4BK-ZIsiLyAC5CQo_TC8N2D_iebj6e6k4aM1PZ6HQljTMz_bk3gfZVmbZ0f14-PvAAiTG8Sbil__MdQ2jpACsBJm2iEYat35hRQjl2sgcUXRVD-RMWpvjYSdViZATClwji8abwNOvkWmyHZMt8xQ7q-M-uTf2CbPmBjE4iV1TezNPr5vaTyerB0cs3TYU4mD2RMzKfbGeNAg6AokRRCgAaa4VVpWNRLQ3lvaEp1zzdmdCwTvQfRhXrvhbjtZ-gr8-UiTdRYMaVjr_2RePM1rxx_2m00?></g></svg>