<?plantuml 1.2026.1?><svg xmlns="http://www.w3.org/2000/svg" xmlns:xlink="http://www.w3.org/1999/xlink" contentStyleType="text/css" data-diagram-type="CLASS" height="131px" preserveAspectRatio="none" style="width:777px;height:131px;background:#FFFFFF;" version="1.1" viewBox="0 0 777 131" width="777px" zoomAndPan="magnify"><defs/><g><!--class io.github.ai4ci.flow.mechanics.StateUtils.DefaultNoTesting--><g class="entity" data-qualified-name="io.github.ai4ci.flow.mechanics.StateUtils.DefaultNoTesting" data-source-line="14" id="ent0002"><a href="StateUtils.DefaultNoTesting.html" target="_top" title="StateUtils.DefaultNoTesting.html" xlink:actuate="onRequest" xlink:href="StateUtils.DefaultNoTesting.html" xlink:show="new" xlink:title="StateUtils.DefaultNoTesting.html" xlink:type="simple"><rect fill="#F1F1F1" height="62.2344" rx="2.5" ry="2.5" style="stroke:#181818;stroke-width:0.5;" width="544.6699" x="226" y="28"/><ellipse cx="397.0317" cy="46.9688" fill="#B4A7E5" rx="11" ry="11" style="stroke:#181818;stroke-width:1;"/><path d="M392.9536,42.7344 L392.9536,40.5781 L400.3442,40.5781 L400.3442,42.7344 L397.8755,42.7344 L397.8755,50.8125 L400.3442,50.8125 L400.3442,52.9688 L392.9536,52.9688 L392.9536,50.8125 L395.4224,50.8125 L395.4224,42.7344 L392.9536,42.7344 Z " fill="#000000"/><text fill="#000000" font-family="sans-serif" font-size="14" font-style="italic" lengthAdjust="spacing" textLength="194.1064" x="417.5317" y="45.9951">StateUtils.DefaultNoTesting</text><text fill="#000000" font-family="sans-serif" font-size="10" font-style="italic" lengthAdjust="spacing" textLength="151.5039" x="438.833" y="58.5791">io.github.ai4ci.flow.mechanics</text><line style="stroke:#181818;stroke-width:0.5;" x1="227" x2="769.6699" y1="65.9375" y2="65.9375"/></a><g data-visibility-modifier="PUBLIC_METHOD"><a href="StateUtils.DefaultNoTesting.html" target="_top" title="StateUtils.DefaultNoTesting.html" xlink:actuate="onRequest" xlink:href="StateUtils.DefaultNoTesting.html" xlink:show="new" xlink:title="StateUtils.DefaultNoTesting.html" xlink:type="simple"><ellipse cx="237" cy="79.5859" fill="#84BE84" rx="3" ry="3" style="stroke:#038048;stroke-width:1;"/></a></g><a href="StateUtils.DefaultNoTesting.html" target="_top" title="StateUtils.DefaultNoTesting.html" xlink:actuate="onRequest" xlink:href="StateUtils.DefaultNoTesting.html" xlink:show="new" xlink:title="StateUtils.DefaultNoTesting.html" xlink:type="simple"><text fill="#000000" font-family="sans-serif" font-size="14" lengthAdjust="spacing" textLength="518.6699" x="246" y="82.9326">updateHistory(Builder, PersonState, StateMachineContext, Sampler): void</text></a></g><!--class io.github.ai4ci.flow.mechanics.State.BehaviourState--><g class="entity" data-qualified-name="io.github.ai4ci.flow.mechanics.State.BehaviourState" data-source-line="18" id="ent0003"><a href="State.BehaviourState.html" target="_top" title="State.BehaviourState.html" xlink:actuate="onRequest" xlink:href="State.BehaviourState.html" xlink:show="new" xlink:title="State.BehaviourState.html" xlink:type="simple"><rect fill="#F1F1F1" height="37.9375" rx="2.5" ry="2.5" style="stroke:#181818;stroke-width:0.5;" width="183.5039" x="6" y="12"/><ellipse cx="21" cy="30.9688" fill="#B4A7E5" rx="11" ry="11" style="stroke:#181818;stroke-width:1;"/><path d="M16.9219,26.7344 L16.9219,24.5781 L24.3125,24.5781 L24.3125,26.7344 L21.8438,26.7344 L21.8438,34.8125 L24.3125,34.8125 L24.3125,36.9688 L16.9219,36.9688 L16.9219,34.8125 L19.3906,34.8125 L19.3906,26.7344 L16.9219,26.7344 Z " fill="#000000"/><text fill="#000000" font-family="sans-serif" font-size="14" font-style="italic" lengthAdjust="spacing" textLength="149.6045" x="35.9497" y="29.9951">State.BehaviourState</text><text fill="#000000" font-family="sans-serif" font-size="10" font-style="italic" lengthAdjust="spacing" textLength="151.5039" x="35" y="42.5791">io.github.ai4ci.flow.mechanics</text></a></g><!--class io.github.ai4ci.flow.mechanics.StateUtils--><g class="entity" data-qualified-name="io.github.ai4ci.flow.mechanics.StateUtils" data-source-line="19" id="ent0004"><a href="StateUtils.html" target="_top" title="StateUtils.html" xlink:actuate="onRequest" xlink:href="StateUtils.html" xlink:show="new" xlink:title="StateUtils.html" xlink:type="simple"><rect fill="#F1F1F1" height="37.9375" rx="2.5" ry="2.5" style="stroke:#181818;stroke-width:0.5;" width="183.5039" x="6" y="68"/><ellipse cx="21" cy="86.9688" fill="#ADD1B2" rx="11" ry="11" style="stroke:#181818;stroke-width:1;"/><path d="M23.9688,92.6094 Q23.3906,92.9063 22.75,93.0469 Q22.1094,93.2031 21.4063,93.2031 Q18.9063,93.2031 17.5781,91.5625 Q16.2656,89.9063 16.2656,86.7813 Q16.2656,83.6563 17.5781,82 Q18.9063,80.3438 21.4063,80.3438 Q22.1094,80.3438 22.75,80.5 Q23.4063,80.6563 23.9688,80.9531 L23.9688,83.6719 Q23.3438,83.0938 22.75,82.8281 Q22.1563,82.5469 21.5313,82.5469 Q20.1875,82.5469 19.5,83.625 Q18.8125,84.6875 18.8125,86.7813 Q18.8125,88.875 19.5,89.9531 Q20.1875,91.0156 21.5313,91.0156 Q22.1563,91.0156 22.75,90.75 Q23.3438,90.4688 23.9688,89.8906 L23.9688,92.6094 Z " fill="#000000"/><text fill="#000000" font-family="sans-serif" font-size="14" lengthAdjust="spacing" textLength="67.8672" x="76.8184" y="85.9951">StateUtils</text><text fill="#000000" font-family="sans-serif" font-size="10" lengthAdjust="spacing" textLength="151.5039" x="35" y="98.5791">io.github.ai4ci.flow.mechanics</text></a></g><g class="link" data-entity-1="ent0003" data-entity-2="ent0002" data-link-type="extension" id="lnk5"><polygon fill="none" points="190.4239,37.4238,207.9591,44.6706,208.8002,32.7002,190.4239,37.4238" style="stroke:#181818;stroke-width:1;"/><path d="M208.3797,38.6854 C219.6392,39.4765 213.6004,39.0522 225.9458,39.9197" fill="none" style="stroke:#181818;stroke-width:1;"/></g><g class="link" data-entity-1="ent0004" data-entity-2="ent0002" data-link-type="nested" id="lnk6"><ellipse cx="198.4043" cy="80.0155" fill="#FFFFFF" rx="8" ry="8" style="stroke:#181818;stroke-width:1;"/><line style="stroke:#181818;stroke-width:1;" x1="206.3846" x2="190.4239" y1="79.4548" y2="80.5762"/><line style="stroke:#181818;stroke-width:1;" x1="198.965" x2="197.8435" y1="87.9958" y2="72.0352"/><path d="M206.3846,79.4548 C217.6442,78.6636 213.6004,78.9478 225.9458,78.0803" fill="none" style="stroke:#181818;stroke-width:1;"/></g><g class="footer" data-source-line="30"><text fill="#888888" font-family="sans-serif" font-size="10" lengthAdjust="spacing" textLength="3.1787" x="383.4106" y="109.2822">&#160;</text><a href="https://github.com/talsma-ict/umldoclet" target="_top" title="https://github.com/talsma-ict/umldoclet" xlink:actuate="onRequest" xlink:href="https://github.com/talsma-ict/umldoclet" xlink:show="new" xlink:title="https://github.com/talsma-ict/umldoclet" xlink:type="simple"><text fill="#888888" font-family="sans-serif" font-size="10" lengthAdjust="spacing" textLength="140.4639" x="314.7681" y="120.9229">UMLDoclet 2.2.5-SNAPSHOT</text></a></g><?plantuml-src jLHDKzim4BttLspf0HWInJQKZmp3J0YTqawWJ9DS6ZW8UHDha2LNaaFJbl_UjMnIO2ZjbDONZtUbVM_VMoy0m2hqJR6mSfPvy0Py9XsCJmR0TGepr6YvnnHapcVeu1ALqJDN7qJWfS-C1JCDNy9OYwumEfLw1k_vd8CpfHNes8iN4A16jzMlkRjJ_N9H1O-CKEXXhRz-Xr8InTlj94gsOSILopcywuzOK-tddOGbx7LxUDex6nv_6061A2bGEwfTwXHjuDShkA3NeCwqO8xMIQFfSjGKh7eMHdikjOE2M--gtiuKrxuY7REA28jXhJSSt2SPxGMIBUXPpSiKFfhFvRBlbuNbCwAk-CAK7boEdciUKWgdGVQwJYej2a-SwdkEEjCy9qsvm24I8Uv9RcqqXdmcKmJC2x-0gKILkeTH0ieCXKDSQezsIfLWPT_9hzYDjmw6dlGVUwaSEy8fBvK_DIDqdWmyrysfw40QDfC-AoyPbrj2igaoron7aN4jXLi1ylBf8-m979XCdiYopEVguWA-XHQgPwCiKZf-B1rfiLWxBAKYWrjmHcuQ7Kgr8BnEo6wfiK-6uXTFGPuN2krw5-P6fg7WpM-aOOUOyRcaAGwV_rwJ1m2tOZm8Doe4ha9nvnwry3yvTj-WXaajsryqkF-ztNx6jFmnRarzutbW0MtV-ON2W-K0JesXQRapaTLpl2ZG3gI-wXj5l-YhtSUpusePAHfAMeJYIYCv6IrFtjHmdJju3TQvdamoxmlNxNIQNeJ9EpvinBOKlbFcAgrNuQ-MOZC-g_1skNQhZTMEadQyEKgIRhBPZJVPtdQq6ySxEtkV9c-yw8n7_OiV?></g></svg>