<?plantuml 1.2026.1?><svg xmlns="http://www.w3.org/2000/svg" xmlns:xlink="http://www.w3.org/1999/xlink" contentStyleType="text/css" data-diagram-type="CLASS" height="795px" preserveAspectRatio="none" style="width:996px;height:795px;background:#FFFFFF;" version="1.1" viewBox="0 0 996 795" width="996px" zoomAndPan="magnify"><defs/><g><!--cluster io.github.ai4ci.abm.behaviour--><g class="cluster" data-qualified-name="io.github.ai4ci.abm.behaviour" data-source-line="11" id="ent0002"><path d="M597.5,4 L836.1445,4 A3.75,3.75 0 0 1 838.6445,6.5 L845.6445,26.2969 L986.5,26.2969 A2.5,2.5 0 0 1 989,28.7969 L989,759.5 A2.5,2.5 0 0 1 986.5,762 L597.5,762 A2.5,2.5 0 0 1 595,759.5 L595,6.5 A2.5,2.5 0 0 1 597.5,4" fill="none" style="stroke:#000000;stroke-width:1.5;"/><line style="stroke:#000000;stroke-width:1.5;" x1="595" x2="845.6445" y1="26.2969" y2="26.2969"/><text fill="#000000" font-family="sans-serif" font-size="14" font-weight="bold" lengthAdjust="spacing" textLength="237.6445" x="599" y="18.9951">io.github.ai4ci.abm.behaviour</text></g><!--cluster io.github.ai4ci.flow.mechanics--><g class="cluster" data-qualified-name="io.github.ai4ci.flow.mechanics" data-source-line="55" id="ent0011"><path d="M16.5,263 L258.3779,263 A3.75,3.75 0 0 1 260.8779,265.5 L267.8779,285.2969 L572.5,285.2969 A2.5,2.5 0 0 1 575,287.7969 L575,523.5 A2.5,2.5 0 0 1 572.5,526 L16.5,526 A2.5,2.5 0 0 1 14,523.5 L14,265.5 A2.5,2.5 0 0 1 16.5,263" fill="none" style="stroke:#000000;stroke-width:1.5;"/><line style="stroke:#000000;stroke-width:1.5;" x1="14" x2="267.8779" y1="285.2969" y2="285.2969"/><text fill="#000000" font-family="sans-serif" font-size="14" font-weight="bold" lengthAdjust="spacing" textLength="240.8779" x="18" y="277.9951">io.github.ai4ci.flow.mechanics</text></g><!--class Test--><g class="entity" data-qualified-name="io.github.ai4ci.abm.behaviour..Test" data-source-line="13" id="ent0003"><a href="Test.html" target="_top" title="Test.html" xlink:actuate="onRequest" xlink:href="Test.html" xlink:show="new" xlink:title="Test.html" xlink:type="simple"><rect fill="#F1F1F1" height="64.2969" rx="2.5" ry="2.5" style="stroke:#181818;stroke-width:0.5;" width="66.8105" x="849" y="443"/><ellipse cx="866.188" cy="459" fill="#EB937F" rx="11" ry="11" style="stroke:#181818;stroke-width:1;"/><path d="M870.2974,465 L862.5787,465 L862.5787,452.6094 L870.2974,452.6094 L870.2974,454.7656 L865.0318,454.7656 L865.0318,457.4375 L869.7974,457.4375 L869.7974,459.5938 L865.0318,459.5938 L865.0318,462.8438 L870.2974,462.8438 L870.2974,465 Z " fill="#000000"/><text fill="#000000" font-family="sans-serif" font-size="14" lengthAdjust="spacing" textLength="29.9482" x="880.6743" y="463.8467">Test</text><line style="stroke:#181818;stroke-width:0.5;" x1="850" x2="914.8105" y1="475" y2="475"/></a><g data-visibility-modifier="PUBLIC_FIELD"><a href="Test.html" target="_top" title="Test.html" xlink:actuate="onRequest" xlink:href="Test.html" xlink:show="new" xlink:title="Test.html" xlink:type="simple"><ellipse cx="860" cy="488.6484" fill="none" rx="3" ry="3" style="stroke:#038048;stroke-width:1;"/></a></g><a href="Test.html" target="_top" title="Test.html" xlink:actuate="onRequest" xlink:href="Test.html" xlink:show="new" xlink:title="Test.html" xlink:type="simple"><text fill="#000000" font-family="sans-serif" font-size="14" lengthAdjust="spacing" text-decoration="underline" textLength="40.8105" x="869" y="491.9951">NONE</text><line style="stroke:#181818;stroke-width:0.5;" x1="850" x2="914.8105" y1="499.2969" y2="499.2969"/></a></g><!--class SmartAgentLFTTesting--><g class="entity" data-qualified-name="io.github.ai4ci.abm.behaviour..SmartAgentLFTTesting" data-source-line="17" id="ent0004"><a href="SmartAgentLFTTesting.html" target="_top" title="SmartAgentLFTTesting.html" xlink:actuate="onRequest" xlink:href="SmartAgentLFTTesting.html" xlink:show="new" xlink:title="SmartAgentLFTTesting.html" xlink:type="simple"><rect fill="#F1F1F1" height="113.1875" rx="2.5" ry="2.5" style="stroke:#181818;stroke-width:0.5;" width="191.79" x="786.5" y="525.5"/><ellipse cx="801.5" cy="541.5" fill="#EB937F" rx="11" ry="11" style="stroke:#181818;stroke-width:1;"/><path d="M805.6094,547.5 L797.8906,547.5 L797.8906,535.1094 L805.6094,535.1094 L805.6094,537.2656 L800.3438,537.2656 L800.3438,539.9375 L805.1094,539.9375 L805.1094,542.0938 L800.3438,542.0938 L800.3438,545.3438 L805.6094,545.3438 L805.6094,547.5 Z " fill="#000000"/><text fill="#000000" font-family="sans-serif" font-size="14" lengthAdjust="spacing" textLength="159.79" x="815.5" y="546.3467">SmartAgentLFTTesting</text><line style="stroke:#181818;stroke-width:0.5;" x1="787.5" x2="977.29" y1="557.5" y2="557.5"/></a><g data-visibility-modifier="PUBLIC_FIELD"><a href="SmartAgentLFTTesting.html" target="_top" title="SmartAgentLFTTesting.html" xlink:actuate="onRequest" xlink:href="SmartAgentLFTTesting.html" xlink:show="new" xlink:title="SmartAgentLFTTesting.html" xlink:type="simple"><ellipse cx="797.5" cy="571.1484" fill="none" rx="3" ry="3" style="stroke:#038048;stroke-width:1;"/></a></g><a href="SmartAgentLFTTesting.html" target="_top" title="SmartAgentLFTTesting.html" xlink:actuate="onRequest" xlink:href="SmartAgentLFTTesting.html" xlink:show="new" xlink:title="SmartAgentLFTTesting.html" xlink:type="simple"><text fill="#000000" font-family="sans-serif" font-size="14" lengthAdjust="spacing" text-decoration="underline" textLength="100.4336" x="806.5" y="574.4951">REACTIVE_LFT</text></a><g data-visibility-modifier="PUBLIC_FIELD"><a href="SmartAgentLFTTesting.html" target="_top" title="SmartAgentLFTTesting.html" xlink:actuate="onRequest" xlink:href="SmartAgentLFTTesting.html" xlink:show="new" xlink:title="SmartAgentLFTTesting.html" xlink:type="simple"><ellipse cx="797.5" cy="587.4453" fill="none" rx="3" ry="3" style="stroke:#038048;stroke-width:1;"/></a></g><a href="SmartAgentLFTTesting.html" target="_top" title="SmartAgentLFTTesting.html" xlink:actuate="onRequest" xlink:href="SmartAgentLFTTesting.html" xlink:show="new" xlink:title="SmartAgentLFTTesting.html" xlink:type="simple"><text fill="#000000" font-family="sans-serif" font-size="14" lengthAdjust="spacing" text-decoration="underline" textLength="87.8076" x="806.5" y="590.792">REFLEX_PCR</text></a><g data-visibility-modifier="PUBLIC_FIELD"><a href="SmartAgentLFTTesting.html" target="_top" title="SmartAgentLFTTesting.html" xlink:actuate="onRequest" xlink:href="SmartAgentLFTTesting.html" xlink:show="new" xlink:title="SmartAgentLFTTesting.html" xlink:type="simple"><ellipse cx="797.5" cy="603.7422" fill="none" rx="3" ry="3" style="stroke:#038048;stroke-width:1;"/></a></g><a href="SmartAgentLFTTesting.html" target="_top" title="SmartAgentLFTTesting.html" xlink:actuate="onRequest" xlink:href="SmartAgentLFTTesting.html" xlink:show="new" xlink:title="SmartAgentLFTTesting.html" xlink:type="simple"><text fill="#000000" font-family="sans-serif" font-size="14" lengthAdjust="spacing" text-decoration="underline" textLength="80.623" x="806.5" y="607.0889">AWAIT_PCR</text></a><g data-visibility-modifier="PUBLIC_FIELD"><a href="SmartAgentLFTTesting.html" target="_top" title="SmartAgentLFTTesting.html" xlink:actuate="onRequest" xlink:href="SmartAgentLFTTesting.html" xlink:show="new" xlink:title="SmartAgentLFTTesting.html" xlink:type="simple"><ellipse cx="797.5" cy="620.0391" fill="none" rx="3" ry="3" style="stroke:#038048;stroke-width:1;"/></a></g><a href="SmartAgentLFTTesting.html" target="_top" title="SmartAgentLFTTesting.html" xlink:actuate="onRequest" xlink:href="SmartAgentLFTTesting.html" xlink:show="new" xlink:title="SmartAgentLFTTesting.html" xlink:type="simple"><text fill="#000000" font-family="sans-serif" font-size="14" lengthAdjust="spacing" text-decoration="underline" textLength="99.3945" x="806.5" y="623.3857">SELF_ISOLATE</text><line style="stroke:#181818;stroke-width:0.5;" x1="787.5" x2="977.29" y1="630.6875" y2="630.6875"/></a></g><!--class NonCompliant--><g class="entity" data-qualified-name="io.github.ai4ci.abm.behaviour..NonCompliant" data-source-line="24" id="ent0005"><a href="NonCompliant.html" target="_top" title="NonCompliant.html" xlink:actuate="onRequest" xlink:href="NonCompliant.html" xlink:show="new" xlink:title="NonCompliant.html" xlink:type="simple"><rect fill="#F1F1F1" height="80.5938" rx="2.5" ry="2.5" style="stroke:#181818;stroke-width:0.5;" width="131.4971" x="817" y="31.5"/><ellipse cx="832" cy="47.5" fill="#EB937F" rx="11" ry="11" style="stroke:#181818;stroke-width:1;"/><path d="M836.1094,53.5 L828.3906,53.5 L828.3906,41.1094 L836.1094,41.1094 L836.1094,43.2656 L830.8438,43.2656 L830.8438,45.9375 L835.6094,45.9375 L835.6094,48.0938 L830.8438,48.0938 L830.8438,51.3438 L836.1094,51.3438 L836.1094,53.5 Z " fill="#000000"/><text fill="#000000" font-family="sans-serif" font-size="14" lengthAdjust="spacing" textLength="99.4971" x="846" y="52.3467">NonCompliant</text><line style="stroke:#181818;stroke-width:0.5;" x1="818" x2="947.4971" y1="63.5" y2="63.5"/></a><g data-visibility-modifier="PUBLIC_FIELD"><a href="NonCompliant.html" target="_top" title="NonCompliant.html" xlink:actuate="onRequest" xlink:href="NonCompliant.html" xlink:show="new" xlink:title="NonCompliant.html" xlink:type="simple"><ellipse cx="828" cy="77.1484" fill="none" rx="3" ry="3" style="stroke:#038048;stroke-width:1;"/></a></g><a href="NonCompliant.html" target="_top" title="NonCompliant.html" xlink:actuate="onRequest" xlink:href="NonCompliant.html" xlink:show="new" xlink:title="NonCompliant.html" xlink:type="simple"><text fill="#000000" font-family="sans-serif" font-size="14" lengthAdjust="spacing" text-decoration="underline" textLength="39.9287" x="837" y="80.4951">ALIVE</text></a><g data-visibility-modifier="PUBLIC_FIELD"><a href="NonCompliant.html" target="_top" title="NonCompliant.html" xlink:actuate="onRequest" xlink:href="NonCompliant.html" xlink:show="new" xlink:title="NonCompliant.html" xlink:type="simple"><ellipse cx="828" cy="93.4453" fill="none" rx="3" ry="3" style="stroke:#038048;stroke-width:1;"/></a></g><a href="NonCompliant.html" target="_top" title="NonCompliant.html" xlink:actuate="onRequest" xlink:href="NonCompliant.html" xlink:show="new" xlink:title="NonCompliant.html" xlink:type="simple"><text fill="#000000" font-family="sans-serif" font-size="14" lengthAdjust="spacing" text-decoration="underline" textLength="39.9834" x="837" y="96.792">DEAD</text><line style="stroke:#181818;stroke-width:0.5;" x1="818" x2="947.4971" y1="104.0938" y2="104.0938"/></a></g><!--class LockdownIsolation--><g class="entity" data-qualified-name="io.github.ai4ci.abm.behaviour..LockdownIsolation" data-source-line="29" id="ent0006"><a href="LockdownIsolation.html" target="_top" title="LockdownIsolation.html" xlink:actuate="onRequest" xlink:href="LockdownIsolation.html" xlink:show="new" xlink:title="LockdownIsolation.html" xlink:type="simple"><rect fill="#F1F1F1" height="96.8906" rx="2.5" ry="2.5" style="stroke:#181818;stroke-width:0.5;" width="161.2197" x="802" y="656.5"/><ellipse cx="817" cy="672.5" fill="#EB937F" rx="11" ry="11" style="stroke:#181818;stroke-width:1;"/><path d="M821.1094,678.5 L813.3906,678.5 L813.3906,666.1094 L821.1094,666.1094 L821.1094,668.2656 L815.8438,668.2656 L815.8438,670.9375 L820.6094,670.9375 L820.6094,673.0938 L815.8438,673.0938 L815.8438,676.3438 L821.1094,676.3438 L821.1094,678.5 Z " fill="#000000"/><text fill="#000000" font-family="sans-serif" font-size="14" lengthAdjust="spacing" textLength="129.2197" x="831" y="677.3467">LockdownIsolation</text><line style="stroke:#181818;stroke-width:0.5;" x1="803" x2="962.2197" y1="688.5" y2="688.5"/></a><g data-visibility-modifier="PUBLIC_FIELD"><a href="LockdownIsolation.html" target="_top" title="LockdownIsolation.html" xlink:actuate="onRequest" xlink:href="LockdownIsolation.html" xlink:show="new" xlink:title="LockdownIsolation.html" xlink:type="simple"><ellipse cx="813" cy="702.1484" fill="none" rx="3" ry="3" style="stroke:#038048;stroke-width:1;"/></a></g><a href="LockdownIsolation.html" target="_top" title="LockdownIsolation.html" xlink:actuate="onRequest" xlink:href="LockdownIsolation.html" xlink:show="new" xlink:title="LockdownIsolation.html" xlink:type="simple"><text fill="#000000" font-family="sans-serif" font-size="14" lengthAdjust="spacing" text-decoration="underline" textLength="58.8096" x="822" y="705.4951">ISOLATE</text></a><g data-visibility-modifier="PUBLIC_FIELD"><a href="LockdownIsolation.html" target="_top" title="LockdownIsolation.html" xlink:actuate="onRequest" xlink:href="LockdownIsolation.html" xlink:show="new" xlink:title="LockdownIsolation.html" xlink:type="simple"><ellipse cx="813" cy="718.4453" fill="none" rx="3" ry="3" style="stroke:#038048;stroke-width:1;"/></a></g><a href="LockdownIsolation.html" target="_top" title="LockdownIsolation.html" xlink:actuate="onRequest" xlink:href="LockdownIsolation.html" xlink:show="new" xlink:title="LockdownIsolation.html" xlink:type="simple"><text fill="#000000" font-family="sans-serif" font-size="14" lengthAdjust="spacing" text-decoration="underline" textLength="36.1006" x="822" y="721.792">WAIT</text></a><g data-visibility-modifier="PUBLIC_FIELD"><a href="LockdownIsolation.html" target="_top" title="LockdownIsolation.html" xlink:actuate="onRequest" xlink:href="LockdownIsolation.html" xlink:show="new" xlink:title="LockdownIsolation.html" xlink:type="simple"><ellipse cx="813" cy="734.7422" fill="none" rx="3" ry="3" style="stroke:#038048;stroke-width:1;"/></a></g><a href="LockdownIsolation.html" target="_top" title="LockdownIsolation.html" xlink:actuate="onRequest" xlink:href="LockdownIsolation.html" xlink:show="new" xlink:title="LockdownIsolation.html" xlink:type="simple"><text fill="#000000" font-family="sans-serif" font-size="14" lengthAdjust="spacing" text-decoration="underline" textLength="62.5283" x="822" y="738.0889">RELEASE</text><line style="stroke:#181818;stroke-width:0.5;" x1="803" x2="962.2197" y1="745.3906" y2="745.3906"/></a></g><!--class SmartAgentTesting--><g class="entity" data-qualified-name="io.github.ai4ci.abm.behaviour..SmartAgentTesting" data-source-line="35" id="ent0007"><a href="SmartAgentTesting.html" target="_top" title="SmartAgentTesting.html" xlink:actuate="onRequest" xlink:href="SmartAgentTesting.html" xlink:show="new" xlink:title="SmartAgentTesting.html" xlink:type="simple"><rect fill="#F1F1F1" height="96.8906" rx="2.5" ry="2.5" style="stroke:#181818;stroke-width:0.5;" width="167.3857" x="799" y="130.5"/><ellipse cx="814" cy="146.5" fill="#EB937F" rx="11" ry="11" style="stroke:#181818;stroke-width:1;"/><path d="M818.1094,152.5 L810.3906,152.5 L810.3906,140.1094 L818.1094,140.1094 L818.1094,142.2656 L812.8438,142.2656 L812.8438,144.9375 L817.6094,144.9375 L817.6094,147.0938 L812.8438,147.0938 L812.8438,150.3438 L818.1094,150.3438 L818.1094,152.5 Z " fill="#000000"/><text fill="#000000" font-family="sans-serif" font-size="14" lengthAdjust="spacing" textLength="135.3857" x="828" y="151.3467">SmartAgentTesting</text><line style="stroke:#181818;stroke-width:0.5;" x1="800" x2="965.3857" y1="162.5" y2="162.5"/></a><g data-visibility-modifier="PUBLIC_FIELD"><a href="SmartAgentTesting.html" target="_top" title="SmartAgentTesting.html" xlink:actuate="onRequest" xlink:href="SmartAgentTesting.html" xlink:show="new" xlink:title="SmartAgentTesting.html" xlink:type="simple"><ellipse cx="810" cy="176.1484" fill="none" rx="3" ry="3" style="stroke:#038048;stroke-width:1;"/></a></g><a href="SmartAgentTesting.html" target="_top" title="SmartAgentTesting.html" xlink:actuate="onRequest" xlink:href="SmartAgentTesting.html" xlink:show="new" xlink:title="SmartAgentTesting.html" xlink:type="simple"><text fill="#000000" font-family="sans-serif" font-size="14" lengthAdjust="spacing" text-decoration="underline" textLength="103.9746" x="819" y="179.4951">REACTIVE_PCR</text></a><g data-visibility-modifier="PUBLIC_FIELD"><a href="SmartAgentTesting.html" target="_top" title="SmartAgentTesting.html" xlink:actuate="onRequest" xlink:href="SmartAgentTesting.html" xlink:show="new" xlink:title="SmartAgentTesting.html" xlink:type="simple"><ellipse cx="810" cy="192.4453" fill="none" rx="3" ry="3" style="stroke:#038048;stroke-width:1;"/></a></g><a href="SmartAgentTesting.html" target="_top" title="SmartAgentTesting.html" xlink:actuate="onRequest" xlink:href="SmartAgentTesting.html" xlink:show="new" xlink:title="SmartAgentTesting.html" xlink:type="simple"><text fill="#000000" font-family="sans-serif" font-size="14" lengthAdjust="spacing" text-decoration="underline" textLength="80.623" x="819" y="195.792">AWAIT_PCR</text></a><g data-visibility-modifier="PUBLIC_FIELD"><a href="SmartAgentTesting.html" target="_top" title="SmartAgentTesting.html" xlink:actuate="onRequest" xlink:href="SmartAgentTesting.html" xlink:show="new" xlink:title="SmartAgentTesting.html" xlink:type="simple"><ellipse cx="810" cy="208.7422" fill="none" rx="3" ry="3" style="stroke:#038048;stroke-width:1;"/></a></g><a href="SmartAgentTesting.html" target="_top" title="SmartAgentTesting.html" xlink:actuate="onRequest" xlink:href="SmartAgentTesting.html" xlink:show="new" xlink:title="SmartAgentTesting.html" xlink:type="simple"><text fill="#000000" font-family="sans-serif" font-size="14" lengthAdjust="spacing" text-decoration="underline" textLength="99.3945" x="819" y="212.0889">SELF_ISOLATE</text><line style="stroke:#181818;stroke-width:0.5;" x1="800" x2="965.3857" y1="219.3906" y2="219.3906"/></a></g><!--class ReactiveTestAndIsolate--><g class="entity" data-qualified-name="io.github.ai4ci.abm.behaviour..ReactiveTestAndIsolate" data-source-line="41" id="ent0008"><a href="ReactiveTestAndIsolate.html" target="_top" title="ReactiveTestAndIsolate.html" xlink:actuate="onRequest" xlink:href="ReactiveTestAndIsolate.html" xlink:show="new" xlink:title="ReactiveTestAndIsolate.html" xlink:type="simple"><rect fill="#F1F1F1" height="96.8906" rx="2.5" ry="2.5" style="stroke:#181818;stroke-width:0.5;" width="196.7393" x="784" y="245.5"/><ellipse cx="799" cy="261.5" fill="#EB937F" rx="11" ry="11" style="stroke:#181818;stroke-width:1;"/><path d="M803.1094,267.5 L795.3906,267.5 L795.3906,255.1094 L803.1094,255.1094 L803.1094,257.2656 L797.8438,257.2656 L797.8438,259.9375 L802.6094,259.9375 L802.6094,262.0938 L797.8438,262.0938 L797.8438,265.3438 L803.1094,265.3438 L803.1094,267.5 Z " fill="#000000"/><text fill="#000000" font-family="sans-serif" font-size="14" lengthAdjust="spacing" textLength="164.7393" x="813" y="266.3467">ReactiveTestAndIsolate</text><line style="stroke:#181818;stroke-width:0.5;" x1="785" x2="979.7393" y1="277.5" y2="277.5"/></a><g data-visibility-modifier="PUBLIC_FIELD"><a href="ReactiveTestAndIsolate.html" target="_top" title="ReactiveTestAndIsolate.html" xlink:actuate="onRequest" xlink:href="ReactiveTestAndIsolate.html" xlink:show="new" xlink:title="ReactiveTestAndIsolate.html" xlink:type="simple"><ellipse cx="795" cy="291.1484" fill="none" rx="3" ry="3" style="stroke:#038048;stroke-width:1;"/></a></g><a href="ReactiveTestAndIsolate.html" target="_top" title="ReactiveTestAndIsolate.html" xlink:actuate="onRequest" xlink:href="ReactiveTestAndIsolate.html" xlink:show="new" xlink:title="ReactiveTestAndIsolate.html" xlink:type="simple"><text fill="#000000" font-family="sans-serif" font-size="14" lengthAdjust="spacing" text-decoration="underline" textLength="103.9746" x="804" y="294.4951">REACTIVE_PCR</text></a><g data-visibility-modifier="PUBLIC_FIELD"><a href="ReactiveTestAndIsolate.html" target="_top" title="ReactiveTestAndIsolate.html" xlink:actuate="onRequest" xlink:href="ReactiveTestAndIsolate.html" xlink:show="new" xlink:title="ReactiveTestAndIsolate.html" xlink:type="simple"><ellipse cx="795" cy="307.4453" fill="none" rx="3" ry="3" style="stroke:#038048;stroke-width:1;"/></a></g><a href="ReactiveTestAndIsolate.html" target="_top" title="ReactiveTestAndIsolate.html" xlink:actuate="onRequest" xlink:href="ReactiveTestAndIsolate.html" xlink:show="new" xlink:title="ReactiveTestAndIsolate.html" xlink:type="simple"><text fill="#000000" font-family="sans-serif" font-size="14" lengthAdjust="spacing" text-decoration="underline" textLength="80.623" x="804" y="310.792">AWAIT_PCR</text></a><g data-visibility-modifier="PUBLIC_FIELD"><a href="ReactiveTestAndIsolate.html" target="_top" title="ReactiveTestAndIsolate.html" xlink:actuate="onRequest" xlink:href="ReactiveTestAndIsolate.html" xlink:show="new" xlink:title="ReactiveTestAndIsolate.html" xlink:type="simple"><ellipse cx="795" cy="323.7422" fill="none" rx="3" ry="3" style="stroke:#038048;stroke-width:1;"/></a></g><a href="ReactiveTestAndIsolate.html" target="_top" title="ReactiveTestAndIsolate.html" xlink:actuate="onRequest" xlink:href="ReactiveTestAndIsolate.html" xlink:show="new" xlink:title="ReactiveTestAndIsolate.html" xlink:type="simple"><text fill="#000000" font-family="sans-serif" font-size="14" lengthAdjust="spacing" text-decoration="underline" textLength="99.3945" x="804" y="327.0889">SELF_ISOLATE</text><line style="stroke:#181818;stroke-width:0.5;" x1="785" x2="979.7393" y1="334.3906" y2="334.3906"/></a></g><!--class BehaviourModel--><g class="entity" data-qualified-name="io.github.ai4ci.abm.behaviour..BehaviourModel" data-source-line="47" id="ent0009"><a href="BehaviourModel.html" target="_top" title="BehaviourModel.html" xlink:actuate="onRequest" xlink:href="BehaviourModel.html" xlink:show="new" xlink:title="BehaviourModel.html" xlink:type="simple"><rect fill="#F1F1F1" height="48" rx="2.5" ry="2.5" style="stroke:#181818;stroke-width:0.5;" width="145.0732" x="603" y="463"/><ellipse cx="618" cy="479" fill="#B4A7E5" rx="11" ry="11" style="stroke:#181818;stroke-width:1;"/><path d="M613.9219,474.7656 L613.9219,472.6094 L621.3125,472.6094 L621.3125,474.7656 L618.8438,474.7656 L618.8438,482.8438 L621.3125,482.8438 L621.3125,485 L613.9219,485 L613.9219,482.8438 L616.3906,482.8438 L616.3906,474.7656 L613.9219,474.7656 Z " fill="#000000"/><text fill="#000000" font-family="sans-serif" font-size="14" font-style="italic" lengthAdjust="spacing" textLength="113.0732" x="632" y="483.8467">BehaviourModel</text><line style="stroke:#181818;stroke-width:0.5;" x1="604" x2="747.0732" y1="495" y2="495"/><line style="stroke:#181818;stroke-width:0.5;" x1="604" x2="747.0732" y1="503" y2="503"/></a></g><!--class Symptomatic--><g class="entity" data-qualified-name="io.github.ai4ci.abm.behaviour..Symptomatic" data-source-line="49" id="ent0010"><a href="Symptomatic.html" target="_top" title="Symptomatic.html" xlink:actuate="onRequest" xlink:href="Symptomatic.html" xlink:show="new" xlink:title="Symptomatic.html" xlink:type="simple"><rect fill="#F1F1F1" height="64.2969" rx="2.5" ry="2.5" style="stroke:#181818;stroke-width:0.5;" width="125.0439" x="820" y="361"/><ellipse cx="835" cy="377" fill="#EB937F" rx="11" ry="11" style="stroke:#181818;stroke-width:1;"/><path d="M839.1094,383 L831.3906,383 L831.3906,370.6094 L839.1094,370.6094 L839.1094,372.7656 L833.8438,372.7656 L833.8438,375.4375 L838.6094,375.4375 L838.6094,377.5938 L833.8438,377.5938 L833.8438,380.8438 L839.1094,380.8438 L839.1094,383 Z " fill="#000000"/><text fill="#000000" font-family="sans-serif" font-size="14" lengthAdjust="spacing" textLength="93.0439" x="849" y="381.8467">Symptomatic</text><line style="stroke:#181818;stroke-width:0.5;" x1="821" x2="944.0439" y1="393" y2="393"/></a><g data-visibility-modifier="PUBLIC_FIELD"><a href="Symptomatic.html" target="_top" title="Symptomatic.html" xlink:actuate="onRequest" xlink:href="Symptomatic.html" xlink:show="new" xlink:title="Symptomatic.html" xlink:type="simple"><ellipse cx="831" cy="406.6484" fill="none" rx="3" ry="3" style="stroke:#038048;stroke-width:1;"/></a></g><a href="Symptomatic.html" target="_top" title="Symptomatic.html" xlink:actuate="onRequest" xlink:href="Symptomatic.html" xlink:show="new" xlink:title="Symptomatic.html" xlink:type="simple"><text fill="#000000" font-family="sans-serif" font-size="14" lengthAdjust="spacing" text-decoration="underline" textLength="63.8545" x="840" y="409.9951">DEFAULT</text><line style="stroke:#181818;stroke-width:0.5;" x1="821" x2="944.0439" y1="417.2969" y2="417.2969"/></a></g><!--class StateUtils.DefaultNoTesting--><g class="entity" data-qualified-name="io.github.ai4ci.flow.mechanics..StateUtils.DefaultNoTesting" data-source-line="56" id="ent0012"><a href="../../flow/mechanics/StateUtils.DefaultNoTesting.html" target="_top" title="../../flow/mechanics/StateUtils.DefaultNoTesting.html" xlink:actuate="onRequest" xlink:href="../../flow/mechanics/StateUtils.DefaultNoTesting.html" xlink:show="new" xlink:title="../../flow/mechanics/StateUtils.DefaultNoTesting.html" xlink:type="simple"><rect fill="#F1F1F1" height="64.2969" rx="2.5" ry="2.5" style="stroke:#181818;stroke-width:0.5;" width="544.6699" x="22" y="290"/><ellipse cx="193.0317" cy="306" fill="#B4A7E5" rx="11" ry="11" style="stroke:#181818;stroke-width:1;"/><path d="M188.9536,301.7656 L188.9536,299.6094 L196.3442,299.6094 L196.3442,301.7656 L193.8755,301.7656 L193.8755,309.8438 L196.3442,309.8438 L196.3442,312 L188.9536,312 L188.9536,309.8438 L191.4224,309.8438 L191.4224,301.7656 L188.9536,301.7656 Z " fill="#000000"/><text fill="#000000" font-family="sans-serif" font-size="14" font-style="italic" lengthAdjust="spacing" textLength="194.1064" x="213.5317" y="310.8467">StateUtils.DefaultNoTesting</text><line style="stroke:#181818;stroke-width:0.5;" x1="23" x2="565.6699" y1="322" y2="322"/><line style="stroke:#181818;stroke-width:0.5;" x1="23" x2="565.6699" y1="330" y2="330"/></a><g data-visibility-modifier="PUBLIC_METHOD"><a href="../../flow/mechanics/StateUtils.DefaultNoTesting.html" target="_top" title="../../flow/mechanics/StateUtils.DefaultNoTesting.html" xlink:actuate="onRequest" xlink:href="../../flow/mechanics/StateUtils.DefaultNoTesting.html" xlink:show="new" xlink:title="../../flow/mechanics/StateUtils.DefaultNoTesting.html" xlink:type="simple"><ellipse cx="33" cy="343.6484" fill="#84BE84" rx="3" ry="3" style="stroke:#038048;stroke-width:1;"/></a></g><a href="../../flow/mechanics/StateUtils.DefaultNoTesting.html" target="_top" title="../../flow/mechanics/StateUtils.DefaultNoTesting.html" xlink:actuate="onRequest" xlink:href="../../flow/mechanics/StateUtils.DefaultNoTesting.html" xlink:show="new" xlink:title="../../flow/mechanics/StateUtils.DefaultNoTesting.html" xlink:type="simple"><text fill="#000000" font-family="sans-serif" font-size="14" lengthAdjust="spacing" textLength="518.6699" x="42" y="346.9951">updateHistory(Builder, PersonState, StateMachineContext, Sampler): void</text></a></g><!--class StateUtils.DoesPCRIfSymptomatic--><g class="entity" data-qualified-name="io.github.ai4ci.flow.mechanics..StateUtils.DoesPCRIfSymptomatic" data-source-line="59" id="ent0013"><a href="../../flow/mechanics/StateUtils.DoesPCRIfSymptomatic.html" target="_top" title="../../flow/mechanics/StateUtils.DoesPCRIfSymptomatic.html" xlink:actuate="onRequest" xlink:href="../../flow/mechanics/StateUtils.DoesPCRIfSymptomatic.html" xlink:show="new" xlink:title="../../flow/mechanics/StateUtils.DoesPCRIfSymptomatic.html" xlink:type="simple"><rect fill="#F1F1F1" height="64.2969" rx="2.5" ry="2.5" style="stroke:#181818;stroke-width:0.5;" width="544.6699" x="22" y="372"/><ellipse cx="171.2764" cy="388" fill="#B4A7E5" rx="11" ry="11" style="stroke:#181818;stroke-width:1;"/><path d="M167.1982,383.7656 L167.1982,381.6094 L174.5889,381.6094 L174.5889,383.7656 L172.1201,383.7656 L172.1201,391.8438 L174.5889,391.8438 L174.5889,394 L167.1982,394 L167.1982,391.8438 L169.667,391.8438 L169.667,383.7656 L167.1982,383.7656 Z " fill="#000000"/><text fill="#000000" font-family="sans-serif" font-size="14" font-style="italic" lengthAdjust="spacing" textLength="237.6172" x="191.7764" y="392.8467">StateUtils.DoesPCRIfSymptomatic</text><line style="stroke:#181818;stroke-width:0.5;" x1="23" x2="565.6699" y1="404" y2="404"/><line style="stroke:#181818;stroke-width:0.5;" x1="23" x2="565.6699" y1="412" y2="412"/></a><g data-visibility-modifier="PUBLIC_METHOD"><a href="../../flow/mechanics/StateUtils.DoesPCRIfSymptomatic.html" target="_top" title="../../flow/mechanics/StateUtils.DoesPCRIfSymptomatic.html" xlink:actuate="onRequest" xlink:href="../../flow/mechanics/StateUtils.DoesPCRIfSymptomatic.html" xlink:show="new" xlink:title="../../flow/mechanics/StateUtils.DoesPCRIfSymptomatic.html" xlink:type="simple"><ellipse cx="33" cy="425.6484" fill="#84BE84" rx="3" ry="3" style="stroke:#038048;stroke-width:1;"/></a></g><a href="../../flow/mechanics/StateUtils.DoesPCRIfSymptomatic.html" target="_top" title="../../flow/mechanics/StateUtils.DoesPCRIfSymptomatic.html" xlink:actuate="onRequest" xlink:href="../../flow/mechanics/StateUtils.DoesPCRIfSymptomatic.html" xlink:show="new" xlink:title="../../flow/mechanics/StateUtils.DoesPCRIfSymptomatic.html" xlink:type="simple"><text fill="#000000" font-family="sans-serif" font-size="14" lengthAdjust="spacing" textLength="518.6699" x="42" y="428.9951">updateHistory(Builder, PersonState, StateMachineContext, Sampler): void</text></a></g><!--class State.BehaviourState--><g class="entity" data-qualified-name="io.github.ai4ci.flow.mechanics..State.BehaviourState" data-source-line="62" id="ent0014"><a href="../../flow/mechanics/State.BehaviourState.html" target="_top" title="../../flow/mechanics/State.BehaviourState.html" xlink:actuate="onRequest" xlink:href="../../flow/mechanics/State.BehaviourState.html" xlink:show="new" xlink:title="../../flow/mechanics/State.BehaviourState.html" xlink:type="simple"><rect fill="#F1F1F1" height="64.2969" rx="2.5" ry="2.5" style="stroke:#181818;stroke-width:0.5;" width="181.6045" x="203.5" y="454"/><ellipse cx="218.5" cy="470" fill="#B4A7E5" rx="11" ry="11" style="stroke:#181818;stroke-width:1;"/><path d="M214.4219,465.7656 L214.4219,463.6094 L221.8125,463.6094 L221.8125,465.7656 L219.3438,465.7656 L219.3438,473.8438 L221.8125,473.8438 L221.8125,476 L214.4219,476 L214.4219,473.8438 L216.8906,473.8438 L216.8906,465.7656 L214.4219,465.7656 Z " fill="#000000"/><text fill="#000000" font-family="sans-serif" font-size="14" font-style="italic" lengthAdjust="spacing" textLength="149.6045" x="232.5" y="474.8467">State.BehaviourState</text><line style="stroke:#181818;stroke-width:0.5;" x1="204.5" x2="384.1045" y1="486" y2="486"/><line style="stroke:#181818;stroke-width:0.5;" x1="204.5" x2="384.1045" y1="494" y2="494"/></a><g data-visibility-modifier="PUBLIC_METHOD"><a href="../../flow/mechanics/State.BehaviourState.html" target="_top" title="../../flow/mechanics/State.BehaviourState.html" xlink:actuate="onRequest" xlink:href="../../flow/mechanics/State.BehaviourState.html" xlink:show="new" xlink:title="../../flow/mechanics/State.BehaviourState.html" xlink:type="simple"><ellipse cx="214.5" cy="507.6484" fill="#84BE84" rx="3" ry="3" style="stroke:#038048;stroke-width:1;"/></a></g><a href="../../flow/mechanics/State.BehaviourState.html" target="_top" title="../../flow/mechanics/State.BehaviourState.html" xlink:actuate="onRequest" xlink:href="../../flow/mechanics/State.BehaviourState.html" xlink:show="new" xlink:title="../../flow/mechanics/State.BehaviourState.html" xlink:type="simple"><text fill="#000000" font-family="sans-serif" font-size="14" lengthAdjust="spacing" textLength="101.5752" x="223.5" y="510.9951">name(): String</text></a></g><g class="link" data-entity-1="ent0009" data-entity-2="ent0003" data-link-type="extension" id="lnk15"><polygon fill="none" points="748.1991,482.803,766.5189,487.7409,765.8177,475.7614,748.1991,482.803" style="stroke:#181818;stroke-width:1;"/><path d="M766.1683,481.7511 C800.4602,479.7438 821.8534,478.4915 848.8649,476.9103" fill="none" style="stroke:#181818;stroke-width:1;stroke-dasharray:7,7;"/></g><g class="link" data-entity-1="ent0012" data-entity-2="ent0003" data-link-type="extension" id="lnk16"><polygon fill="none" points="567.2436,349.8286,584.3797,357.9744,585.84,346.0635,567.2436,349.8286" style="stroke:#181818;stroke-width:1;"/><path d="M585.1099,352.0189 C671.0065,362.5496 730.4612,372.3656 748,383 C771.7244,397.385 762.3758,416.6169 784,434 C803.0348,449.3016 828.6077,459.7703 848.7875,466.2977" fill="none" style="stroke:#181818;stroke-width:1;stroke-dasharray:7,7;"/></g><g class="link" data-entity-1="ent0009" data-entity-2="ent0004" data-link-type="extension" id="lnk17"><polygon fill="none" points="728.4952,511.0953,742.304,524.1075,747.3495,513.2198,728.4952,511.0953" style="stroke:#181818;stroke-width:1;"/><path d="M744.8268,518.6636 C762.5011,526.8542 766.5148,528.7142 786.4797,537.9662" fill="none" style="stroke:#181818;stroke-width:1;stroke-dasharray:7,7;"/></g><g class="link" data-entity-1="ent0012" data-entity-2="ent0004" data-link-type="extension" id="lnk18"><polygon fill="none" points="555.4462,354.0978,569.8023,366.5036,574.3745,355.4088,555.4462,354.0978" style="stroke:#181818;stroke-width:1;"/><path d="M572.0884,360.9562 C578.7562,363.7041 568.6454,359.8078 575,363 C586.2331,368.6429 584.0561,376.8148 595,383 C655.9979,417.4745 695.6024,374.4841 748,421 C781.7662,450.9759 755.9974,480.5801 784,516 C786.5354,519.207 789.2697,522.3157 792.1564,525.3219" fill="none" style="stroke:#181818;stroke-width:1;stroke-dasharray:7,7;"/></g><g class="link" data-entity-1="ent0009" data-entity-2="ent0005" data-link-type="extension" id="lnk19"><polygon fill="none" points="677.1977,462.5559,684.0527,444.8638,672.0665,444.2892,677.1977,462.5559" style="stroke:#181818;stroke-width:1;"/><path d="M678.0596,444.5765 C681.1104,380.9308 696.5944,225.7477 784,121 C792.8604,110.3817 804.5957,101.8347 816.8458,95.0412" fill="none" style="stroke:#181818;stroke-width:1;stroke-dasharray:7,7;"/></g><g class="link" data-entity-1="ent0012" data-entity-2="ent0005" data-link-type="extension" id="lnk20"><polygon fill="none" points="370.6108,289.9561,389.5215,288.4116,384.8127,277.3741,370.6108,289.9561" style="stroke:#181818;stroke-width:1;"/><path d="M387.1671,282.8929 C503.1351,233.4185 707.239,146.3434 816.653,99.6651" fill="none" style="stroke:#181818;stroke-width:1;stroke-dasharray:7,7;"/></g><g class="link" data-entity-1="ent0009" data-entity-2="ent0006" data-link-type="extension" id="lnk21"><polygon fill="none" points="688.085,511.0219,690.9067,529.7845,701.6,524.3389,688.085,511.0219" style="stroke:#181818;stroke-width:1;"/><path d="M696.2534,527.0617 C713.4643,560.8581 740.3317,606.8634 784,648 C789.4234,653.109 795.385,657.9572 801.6056,662.5094" fill="none" style="stroke:#181818;stroke-width:1;stroke-dasharray:7,7;"/></g><g class="link" data-entity-1="ent0013" data-entity-2="ent0006" data-link-type="extension" id="lnk22"><polygon fill="none" points="567.1508,421.0117,584.529,428.6273,585.6227,416.6772,567.1508,421.0117" style="stroke:#181818;stroke-width:1;"/><path d="M585.0758,422.6523 C672.434,430.6477 732.8551,439.9283 748,454 C812.2435,513.6912 733.5745,576.2536 784,648 C788.9608,655.0584 795.0966,661.3742 801.8569,666.9944" fill="none" style="stroke:#181818;stroke-width:1;stroke-dasharray:7,7;"/></g><g class="link" data-entity-1="ent0009" data-entity-2="ent0007" data-link-type="extension" id="lnk23"><polygon fill="none" points="681.4818,462.842,691.3348,446.6272,679.6353,443.9584,681.4818,462.842" style="stroke:#181818;stroke-width:1;"/><path d="M685.485,445.2928 C696.476,397.1109 722.8242,305.3005 784,236 C788.4119,231.0022 793.3717,226.3265 798.656,221.9755" fill="none" style="stroke:#181818;stroke-width:1;stroke-dasharray:7,7;"/></g><g class="link" data-entity-1="ent0012" data-entity-2="ent0007" data-link-type="extension" id="lnk24"><polygon fill="none" points="426.645,289.997,445.5543,291.5587,442.7094,279.9008,426.645,289.997" style="stroke:#181818;stroke-width:1;"/><path d="M444.1319,285.7298 C557.9987,257.9432 701.9039,222.8264 798.6887,199.2082" fill="none" style="stroke:#181818;stroke-width:1;stroke-dasharray:7,7;"/></g><g class="link" data-entity-1="ent0009" data-entity-2="ent0008" data-link-type="extension" id="lnk25"><polygon fill="none" points="691.7517,462.868,706.6822,451.1599,696.6712,444.5432,691.7517,462.868" style="stroke:#181818;stroke-width:1;"/><path d="M701.6767,447.8515 C720.7358,419.0153 745.6239,385.4877 784,352 C787.71,348.7626 791.6252,345.6043 795.6702,342.5407" fill="none" style="stroke:#181818;stroke-width:1;stroke-dasharray:7,7;"/></g><g class="link" data-entity-1="ent0012" data-entity-2="ent0008" data-link-type="extension" id="lnk26"><polygon fill="none" points="567.2964,308.3317,585.5653,313.4548,584.9854,301.4688,567.2964,308.3317" style="stroke:#181818;stroke-width:1;"/><path d="M585.2753,307.4618 C594.6227,307.0095 585.8996,307.4344 595,307 C657.7894,304.0031 728.3277,300.8004 783.7009,298.3238" fill="none" style="stroke:#181818;stroke-width:1;stroke-dasharray:7,7;"/></g><g class="link" data-entity-1="ent0014" data-entity-2="ent0009" data-link-type="extension" id="lnk27"><polygon fill="none" points="385.7984,486.2383,403.7825,492.2857,403.8142,480.2858,385.7984,486.2383" style="stroke:#181818;stroke-width:1;"/><path d="M403.7984,486.2857 C470.2485,486.4611 541.363,486.6487 602.9229,486.8111" fill="none" style="stroke:#181818;stroke-width:1;"/></g><g class="link" data-entity-1="ent0009" data-entity-2="ent0010" data-link-type="extension" id="lnk28"><polygon fill="none" points="723.8345,462.9005,742.621,460.242,737.2686,449.5018,723.8345,462.9005" style="stroke:#181818;stroke-width:1;"/><path d="M739.9448,454.8719 C758.5768,445.5866 764.1227,443.0694 784,434 C795.5271,428.7405 807.9235,423.3377 819.8832,418.2508" fill="none" style="stroke:#181818;stroke-width:1;stroke-dasharray:7,7;"/></g><g class="link" data-entity-1="ent0012" data-entity-2="ent0010" data-link-type="extension" id="lnk29"><polygon fill="none" points="567.1964,322.8143,584.7831,329.9353,585.5383,317.9591,567.1964,322.8143" style="stroke:#181818;stroke-width:1;"/><path d="M585.1607,323.9472 C645.123,327.7284 690.0606,333.3774 748,345 C772.0279,349.82 797.5451,358.1443 819.7642,366.5208" fill="none" style="stroke:#181818;stroke-width:1;stroke-dasharray:7,7;"/></g><g class="footer" data-source-line="89"><text fill="#888888" font-family="sans-serif" font-size="10" lengthAdjust="spacing" textLength="3.1787" x="488.4106" y="773.2822">&#160;</text><a href="https://github.com/talsma-ict/umldoclet" target="_top" title="https://github.com/talsma-ict/umldoclet" xlink:actuate="onRequest" xlink:href="https://github.com/talsma-ict/umldoclet" xlink:show="new" xlink:title="https://github.com/talsma-ict/umldoclet" xlink:type="simple"><text fill="#888888" font-family="sans-serif" font-size="10" lengthAdjust="spacing" textLength="140.4639" x="419.7681" y="784.9229">UMLDoclet 2.2.5-SNAPSHOT</text></a></g><?plantuml-src pLTXRzf84FtUNp6dVcYgXZMGDkrPqKaka0idXqInkLRbecYn5rXblUlphicXDl-zOqF1k0OQqQI7a91tTkUzDpFUOG00Na1BnRE4ZoS6Z08puHhwvovG6SAOIPPGmqBW4Hqp3KCcb1ph-KO6D3KJbO0QvK-1IXAcOoL3BiVm5vrIq2fD0gR9isUGG_dVlDzHNV0-d6MBRHK8Pk2WzR90gLbl7DUQzUOn-5JeY4AtvPE5jzMP9ccIDpMlvrnwPnS-88ZW0PCQVQSoP4dEpubfW3_kt788KvPehYGUhYySPfe39GtbKaDC4wCpRPU2IfEHRf2C26d0WUEvwoJhl-Sa3y5994r3k5B_falTlyK97IDrGMSgDQ0ZPgYakKcmKHxskP-G9ommo2ctQHIc6TAW1eDistDdAE8MSm5SaJ4tatH8A7yTS4A74Hco2ProZ3bydc_EFaoc4VXC6nWCiXyoCP6uliOjKFXyreOQ7jp3gzv5hxCqtPVyU156nS7C6VVKpxnbgHuCgfPtuLnrd9RV_RjpWqSsRZbrEnzlBbjN6pOu7voklyNkTTpJcwvtuJh-Paqz9LigYWN7DAEMukCk3OwB0ZROsXsdlH7JLS5jgEvaLoj1iumZy7Thkz3BmjQjMMWsnjNjEDwFPBagnG_DxoEdxufHV6UcBAFbo70UFOQCgmt_0zfS6fQCQC3W_RSNzbo5J23dzOK5rt9sPb5iL9I1PNbPFUsIrkwSEdtNBrEwttwnZ8Iw8n4B9bJoG1UShsHuYC3wXWjDscn4Ks5wQbKvX5ZupTnOIpVMbYFLCbwbSOX7phZ6st1sy3xb0Y_sGxZ4Mrp9tDtXdCWvNlDSiXPUvEm_WuiKtsQMlBHXgdXOKBzTY68QKzmThOTxfvYAOxzQ45bMLVwuLKLfxmRgaaRi0F4zas32IWmMzRIrGTbsgVHFlX2owqXM7vMkrqlKjhVLurv0-skewfHFekc7WVVNMEoWJw9j9-3-chvhpWyMLdMV_3padrcPlwOi7xScg_yCF8d4VQ7Br_V9brhjOH5wh8fPLVBJr4e1BmSyqMOcs1_B_ZDI2XjVgLcTpMAMk5pUjfJ0EUhvksfhFviJ1RPPd563MycqXdgfiPrO1Rm5rZzoC9WO4slRiXRS0nLP9XzMQpmmLXg9S3wbRffNyH_UVFxySpaHPyDahTwiDPf-uyXk7jj7xqZzxT7hjut6cwDFWuu9hBxVkluA?></g></svg>