<?plantuml 1.2026.1?><svg xmlns="http://www.w3.org/2000/svg" xmlns:xlink="http://www.w3.org/1999/xlink" contentStyleType="text/css" data-diagram-type="CLASS" height="367px" preserveAspectRatio="none" style="width:1136px;height:367px;background:#FFFFFF;" version="1.1" viewBox="0 0 1136 367" width="1136px" zoomAndPan="magnify"><defs/><g><!--cluster io.github.ai4ci.abm.policy--><g class="cluster" data-qualified-name="io.github.ai4ci.abm.policy" data-source-line="11" id="ent0002"><path d="M284.5,4 L490.4619,4 A3.75,3.75 0 0 1 492.9619,6.5 L499.9619,26.2969 L1126.5,26.2969 A2.5,2.5 0 0 1 1129,28.7969 L1129,331.5 A2.5,2.5 0 0 1 1126.5,334 L284.5,334 A2.5,2.5 0 0 1 282,331.5 L282,6.5 A2.5,2.5 0 0 1 284.5,4" fill="none" style="stroke:#000000;stroke-width:1.5;"/><line style="stroke:#000000;stroke-width:1.5;" x1="282" x2="499.9619" y1="26.2969" y2="26.2969"/><text fill="#000000" font-family="sans-serif" font-size="14" font-weight="bold" lengthAdjust="spacing" textLength="204.9619" x="286" y="18.9951">io.github.ai4ci.abm.policy</text></g><!--cluster io.github.ai4ci.flow.mechanics--><g class="cluster" data-qualified-name="io.github.ai4ci.flow.mechanics" data-source-line="39" id="ent0008"><path d="M8.5,50 L250.3779,50 A3.75,3.75 0 0 1 252.8779,52.5 L259.8779,72.2969 L259.5,72.2969 A2.5,2.5 0 0 1 262,74.7969 L262,146.5 A2.5,2.5 0 0 1 259.5,149 L8.5,149 A2.5,2.5 0 0 1 6,146.5 L6,52.5 A2.5,2.5 0 0 1 8.5,50" fill="none" style="stroke:#000000;stroke-width:1.5;"/><line style="stroke:#000000;stroke-width:1.5;" x1="6" x2="259.8779" y1="72.2969" y2="72.2969"/><text fill="#000000" font-family="sans-serif" font-size="14" font-weight="bold" lengthAdjust="spacing" textLength="240.8779" x="10" y="64.9951">io.github.ai4ci.flow.mechanics</text></g><!--class PolicyModel--><g class="entity" data-qualified-name="io.github.ai4ci.abm.policy..PolicyModel" data-source-line="13" id="ent0003"><a href="PolicyModel.html" target="_top" title="PolicyModel.html" xlink:actuate="onRequest" xlink:href="PolicyModel.html" xlink:show="new" xlink:title="PolicyModel.html" xlink:type="simple"><rect fill="#F1F1F1" height="64.2969" rx="2.5" ry="2.5" style="stroke:#181818;stroke-width:0.5;" width="562.4502" x="290" y="77"/><ellipse cx="525.5732" cy="93" fill="#B4A7E5" rx="11" ry="11" style="stroke:#181818;stroke-width:1;"/><path d="M521.4951,88.7656 L521.4951,86.6094 L528.8857,86.6094 L528.8857,88.7656 L526.417,88.7656 L526.417,96.8438 L528.8857,96.8438 L528.8857,99 L521.4951,99 L521.4951,96.8438 L523.9639,96.8438 L523.9639,88.7656 L521.4951,88.7656 Z " fill="#000000"/><text fill="#000000" font-family="sans-serif" font-size="14" font-style="italic" lengthAdjust="spacing" textLength="82.8037" x="546.0732" y="97.8467">PolicyModel</text><line style="stroke:#181818;stroke-width:0.5;" x1="291" x2="851.4502" y1="109" y2="109"/><line style="stroke:#181818;stroke-width:0.5;" x1="291" x2="851.4502" y1="117" y2="117"/></a><g data-visibility-modifier="PUBLIC_METHOD"><a href="PolicyModel.html" target="_top" title="PolicyModel.html" xlink:actuate="onRequest" xlink:href="PolicyModel.html" xlink:show="new" xlink:title="PolicyModel.html" xlink:type="simple"><ellipse cx="301" cy="130.6484" fill="#84BE84" rx="3" ry="3" style="stroke:#038048;stroke-width:1;"/></a></g><a href="PolicyModel.html" target="_top" title="PolicyModel.html" xlink:actuate="onRequest" xlink:href="PolicyModel.html" xlink:show="new" xlink:title="PolicyModel.html" xlink:type="simple"><text fill="#000000" font-family="sans-serif" font-size="14" lengthAdjust="spacing" textLength="536.4502" x="310" y="133.9951">updateHistory(Builder, OutbreakState, StateMachineContext, Sampler): void</text></a></g><!--class Trigger--><g class="entity" data-qualified-name="io.github.ai4ci.abm.policy..Trigger" data-source-line="17" id="ent0004"><a href="Trigger.html" target="_top" title="Trigger.html" xlink:actuate="onRequest" xlink:href="Trigger.html" xlink:show="new" xlink:title="Trigger.html" xlink:type="simple"><rect fill="#F1F1F1" height="64.2969" rx="2.5" ry="2.5" style="stroke:#181818;stroke-width:0.5;" width="250.998" x="445.5" y="237"/><ellipse cx="541.5791" cy="253" fill="#B4A7E5" rx="11" ry="11" style="stroke:#181818;stroke-width:1;"/><path d="M537.501,248.7656 L537.501,246.6094 L544.8916,246.6094 L544.8916,248.7656 L542.4229,248.7656 L542.4229,256.8438 L544.8916,256.8438 L544.8916,259 L537.501,259 L537.501,256.8438 L539.9697,256.8438 L539.9697,248.7656 L537.501,248.7656 Z " fill="#000000"/><text fill="#000000" font-family="sans-serif" font-size="14" font-style="italic" lengthAdjust="spacing" textLength="50.3398" x="562.0791" y="257.8467">Trigger</text><line style="stroke:#181818;stroke-width:0.5;" x1="446.5" x2="695.498" y1="269" y2="269"/><line style="stroke:#181818;stroke-width:0.5;" x1="446.5" x2="695.498" y1="277" y2="277"/></a><g data-visibility-modifier="PUBLIC_METHOD"><a href="Trigger.html" target="_top" title="Trigger.html" xlink:actuate="onRequest" xlink:href="Trigger.html" xlink:show="new" xlink:title="Trigger.html" xlink:type="simple"><ellipse cx="456.5" cy="290.6484" fill="#84BE84" rx="3" ry="3" style="stroke:#038048;stroke-width:1;"/></a></g><a href="Trigger.html" target="_top" title="Trigger.html" xlink:actuate="onRequest" xlink:href="Trigger.html" xlink:show="new" xlink:title="Trigger.html" xlink:type="simple"><text fill="#000000" font-family="sans-serif" font-size="14" font-style="italic" lengthAdjust="spacing" textLength="224.998" x="465.5" y="293.9951">select(OutbreakState): Binomial</text></a></g><!--class Trigger.Value--><g class="entity" data-qualified-name="io.github.ai4ci.abm.policy..Trigger.Value" data-source-line="21" id="ent0005"><a href="Trigger.Value.html" target="_top" title="Trigger.Value.html" xlink:actuate="onRequest" xlink:href="Trigger.Value.html" xlink:show="new" xlink:title="Trigger.Value.html" xlink:type="simple"><rect fill="#F1F1F1" height="113.1875" rx="2.5" ry="2.5" style="stroke:#181818;stroke-width:0.5;" width="232.8076" x="888" y="212.5"/><ellipse cx="952.9927" cy="228.5" fill="#EB937F" rx="11" ry="11" style="stroke:#181818;stroke-width:1;"/><path d="M957.1021,234.5 L949.3833,234.5 L949.3833,222.1094 L957.1021,222.1094 L957.1021,224.2656 L951.8364,224.2656 L951.8364,226.9375 L956.6021,226.9375 L956.6021,229.0938 L951.8364,229.0938 L951.8364,232.3438 L957.1021,232.3438 L957.1021,234.5 Z " fill="#000000"/><text fill="#000000" font-family="sans-serif" font-size="14" lengthAdjust="spacing" textLength="94.3223" x="973.4927" y="233.3467">Trigger.Value</text><line style="stroke:#181818;stroke-width:0.5;" x1="889" x2="1119.8076" y1="244.5" y2="244.5"/></a><g data-visibility-modifier="PUBLIC_FIELD"><a href="Trigger.Value.html" target="_top" title="Trigger.Value.html" xlink:actuate="onRequest" xlink:href="Trigger.Value.html" xlink:show="new" xlink:title="Trigger.Value.html" xlink:type="simple"><ellipse cx="899" cy="258.1484" fill="none" rx="3" ry="3" style="stroke:#038048;stroke-width:1;"/></a></g><a href="Trigger.Value.html" target="_top" title="Trigger.Value.html" xlink:actuate="onRequest" xlink:href="Trigger.Value.html" xlink:show="new" xlink:title="Trigger.Value.html" xlink:type="simple"><text fill="#000000" font-family="sans-serif" font-size="14" lengthAdjust="spacing" text-decoration="underline" textLength="117.8037" x="908" y="261.4951">TEST_POSITIVITY</text></a><g data-visibility-modifier="PUBLIC_FIELD"><a href="Trigger.Value.html" target="_top" title="Trigger.Value.html" xlink:actuate="onRequest" xlink:href="Trigger.Value.html" xlink:show="new" xlink:title="Trigger.Value.html" xlink:type="simple"><ellipse cx="899" cy="274.4453" fill="none" rx="3" ry="3" style="stroke:#038048;stroke-width:1;"/></a></g><a href="Trigger.Value.html" target="_top" title="Trigger.Value.html" xlink:actuate="onRequest" xlink:href="Trigger.Value.html" xlink:show="new" xlink:title="Trigger.Value.html" xlink:type="simple"><text fill="#000000" font-family="sans-serif" font-size="14" lengthAdjust="spacing" text-decoration="underline" textLength="206.8076" x="908" y="277.792">SCREENING_TEST_POSITIVITY</text></a><g data-visibility-modifier="PUBLIC_FIELD"><a href="Trigger.Value.html" target="_top" title="Trigger.Value.html" xlink:actuate="onRequest" xlink:href="Trigger.Value.html" xlink:show="new" xlink:title="Trigger.Value.html" xlink:type="simple"><ellipse cx="899" cy="290.7422" fill="none" rx="3" ry="3" style="stroke:#038048;stroke-width:1;"/></a></g><a href="Trigger.Value.html" target="_top" title="Trigger.Value.html" xlink:actuate="onRequest" xlink:href="Trigger.Value.html" xlink:show="new" xlink:title="Trigger.Value.html" xlink:type="simple"><text fill="#000000" font-family="sans-serif" font-size="14" lengthAdjust="spacing" text-decoration="underline" textLength="91.9023" x="908" y="294.0889">TEST_COUNT</text></a><g data-visibility-modifier="PUBLIC_FIELD"><a href="Trigger.Value.html" target="_top" title="Trigger.Value.html" xlink:actuate="onRequest" xlink:href="Trigger.Value.html" xlink:show="new" xlink:title="Trigger.Value.html" xlink:type="simple"><ellipse cx="899" cy="307.0391" fill="none" rx="3" ry="3" style="stroke:#038048;stroke-width:1;"/></a></g><a href="Trigger.Value.html" target="_top" title="Trigger.Value.html" xlink:actuate="onRequest" xlink:href="Trigger.Value.html" xlink:show="new" xlink:title="Trigger.Value.html" xlink:type="simple"><text fill="#000000" font-family="sans-serif" font-size="14" lengthAdjust="spacing" text-decoration="underline" textLength="135.6113" x="908" y="310.3857">HOSPITAL_BURDEN</text><line style="stroke:#181818;stroke-width:0.5;" x1="889" x2="1119.8076" y1="317.6875" y2="317.6875"/></a></g><!--class ReactiveLockdown--><g class="entity" data-qualified-name="io.github.ai4ci.abm.policy..ReactiveLockdown" data-source-line="28" id="ent0006"><a href="ReactiveLockdown.html" target="_top" title="ReactiveLockdown.html" xlink:actuate="onRequest" xlink:href="ReactiveLockdown.html" xlink:show="new" xlink:title="ReactiveLockdown.html" xlink:type="simple"><rect fill="#F1F1F1" height="80.5938" rx="2.5" ry="2.5" style="stroke:#181818;stroke-width:0.5;" width="162.8398" x="923" y="113.5"/><ellipse cx="938" cy="129.5" fill="#EB937F" rx="11" ry="11" style="stroke:#181818;stroke-width:1;"/><path d="M942.1094,135.5 L934.3906,135.5 L934.3906,123.1094 L942.1094,123.1094 L942.1094,125.2656 L936.8438,125.2656 L936.8438,127.9375 L941.6094,127.9375 L941.6094,130.0938 L936.8438,130.0938 L936.8438,133.3438 L942.1094,133.3438 L942.1094,135.5 Z " fill="#000000"/><text fill="#000000" font-family="sans-serif" font-size="14" lengthAdjust="spacing" textLength="130.8398" x="952" y="134.3467">ReactiveLockdown</text><line style="stroke:#181818;stroke-width:0.5;" x1="924" x2="1084.8398" y1="145.5" y2="145.5"/></a><g data-visibility-modifier="PUBLIC_FIELD"><a href="ReactiveLockdown.html" target="_top" title="ReactiveLockdown.html" xlink:actuate="onRequest" xlink:href="ReactiveLockdown.html" xlink:show="new" xlink:title="ReactiveLockdown.html" xlink:type="simple"><ellipse cx="934" cy="159.1484" fill="none" rx="3" ry="3" style="stroke:#038048;stroke-width:1;"/></a></g><a href="ReactiveLockdown.html" target="_top" title="ReactiveLockdown.html" xlink:actuate="onRequest" xlink:href="ReactiveLockdown.html" xlink:show="new" xlink:title="ReactiveLockdown.html" xlink:type="simple"><text fill="#000000" font-family="sans-serif" font-size="14" lengthAdjust="spacing" text-decoration="underline" textLength="66.999" x="943" y="162.4951">MONITOR</text></a><g data-visibility-modifier="PUBLIC_FIELD"><a href="ReactiveLockdown.html" target="_top" title="ReactiveLockdown.html" xlink:actuate="onRequest" xlink:href="ReactiveLockdown.html" xlink:show="new" xlink:title="ReactiveLockdown.html" xlink:type="simple"><ellipse cx="934" cy="175.4453" fill="none" rx="3" ry="3" style="stroke:#038048;stroke-width:1;"/></a></g><a href="ReactiveLockdown.html" target="_top" title="ReactiveLockdown.html" xlink:actuate="onRequest" xlink:href="ReactiveLockdown.html" xlink:show="new" xlink:title="ReactiveLockdown.html" xlink:type="simple"><text fill="#000000" font-family="sans-serif" font-size="14" lengthAdjust="spacing" text-decoration="underline" textLength="83.8906" x="943" y="178.792">LOCKDOWN</text><line style="stroke:#181818;stroke-width:0.5;" x1="924" x2="1084.8398" y1="186.0938" y2="186.0938"/></a></g><!--class NoControl--><g class="entity" data-qualified-name="io.github.ai4ci.abm.policy..NoControl" data-source-line="33" id="ent0007"><a href="NoControl.html" target="_top" title="NoControl.html" xlink:actuate="onRequest" xlink:href="NoControl.html" xlink:show="new" xlink:title="NoControl.html" xlink:type="simple"><rect fill="#F1F1F1" height="64.2969" rx="2.5" ry="2.5" style="stroke:#181818;stroke-width:0.5;" width="101.9521" x="953.5" y="31"/><ellipse cx="968.5" cy="47" fill="#EB937F" rx="11" ry="11" style="stroke:#181818;stroke-width:1;"/><path d="M972.6094,53 L964.8906,53 L964.8906,40.6094 L972.6094,40.6094 L972.6094,42.7656 L967.3438,42.7656 L967.3438,45.4375 L972.1094,45.4375 L972.1094,47.5938 L967.3438,47.5938 L967.3438,50.8438 L972.6094,50.8438 L972.6094,53 Z " fill="#000000"/><text fill="#000000" font-family="sans-serif" font-size="14" lengthAdjust="spacing" textLength="69.9521" x="982.5" y="51.8467">NoControl</text><line style="stroke:#181818;stroke-width:0.5;" x1="954.5" x2="1054.4521" y1="63" y2="63"/></a><g data-visibility-modifier="PUBLIC_FIELD"><a href="NoControl.html" target="_top" title="NoControl.html" xlink:actuate="onRequest" xlink:href="NoControl.html" xlink:show="new" xlink:title="NoControl.html" xlink:type="simple"><ellipse cx="964.5" cy="76.6484" fill="none" rx="3" ry="3" style="stroke:#038048;stroke-width:1;"/></a></g><a href="NoControl.html" target="_top" title="NoControl.html" xlink:actuate="onRequest" xlink:href="NoControl.html" xlink:show="new" xlink:title="NoControl.html" xlink:type="simple"><text fill="#000000" font-family="sans-serif" font-size="14" lengthAdjust="spacing" text-decoration="underline" textLength="63.8545" x="973.5" y="79.9951">DEFAULT</text><line style="stroke:#181818;stroke-width:0.5;" x1="954.5" x2="1054.4521" y1="87.2969" y2="87.2969"/></a></g><!--class State.PolicyState--><g class="entity" data-qualified-name="io.github.ai4ci.flow.mechanics..State.PolicyState" data-source-line="40" id="ent0009"><a href="../../flow/mechanics/State.PolicyState.html" target="_top" title="../../flow/mechanics/State.PolicyState.html" xlink:actuate="onRequest" xlink:href="../../flow/mechanics/State.PolicyState.html" xlink:show="new" xlink:title="../../flow/mechanics/State.PolicyState.html" xlink:type="simple"><rect fill="#F1F1F1" height="64.2969" rx="2.5" ry="2.5" style="stroke:#181818;stroke-width:0.5;" width="151.335" x="58" y="77"/><ellipse cx="73" cy="93" fill="#B4A7E5" rx="11" ry="11" style="stroke:#181818;stroke-width:1;"/><path d="M68.9219,88.7656 L68.9219,86.6094 L76.3125,86.6094 L76.3125,88.7656 L73.8438,88.7656 L73.8438,96.8438 L76.3125,96.8438 L76.3125,99 L68.9219,99 L68.9219,96.8438 L71.3906,96.8438 L71.3906,88.7656 L68.9219,88.7656 Z " fill="#000000"/><text fill="#000000" font-family="sans-serif" font-size="14" font-style="italic" lengthAdjust="spacing" textLength="119.335" x="87" y="97.8467">State.PolicyState</text><line style="stroke:#181818;stroke-width:0.5;" x1="59" x2="208.335" y1="109" y2="109"/><line style="stroke:#181818;stroke-width:0.5;" x1="59" x2="208.335" y1="117" y2="117"/></a><g data-visibility-modifier="PUBLIC_METHOD"><a href="../../flow/mechanics/State.PolicyState.html" target="_top" title="../../flow/mechanics/State.PolicyState.html" xlink:actuate="onRequest" xlink:href="../../flow/mechanics/State.PolicyState.html" xlink:show="new" xlink:title="../../flow/mechanics/State.PolicyState.html" xlink:type="simple"><ellipse cx="69" cy="130.6484" fill="#84BE84" rx="3" ry="3" style="stroke:#038048;stroke-width:1;"/></a></g><a href="../../flow/mechanics/State.PolicyState.html" target="_top" title="../../flow/mechanics/State.PolicyState.html" xlink:actuate="onRequest" xlink:href="../../flow/mechanics/State.PolicyState.html" xlink:show="new" xlink:title="../../flow/mechanics/State.PolicyState.html" xlink:type="simple"><text fill="#000000" font-family="sans-serif" font-size="14" lengthAdjust="spacing" textLength="101.5752" x="78" y="133.9951">name(): String</text></a></g><g class="link" data-entity-1="ent0009" data-entity-2="ent0003" data-link-type="extension" id="lnk10"><polygon fill="none" points="209.3651,109,227.3651,115,227.3651,103,209.3651,109" style="stroke:#181818;stroke-width:1;"/><path d="M227.3651,109 C250.955,109 260.5507,109 289.7875,109" fill="none" style="stroke:#181818;stroke-width:1;"/></g><g class="link" data-entity-1="ent0004" data-entity-2="ent0005" data-link-type="extension" id="lnk11"><polygon fill="none" points="696.5181,275.1822,714.4373,281.4194,714.5958,269.4205,696.5181,275.1822" style="stroke:#181818;stroke-width:1;"/><path d="M714.5166,275.4199 C774.7595,276.2158 828.6366,275.9373 887.6897,275.0601" fill="none" style="stroke:#181818;stroke-width:1;stroke-dasharray:7,7;"/></g><g class="link" data-entity-1="ent0004" data-entity-2="ent0005" data-link-type="nested" id="lnk12"><ellipse cx="704.5174" cy="262.7122" fill="#FFFFFF" rx="8" ry="8" style="stroke:#181818;stroke-width:1;"/><line style="stroke:#181818;stroke-width:1;" x1="712.5167" x2="696.5181" y1="262.6065" y2="262.8178"/><line style="stroke:#181818;stroke-width:1;" x1="704.6231" x2="704.4118" y1="270.7115" y2="254.7129"/><path d="M712.5167,262.6065 C772.7597,261.8107 828.6366,262.0627 887.6897,262.9399" fill="none" style="stroke:#181818;stroke-width:1;"/></g><g class="link" data-entity-1="ent0003" data-entity-2="ent0006" data-link-type="extension" id="lnk13"><polygon fill="none" points="852.2792,138.2296,869.5597,146.0643,870.8044,134.129,852.2792,138.2296" style="stroke:#181818;stroke-width:1;"/><path d="M870.1821,140.0966 C895.4956,142.7365 901.601,143.3732 922.7243,145.5761" fill="none" style="stroke:#181818;stroke-width:1;stroke-dasharray:7,7;"/></g><g class="link" data-entity-1="ent0003" data-entity-2="ent0007" data-link-type="extension" id="lnk14"><polygon fill="none" points="852.2792,79.1209,870.8138,83.179,869.5417,71.2466,852.2792,79.1209" style="stroke:#181818;stroke-width:1;"/><path d="M870.1778,77.2128 C908.7124,73.1048 926.3236,71.2274 953.236,68.3584" fill="none" style="stroke:#181818;stroke-width:1;stroke-dasharray:7,7;"/></g><g class="footer" data-source-line="57"><text fill="#888888" font-family="sans-serif" font-size="10" lengthAdjust="spacing" textLength="3.1787" x="562.4106" y="345.2822">&#160;</text><a href="https://github.com/talsma-ict/umldoclet" target="_top" title="https://github.com/talsma-ict/umldoclet" xlink:actuate="onRequest" xlink:href="https://github.com/talsma-ict/umldoclet" xlink:show="new" xlink:title="https://github.com/talsma-ict/umldoclet" xlink:type="simple"><text fill="#888888" font-family="sans-serif" font-size="10" lengthAdjust="spacing" textLength="140.4639" x="493.7681" y="356.9229">UMLDoclet 2.2.5-SNAPSHOT</text></a></g><?plantuml-src hLLXRzis4FtUNt73FjH5OafsqYmJWW6EuZLk7Skmv1QRPmIqHDk4AL8bgQH6c_--a-Iugcid6J11W4ZTyRrtnoCF0E0r-2fRQxvOMh0Ax98R6D_qWSe45amoJIrBWATqmGpCc51oOIf71ZItIwL1pSjPhBHc9bCouN81x-aT1QDo7JD3Nhs2aYfwHB-dfeO-MnS_hrGic8M6_wOcgUsspffjjtq64HKcfT3p8x91-xwcJThaRJCST8RXTH01aWWUCsaGEvS9qwM-JaPZ_FGhop7SCMsuahZOtG0MCSTAMigbWOngQuhOXe9AMuXkaK88QK6Z4_P_5Ed-NeeyXewMD4zWf3xdsxX_oJHTe7H1rogtO59cgQIbIR1vcVOA9-6QnHOrbJQ3WHc6CgZ597jU1OP1h70lW2kou7QPpmZbfp4dT9QIJ67OQ_XQUHOFbvRfEOqP34lRZKgOWCcaDYDBcuhf55T1xJdAimJtvfeR95ytBdCkC8_74EHsfXbTXHQjnr1-RZ2lN38VCyU-MFn9qqmm_SQ3EyMJBUp3FbaHHhx03PfCDgFzShxIcR6QnlO1ZWmJcAN63qgGwv9BbN8gzl4ncQUFLEGZ5Jch4PRp0xG6mNcCf54tZ6w7GTYBUXzxqLy7l49_rEqEUeDtjo_pBxtyO3o83ZXS1-6m5tNwjvVZqLLtS32s4SFSy3lML_4gKVSImzlzzLo4Dy6W5mMZ0zP-u7-u2ZuTLZ1GnVvhLLJNTlmSvrNtpywu7-s2FZnTwdEXxadAuYMLF3OryEzbLHO5gQgy7ACgGXnyYyNETh7pa-E1uo1foXfOPQ7LUBlL1DVqFgtJytuMTV6jsNpY97jUxPpkfQZxFXwbYs-4lCInAlmNmnuz8_M_eTQlesS5xvRo_uk-hTPg5o-CNGlsntQBvqfXLUtKm_KwOxhFvSfN0Y_dNy_tMyT5yn5uDsBZYrUI6GFkJkrSE3M-3TS_SZ9PMfiPpt4sicELEhRiW4qUMoTFHLArlaDDS3hTDBLtspPRTAYcsswssf5xxfswtkbln3rldRHFpaxSloTT6plZo9_-2m00?></g></svg>