<?plantuml 1.2026.1?><svg xmlns="http://www.w3.org/2000/svg" xmlns:xlink="http://www.w3.org/1999/xlink" contentStyleType="text/css" data-diagram-type="CLASS" height="187px" preserveAspectRatio="none" style="width:384px;height:187px;background:#FFFFFF;" version="1.1" viewBox="0 0 384 187" width="384px" zoomAndPan="magnify"><defs/><g><!--class io.github.ai4ci.output.CommonCSV--><g class="entity" data-qualified-name="io.github.ai4ci.output.CommonCSV" data-source-line="14" id="ent0002"><a href="CommonCSV.html" target="_top" title="CommonCSV.html" xlink:actuate="onRequest" xlink:href="CommonCSV.html" xlink:show="new" xlink:title="CommonCSV.html" xlink:type="simple"><rect fill="#F1F1F1" height="37.9375" rx="2.5" ry="2.5" style="stroke:#181818;stroke-width:0.5;" width="139.0313" x="6" y="68"/><ellipse cx="21" cy="86.9688" fill="#B4A7E5" rx="11" ry="11" style="stroke:#181818;stroke-width:1;"/><path d="M16.9219,82.7344 L16.9219,80.5781 L24.3125,80.5781 L24.3125,82.7344 L21.8438,82.7344 L21.8438,90.8125 L24.3125,90.8125 L24.3125,92.9688 L16.9219,92.9688 L16.9219,90.8125 L19.3906,90.8125 L19.3906,82.7344 L16.9219,82.7344 Z " fill="#000000"/><text fill="#000000" font-family="sans-serif" font-size="14" font-style="italic" lengthAdjust="spacing" textLength="91.2939" x="42.8687" y="85.9951">CommonCSV</text><text fill="#000000" font-family="sans-serif" font-size="10" font-style="italic" lengthAdjust="spacing" textLength="107.0313" x="35" y="98.5791">io.github.ai4ci.output</text></a></g><!--class io.github.ai4ci.output.CommonCSV.Execution--><g class="entity" data-qualified-name="io.github.ai4ci.output.CommonCSV.Execution" data-source-line="15" id="ent0003"><a href="CommonCSV.Execution.html" target="_top" title="CommonCSV.Execution.html" xlink:actuate="onRequest" xlink:href="CommonCSV.Execution.html" xlink:show="new" xlink:title="CommonCSV.Execution.html" xlink:type="simple"><rect fill="#F1F1F1" height="37.9375" rx="2.5" ry="2.5" style="stroke:#181818;stroke-width:0.5;" width="196.876" x="181" y="12"/><ellipse cx="196" cy="30.9688" fill="#B4A7E5" rx="11" ry="11" style="stroke:#181818;stroke-width:1;"/><path d="M191.9219,26.7344 L191.9219,24.5781 L199.3125,24.5781 L199.3125,26.7344 L196.8438,26.7344 L196.8438,34.8125 L199.3125,34.8125 L199.3125,36.9688 L191.9219,36.9688 L191.9219,34.8125 L194.3906,34.8125 L194.3906,26.7344 L191.9219,26.7344 Z " fill="#000000"/><text fill="#000000" font-family="sans-serif" font-size="14" font-style="italic" lengthAdjust="spacing" textLength="164.876" x="210" y="29.9951">CommonCSV.Execution</text><text fill="#000000" font-family="sans-serif" font-size="10" font-style="italic" lengthAdjust="spacing" textLength="107.0313" x="238.9224" y="42.5791">io.github.ai4ci.output</text></a></g><!--class io.github.ai4ci.output.CommonCSV.Model--><g class="entity" data-qualified-name="io.github.ai4ci.output.CommonCSV.Model" data-source-line="16" id="ent0004"><a href="CommonCSV.Model.html" target="_top" title="CommonCSV.Model.html" xlink:actuate="onRequest" xlink:href="CommonCSV.Model.html" xlink:show="new" xlink:title="CommonCSV.Model.html" xlink:type="simple"><rect fill="#F1F1F1" height="37.9375" rx="2.5" ry="2.5" style="stroke:#181818;stroke-width:0.5;" width="169.7783" x="194.5" y="68"/><ellipse cx="209.5" cy="86.9688" fill="#B4A7E5" rx="11" ry="11" style="stroke:#181818;stroke-width:1;"/><path d="M205.4219,82.7344 L205.4219,80.5781 L212.8125,80.5781 L212.8125,82.7344 L210.3438,82.7344 L210.3438,90.8125 L212.8125,90.8125 L212.8125,92.9688 L205.4219,92.9688 L205.4219,90.8125 L207.8906,90.8125 L207.8906,82.7344 L205.4219,82.7344 Z " fill="#000000"/><text fill="#000000" font-family="sans-serif" font-size="14" font-style="italic" lengthAdjust="spacing" textLength="137.7783" x="223.5" y="85.9951">CommonCSV.Model</text><text fill="#000000" font-family="sans-serif" font-size="10" font-style="italic" lengthAdjust="spacing" textLength="107.0313" x="238.8735" y="98.5791">io.github.ai4ci.output</text></a></g><!--class io.github.ai4ci.output.CommonCSV.State--><g class="entity" data-qualified-name="io.github.ai4ci.output.CommonCSV.State" data-source-line="17" id="ent0005"><a href="CommonCSV.State.html" target="_top" title="CommonCSV.State.html" xlink:actuate="onRequest" xlink:href="CommonCSV.State.html" xlink:show="new" xlink:title="CommonCSV.State.html" xlink:type="simple"><rect fill="#F1F1F1" height="37.9375" rx="2.5" ry="2.5" style="stroke:#181818;stroke-width:0.5;" width="164.8018" x="197" y="124"/><ellipse cx="212" cy="142.9688" fill="#B4A7E5" rx="11" ry="11" style="stroke:#181818;stroke-width:1;"/><path d="M207.9219,138.7344 L207.9219,136.5781 L215.3125,136.5781 L215.3125,138.7344 L212.8438,138.7344 L212.8438,146.8125 L215.3125,146.8125 L215.3125,148.9688 L207.9219,148.9688 L207.9219,146.8125 L210.3906,146.8125 L210.3906,138.7344 L207.9219,138.7344 Z " fill="#000000"/><text fill="#000000" font-family="sans-serif" font-size="14" font-style="italic" lengthAdjust="spacing" textLength="132.8018" x="226" y="141.9951">CommonCSV.State</text><text fill="#000000" font-family="sans-serif" font-size="10" font-style="italic" lengthAdjust="spacing" textLength="107.0313" x="238.8853" y="154.5791">io.github.ai4ci.output</text></a></g><g class="link" data-entity-1="ent0002" data-entity-2="ent0003" data-link-type="nested" id="lnk6"><ellipse cx="152.8791" cy="65.8256" fill="#FFFFFF" rx="8" ry="8" style="stroke:#181818;stroke-width:1;"/><line style="stroke:#181818;stroke-width:1;" x1="160.5883" x2="145.1699" y1="63.6884" y2="67.9628"/><line style="stroke:#181818;stroke-width:1;" x1="155.0163" x2="150.7419" y1="73.5348" y2="58.1164"/><path d="M160.5883,63.6884 C181.4046,57.9175 188.8507,55.8533 209.677,50.0796" fill="none" style="stroke:#181818;stroke-width:1;"/></g><g class="link" data-entity-1="ent0002" data-entity-2="ent0004" data-link-type="nested" id="lnk7"><ellipse cx="153.1699" cy="87" fill="#FFFFFF" rx="8" ry="8" style="stroke:#181818;stroke-width:1;"/><line style="stroke:#181818;stroke-width:1;" x1="161.1699" x2="145.1699" y1="87" y2="87"/><line style="stroke:#181818;stroke-width:1;" x1="153.1699" x2="153.1699" y1="95" y2="79"/><path d="M161.1699,87 C176.9536,87 177.915,87 194.2726,87" fill="none" style="stroke:#181818;stroke-width:1;"/></g><g class="link" data-entity-1="ent0002" data-entity-2="ent0005" data-link-type="nested" id="lnk8"><ellipse cx="152.8791" cy="108.1744" fill="#FFFFFF" rx="8" ry="8" style="stroke:#181818;stroke-width:1;"/><line style="stroke:#181818;stroke-width:1;" x1="160.5883" x2="145.1699" y1="110.3116" y2="106.0372"/><line style="stroke:#181818;stroke-width:1;" x1="150.7419" x2="155.0163" y1="115.8836" y2="100.4652"/><path d="M160.5883,110.3116 C181.4046,116.0825 188.8507,118.1467 209.677,123.9204" fill="none" style="stroke:#181818;stroke-width:1;"/></g><g class="footer" data-source-line="29"><text fill="#888888" font-family="sans-serif" font-size="10" lengthAdjust="spacing" textLength="3.1787" x="186.9106" y="165.2822">&#160;</text><a href="https://github.com/talsma-ict/umldoclet" target="_top" title="https://github.com/talsma-ict/umldoclet" xlink:actuate="onRequest" xlink:href="https://github.com/talsma-ict/umldoclet" xlink:show="new" xlink:title="https://github.com/talsma-ict/umldoclet" xlink:type="simple"><text fill="#888888" font-family="sans-serif" font-size="10" lengthAdjust="spacing" textLength="140.4639" x="118.2681" y="176.9229">UMLDoclet 2.2.5-SNAPSHOT</text></a></g><?plantuml-src hPJVJzim4CVV-Ijkx06c4JSD7GE4aAeCZKrbGslPmmeFnhac5euTx0jRD-r_d-EKq4vCCAb-IVAz-7kVyuy30DY2r5HpA_E2W0nG8HrSd8s0wmnor6WvOGQov3awk4PbTExQ7n5uJOMnO6RXInXhqLL6PrBdy97VSN2cjW8TszY0a6fox_wTkoNtwtaZlZD28S5s-ce9AOdxUr4I9timuSgL73wa4xPmUvYJi8IzYSQVXkVZqyyJy4cK5AYTzwvrXZRm3Iik_6FKHdRW3gsJHll9ySAmgLaOJLng1nMtv9hQpXNNr43tMGF2-h0z78zM8UE30Ba3GwjvdS4NSrjtTR-eBCyzkk9pKnEu4ebh7a8APs7PMvzCMXJacTfvpbUcUUdNb0iSemVYv9TR6uqXNiWC0SkAvZ2Jg3Btj-eJ5SRBGPUQqCwy4smUEVaJ3_k3uzIKfT7f-EkbNcZniJGibrJKrupBWP3C8rSrROBViST3h7E1wRHxPmMLwkhgwTJiv0UAkgbwFH0FVYiudVfyi3EJeLeJLF1Q0GhAys76vA_Acc22rmfCKEvXMfgdzlfr5Ft7NgpHCopS6lr2xMtHHuxc2e_3UpDcnlWzWL-Tq8pJUOLs9FLDQfI_ZY_t7uzUD8r7IOs-wOaRZSv1tFtvkqtNMygto7MffzE2g7A7lTw2MvYoHw7xHL9GhovLrhQzVpN0nO7QWlTTYsswKnGdKJ-Pz7Vz-JbCzjdWxS7kmLuysFysFI7HkvYaLty0?></g></svg>