<?plantuml 1.2026.1?><svg xmlns="http://www.w3.org/2000/svg" xmlns:xlink="http://www.w3.org/1999/xlink" contentStyleType="text/css" data-diagram-type="CLASS" height="156px" preserveAspectRatio="none" style="width:501px;height:156px;background:#FFFFFF;" version="1.1" viewBox="0 0 501 156" width="501px" zoomAndPan="magnify"><defs/><g><!--class io.github.ai4ci.config.Scale.ScaleType--><g class="entity" data-qualified-name="io.github.ai4ci.config.Scale.ScaleType" data-source-line="14" id="ent0002"><a href="Scale.ScaleType.html" target="_top" title="Scale.ScaleType.html" xlink:actuate="onRequest" xlink:href="Scale.ScaleType.html" xlink:show="new" xlink:title="Scale.ScaleType.html" xlink:type="simple"><rect fill="#F1F1F1" height="119.125" rx="2.5" ry="2.5" style="stroke:#181818;stroke-width:0.5;" width="315.1123" x="179" y="12"/><ellipse cx="275.2466" cy="30.9688" fill="#EB937F" rx="11" ry="11" style="stroke:#181818;stroke-width:1;"/><path d="M279.356,36.9688 L271.6372,36.9688 L271.6372,24.5781 L279.356,24.5781 L279.356,26.7344 L274.0903,26.7344 L274.0903,29.4063 L278.856,29.4063 L278.856,31.5625 L274.0903,31.5625 L274.0903,34.8125 L279.356,34.8125 L279.356,36.9688 Z " fill="#000000"/><text fill="#000000" font-family="sans-serif" font-size="14" lengthAdjust="spacing" textLength="114.1191" x="295.7466" y="29.9951">Scale.ScaleType</text><text fill="#000000" font-family="sans-serif" font-size="10" lengthAdjust="spacing" textLength="104.6484" x="300.4819" y="42.5791">io.github.ai4ci.config</text><line style="stroke:#181818;stroke-width:0.5;" x1="180" x2="493.1123" y1="49.9375" y2="49.9375"/></a><g data-visibility-modifier="PUBLIC_FIELD"><a href="Scale.ScaleType.html" target="_top" title="Scale.ScaleType.html" xlink:actuate="onRequest" xlink:href="Scale.ScaleType.html" xlink:show="new" xlink:title="Scale.ScaleType.html" xlink:type="simple"><ellipse cx="190" cy="63.5859" fill="none" rx="3" ry="3" style="stroke:#038048;stroke-width:1;"/></a></g><a href="Scale.ScaleType.html" target="_top" title="Scale.ScaleType.html" xlink:actuate="onRequest" xlink:href="Scale.ScaleType.html" xlink:show="new" xlink:title="Scale.ScaleType.html" xlink:type="simple"><text fill="#000000" font-family="sans-serif" font-size="14" lengthAdjust="spacing" text-decoration="underline" textLength="41.4668" x="199" y="66.9326">ODDS</text></a><g data-visibility-modifier="PUBLIC_FIELD"><a href="Scale.ScaleType.html" target="_top" title="Scale.ScaleType.html" xlink:actuate="onRequest" xlink:href="Scale.ScaleType.html" xlink:show="new" xlink:title="Scale.ScaleType.html" xlink:type="simple"><ellipse cx="190" cy="79.8828" fill="none" rx="3" ry="3" style="stroke:#038048;stroke-width:1;"/></a></g><a href="Scale.ScaleType.html" target="_top" title="Scale.ScaleType.html" xlink:actuate="onRequest" xlink:href="Scale.ScaleType.html" xlink:show="new" xlink:title="Scale.ScaleType.html" xlink:type="simple"><text fill="#000000" font-family="sans-serif" font-size="14" lengthAdjust="spacing" text-decoration="underline" textLength="56.7041" x="199" y="83.2295">FACTOR</text></a><g data-visibility-modifier="PUBLIC_FIELD"><a href="Scale.ScaleType.html" target="_top" title="Scale.ScaleType.html" xlink:actuate="onRequest" xlink:href="Scale.ScaleType.html" xlink:show="new" xlink:title="Scale.ScaleType.html" xlink:type="simple"><ellipse cx="190" cy="96.1797" fill="none" rx="3" ry="3" style="stroke:#038048;stroke-width:1;"/></a></g><a href="Scale.ScaleType.html" target="_top" title="Scale.ScaleType.html" xlink:actuate="onRequest" xlink:href="Scale.ScaleType.html" xlink:show="new" xlink:title="Scale.ScaleType.html" xlink:type="simple"><text fill="#000000" font-family="sans-serif" font-size="14" lengthAdjust="spacing" text-decoration="underline" textLength="51.8779" x="199" y="99.5264">POWER</text><line style="stroke:#181818;stroke-width:0.5;" x1="180" x2="493.1123" y1="106.8281" y2="106.8281"/></a><g data-visibility-modifier="PUBLIC_METHOD"><a href="Scale.ScaleType.html" target="_top" title="Scale.ScaleType.html" xlink:actuate="onRequest" xlink:href="Scale.ScaleType.html" xlink:show="new" xlink:title="Scale.ScaleType.html" xlink:type="simple"><ellipse cx="190" cy="120.4766" fill="#84BE84" rx="3" ry="3" style="stroke:#038048;stroke-width:1;"/></a></g><a href="Scale.ScaleType.html" target="_top" title="Scale.ScaleType.html" xlink:actuate="onRequest" xlink:href="Scale.ScaleType.html" xlink:show="new" xlink:title="Scale.ScaleType.html" xlink:type="simple"><text fill="#000000" font-family="sans-serif" font-size="14" lengthAdjust="spacing" text-decoration="underline" textLength="289.1123" x="199" y="123.8232">scale(double, double, ScaleType): double</text></a></g><!--class io.github.ai4ci.config.Scale--><g class="entity" data-qualified-name="io.github.ai4ci.config.Scale" data-source-line="21" id="ent0003"><a href="Scale.html" target="_top" title="Scale.html" xlink:actuate="onRequest" xlink:href="Scale.html" xlink:show="new" xlink:title="Scale.html" xlink:type="simple"><rect fill="#F1F1F1" height="37.9375" rx="2.5" ry="2.5" style="stroke:#181818;stroke-width:0.5;" width="136.6484" x="6" y="52.5"/><ellipse cx="21" cy="71.4688" fill="#E3664A" rx="11" ry="11" style="stroke:#181818;stroke-width:1;"/><path d="M23.0781,71.9375 Q23.0781,71 22.6563,70.4688 Q22.2344,69.9375 21.4844,69.9375 Q20.75,69.9375 20.3281,70.4688 Q19.9219,71 19.9219,71.9375 Q19.9219,72.8906 20.3281,73.4219 Q20.75,73.9531 21.4844,73.9531 Q22.2344,73.9531 22.6563,73.4219 Q23.0781,72.8906 23.0781,71.9375 Z M24.625,75.3438 L23,75.3438 L23,74.6719 Q22.6719,75.1094 22.25,75.3125 Q21.8281,75.5156 21.2188,75.5156 Q19.8594,75.5156 19.0313,74.5469 Q18.2031,73.5625 18.2031,71.9375 Q18.2031,70.3438 19.0313,69.375 Q19.8594,68.3906 21.2188,68.3906 Q21.8125,68.3906 22.2656,68.5938 Q22.7188,68.7969 23,69.1875 L23,68.8438 Q23,67.7188 22.375,67.1094 Q21.75,66.4844 20.6094,66.4844 Q18.8906,66.4844 17.7969,68.0156 Q16.7031,69.5313 16.7031,71.9688 Q16.7031,74.5156 17.9531,76.0156 Q19.2188,77.5156 21.3281,77.5156 Q21.9844,77.5156 22.6094,77.3281 Q23.2344,77.1406 23.8125,76.75 L24.5781,78.2031 Q23.9063,78.6563 23.1094,78.875 Q22.3125,79.1094 21.4063,79.1094 Q18.5,79.1094 16.7656,77.1719 Q15.0469,75.25 15.0469,71.9688 Q15.0469,68.75 16.5938,66.8281 Q18.1563,64.8906 20.7188,64.8906 Q22.5156,64.8906 23.5625,65.9844 Q24.625,67.0781 24.625,68.9531 L24.625,75.3438 Z " fill="#000000"/><text fill="#000000" font-family="sans-serif" font-size="14" lengthAdjust="spacing" textLength="37.666" x="68.4912" y="70.4951">Scale</text><text fill="#000000" font-family="sans-serif" font-size="10" lengthAdjust="spacing" textLength="104.6484" x="35" y="83.0791">io.github.ai4ci.config</text></a></g><g class="link" data-entity-1="ent0003" data-entity-2="ent0002" data-link-type="nested" id="lnk4"><ellipse cx="151.1332" cy="71.5" fill="#FFFFFF" rx="8" ry="8" style="stroke:#181818;stroke-width:1;"/><line style="stroke:#181818;stroke-width:1;" x1="159.1332" x2="143.1332" y1="71.5" y2="71.5"/><line style="stroke:#181818;stroke-width:1;" x1="151.1332" x2="151.1332" y1="79.5" y2="63.5"/><path d="M159.1332,71.5 C170.4179,71.5 166.5243,71.5 178.9695,71.5" fill="none" style="stroke:#181818;stroke-width:1;"/></g><g class="footer" data-source-line="31"><text fill="#888888" font-family="sans-serif" font-size="10" lengthAdjust="spacing" textLength="3.1787" x="244.9106" y="134.2822">&#160;</text><a href="https://github.com/talsma-ict/umldoclet" target="_top" title="https://github.com/talsma-ict/umldoclet" xlink:actuate="onRequest" xlink:href="https://github.com/talsma-ict/umldoclet" xlink:show="new" xlink:title="https://github.com/talsma-ict/umldoclet" xlink:type="simple"><text fill="#888888" font-family="sans-serif" font-size="10" lengthAdjust="spacing" textLength="140.4639" x="176.2681" y="145.9229">UMLDoclet 2.2.5-SNAPSHOT</text></a></g><?plantuml-src fLJlJzim4FtENt5Z7rO4STFmGxH2bQgMZKtTYcZGf9L-S9rhOk7OcNrXwX3_-voa55PrqwJvGwAyyxrxz-mB0C0x69fYPMMQ4P01ogI3syzZu3g153LQJfY0p7cA3XQeZ4vTin61bvGP2sPPVmbZBRh2w4Jg53xn1mxEb5QWOtjxK9UAdzb_SFUAVR6gm94H2WbQmuDNagAmSnP4ONG6CLSkv_1n6BCrsqjEn29s6ao_3AwdLvCOV14b1MhdkKkTeAtr3Gek_6lSH8xW0QsJHllaS4rOzIoC9YwrWu9RSbLlrufhgaHtM2M4TQ0rc8v_5nbsQv57CB2QbmdScE_bfkytXUMfbwxuofG4BaVYcjSXXSlQzeOdaHO5UKrDdlETQPvxJxd0ANf1dBpTscYiuvbC430lQ0LBYIfnswWlb1aFrpZgCeVz2oT_OgzpqfyAhf3LptXLu9rUHyA-D2oLb9KBnkM9aCmxifJfFlWZsnrYMrmmcsqXBADSpUVmM2kfrgCZJb8ymU5aD9hkWDyFXl7aPaVWUlBrSXVkgcAjn9GBvG_t-RsHSD1ROtNgK-C9rzfK-VuMR3dp_tviN6XwRmh-DU4m2FxHuORimj5AON_ZnT8OydVznUHgNVdjTYpr_T0eVtdUdk-EtbPZegH6FwBYNgDp46vsFZNbsg_ghMlTwTai8ofShzrUwnOcRrCzgu4Kr2vpbJH3-gTnzTuqu_TXyqEePYa8ew0JnPrZVmQzw9oT7qVTyFIas_qskoJHles7yry0?></g></svg>